G04*
G04 #@! TF.GenerationSoftware,Altium Limited,Altium Designer,20.0.11 (256)*
G04*
G04 Layer_Color=32896*
%FSLAX25Y25*%
%MOIN*%
G70*
G01*
G75*
%ADD10C,0.00787*%
%ADD13C,0.00394*%
%ADD14C,0.00600*%
%ADD15C,0.00500*%
%ADD16C,0.01000*%
%ADD18C,0.00598*%
%ADD85C,0.01968*%
G36*
X210671Y114330D02*
Y112122D01*
X212880Y114330D01*
X210671D01*
D02*
G37*
G36*
X436024Y154609D02*
Y158546D01*
X432087Y154609D01*
X436024D01*
D02*
G37*
G36*
X139950Y154468D02*
X140017Y154457D01*
X140073Y154446D01*
X140122Y154435D01*
X140156Y154424D01*
X140183Y154418D01*
X140189Y154413D01*
X140256Y154385D01*
X140317Y154357D01*
X140367Y154324D01*
X140411Y154296D01*
X140450Y154268D01*
X140478Y154246D01*
X140494Y154230D01*
X140500Y154224D01*
X140544Y154174D01*
X140583Y154124D01*
X140622Y154074D01*
X140650Y154024D01*
X140672Y153980D01*
X140689Y153946D01*
X140694Y153924D01*
X140700Y153913D01*
X140727Y153841D01*
X140744Y153769D01*
X140761Y153697D01*
X140766Y153630D01*
X140772Y153575D01*
X140777Y153525D01*
Y153397D01*
X140766Y153314D01*
X140761Y153236D01*
X140750Y153170D01*
X140738Y153114D01*
X140727Y153075D01*
X140722Y153047D01*
X140716Y153036D01*
X140694Y152964D01*
X140672Y152892D01*
X140644Y152831D01*
X140622Y152781D01*
X140605Y152737D01*
X140589Y152703D01*
X140578Y152681D01*
X140572Y152676D01*
X140672Y152681D01*
X140755Y152692D01*
X140827Y152709D01*
X140894Y152720D01*
X140955Y152742D01*
X141005Y152753D01*
X141038Y152770D01*
X141066Y152776D01*
X141071Y152781D01*
X141138Y152814D01*
X141199Y152848D01*
X141249Y152886D01*
X141294Y152920D01*
X141332Y152953D01*
X141360Y152981D01*
X141377Y152998D01*
X141382Y153003D01*
X141427Y153059D01*
X141466Y153120D01*
X141504Y153181D01*
X141532Y153236D01*
X141554Y153286D01*
X141571Y153331D01*
X141577Y153353D01*
X141582Y153364D01*
X141604Y153447D01*
X141627Y153536D01*
X141638Y153619D01*
X141643Y153697D01*
X141649Y153769D01*
X141654Y153819D01*
Y154224D01*
X142032D01*
Y153897D01*
X142026Y153774D01*
X142021Y153664D01*
X142009Y153564D01*
X141998Y153480D01*
X141982Y153408D01*
X141971Y153353D01*
X141965Y153319D01*
X141960Y153314D01*
Y153308D01*
X141932Y153219D01*
X141904Y153136D01*
X141871Y153059D01*
X141837Y152998D01*
X141810Y152942D01*
X141788Y152903D01*
X141771Y152881D01*
X141765Y152870D01*
X141715Y152803D01*
X141665Y152742D01*
X141621Y152692D01*
X141571Y152648D01*
X141532Y152609D01*
X141499Y152581D01*
X141477Y152565D01*
X141471Y152559D01*
X141338Y152476D01*
X141277Y152443D01*
X141216Y152415D01*
X141166Y152392D01*
X141121Y152376D01*
X141099Y152365D01*
X141088Y152359D01*
X140933Y152315D01*
X140861Y152293D01*
X140794Y152281D01*
X140733Y152270D01*
X140689Y152259D01*
X140661Y152254D01*
X140650D01*
X140478Y152237D01*
X140394Y152232D01*
X140322D01*
X140256Y152226D01*
X140211D01*
X140178D01*
X140172D01*
X140167D01*
X140034Y152232D01*
X139912Y152237D01*
X139801Y152248D01*
X139706Y152265D01*
X139629Y152276D01*
X139573Y152287D01*
X139551Y152293D01*
X139534D01*
X139529Y152298D01*
X139523D01*
X139423Y152326D01*
X139340Y152359D01*
X139262Y152398D01*
X139196Y152431D01*
X139146Y152459D01*
X139107Y152487D01*
X139085Y152504D01*
X139074Y152509D01*
X139013Y152565D01*
X138957Y152620D01*
X138913Y152681D01*
X138874Y152731D01*
X138846Y152781D01*
X138824Y152820D01*
X138813Y152842D01*
X138807Y152853D01*
X138779Y152936D01*
X138757Y153020D01*
X138746Y153097D01*
X138735Y153175D01*
X138729Y153242D01*
X138724Y153292D01*
Y153336D01*
X138729Y153430D01*
X138735Y153519D01*
X138752Y153597D01*
X138768Y153664D01*
X138779Y153725D01*
X138796Y153763D01*
X138802Y153791D01*
X138807Y153802D01*
X138840Y153880D01*
X138879Y153946D01*
X138918Y154008D01*
X138951Y154063D01*
X138985Y154102D01*
X139013Y154135D01*
X139029Y154157D01*
X139035Y154163D01*
X139090Y154218D01*
X139151Y154263D01*
X139207Y154302D01*
X139257Y154335D01*
X139307Y154363D01*
X139340Y154379D01*
X139362Y154391D01*
X139373Y154396D01*
X139451Y154424D01*
X139523Y154446D01*
X139595Y154457D01*
X139662Y154468D01*
X139717Y154474D01*
X139762Y154479D01*
X139789D01*
X139801D01*
X139878D01*
X139950Y154468D01*
D02*
G37*
G36*
Y151654D02*
X140017Y151643D01*
X140073Y151632D01*
X140122Y151621D01*
X140156Y151610D01*
X140183Y151604D01*
X140189Y151599D01*
X140256Y151571D01*
X140317Y151543D01*
X140367Y151510D01*
X140411Y151482D01*
X140450Y151455D01*
X140478Y151432D01*
X140494Y151416D01*
X140500Y151410D01*
X140544Y151360D01*
X140583Y151310D01*
X140622Y151260D01*
X140650Y151210D01*
X140672Y151166D01*
X140689Y151133D01*
X140694Y151110D01*
X140700Y151099D01*
X140727Y151027D01*
X140744Y150955D01*
X140761Y150883D01*
X140766Y150816D01*
X140772Y150761D01*
X140777Y150711D01*
Y150583D01*
X140766Y150500D01*
X140761Y150422D01*
X140750Y150356D01*
X140738Y150300D01*
X140727Y150261D01*
X140722Y150234D01*
X140716Y150223D01*
X140694Y150150D01*
X140672Y150078D01*
X140644Y150017D01*
X140622Y149967D01*
X140605Y149923D01*
X140589Y149890D01*
X140578Y149867D01*
X140572Y149862D01*
X140672Y149867D01*
X140755Y149878D01*
X140827Y149895D01*
X140894Y149906D01*
X140955Y149928D01*
X141005Y149939D01*
X141038Y149956D01*
X141066Y149962D01*
X141071Y149967D01*
X141138Y150001D01*
X141199Y150034D01*
X141249Y150073D01*
X141294Y150106D01*
X141332Y150139D01*
X141360Y150167D01*
X141377Y150184D01*
X141382Y150189D01*
X141427Y150245D01*
X141466Y150306D01*
X141504Y150367D01*
X141532Y150422D01*
X141554Y150472D01*
X141571Y150517D01*
X141577Y150539D01*
X141582Y150550D01*
X141604Y150633D01*
X141627Y150722D01*
X141638Y150805D01*
X141643Y150883D01*
X141649Y150955D01*
X141654Y151005D01*
Y151410D01*
X142032D01*
Y151083D01*
X142026Y150961D01*
X142021Y150850D01*
X142009Y150750D01*
X141998Y150666D01*
X141982Y150594D01*
X141971Y150539D01*
X141965Y150505D01*
X141960Y150500D01*
Y150494D01*
X141932Y150406D01*
X141904Y150322D01*
X141871Y150245D01*
X141837Y150184D01*
X141810Y150128D01*
X141788Y150089D01*
X141771Y150067D01*
X141765Y150056D01*
X141715Y149989D01*
X141665Y149928D01*
X141621Y149878D01*
X141571Y149834D01*
X141532Y149795D01*
X141499Y149767D01*
X141477Y149751D01*
X141471Y149745D01*
X141338Y149662D01*
X141277Y149629D01*
X141216Y149601D01*
X141166Y149579D01*
X141121Y149562D01*
X141099Y149551D01*
X141088Y149545D01*
X140933Y149501D01*
X140861Y149479D01*
X140794Y149468D01*
X140733Y149457D01*
X140689Y149445D01*
X140661Y149440D01*
X140650D01*
X140478Y149423D01*
X140394Y149418D01*
X140322D01*
X140256Y149412D01*
X140211D01*
X140178D01*
X140172D01*
X140167D01*
X140034Y149418D01*
X139912Y149423D01*
X139801Y149434D01*
X139706Y149451D01*
X139629Y149462D01*
X139573Y149473D01*
X139551Y149479D01*
X139534D01*
X139529Y149484D01*
X139523D01*
X139423Y149512D01*
X139340Y149545D01*
X139262Y149584D01*
X139196Y149618D01*
X139146Y149645D01*
X139107Y149673D01*
X139085Y149690D01*
X139074Y149695D01*
X139013Y149751D01*
X138957Y149806D01*
X138913Y149867D01*
X138874Y149917D01*
X138846Y149967D01*
X138824Y150006D01*
X138813Y150028D01*
X138807Y150039D01*
X138779Y150123D01*
X138757Y150206D01*
X138746Y150284D01*
X138735Y150361D01*
X138729Y150428D01*
X138724Y150478D01*
Y150522D01*
X138729Y150617D01*
X138735Y150705D01*
X138752Y150783D01*
X138768Y150850D01*
X138779Y150911D01*
X138796Y150950D01*
X138802Y150977D01*
X138807Y150988D01*
X138840Y151066D01*
X138879Y151133D01*
X138918Y151194D01*
X138951Y151249D01*
X138985Y151288D01*
X139013Y151321D01*
X139029Y151344D01*
X139035Y151349D01*
X139090Y151405D01*
X139151Y151449D01*
X139207Y151488D01*
X139257Y151521D01*
X139307Y151549D01*
X139340Y151566D01*
X139362Y151577D01*
X139373Y151582D01*
X139451Y151610D01*
X139523Y151632D01*
X139595Y151643D01*
X139662Y151654D01*
X139717Y151660D01*
X139762Y151665D01*
X139789D01*
X139801D01*
X139878D01*
X139950Y151654D01*
D02*
G37*
G36*
X141971Y148641D02*
X141993Y148580D01*
X142009Y148524D01*
X142021Y148474D01*
X142032Y148435D01*
X142037Y148413D01*
Y148402D01*
X142059Y148252D01*
X142065Y148186D01*
X142070Y148119D01*
X142076Y148064D01*
Y147980D01*
X142070Y147858D01*
X142059Y147742D01*
X142037Y147636D01*
X142015Y147547D01*
X141993Y147475D01*
X141971Y147420D01*
X141965Y147397D01*
X141960Y147381D01*
X141954Y147375D01*
Y147370D01*
X141904Y147275D01*
X141849Y147187D01*
X141793Y147109D01*
X141737Y147042D01*
X141688Y146987D01*
X141649Y146942D01*
X141621Y146920D01*
X141610Y146909D01*
X141527Y146843D01*
X141432Y146787D01*
X141343Y146737D01*
X141260Y146693D01*
X141182Y146665D01*
X141127Y146637D01*
X141105Y146632D01*
X141088Y146626D01*
X141077Y146621D01*
X141071D01*
X140949Y146587D01*
X140827Y146565D01*
X140705Y146543D01*
X140600Y146532D01*
X140505Y146526D01*
X140461D01*
X140428Y146521D01*
X140400D01*
X140378D01*
X140367D01*
X140361D01*
X140217Y146526D01*
X140078Y146537D01*
X139950Y146554D01*
X139828Y146576D01*
X139723Y146604D01*
X139623Y146637D01*
X139529Y146670D01*
X139451Y146704D01*
X139379Y146737D01*
X139312Y146770D01*
X139262Y146804D01*
X139218Y146831D01*
X139184Y146854D01*
X139162Y146870D01*
X139146Y146881D01*
X139140Y146887D01*
X139068Y146959D01*
X139007Y147042D01*
X138951Y147126D01*
X138901Y147209D01*
X138863Y147298D01*
X138829Y147386D01*
X138802Y147475D01*
X138779Y147558D01*
X138763Y147642D01*
X138752Y147714D01*
X138741Y147781D01*
X138735Y147836D01*
Y147886D01*
X138729Y147925D01*
Y147952D01*
X138735Y148114D01*
X138757Y148263D01*
X138779Y148402D01*
X138813Y148530D01*
X138824Y148585D01*
X138840Y148630D01*
X138851Y148674D01*
X138868Y148713D01*
X138874Y148741D01*
X138885Y148763D01*
X138890Y148774D01*
Y148779D01*
X139312D01*
X139251Y148641D01*
X139229Y148580D01*
X139212Y148524D01*
X139196Y148474D01*
X139184Y148435D01*
X139173Y148413D01*
Y148402D01*
X139146Y148258D01*
X139140Y148191D01*
X139135Y148130D01*
X139129Y148080D01*
Y148003D01*
X139135Y147914D01*
X139146Y147825D01*
X139157Y147747D01*
X139179Y147675D01*
X139201Y147608D01*
X139229Y147542D01*
X139262Y147486D01*
X139290Y147436D01*
X139318Y147392D01*
X139351Y147353D01*
X139379Y147320D01*
X139401Y147298D01*
X139423Y147275D01*
X139440Y147259D01*
X139445Y147253D01*
X139451Y147248D01*
X139517Y147203D01*
X139584Y147164D01*
X139734Y147098D01*
X139895Y147053D01*
X140050Y147026D01*
X140122Y147015D01*
X140189Y147003D01*
X140250Y146998D01*
X140300D01*
X140345Y146992D01*
X140378D01*
X140400D01*
X140405D01*
X140516Y146998D01*
X140616Y147003D01*
X140705Y147015D01*
X140783Y147026D01*
X140849Y147037D01*
X140900Y147048D01*
X140927Y147059D01*
X140938D01*
X141022Y147087D01*
X141099Y147120D01*
X141171Y147153D01*
X141227Y147187D01*
X141277Y147214D01*
X141310Y147237D01*
X141332Y147253D01*
X141338Y147259D01*
X141399Y147309D01*
X141449Y147364D01*
X141493Y147420D01*
X141527Y147470D01*
X141554Y147509D01*
X141577Y147547D01*
X141588Y147570D01*
X141593Y147575D01*
X141621Y147647D01*
X141643Y147719D01*
X141660Y147792D01*
X141671Y147853D01*
X141676Y147908D01*
X141682Y147952D01*
Y148075D01*
X141671Y148152D01*
X141665Y148224D01*
X141654Y148285D01*
X141643Y148336D01*
X141638Y148374D01*
X141627Y148397D01*
Y148408D01*
X141582Y148546D01*
X141560Y148607D01*
X141538Y148663D01*
X141516Y148713D01*
X141499Y148746D01*
X141488Y148774D01*
X141482Y148779D01*
X141921D01*
X141971Y148641D01*
D02*
G37*
%LPC*%
G36*
X139828Y154024D02*
X139801D01*
X139778D01*
X139773D01*
X139712D01*
X139656Y154019D01*
X139606Y154008D01*
X139562Y154002D01*
X139529Y153991D01*
X139501Y153980D01*
X139484Y153974D01*
X139479D01*
X139390Y153930D01*
X139351Y153908D01*
X139318Y153885D01*
X139295Y153869D01*
X139273Y153852D01*
X139262Y153841D01*
X139257Y153835D01*
X139201Y153769D01*
X139157Y153702D01*
X139140Y153675D01*
X139135Y153652D01*
X139123Y153636D01*
Y153630D01*
X139096Y153541D01*
X139085Y153458D01*
X139079Y153419D01*
Y153369D01*
X139085Y153253D01*
X139096Y153203D01*
X139107Y153158D01*
X139112Y153120D01*
X139123Y153092D01*
X139129Y153075D01*
Y153070D01*
X139151Y153025D01*
X139179Y152981D01*
X139212Y152947D01*
X139240Y152914D01*
X139268Y152886D01*
X139290Y152870D01*
X139307Y152859D01*
X139312Y152853D01*
X139368Y152820D01*
X139423Y152798D01*
X139484Y152770D01*
X139540Y152753D01*
X139584Y152737D01*
X139629Y152731D01*
X139651Y152720D01*
X139662D01*
X139745Y152703D01*
X139839Y152692D01*
X139928Y152687D01*
X140012Y152681D01*
X140089Y152676D01*
X140145D01*
X140167D01*
X140183D01*
X140195D01*
X140200D01*
X140234Y152726D01*
X140261Y152776D01*
X140278Y152814D01*
X140283Y152820D01*
Y152825D01*
X140311Y152892D01*
X140339Y152953D01*
X140345Y152975D01*
X140350Y152992D01*
X140356Y153003D01*
Y153009D01*
X140378Y153081D01*
X140394Y153136D01*
X140400Y153164D01*
Y153181D01*
X140405Y153192D01*
Y153197D01*
X140417Y153269D01*
X140428Y153331D01*
Y153453D01*
X140422Y153508D01*
X140411Y153552D01*
X140405Y153597D01*
X140394Y153630D01*
X140383Y153652D01*
X140378Y153669D01*
Y153675D01*
X140339Y153752D01*
X140300Y153813D01*
X140278Y153835D01*
X140267Y153858D01*
X140256Y153863D01*
X140250Y153869D01*
X140183Y153919D01*
X140117Y153958D01*
X140089Y153969D01*
X140067Y153980D01*
X140050Y153985D01*
X140045D01*
X139950Y154008D01*
X139906Y154013D01*
X139862Y154019D01*
X139828Y154024D01*
D02*
G37*
G36*
Y151210D02*
X139801D01*
X139778D01*
X139773D01*
X139712D01*
X139656Y151205D01*
X139606Y151194D01*
X139562Y151188D01*
X139529Y151177D01*
X139501Y151166D01*
X139484Y151160D01*
X139479D01*
X139390Y151116D01*
X139351Y151094D01*
X139318Y151072D01*
X139295Y151055D01*
X139273Y151038D01*
X139262Y151027D01*
X139257Y151022D01*
X139201Y150955D01*
X139157Y150889D01*
X139140Y150861D01*
X139135Y150838D01*
X139123Y150822D01*
Y150816D01*
X139096Y150727D01*
X139085Y150644D01*
X139079Y150605D01*
Y150556D01*
X139085Y150439D01*
X139096Y150389D01*
X139107Y150345D01*
X139112Y150306D01*
X139123Y150278D01*
X139129Y150261D01*
Y150256D01*
X139151Y150211D01*
X139179Y150167D01*
X139212Y150134D01*
X139240Y150100D01*
X139268Y150073D01*
X139290Y150056D01*
X139307Y150045D01*
X139312Y150039D01*
X139368Y150006D01*
X139423Y149984D01*
X139484Y149956D01*
X139540Y149939D01*
X139584Y149923D01*
X139629Y149917D01*
X139651Y149906D01*
X139662D01*
X139745Y149890D01*
X139839Y149878D01*
X139928Y149873D01*
X140012Y149867D01*
X140089Y149862D01*
X140145D01*
X140167D01*
X140183D01*
X140195D01*
X140200D01*
X140234Y149912D01*
X140261Y149962D01*
X140278Y150001D01*
X140283Y150006D01*
Y150012D01*
X140311Y150078D01*
X140339Y150139D01*
X140345Y150161D01*
X140350Y150178D01*
X140356Y150189D01*
Y150195D01*
X140378Y150267D01*
X140394Y150322D01*
X140400Y150350D01*
Y150367D01*
X140405Y150378D01*
Y150383D01*
X140417Y150456D01*
X140428Y150517D01*
Y150639D01*
X140422Y150694D01*
X140411Y150739D01*
X140405Y150783D01*
X140394Y150816D01*
X140383Y150838D01*
X140378Y150855D01*
Y150861D01*
X140339Y150938D01*
X140300Y150999D01*
X140278Y151022D01*
X140267Y151044D01*
X140256Y151049D01*
X140250Y151055D01*
X140183Y151105D01*
X140117Y151144D01*
X140089Y151155D01*
X140067Y151166D01*
X140050Y151172D01*
X140045D01*
X139950Y151194D01*
X139906Y151199D01*
X139862Y151205D01*
X139828Y151210D01*
D02*
G37*
%LPD*%
D10*
X130450Y147244D02*
Y152756D01*
X136750Y147244D02*
Y152756D01*
X423404Y114453D02*
Y121146D01*
X436396Y114453D02*
Y121146D01*
X312605Y78740D02*
Y90551D01*
X325400Y78740D02*
Y90551D01*
X245676Y78740D02*
Y90551D01*
X258471Y78740D02*
Y90551D01*
X400001Y136735D02*
X408662D01*
X400001Y113034D02*
X408662D01*
X145791Y100360D02*
Y100950D01*
X157209Y100360D02*
Y100950D01*
X145791Y107249D02*
Y107840D01*
X157209Y107249D02*
Y107840D01*
X145791Y100360D02*
X157209D01*
X145791Y107840D02*
X157209D01*
X409647Y154609D02*
X436024D01*
X409647D02*
Y169176D01*
X436024D01*
Y154609D02*
Y169176D01*
D13*
X300584Y138978D02*
G03*
X300584Y138978I-197J0D01*
G01*
X422372Y132415D02*
G03*
X422372Y132415I-197J0D01*
G01*
X158980Y107249D02*
G03*
X158980Y107249I-197J0D01*
G01*
D14*
X260735Y62205D02*
X269002Y53937D01*
X260735Y62205D02*
Y95669D01*
X294199Y53937D02*
X302467Y62205D01*
Y95669D01*
X260735D02*
X276483D01*
X269002Y53937D02*
X276483D01*
X286719Y95669D02*
X302467D01*
X286719Y53937D02*
X294199D01*
X271758Y76772D02*
X291443D01*
X271758Y72835D02*
X291443D01*
X281601Y66929D02*
Y72835D01*
Y76772D02*
Y82677D01*
X390262Y62205D02*
X398530Y53937D01*
X390262Y62205D02*
Y95669D01*
X423727Y53937D02*
X431994Y62205D01*
Y95669D01*
X390262D02*
X406010D01*
X398530Y53937D02*
X406010D01*
X416247Y95669D02*
X431994D01*
X416247Y53937D02*
X423727D01*
X401286Y76772D02*
X420971D01*
X401286Y72835D02*
X420971D01*
X411128Y66929D02*
Y72835D01*
Y76772D02*
Y82677D01*
X146561Y62205D02*
X154829Y53937D01*
X146561Y62205D02*
Y95669D01*
X180026Y53937D02*
X188294Y62205D01*
Y95669D01*
X146561D02*
X162309D01*
X154829Y53937D02*
X162309D01*
X172546Y95669D02*
X188294D01*
X172546Y53937D02*
X180026D01*
X157585Y76772D02*
X177270D01*
X157585Y72835D02*
X177270D01*
X167428Y66929D02*
Y72835D01*
Y76772D02*
Y82677D01*
X189868Y62205D02*
X198136Y53937D01*
X189868Y62205D02*
Y95669D01*
X223333Y53937D02*
X231601Y62205D01*
Y95669D01*
X189868D02*
X205616D01*
X198136Y53937D02*
X205616D01*
X215853Y95669D02*
X231601D01*
X215853Y53937D02*
X223333D01*
X200892Y76772D02*
X220577D01*
X200892Y72835D02*
X220577D01*
X210735Y66929D02*
Y72835D01*
Y76772D02*
Y82677D01*
X327664Y62205D02*
X335931Y53937D01*
X327664Y62205D02*
Y95669D01*
X361128Y53937D02*
X369396Y62205D01*
Y95669D01*
X327664D02*
X343412D01*
X335931Y53937D02*
X343412D01*
X353648Y95669D02*
X369396D01*
X353648Y53937D02*
X361128D01*
X338687Y76772D02*
X358372D01*
X338687Y72835D02*
X358372D01*
X348530Y66929D02*
Y72835D01*
Y76772D02*
Y82677D01*
X403140Y102464D02*
X403806Y103131D01*
X405139D01*
X405805Y102464D01*
Y99799D01*
X405139Y99132D01*
X403806D01*
X403140Y99799D01*
X399141Y103131D02*
X400474Y102464D01*
X401807Y101132D01*
Y99799D01*
X401140Y99132D01*
X399808D01*
X399141Y99799D01*
Y100465D01*
X399808Y101132D01*
X401807D01*
X397808Y102464D02*
X397142Y103131D01*
X395809D01*
X395142Y102464D01*
Y99799D01*
X395809Y99132D01*
X397142D01*
X397808Y99799D01*
Y102464D01*
X389434Y183032D02*
X390101Y183699D01*
X391434D01*
X392100Y183032D01*
Y180366D01*
X391434Y179700D01*
X390101D01*
X389434Y180366D01*
X388101Y179700D02*
X386768D01*
X387435D01*
Y183699D01*
X388101Y183032D01*
X384769Y180366D02*
X384103Y179700D01*
X382770D01*
X382103Y180366D01*
Y183032D01*
X382770Y183699D01*
X384103D01*
X384769Y183032D01*
Y182366D01*
X384103Y181699D01*
X382103D01*
X196134Y120632D02*
X196801Y121299D01*
X198134D01*
X198800Y120632D01*
Y117966D01*
X198134Y117300D01*
X196801D01*
X196134Y117966D01*
X192136Y121299D02*
X193468Y120632D01*
X194801Y119299D01*
Y117966D01*
X194135Y117300D01*
X192802D01*
X192136Y117966D01*
Y118633D01*
X192802Y119299D01*
X194801D01*
X188137Y121299D02*
X190803D01*
Y119299D01*
X189470Y119966D01*
X188803D01*
X188137Y119299D01*
Y117966D01*
X188803Y117300D01*
X190136D01*
X190803Y117966D01*
X211600Y136900D02*
X215599D01*
Y138899D01*
X214932Y139566D01*
X213599D01*
X212933Y138899D01*
Y136900D01*
Y138233D02*
X211600Y139566D01*
X215599Y143564D02*
Y140899D01*
X213599D01*
X214266Y142232D01*
Y142898D01*
X213599Y143564D01*
X212266D01*
X211600Y142898D01*
Y141565D01*
X212266Y140899D01*
X214932Y144897D02*
X215599Y145564D01*
Y146897D01*
X214932Y147563D01*
X212266D01*
X211600Y146897D01*
Y145564D01*
X212266Y144897D01*
X214932D01*
X257191Y101968D02*
Y105967D01*
X255192D01*
X254525Y105301D01*
Y103968D01*
X255192Y103301D01*
X257191D01*
X255858D02*
X254525Y101968D01*
X250527D02*
X253193D01*
X250527Y104634D01*
Y105301D01*
X251193Y105967D01*
X252526D01*
X253193Y105301D01*
X249194D02*
X248528Y105967D01*
X247195D01*
X246528Y105301D01*
Y104634D01*
X247195Y103968D01*
X246528Y103301D01*
Y102635D01*
X247195Y101968D01*
X248528D01*
X249194Y102635D01*
Y103301D01*
X248528Y103968D01*
X249194Y104634D01*
Y105301D01*
X248528Y103968D02*
X247195D01*
X324120Y101968D02*
Y105967D01*
X322121D01*
X321455Y105301D01*
Y103968D01*
X322121Y103301D01*
X324120D01*
X322788D02*
X321455Y101968D01*
X317456D02*
X320122D01*
X317456Y104634D01*
Y105301D01*
X318122Y105967D01*
X319455D01*
X320122Y105301D01*
X316123Y105967D02*
X313457D01*
Y105301D01*
X316123Y102635D01*
Y101968D01*
X369686Y165435D02*
X373685D01*
Y167435D01*
X373018Y168101D01*
X371685D01*
X371019Y167435D01*
Y165435D01*
Y166768D02*
X369686Y168101D01*
Y172100D02*
Y169434D01*
X372352Y172100D01*
X373018D01*
X373685Y171433D01*
Y170100D01*
X373018Y169434D01*
X369686Y173433D02*
Y174766D01*
Y174099D01*
X373685D01*
X373018Y173433D01*
X395400Y164700D02*
X399399D01*
Y166699D01*
X398732Y167366D01*
X397399D01*
X396733Y166699D01*
Y164700D01*
Y166033D02*
X395400Y167366D01*
Y171364D02*
Y168699D01*
X398066Y171364D01*
X398732D01*
X399399Y170698D01*
Y169365D01*
X398732Y168699D01*
Y172697D02*
X399399Y173364D01*
Y174697D01*
X398732Y175363D01*
X396066D01*
X395400Y174697D01*
Y173364D01*
X396066Y172697D01*
X398732D01*
X381000Y165500D02*
X384999D01*
Y167499D01*
X384332Y168166D01*
X382999D01*
X382333Y167499D01*
Y165500D01*
Y166833D02*
X381000Y168166D01*
Y169499D02*
Y170832D01*
Y170165D01*
X384999D01*
X384332Y169499D01*
X384999Y175497D02*
X384332Y174164D01*
X382999Y172831D01*
X381666D01*
X381000Y173497D01*
Y174830D01*
X381666Y175497D01*
X382333D01*
X382999Y174830D01*
Y172831D01*
X405200Y141400D02*
X409199D01*
Y143399D01*
X408532Y144066D01*
X407199D01*
X406533Y143399D01*
Y141400D01*
Y142733D02*
X405200Y144066D01*
Y145399D02*
Y146732D01*
Y146065D01*
X409199D01*
X408532Y145399D01*
X409199Y151397D02*
Y148731D01*
X407199D01*
X407866Y150064D01*
Y150730D01*
X407199Y151397D01*
X405866D01*
X405200Y150730D01*
Y149397D01*
X405866Y148731D01*
X393308Y153231D02*
X397307D01*
Y155230D01*
X396640Y155896D01*
X395307D01*
X394641Y155230D01*
Y153231D01*
Y154564D02*
X393308Y155896D01*
Y157229D02*
Y158562D01*
Y157896D01*
X397307D01*
X396640Y157229D01*
X393308Y162561D02*
X397307D01*
X395307Y160562D01*
Y163227D01*
X326600Y137300D02*
Y141299D01*
X324601D01*
X323934Y140632D01*
Y139299D01*
X324601Y138633D01*
X326600D01*
X325267D02*
X323934Y137300D01*
X322601D02*
X321268D01*
X321935D01*
Y141299D01*
X322601Y140632D01*
X319269D02*
X318603Y141299D01*
X317270D01*
X316603Y140632D01*
Y139966D01*
X317270Y139299D01*
X317936D01*
X317270D01*
X316603Y138633D01*
Y137966D01*
X317270Y137300D01*
X318603D01*
X319269Y137966D01*
X367324Y168191D02*
Y172190D01*
X365324D01*
X364658Y171524D01*
Y170191D01*
X365324Y169524D01*
X367324D01*
X365991D02*
X364658Y168191D01*
X363325D02*
X361992D01*
X362659D01*
Y172190D01*
X363325Y171524D01*
X359993Y168191D02*
X358660D01*
X359326D01*
Y172190D01*
X359993Y171524D01*
X355119Y168280D02*
Y172278D01*
X353120D01*
X352453Y171612D01*
Y170279D01*
X353120Y169612D01*
X355119D01*
X353786D02*
X352453Y168280D01*
X351120D02*
X349787D01*
X350454D01*
Y172278D01*
X351120Y171612D01*
X347788D02*
X347122Y172278D01*
X345789D01*
X345122Y171612D01*
Y168946D01*
X345789Y168280D01*
X347122D01*
X347788Y168946D01*
Y171612D01*
X341339Y168191D02*
Y172190D01*
X339340D01*
X338674Y171524D01*
Y170191D01*
X339340Y169524D01*
X341339D01*
X340006D02*
X338674Y168191D01*
X337341Y168858D02*
X336674Y168191D01*
X335341D01*
X334675Y168858D01*
Y171524D01*
X335341Y172190D01*
X336674D01*
X337341Y171524D01*
Y170857D01*
X336674Y170191D01*
X334675D01*
X239143Y158543D02*
Y162542D01*
X237144D01*
X236477Y161875D01*
Y160543D01*
X237144Y159876D01*
X239143D01*
X237810D02*
X236477Y158543D01*
X235145Y161875D02*
X234478Y162542D01*
X233145D01*
X232479Y161875D01*
Y161209D01*
X233145Y160543D01*
X232479Y159876D01*
Y159210D01*
X233145Y158543D01*
X234478D01*
X235145Y159210D01*
Y159876D01*
X234478Y160543D01*
X235145Y161209D01*
Y161875D01*
X234478Y160543D02*
X233145D01*
X217700Y136800D02*
X221699D01*
Y138799D01*
X221032Y139466D01*
X219699D01*
X219033Y138799D01*
Y136800D01*
Y138133D02*
X217700Y139466D01*
X221699Y140799D02*
Y143465D01*
X221032D01*
X218366Y140799D01*
X217700D01*
X143947Y115450D02*
Y119448D01*
X141947D01*
X141281Y118782D01*
Y117449D01*
X141947Y116782D01*
X143947D01*
X142614D02*
X141281Y115450D01*
X137282Y119448D02*
X138615Y118782D01*
X139948Y117449D01*
Y116116D01*
X139281Y115450D01*
X137948D01*
X137282Y116116D01*
Y116782D01*
X137948Y117449D01*
X139948D01*
X207600Y153500D02*
X211599D01*
Y155499D01*
X210932Y156166D01*
X209599D01*
X208933Y155499D01*
Y153500D01*
Y154833D02*
X207600Y156166D01*
X211599Y160164D02*
Y157499D01*
X209599D01*
X210266Y158832D01*
Y159498D01*
X209599Y160164D01*
X208266D01*
X207600Y159498D01*
Y158165D01*
X208266Y157499D01*
X192168Y33380D02*
X188170D01*
Y31380D01*
X188836Y30714D01*
X190169D01*
X190836Y31380D01*
Y33380D01*
Y32047D02*
X192168Y30714D01*
X188836Y29381D02*
X188170Y28714D01*
Y27381D01*
X188836Y26715D01*
X189503D01*
X190169Y27381D01*
Y28048D01*
Y27381D01*
X190836Y26715D01*
X191502D01*
X192168Y27381D01*
Y28714D01*
X191502Y29381D01*
X200062Y36079D02*
X196063D01*
Y34080D01*
X196730Y33414D01*
X198063D01*
X198729Y34080D01*
Y36079D01*
Y34747D02*
X200062Y33414D01*
Y32081D02*
Y30748D01*
Y31414D01*
X196063D01*
X196730Y32081D01*
X135346Y98848D02*
X136012Y98181D01*
Y96848D01*
X135346Y96182D01*
X132680D01*
X132013Y96848D01*
Y98181D01*
X132680Y98848D01*
X136012Y102846D02*
X135346Y101514D01*
X134013Y100181D01*
X132680D01*
X132013Y100847D01*
Y102180D01*
X132680Y102846D01*
X133346D01*
X134013Y102180D01*
Y100181D01*
X132013Y104179D02*
Y105512D01*
Y104846D01*
X136012D01*
X135346Y104179D01*
X237774Y124911D02*
X238440Y124245D01*
Y122912D01*
X237774Y122246D01*
X235108D01*
X234442Y122912D01*
Y124245D01*
X235108Y124911D01*
X238440Y128910D02*
Y126244D01*
X236441D01*
X237107Y127577D01*
Y128244D01*
X236441Y128910D01*
X235108D01*
X234442Y128244D01*
Y126911D01*
X235108Y126244D01*
X237774Y130243D02*
X238440Y130910D01*
Y132242D01*
X237774Y132909D01*
X237107D01*
X236441Y132242D01*
X235775Y132909D01*
X235108D01*
X234442Y132242D01*
Y130910D01*
X235108Y130243D01*
X235775D01*
X236441Y130910D01*
X237107Y130243D01*
X237774D01*
X236441Y130910D02*
Y132242D01*
X329711Y127944D02*
X330377Y127277D01*
Y125944D01*
X329711Y125278D01*
X327045D01*
X326379Y125944D01*
Y127277D01*
X327045Y127944D01*
X326379Y131276D02*
X330377D01*
X328378Y129277D01*
Y131942D01*
X326379Y133275D02*
Y134608D01*
Y133942D01*
X330377D01*
X329711Y133275D01*
X387295Y84556D02*
X387962Y83889D01*
Y82556D01*
X387295Y81890D01*
X384629D01*
X383963Y82556D01*
Y83889D01*
X384629Y84556D01*
X383963Y87888D02*
X387962D01*
X385962Y85888D01*
Y88554D01*
X387295Y89887D02*
X387962Y90554D01*
Y91887D01*
X387295Y92553D01*
X384629D01*
X383963Y91887D01*
Y90554D01*
X384629Y89887D01*
X387295D01*
X332861Y149597D02*
X333527Y148931D01*
Y147598D01*
X332861Y146931D01*
X330195D01*
X329528Y147598D01*
Y148931D01*
X330195Y149597D01*
X332861Y150930D02*
X333527Y151597D01*
Y152929D01*
X332861Y153596D01*
X332194D01*
X331528Y152929D01*
Y152263D01*
Y152929D01*
X330861Y153596D01*
X330195D01*
X329528Y152929D01*
Y151597D01*
X330195Y150930D01*
X333527Y154929D02*
Y157595D01*
X332861D01*
X330195Y154929D01*
X329528D01*
X344534Y122632D02*
X345201Y123299D01*
X346534D01*
X347200Y122632D01*
Y119966D01*
X346534Y119300D01*
X345201D01*
X344534Y119966D01*
X343201Y122632D02*
X342535Y123299D01*
X341202D01*
X340535Y122632D01*
Y121966D01*
X341202Y121299D01*
X341868D01*
X341202D01*
X340535Y120633D01*
Y119966D01*
X341202Y119300D01*
X342535D01*
X343201Y119966D01*
X336537Y123299D02*
X337870Y122632D01*
X339203Y121299D01*
Y119966D01*
X338536Y119300D01*
X337203D01*
X336537Y119966D01*
Y120633D01*
X337203Y121299D01*
X339203D01*
X352334Y163532D02*
X353001Y164199D01*
X354334D01*
X355000Y163532D01*
Y160866D01*
X354334Y160200D01*
X353001D01*
X352334Y160866D01*
X351001Y163532D02*
X350335Y164199D01*
X349002D01*
X348336Y163532D01*
Y162866D01*
X349002Y162199D01*
X349668D01*
X349002D01*
X348336Y161533D01*
Y160866D01*
X349002Y160200D01*
X350335D01*
X351001Y160866D01*
X344337Y164199D02*
X347003D01*
Y162199D01*
X345670Y162866D01*
X345003D01*
X344337Y162199D01*
Y160866D01*
X345003Y160200D01*
X346336D01*
X347003Y160866D01*
X356783Y122468D02*
X357449Y123135D01*
X358782D01*
X359449Y122468D01*
Y119802D01*
X358782Y119136D01*
X357449D01*
X356783Y119802D01*
X355450Y122468D02*
X354784Y123135D01*
X353451D01*
X352784Y122468D01*
Y121802D01*
X353451Y121135D01*
X354117D01*
X353451D01*
X352784Y120469D01*
Y119802D01*
X353451Y119136D01*
X354784D01*
X355450Y119802D01*
X349452Y119136D02*
Y123135D01*
X351451Y121135D01*
X348785D01*
X365839Y152626D02*
X366505Y153292D01*
X367838D01*
X368505Y152626D01*
Y149960D01*
X367838Y149294D01*
X366505D01*
X365839Y149960D01*
X364506Y152626D02*
X363840Y153292D01*
X362507D01*
X361840Y152626D01*
Y151959D01*
X362507Y151293D01*
X363173D01*
X362507D01*
X361840Y150627D01*
Y149960D01*
X362507Y149294D01*
X363840D01*
X364506Y149960D01*
X360507Y152626D02*
X359841Y153292D01*
X358508D01*
X357841Y152626D01*
Y151959D01*
X358508Y151293D01*
X359174D01*
X358508D01*
X357841Y150627D01*
Y149960D01*
X358508Y149294D01*
X359841D01*
X360507Y149960D01*
X348932Y138766D02*
X349599Y138099D01*
Y136766D01*
X348932Y136100D01*
X346266D01*
X345600Y136766D01*
Y138099D01*
X346266Y138766D01*
X348932Y140099D02*
X349599Y140765D01*
Y142098D01*
X348932Y142764D01*
X348266D01*
X347599Y142098D01*
Y141432D01*
Y142098D01*
X346933Y142764D01*
X346266D01*
X345600Y142098D01*
Y140765D01*
X346266Y140099D01*
X345600Y146763D02*
Y144097D01*
X348266Y146763D01*
X348932D01*
X349599Y146097D01*
Y144764D01*
X348932Y144097D01*
X364264Y110894D02*
X364931Y111560D01*
X366264D01*
X366930Y110894D01*
Y108228D01*
X366264Y107561D01*
X364931D01*
X364264Y108228D01*
X362931Y110894D02*
X362265Y111560D01*
X360932D01*
X360265Y110894D01*
Y110227D01*
X360932Y109561D01*
X361598D01*
X360932D01*
X360265Y108894D01*
Y108228D01*
X360932Y107561D01*
X362265D01*
X362931Y108228D01*
X358932Y107561D02*
X357600D01*
X358266D01*
Y111560D01*
X358932Y110894D01*
X371744Y121917D02*
X372411Y122584D01*
X373744D01*
X374410Y121917D01*
Y119251D01*
X373744Y118585D01*
X372411D01*
X371744Y119251D01*
X370411Y121917D02*
X369745Y122584D01*
X368412D01*
X367746Y121917D01*
Y121251D01*
X368412Y120584D01*
X369079D01*
X368412D01*
X367746Y119918D01*
Y119251D01*
X368412Y118585D01*
X369745D01*
X370411Y119251D01*
X366413Y121917D02*
X365746Y122584D01*
X364413D01*
X363747Y121917D01*
Y119251D01*
X364413Y118585D01*
X365746D01*
X366413Y119251D01*
Y121917D01*
X433034Y100832D02*
X433701Y101499D01*
X435034D01*
X435700Y100832D01*
Y98166D01*
X435034Y97500D01*
X433701D01*
X433034Y98166D01*
X429036Y97500D02*
X431701D01*
X429036Y100166D01*
Y100832D01*
X429702Y101499D01*
X431035D01*
X431701Y100832D01*
X427703Y98166D02*
X427036Y97500D01*
X425703D01*
X425037Y98166D01*
Y100832D01*
X425703Y101499D01*
X427036D01*
X427703Y100832D01*
Y100166D01*
X427036Y99499D01*
X425037D01*
X384343Y121917D02*
X385009Y122584D01*
X386342D01*
X387009Y121917D01*
Y119251D01*
X386342Y118585D01*
X385009D01*
X384343Y119251D01*
X380344Y118585D02*
X383010D01*
X380344Y121251D01*
Y121917D01*
X381011Y122584D01*
X382344D01*
X383010Y121917D01*
X379011D02*
X378345Y122584D01*
X377012D01*
X376345Y121917D01*
Y121251D01*
X377012Y120584D01*
X376345Y119918D01*
Y119251D01*
X377012Y118585D01*
X378345D01*
X379011Y119251D01*
Y119918D01*
X378345Y120584D01*
X379011Y121251D01*
Y121917D01*
X378345Y120584D02*
X377012D01*
X391128Y142511D02*
X391795Y141844D01*
Y140511D01*
X391128Y139845D01*
X388462D01*
X387796Y140511D01*
Y141844D01*
X388462Y142511D01*
X387796Y146509D02*
Y143843D01*
X390462Y146509D01*
X391128D01*
X391795Y145843D01*
Y144510D01*
X391128Y143843D01*
X391795Y147842D02*
Y150508D01*
X391128D01*
X388462Y147842D01*
X387796D01*
X385524Y132941D02*
X386190Y133607D01*
X387523D01*
X388190Y132941D01*
Y130275D01*
X387523Y129609D01*
X386190D01*
X385524Y130275D01*
X381525Y129609D02*
X384191D01*
X381525Y132274D01*
Y132941D01*
X382192Y133607D01*
X383525D01*
X384191Y132941D01*
X377526Y133607D02*
X380192D01*
Y131608D01*
X378859Y132274D01*
X378193D01*
X377526Y131608D01*
Y130275D01*
X378193Y129609D01*
X379526D01*
X380192Y130275D01*
X384933Y156563D02*
X385600Y157229D01*
X386933D01*
X387599Y156563D01*
Y153897D01*
X386933Y153231D01*
X385600D01*
X384933Y153897D01*
X380935Y153231D02*
X383600D01*
X380935Y155896D01*
Y156563D01*
X381601Y157229D01*
X382934D01*
X383600Y156563D01*
X377602Y153231D02*
Y157229D01*
X379602Y155230D01*
X376936D01*
X243286Y124911D02*
X243952Y124245D01*
Y122912D01*
X243286Y122246D01*
X240620D01*
X239953Y122912D01*
Y124245D01*
X240620Y124911D01*
X239953Y128910D02*
Y126244D01*
X242619Y128910D01*
X243286D01*
X243952Y128244D01*
Y126911D01*
X243286Y126244D01*
Y130243D02*
X243952Y130910D01*
Y132242D01*
X243286Y132909D01*
X242619D01*
X241953Y132242D01*
Y131576D01*
Y132242D01*
X241286Y132909D01*
X240620D01*
X239953Y132242D01*
Y130910D01*
X240620Y130243D01*
X229434Y147532D02*
X230101Y148199D01*
X231434D01*
X232100Y147532D01*
Y144866D01*
X231434Y144200D01*
X230101D01*
X229434Y144866D01*
X225435Y144200D02*
X228101D01*
X225435Y146866D01*
Y147532D01*
X226102Y148199D01*
X227435D01*
X228101Y147532D01*
X221437Y144200D02*
X224103D01*
X221437Y146866D01*
Y147532D01*
X222103Y148199D01*
X223436D01*
X224103Y147532D01*
X235732Y110066D02*
X236399Y109399D01*
Y108066D01*
X235732Y107400D01*
X233066D01*
X232400Y108066D01*
Y109399D01*
X233066Y110066D01*
X232400Y114065D02*
Y111399D01*
X235066Y114065D01*
X235732D01*
X236399Y113398D01*
Y112065D01*
X235732Y111399D01*
X232400Y115397D02*
Y116730D01*
Y116064D01*
X236399D01*
X235732Y115397D01*
X200952Y178165D02*
X201619Y178831D01*
X202952D01*
X203618Y178165D01*
Y175499D01*
X202952Y174832D01*
X201619D01*
X200952Y175499D01*
X196954Y174832D02*
X199619D01*
X196954Y177498D01*
Y178165D01*
X197620Y178831D01*
X198953D01*
X199619Y178165D01*
X195621D02*
X194954Y178831D01*
X193621D01*
X192955Y178165D01*
Y175499D01*
X193621Y174832D01*
X194954D01*
X195621Y175499D01*
Y178165D01*
X273994Y154045D02*
X274661Y153379D01*
Y152046D01*
X273994Y151380D01*
X271329D01*
X270662Y152046D01*
Y153379D01*
X271329Y154045D01*
X270662Y155378D02*
Y156711D01*
Y156045D01*
X274661D01*
X273994Y155378D01*
Y158710D02*
X274661Y159377D01*
Y160710D01*
X273994Y161376D01*
X271329D01*
X270662Y160710D01*
Y159377D01*
X271329Y158710D01*
X273994D01*
X262577Y128455D02*
X263244Y127788D01*
Y126455D01*
X262577Y125789D01*
X259911D01*
X259245Y126455D01*
Y127788D01*
X259911Y128455D01*
Y129788D02*
X259245Y130454D01*
Y131787D01*
X259911Y132453D01*
X262577D01*
X263244Y131787D01*
Y130454D01*
X262577Y129788D01*
X261911D01*
X261244Y130454D01*
Y132453D01*
X250766Y128455D02*
X251433Y127788D01*
Y126455D01*
X250766Y125789D01*
X248100D01*
X247434Y126455D01*
Y127788D01*
X248100Y128455D01*
X250766Y129788D02*
X251433Y130454D01*
Y131787D01*
X250766Y132453D01*
X250100D01*
X249433Y131787D01*
X248767Y132453D01*
X248100D01*
X247434Y131787D01*
Y130454D01*
X248100Y129788D01*
X248767D01*
X249433Y130454D01*
X250100Y129788D01*
X250766D01*
X249433Y130454D02*
Y131787D01*
X268483Y159163D02*
X269149Y158497D01*
Y157164D01*
X268483Y156498D01*
X265817D01*
X265150Y157164D01*
Y158497D01*
X265817Y159163D01*
X269149Y160496D02*
Y163162D01*
X268483D01*
X265817Y160496D01*
X265150D01*
X251160Y158770D02*
X251826Y158103D01*
Y156770D01*
X251160Y156104D01*
X248494D01*
X247828Y156770D01*
Y158103D01*
X248494Y158770D01*
X251826Y162768D02*
X251160Y161435D01*
X249827Y160103D01*
X248494D01*
X247828Y160769D01*
Y162102D01*
X248494Y162768D01*
X249161D01*
X249827Y162102D01*
Y160103D01*
X256632Y128566D02*
X257299Y127899D01*
Y126566D01*
X256632Y125900D01*
X253966D01*
X253300Y126566D01*
Y127899D01*
X253966Y128566D01*
X257299Y132564D02*
Y129899D01*
X255299D01*
X255966Y131232D01*
Y131898D01*
X255299Y132564D01*
X253966D01*
X253300Y131898D01*
Y130565D01*
X253966Y129899D01*
X268876Y128455D02*
X269543Y127788D01*
Y126455D01*
X268876Y125789D01*
X266211D01*
X265544Y126455D01*
Y127788D01*
X266211Y128455D01*
X265544Y131787D02*
X269543D01*
X267543Y129788D01*
Y132453D01*
X262183Y158770D02*
X262850Y158103D01*
Y156770D01*
X262183Y156104D01*
X259518D01*
X258851Y156770D01*
Y158103D01*
X259518Y158770D01*
X262183Y160103D02*
X262850Y160769D01*
Y162102D01*
X262183Y162768D01*
X261517D01*
X260851Y162102D01*
Y161435D01*
Y162102D01*
X260184Y162768D01*
X259518D01*
X258851Y162102D01*
Y160769D01*
X259518Y160103D01*
X256672Y158770D02*
X257338Y158103D01*
Y156770D01*
X256672Y156104D01*
X254006D01*
X253339Y156770D01*
Y158103D01*
X254006Y158770D01*
X253339Y162768D02*
Y160103D01*
X256005Y162768D01*
X256672D01*
X257338Y162102D01*
Y160769D01*
X256672Y160103D01*
X230132Y129166D02*
X230799Y128499D01*
Y127166D01*
X230132Y126500D01*
X227466D01*
X226800Y127166D01*
Y128499D01*
X227466Y129166D01*
X226800Y130499D02*
Y131832D01*
Y131165D01*
X230799D01*
X230132Y130499D01*
D15*
X140000Y110700D02*
X141200D01*
X140000Y113900D02*
X141200D01*
X228200Y184300D02*
X229400D01*
X228200Y181100D02*
X229400D01*
X212900Y184300D02*
X214100D01*
X212900Y181100D02*
X214100D01*
X193735Y107666D02*
X198065D01*
Y110816D01*
Y112784D02*
Y115934D01*
X193735D02*
X198065D01*
X193735Y112784D02*
Y115934D01*
Y107666D02*
Y110816D01*
X332900Y142000D02*
X334100D01*
X332900Y138800D02*
X334100D01*
X210671Y110330D02*
Y114330D01*
Y110330D02*
X221301Y110330D01*
Y114330D01*
X210671Y114330D02*
X221301Y114330D01*
X316400Y153100D02*
X317600D01*
X316400Y149900D02*
X317600D01*
X316000Y159600D02*
X317200D01*
X316000Y156400D02*
X317200D01*
X403175Y145938D02*
Y147138D01*
X399975Y145938D02*
Y147138D01*
X396876Y145938D02*
Y147138D01*
X393676Y145938D02*
Y147138D01*
X390183Y169560D02*
Y170760D01*
X386983Y169560D02*
Y170760D01*
X401800Y165100D02*
Y166300D01*
X405000Y165100D02*
Y166300D01*
X375172Y169560D02*
Y170760D01*
X378372Y169560D02*
Y170760D01*
X362393Y174465D02*
X363593D01*
X362393Y177665D02*
X363593D01*
X349795Y174554D02*
X350994D01*
X349795Y177753D02*
X350994D01*
X337196Y174465D02*
X338396D01*
X337196Y177665D02*
X338396D01*
X235000Y156600D02*
X236200D01*
X235000Y153400D02*
X236200D01*
X211800Y129700D02*
Y130900D01*
X215000Y129700D02*
Y130900D01*
X221700Y129700D02*
Y130900D01*
X218500Y129700D02*
Y130900D01*
X196100Y21700D02*
Y22900D01*
X199300Y21700D02*
X199300Y22900D01*
X188600Y19000D02*
Y20200D01*
X191800Y19000D02*
Y20200D01*
X202600Y156147D02*
Y157347D01*
X205800Y156147D02*
Y157347D01*
X429475Y134480D02*
X430675Y134480D01*
X429475Y137680D02*
X430675Y137680D01*
D16*
X298136Y55905D02*
X302860D01*
X300498Y53543D02*
Y58268D01*
X262703Y53543D02*
Y58268D01*
X260341Y55905D02*
X265065D01*
X427664Y55906D02*
X432388D01*
X430026Y53543D02*
Y58268D01*
X392231Y53543D02*
Y58268D01*
X389868Y55906D02*
X394593D01*
X183963Y55905D02*
X188687D01*
X186325Y53543D02*
Y58268D01*
X148530Y53543D02*
Y58268D01*
X146168Y55905D02*
X150892D01*
X227270D02*
X231995D01*
X229632Y53543D02*
Y58268D01*
X191837Y53543D02*
Y58268D01*
X189475Y55905D02*
X194199D01*
X365065D02*
X369790D01*
X367427Y53543D02*
Y58268D01*
X329632Y53543D02*
Y58268D01*
X327270Y55905D02*
X331995D01*
X226300Y103298D02*
Y98300D01*
X225300Y97300D01*
X223301D01*
X222301Y98300D01*
Y103298D01*
X220302Y102298D02*
X219302Y103298D01*
X217303D01*
X216303Y102298D01*
Y101299D01*
X217303Y100299D01*
X216303Y99299D01*
Y98300D01*
X217303Y97300D01*
X219302D01*
X220302Y98300D01*
Y99299D01*
X219302Y100299D01*
X220302Y101299D01*
Y102298D01*
X219302Y100299D02*
X217303D01*
X296253Y159346D02*
X292254Y153348D01*
Y159346D02*
X296253Y153348D01*
X290255Y159346D02*
X286256D01*
X288255D01*
Y153348D01*
X284257D02*
X282257D01*
X283257D01*
Y159346D01*
X284257Y158346D01*
X434500Y166798D02*
Y161800D01*
X433500Y160800D01*
X431501D01*
X430501Y161800D01*
Y166798D01*
X428502Y165798D02*
X427502Y166798D01*
X425503D01*
X424503Y165798D01*
Y164799D01*
X425503Y163799D01*
X426503D01*
X425503D01*
X424503Y162799D01*
Y161800D01*
X425503Y160800D01*
X427502D01*
X428502Y161800D01*
X418500Y110398D02*
Y104400D01*
X414501D01*
X408503D02*
X412502D01*
X408503Y108399D01*
Y109398D01*
X409503Y110398D01*
X411502D01*
X412502Y109398D01*
X156618Y115296D02*
Y109298D01*
X153619D01*
X152619Y110298D01*
Y114297D01*
X153619Y115296D01*
X156618D01*
X146621Y109298D02*
X150620D01*
X146621Y113297D01*
Y114297D01*
X147621Y115296D01*
X149620D01*
X150620Y114297D01*
D18*
X192100Y109300D02*
Y113299D01*
X190101D01*
X189434Y112632D01*
Y111299D01*
X190101Y110633D01*
X192100D01*
X190767D02*
X189434Y109300D01*
X186102D02*
Y113299D01*
X188101Y111299D01*
X185435D01*
X184103Y109966D02*
X183436Y109300D01*
X182103D01*
X181437Y109966D01*
Y112632D01*
X182103Y113299D01*
X183436D01*
X184103Y112632D01*
Y111966D01*
X183436Y111299D01*
X181437D01*
X322300Y143900D02*
Y147899D01*
X320301D01*
X319634Y147232D01*
Y145899D01*
X320301Y145233D01*
X322300D01*
X320967D02*
X319634Y143900D01*
X315635D02*
X318301D01*
X315635Y146566D01*
Y147232D01*
X316302Y147899D01*
X317635D01*
X318301Y147232D01*
X314303Y144566D02*
X313636Y143900D01*
X312303D01*
X311637Y144566D01*
Y147232D01*
X312303Y147899D01*
X313636D01*
X314303Y147232D01*
Y146566D01*
X313636Y145899D01*
X311637D01*
X321100Y161200D02*
Y165199D01*
X319101D01*
X318434Y164532D01*
Y163199D01*
X319101Y162533D01*
X321100D01*
X319767D02*
X318434Y161200D01*
X314436D02*
X317101D01*
X314436Y163866D01*
Y164532D01*
X315102Y165199D01*
X316435D01*
X317101Y164532D01*
X310437Y165199D02*
X311770Y164532D01*
X313103Y163199D01*
Y161866D01*
X312436Y161200D01*
X311103D01*
X310437Y161866D01*
Y162533D01*
X311103Y163199D01*
X313103D01*
X280334Y181232D02*
X281001Y181899D01*
X282334D01*
X283000Y181232D01*
Y178566D01*
X282334Y177900D01*
X281001D01*
X280334Y178566D01*
X279001Y181232D02*
X278335Y181899D01*
X277002D01*
X276336Y181232D01*
Y180566D01*
X277002Y179899D01*
X277668D01*
X277002D01*
X276336Y179233D01*
Y178566D01*
X277002Y177900D01*
X278335D01*
X279001Y178566D01*
X275003D02*
X274336Y177900D01*
X273003D01*
X272337Y178566D01*
Y181232D01*
X273003Y181899D01*
X274336D01*
X275003Y181232D01*
Y180566D01*
X274336Y179899D01*
X272337D01*
X280234Y186832D02*
X280901Y187499D01*
X282234D01*
X282900Y186832D01*
Y184166D01*
X282234Y183500D01*
X280901D01*
X280234Y184166D01*
X278901Y186832D02*
X278235Y187499D01*
X276902D01*
X276236Y186832D01*
Y186166D01*
X276902Y185499D01*
X277568D01*
X276902D01*
X276236Y184833D01*
Y184166D01*
X276902Y183500D01*
X278235D01*
X278901Y184166D01*
X274903Y186832D02*
X274236Y187499D01*
X272903D01*
X272237Y186832D01*
Y186166D01*
X272903Y185499D01*
X272237Y184833D01*
Y184166D01*
X272903Y183500D01*
X274236D01*
X274903Y184166D01*
Y184833D01*
X274236Y185499D01*
X274903Y186166D01*
Y186832D01*
X274236Y185499D02*
X272903D01*
X232300Y174900D02*
Y178899D01*
X230301D01*
X229634Y178232D01*
Y176899D01*
X230301Y176233D01*
X232300D01*
X230967D02*
X229634Y174900D01*
X226302D02*
Y178899D01*
X228301Y176899D01*
X225636D01*
X216700Y175300D02*
Y179299D01*
X214701D01*
X214034Y178632D01*
Y177299D01*
X214701Y176633D01*
X216700D01*
X215367D02*
X214034Y175300D01*
X210035D02*
X212701D01*
X210035Y177966D01*
Y178632D01*
X210702Y179299D01*
X212035D01*
X212701Y178632D01*
X435700Y139100D02*
Y143099D01*
X433701D01*
X433034Y142432D01*
Y141099D01*
X433701Y140433D01*
X435700D01*
X434367D02*
X433034Y139100D01*
X429036Y143099D02*
X431701D01*
Y141099D01*
X430368Y141766D01*
X429702D01*
X429036Y141099D01*
Y139766D01*
X429702Y139100D01*
X431035D01*
X431701Y139766D01*
X427703Y142432D02*
X427036Y143099D01*
X425703D01*
X425037Y142432D01*
Y141766D01*
X425703Y141099D01*
X425037Y140433D01*
Y139766D01*
X425703Y139100D01*
X427036D01*
X427703Y139766D01*
Y140433D01*
X427036Y141099D01*
X427703Y141766D01*
Y142432D01*
X427036Y141099D02*
X425703D01*
D85*
X212220Y121268D02*
X212239Y121287D01*
X212258Y121268D01*
X212239Y121250D01*
X212220Y121268D01*
M02*
