G04*
G04 #@! TF.GenerationSoftware,Altium Limited,Altium Designer,20.0.11 (256)*
G04*
G04 Layer_Color=8388736*
%FSLAX25Y25*%
%MOIN*%
G70*
G01*
G75*
%ADD34R,0.03543X0.01181*%
G04:AMPARAMS|DCode=45|XSize=51.31mil|YSize=63.12mil|CornerRadius=14.83mil|HoleSize=0mil|Usage=FLASHONLY|Rotation=90.000|XOffset=0mil|YOffset=0mil|HoleType=Round|Shape=RoundedRectangle|*
%AMROUNDEDRECTD45*
21,1,0.05131,0.03347,0,0,90.0*
21,1,0.02165,0.06312,0,0,90.0*
1,1,0.02965,0.01673,0.01083*
1,1,0.02965,0.01673,-0.01083*
1,1,0.02965,-0.01673,-0.01083*
1,1,0.02965,-0.01673,0.01083*
%
%ADD45ROUNDEDRECTD45*%
%ADD46R,0.09068X0.04737*%
%ADD47O,0.01981X0.06312*%
%ADD48R,0.25800X0.15013*%
%ADD49R,0.02375X0.07690*%
G04:AMPARAMS|DCode=50|XSize=59.18mil|YSize=94.61mil|CornerRadius=16.8mil|HoleSize=0mil|Usage=FLASHONLY|Rotation=0.000|XOffset=0mil|YOffset=0mil|HoleType=Round|Shape=RoundedRectangle|*
%AMROUNDEDRECTD50*
21,1,0.05918,0.06102,0,0,0.0*
21,1,0.02559,0.09461,0,0,0.0*
1,1,0.03359,0.01280,-0.03051*
1,1,0.03359,-0.01280,-0.03051*
1,1,0.03359,-0.01280,0.03051*
1,1,0.03359,0.01280,0.03051*
%
%ADD50ROUNDEDRECTD50*%
%ADD51R,0.06410X0.10642*%
%ADD52R,0.07099X0.06548*%
%ADD53R,0.07985X0.03556*%
%ADD54R,0.09803X0.11811*%
%ADD55O,0.06509X0.03162*%
%ADD56C,0.01784*%
%ADD57R,0.07493X0.04737*%
%ADD58R,0.04147X0.03556*%
%ADD59R,0.09252X0.17126*%
%ADD60R,0.05118X0.03347*%
%ADD61R,0.06496X0.19095*%
G04:AMPARAMS|DCode=62|XSize=47.37mil|YSize=43.43mil|CornerRadius=8.43mil|HoleSize=0mil|Usage=FLASHONLY|Rotation=90.000|XOffset=0mil|YOffset=0mil|HoleType=Round|Shape=RoundedRectangle|*
%AMROUNDEDRECTD62*
21,1,0.04737,0.02657,0,0,90.0*
21,1,0.03051,0.04343,0,0,90.0*
1,1,0.01686,0.01329,0.01526*
1,1,0.01686,0.01329,-0.01526*
1,1,0.01686,-0.01329,-0.01526*
1,1,0.01686,-0.01329,0.01526*
%
%ADD62ROUNDEDRECTD62*%
G04:AMPARAMS|DCode=63|XSize=47.37mil|YSize=43.43mil|CornerRadius=8.43mil|HoleSize=0mil|Usage=FLASHONLY|Rotation=180.000|XOffset=0mil|YOffset=0mil|HoleType=Round|Shape=RoundedRectangle|*
%AMROUNDEDRECTD63*
21,1,0.04737,0.02657,0,0,180.0*
21,1,0.03051,0.04343,0,0,180.0*
1,1,0.01686,-0.01526,0.01329*
1,1,0.01686,0.01526,0.01329*
1,1,0.01686,0.01526,-0.01329*
1,1,0.01686,-0.01526,-0.01329*
%
%ADD63ROUNDEDRECTD63*%
G04:AMPARAMS|DCode=64|XSize=19.81mil|YSize=78.87mil|CornerRadius=0mil|HoleSize=0mil|Usage=FLASHONLY|Rotation=45.000|XOffset=0mil|YOffset=0mil|HoleType=Round|Shape=Round|*
%AMOVALD64*
21,1,0.05906,0.01981,0.00000,0.00000,135.0*
1,1,0.01981,0.02088,-0.02088*
1,1,0.01981,-0.02088,0.02088*
%
%ADD64OVALD64*%

G04:AMPARAMS|DCode=65|XSize=19.81mil|YSize=78.87mil|CornerRadius=0mil|HoleSize=0mil|Usage=FLASHONLY|Rotation=315.000|XOffset=0mil|YOffset=0mil|HoleType=Round|Shape=Round|*
%AMOVALD65*
21,1,0.05906,0.01981,0.00000,0.00000,45.0*
1,1,0.01981,-0.02088,-0.02088*
1,1,0.01981,0.02088,0.02088*
%
%ADD65OVALD65*%

G04:AMPARAMS|DCode=66|XSize=31.62mil|YSize=31.62mil|CornerRadius=6.36mil|HoleSize=0mil|Usage=FLASHONLY|Rotation=180.000|XOffset=0mil|YOffset=0mil|HoleType=Round|Shape=RoundedRectangle|*
%AMROUNDEDRECTD66*
21,1,0.03162,0.01890,0,0,180.0*
21,1,0.01890,0.03162,0,0,180.0*
1,1,0.01272,-0.00945,0.00945*
1,1,0.01272,0.00945,0.00945*
1,1,0.01272,0.00945,-0.00945*
1,1,0.01272,-0.00945,-0.00945*
%
%ADD66ROUNDEDRECTD66*%
G04:AMPARAMS|DCode=67|XSize=39.5mil|YSize=39.5mil|CornerRadius=7.94mil|HoleSize=0mil|Usage=FLASHONLY|Rotation=0.000|XOffset=0mil|YOffset=0mil|HoleType=Round|Shape=RoundedRectangle|*
%AMROUNDEDRECTD67*
21,1,0.03950,0.02362,0,0,0.0*
21,1,0.02362,0.03950,0,0,0.0*
1,1,0.01587,0.01181,-0.01181*
1,1,0.01587,-0.01181,-0.01181*
1,1,0.01587,-0.01181,0.01181*
1,1,0.01587,0.01181,0.01181*
%
%ADD67ROUNDEDRECTD67*%
%ADD68R,0.06800X0.06800*%
%ADD69R,0.06000X0.06000*%
%ADD70C,0.06000*%
%ADD71C,0.07800*%
%ADD72O,0.12611X0.08674*%
G04:AMPARAMS|DCode=73|XSize=49.34mil|YSize=65.48mil|CornerRadius=14.34mil|HoleSize=0mil|Usage=FLASHONLY|Rotation=0.000|XOffset=0mil|YOffset=0mil|HoleType=Round|Shape=RoundedRectangle|*
%AMROUNDEDRECTD73*
21,1,0.04934,0.03681,0,0,0.0*
21,1,0.02067,0.06548,0,0,0.0*
1,1,0.02867,0.01034,-0.01841*
1,1,0.02867,-0.01034,-0.01841*
1,1,0.02867,-0.01034,0.01841*
1,1,0.02867,0.01034,0.01841*
%
%ADD73ROUNDEDRECTD73*%
%ADD74C,0.08800*%
%ADD75O,0.08674X0.12611*%
%ADD76C,0.12611*%
%ADD77C,0.06706*%
%ADD78R,0.06706X0.06706*%
%ADD79C,0.03556*%
%ADD80C,0.03950*%
D34*
X141372Y84938D02*
D03*
Y88087D02*
D03*
Y91237D02*
D03*
Y94387D02*
D03*
X126450Y84938D02*
D03*
Y88087D02*
D03*
Y91237D02*
D03*
Y94387D02*
D03*
D45*
X131500Y123963D02*
D03*
Y131837D02*
D03*
D46*
X143418Y153900D02*
D03*
Y143900D02*
D03*
Y133900D02*
D03*
Y123900D02*
D03*
Y113900D02*
D03*
X183182D02*
D03*
Y123900D02*
D03*
Y153900D02*
D03*
D47*
X389568Y155593D02*
D03*
X387599D02*
D03*
X385631D02*
D03*
X383662D02*
D03*
X381694D02*
D03*
X379725D02*
D03*
X377757D02*
D03*
X375788D02*
D03*
X373820D02*
D03*
X371851D02*
D03*
X369883D02*
D03*
X367914D02*
D03*
X365946D02*
D03*
X363977D02*
D03*
X362009D02*
D03*
X360040D02*
D03*
X358072D02*
D03*
X356103D02*
D03*
X354135D02*
D03*
X352166D02*
D03*
X350198D02*
D03*
X348229D02*
D03*
X346261D02*
D03*
X344292D02*
D03*
X342323D02*
D03*
X340355D02*
D03*
X338387D02*
D03*
X336418D02*
D03*
X389568Y125672D02*
D03*
X387599D02*
D03*
X385631D02*
D03*
X383662D02*
D03*
X381694D02*
D03*
X379725D02*
D03*
X377757D02*
D03*
X375788D02*
D03*
X373820D02*
D03*
X371851D02*
D03*
X369883D02*
D03*
X367914D02*
D03*
X365946D02*
D03*
X363977D02*
D03*
X362009D02*
D03*
X360040D02*
D03*
X358072D02*
D03*
X356103D02*
D03*
X354135D02*
D03*
X352166D02*
D03*
X350198D02*
D03*
X348229D02*
D03*
X346261D02*
D03*
X344292D02*
D03*
X342323D02*
D03*
X340355D02*
D03*
X338387D02*
D03*
X336418D02*
D03*
D48*
X362993Y140632D02*
D03*
D49*
X234818Y18122D02*
D03*
X227141D02*
D03*
X232259D02*
D03*
X229700D02*
D03*
X224582D02*
D03*
X157418Y18222D02*
D03*
X149741D02*
D03*
X154859D02*
D03*
X152300D02*
D03*
X147182D02*
D03*
D50*
X240428Y10445D02*
D03*
X218972D02*
D03*
X163028Y10545D02*
D03*
X141572D02*
D03*
X218972Y7000D02*
D03*
X240428D02*
D03*
X141572Y7100D02*
D03*
X163028D02*
D03*
D51*
X233440Y6016D02*
D03*
X225960D02*
D03*
X156040Y6116D02*
D03*
X148560D02*
D03*
D52*
X217102Y18909D02*
D03*
X242298D02*
D03*
X139702Y19009D02*
D03*
X164898D02*
D03*
D53*
X217940Y13693D02*
D03*
X241462D02*
D03*
X140540Y13793D02*
D03*
X164062D02*
D03*
D54*
X133911Y89662D02*
D03*
D55*
X216528Y149147D02*
D03*
Y154147D02*
D03*
Y159147D02*
D03*
Y164147D02*
D03*
X195072Y149147D02*
D03*
Y154147D02*
D03*
Y159147D02*
D03*
Y164147D02*
D03*
D56*
X133911Y97142D02*
D03*
Y95174D02*
D03*
D57*
X408465Y130002D02*
D03*
X400198D02*
D03*
D58*
X334600Y119159D02*
D03*
Y114041D02*
D03*
X148900Y88841D02*
D03*
Y93959D02*
D03*
D59*
X430617Y51181D02*
D03*
X425302D02*
D03*
X363687Y51181D02*
D03*
X358372D02*
D03*
X296758D02*
D03*
X291443D02*
D03*
X228648Y51181D02*
D03*
X223333D02*
D03*
X430617Y72834D02*
D03*
X425302D02*
D03*
X363687Y72835D02*
D03*
X358372D02*
D03*
X296758D02*
D03*
X291443D02*
D03*
X401089Y72834D02*
D03*
X395774D02*
D03*
X401089Y51181D02*
D03*
X395774D02*
D03*
X334160Y72835D02*
D03*
X328845D02*
D03*
X334160Y51181D02*
D03*
X328845D02*
D03*
X267231Y72835D02*
D03*
X261916D02*
D03*
X267231Y51181D02*
D03*
X261916D02*
D03*
X228648Y72834D02*
D03*
X223333D02*
D03*
X191246Y51181D02*
D03*
X185931D02*
D03*
X191246Y72834D02*
D03*
X185931D02*
D03*
D60*
X414573Y58681D02*
D03*
Y53681D02*
D03*
Y48681D02*
D03*
Y43681D02*
D03*
X347644Y58681D02*
D03*
Y53681D02*
D03*
Y48681D02*
D03*
Y43681D02*
D03*
X280715Y58681D02*
D03*
Y53681D02*
D03*
Y48681D02*
D03*
Y43681D02*
D03*
X212605Y58681D02*
D03*
Y53681D02*
D03*
Y48681D02*
D03*
Y43681D02*
D03*
X414573Y80335D02*
D03*
Y75335D02*
D03*
Y70335D02*
D03*
Y65334D02*
D03*
X347644Y80335D02*
D03*
Y75335D02*
D03*
Y70335D02*
D03*
Y65335D02*
D03*
X280715Y80335D02*
D03*
Y75335D02*
D03*
Y70335D02*
D03*
Y65335D02*
D03*
X385046Y80335D02*
D03*
Y75335D02*
D03*
Y70335D02*
D03*
Y65334D02*
D03*
Y58681D02*
D03*
Y53681D02*
D03*
Y48681D02*
D03*
Y43681D02*
D03*
X318116Y80335D02*
D03*
Y75335D02*
D03*
Y70335D02*
D03*
Y65335D02*
D03*
Y58681D02*
D03*
Y53681D02*
D03*
Y48681D02*
D03*
Y43681D02*
D03*
X251187Y80335D02*
D03*
Y75335D02*
D03*
Y70335D02*
D03*
Y65335D02*
D03*
Y58681D02*
D03*
Y53681D02*
D03*
Y48681D02*
D03*
Y43681D02*
D03*
X212605Y80334D02*
D03*
Y75334D02*
D03*
Y70334D02*
D03*
Y65334D02*
D03*
X175203Y58681D02*
D03*
Y53681D02*
D03*
Y48681D02*
D03*
Y43681D02*
D03*
Y80334D02*
D03*
Y75334D02*
D03*
Y70334D02*
D03*
Y65334D02*
D03*
D61*
X436128Y51181D02*
D03*
X369199Y51181D02*
D03*
X302270D02*
D03*
X234160Y51181D02*
D03*
X436128Y72834D02*
D03*
X369199Y72835D02*
D03*
X302270D02*
D03*
X406601Y72834D02*
D03*
Y51181D02*
D03*
X339672Y72835D02*
D03*
Y51181D02*
D03*
X272743Y72835D02*
D03*
Y51181D02*
D03*
X234160Y72834D02*
D03*
X196758Y51181D02*
D03*
Y72834D02*
D03*
D62*
X171955Y92126D02*
D03*
X178648D02*
D03*
X203554Y88900D02*
D03*
X210246D02*
D03*
D63*
X244199Y93898D02*
D03*
Y87205D02*
D03*
X259947Y87204D02*
D03*
Y93897D02*
D03*
X389868Y87204D02*
D03*
Y93897D02*
D03*
X352467Y87204D02*
D03*
Y93897D02*
D03*
X419396Y87204D02*
D03*
Y93897D02*
D03*
X326876Y87204D02*
D03*
Y93897D02*
D03*
X285538Y87204D02*
D03*
Y93897D02*
D03*
X311128Y93898D02*
D03*
Y87205D02*
D03*
D64*
X277177Y131718D02*
D03*
X274393Y128934D02*
D03*
X264650Y119190D02*
D03*
X267433Y121974D02*
D03*
X285529Y140069D02*
D03*
X282745Y137285D02*
D03*
X284137Y138677D02*
D03*
X242100Y158443D02*
D03*
X240708Y157051D02*
D03*
X246276Y162619D02*
D03*
X235140Y151483D02*
D03*
X233748Y150091D02*
D03*
X239316Y155659D02*
D03*
X236532Y152875D02*
D03*
X237924Y154267D02*
D03*
X251844Y168186D02*
D03*
X254628Y170970D02*
D03*
X253236Y169579D02*
D03*
X250452Y166795D02*
D03*
X247668Y164011D02*
D03*
X249060Y165403D02*
D03*
X275785Y130326D02*
D03*
X266042Y120582D02*
D03*
X278569Y133110D02*
D03*
X268825Y123366D02*
D03*
X273001Y127542D02*
D03*
X271609Y126150D02*
D03*
X270217Y124758D02*
D03*
X281353Y135893D02*
D03*
X279961Y134502D02*
D03*
X243492Y159835D02*
D03*
X244884Y161227D02*
D03*
D65*
X254628Y119190D02*
D03*
X253236Y120582D02*
D03*
X251844Y121974D02*
D03*
X250452Y123366D02*
D03*
X249060Y124758D02*
D03*
X247668Y126150D02*
D03*
X246276Y127542D02*
D03*
X244884Y128934D02*
D03*
X243492Y130325D02*
D03*
X242100Y131718D02*
D03*
X240708Y133109D02*
D03*
X239316Y134502D02*
D03*
X237924Y135893D02*
D03*
X236532Y137285D02*
D03*
X235140Y138677D02*
D03*
X233748Y140069D02*
D03*
X285529Y150091D02*
D03*
X275785Y159835D02*
D03*
X274393Y161227D02*
D03*
X273001Y162619D02*
D03*
X271609Y164011D02*
D03*
X270217Y165403D02*
D03*
X268825Y166795D02*
D03*
X267433Y168186D02*
D03*
X266042Y169578D02*
D03*
X264650Y170970D02*
D03*
X284137Y151483D02*
D03*
X279961Y155659D02*
D03*
X278569Y157051D02*
D03*
X277177Y158443D02*
D03*
X281353Y154267D02*
D03*
X282745Y152875D02*
D03*
D66*
X326600Y141731D02*
D03*
Y145668D02*
D03*
D67*
X426453Y141900D02*
D03*
X433146D02*
D03*
D68*
X197500Y7200D02*
D03*
X208100Y7100D02*
D03*
X173100Y6800D02*
D03*
X110900Y188900D02*
D03*
X22600Y188900D02*
D03*
X110900Y4500D02*
D03*
X22600D02*
D03*
D69*
X182800Y180900D02*
D03*
D70*
Y190900D02*
D03*
X172800Y180900D02*
D03*
Y190900D02*
D03*
X162800Y180900D02*
D03*
Y190900D02*
D03*
X152800Y180900D02*
D03*
Y190900D02*
D03*
X142800Y180900D02*
D03*
Y190900D02*
D03*
X132800Y180900D02*
D03*
Y190900D02*
D03*
X122800Y180900D02*
D03*
Y190900D02*
D03*
D71*
X135674Y76022D02*
D03*
Y40589D02*
D03*
X373089Y21674D02*
D03*
X420333D02*
D03*
D72*
X127800Y52400D02*
D03*
Y64211D02*
D03*
D73*
X220153Y18909D02*
D03*
X239247D02*
D03*
X142753Y19009D02*
D03*
X161847D02*
D03*
D74*
X352800Y10300D02*
D03*
X252800D02*
D03*
D75*
X384900Y13800D02*
D03*
X396711D02*
D03*
X408522D02*
D03*
D76*
X431900Y9100D02*
D03*
X9700Y187800D02*
D03*
X8600Y9200D02*
D03*
X432200Y188100D02*
D03*
D77*
X418500Y191300D02*
D03*
X408500D02*
D03*
X398500D02*
D03*
X388500D02*
D03*
X378500D02*
D03*
X368500D02*
D03*
X358500D02*
D03*
X348500D02*
D03*
X338500D02*
D03*
X328500D02*
D03*
X318500D02*
D03*
X308500D02*
D03*
X298500D02*
D03*
X288500D02*
D03*
X278500D02*
D03*
X268500D02*
D03*
X258500D02*
D03*
X235400Y191200D02*
D03*
X225400D02*
D03*
X215400D02*
D03*
X205400D02*
D03*
D78*
X248500Y191300D02*
D03*
X195400Y191200D02*
D03*
D79*
X373820Y144963D02*
D03*
Y140632D02*
D03*
Y136301D02*
D03*
X369489Y144963D02*
D03*
Y140632D02*
D03*
Y136301D02*
D03*
X365158Y144963D02*
D03*
Y140632D02*
D03*
Y136301D02*
D03*
X360827Y144963D02*
D03*
Y140632D02*
D03*
Y136301D02*
D03*
X356497Y144963D02*
D03*
Y140632D02*
D03*
Y136301D02*
D03*
X352166Y144963D02*
D03*
Y140632D02*
D03*
Y136301D02*
D03*
X131942Y85725D02*
D03*
X135880D02*
D03*
Y89662D02*
D03*
X131942D02*
D03*
Y93599D02*
D03*
X135880D02*
D03*
X149711Y80709D02*
D03*
X159554D02*
D03*
Y82677D02*
D03*
X149711D02*
D03*
X157585D02*
D03*
Y80709D02*
D03*
X167428Y82677D02*
D03*
Y80709D02*
D03*
X165459D02*
D03*
Y82677D02*
D03*
X155616Y80709D02*
D03*
Y82677D02*
D03*
X153648D02*
D03*
Y80709D02*
D03*
X163490Y82677D02*
D03*
Y80709D02*
D03*
X161522D02*
D03*
Y82677D02*
D03*
X151680Y80709D02*
D03*
Y82677D02*
D03*
X243806Y74803D02*
D03*
X241837Y76771D02*
D03*
X145380Y76378D02*
D03*
Y74409D02*
D03*
Y72441D02*
D03*
Y70472D02*
D03*
X147349D02*
D03*
Y72441D02*
D03*
Y74409D02*
D03*
Y76378D02*
D03*
X149317D02*
D03*
Y74409D02*
D03*
Y72441D02*
D03*
X151286Y74409D02*
D03*
Y76378D02*
D03*
X143412D02*
D03*
Y74409D02*
D03*
Y72441D02*
D03*
Y70472D02*
D03*
X241837Y70866D02*
D03*
Y72834D02*
D03*
Y74803D02*
D03*
X245774Y76771D02*
D03*
Y74803D02*
D03*
Y72834D02*
D03*
Y70866D02*
D03*
X243806D02*
D03*
Y72834D02*
D03*
Y76771D02*
D03*
X308766Y70866D02*
D03*
Y72834D02*
D03*
Y74803D02*
D03*
Y76771D02*
D03*
X312703D02*
D03*
Y74803D02*
D03*
Y72834D02*
D03*
Y70866D02*
D03*
X310735D02*
D03*
Y72834D02*
D03*
Y74803D02*
D03*
Y76771D02*
D03*
X375695Y70866D02*
D03*
Y72834D02*
D03*
Y74803D02*
D03*
Y76771D02*
D03*
X379632D02*
D03*
Y74803D02*
D03*
Y72834D02*
D03*
Y70866D02*
D03*
X377664D02*
D03*
Y72834D02*
D03*
Y74803D02*
D03*
Y76771D02*
D03*
D80*
X426089Y56693D02*
D03*
X429632D02*
D03*
X433176D02*
D03*
X425695Y45669D02*
D03*
X429239D02*
D03*
X432782D02*
D03*
X428156Y48917D02*
D03*
X437113Y46260D02*
D03*
Y51181D02*
D03*
Y56102D02*
D03*
X434652Y53445D02*
D03*
X434750Y48917D02*
D03*
X424809Y53445D02*
D03*
X424908Y48917D02*
D03*
X428057Y53445D02*
D03*
X431502Y48917D02*
D03*
X431404Y53445D02*
D03*
X359160Y56693D02*
D03*
X362703D02*
D03*
X366246D02*
D03*
X358766Y45669D02*
D03*
X362309D02*
D03*
X365853D02*
D03*
X361227Y48917D02*
D03*
X370183Y46260D02*
D03*
Y51181D02*
D03*
Y56102D02*
D03*
X367723Y53445D02*
D03*
X367821Y48917D02*
D03*
X357880Y53445D02*
D03*
X357979Y48917D02*
D03*
X361128Y53445D02*
D03*
X364573Y48917D02*
D03*
X364475Y53445D02*
D03*
X292231Y56693D02*
D03*
X295774D02*
D03*
X299317D02*
D03*
X291837Y45669D02*
D03*
X295380D02*
D03*
X298924D02*
D03*
X294298Y48917D02*
D03*
X303254Y46260D02*
D03*
Y51181D02*
D03*
Y56102D02*
D03*
X300794Y53445D02*
D03*
X300892Y48917D02*
D03*
X290951Y53445D02*
D03*
X291050Y48917D02*
D03*
X294199Y53445D02*
D03*
X297644Y48917D02*
D03*
X297546Y53445D02*
D03*
X224120Y56693D02*
D03*
X227664D02*
D03*
X231207D02*
D03*
X223727Y45669D02*
D03*
X227270D02*
D03*
X230813D02*
D03*
X226187Y48917D02*
D03*
X235144Y46260D02*
D03*
Y51181D02*
D03*
Y56102D02*
D03*
X232683Y53445D02*
D03*
X232782Y48917D02*
D03*
X222841Y53445D02*
D03*
X222939Y48917D02*
D03*
X226089Y53445D02*
D03*
X229534Y48917D02*
D03*
X229435Y53445D02*
D03*
M02*
