G04*
G04 #@! TF.GenerationSoftware,Altium Limited,Altium Designer,20.0.11 (256)*
G04*
G04 Layer_Physical_Order=2*
G04 Layer_Color=36540*
%FSLAX25Y25*%
%MOIN*%
G70*
G01*
G75*
G04:AMPARAMS|DCode=30|XSize=51.18mil|YSize=86.61mil|CornerRadius=12.8mil|HoleSize=0mil|Usage=FLASHONLY|Rotation=0.000|XOffset=0mil|YOffset=0mil|HoleType=Round|Shape=RoundedRectangle|*
%AMROUNDEDRECTD30*
21,1,0.05118,0.06102,0,0,0.0*
21,1,0.02559,0.08661,0,0,0.0*
1,1,0.02559,0.01280,-0.03051*
1,1,0.02559,-0.01280,-0.03051*
1,1,0.02559,-0.01280,0.03051*
1,1,0.02559,0.01280,0.03051*
%
%ADD30ROUNDEDRECTD30*%
%ADD69R,0.06000X0.06000*%
%ADD70C,0.06000*%
G04:AMPARAMS|DCode=103|XSize=41.34mil|YSize=57.48mil|CornerRadius=10.34mil|HoleSize=0mil|Usage=FLASHONLY|Rotation=0.000|XOffset=0mil|YOffset=0mil|HoleType=Round|Shape=RoundedRectangle|*
%AMROUNDEDRECTD103*
21,1,0.04134,0.03681,0,0,0.0*
21,1,0.02067,0.05748,0,0,0.0*
1,1,0.02067,0.01034,-0.01841*
1,1,0.02067,-0.01034,-0.01841*
1,1,0.02067,-0.01034,0.01841*
1,1,0.02067,0.01034,0.01841*
%
%ADD103ROUNDEDRECTD103*%
%ADD107C,0.05906*%
%ADD109C,0.02362*%
%ADD110C,0.02953*%
%ADD111C,0.02756*%
G36*
X430566Y195433D02*
X429319Y195055D01*
X428018Y194360D01*
X426877Y193423D01*
X425940Y192282D01*
X425245Y190981D01*
X424816Y189569D01*
X424672Y188100D01*
X424816Y186631D01*
X425245Y185219D01*
X425940Y183917D01*
X426877Y182777D01*
X428018Y181840D01*
X429319Y181145D01*
X430731Y180716D01*
X432200Y180572D01*
X433669Y180716D01*
X435081Y181145D01*
X436382Y181840D01*
X437523Y182777D01*
X438460Y183917D01*
X439155Y185219D01*
X439584Y186631D01*
X439633Y187129D01*
X440133Y187105D01*
X440133Y917D01*
X114699D01*
Y8299D01*
X107101D01*
Y917D01*
X26399D01*
Y8299D01*
X18801D01*
Y917D01*
X604D01*
Y8846D01*
X1104Y8870D01*
X1216Y7731D01*
X1645Y6319D01*
X2340Y5017D01*
X3277Y3877D01*
X4417Y2940D01*
X5719Y2245D01*
X7131Y1816D01*
X8600Y1672D01*
X10069Y1816D01*
X11481Y2245D01*
X12783Y2940D01*
X13923Y3877D01*
X14860Y5017D01*
X15555Y6319D01*
X15984Y7731D01*
X16128Y9200D01*
X15984Y10669D01*
X15555Y12081D01*
X14860Y13383D01*
X13923Y14523D01*
X12783Y15460D01*
X11481Y16155D01*
X10069Y16584D01*
X8600Y16728D01*
X7131Y16584D01*
X5719Y16155D01*
X4417Y15460D01*
X3277Y14523D01*
X2340Y13383D01*
X1645Y12081D01*
X1216Y10669D01*
X1104Y9530D01*
X604Y9554D01*
X604Y195933D01*
X430492D01*
X430566Y195433D01*
D02*
G37*
%LPC*%
G36*
X252252Y195052D02*
X244748D01*
Y187548D01*
X252252D01*
Y195052D01*
D02*
G37*
G36*
X408500Y195084D02*
X407520Y194955D01*
X406608Y194577D01*
X405824Y193976D01*
X405223Y193192D01*
X404845Y192279D01*
X404716Y191300D01*
X404845Y190321D01*
X405223Y189408D01*
X405824Y188624D01*
X406608Y188023D01*
X407520Y187645D01*
X408500Y187516D01*
X409480Y187645D01*
X410392Y188023D01*
X411176Y188624D01*
X411777Y189408D01*
X412155Y190321D01*
X412284Y191300D01*
X412155Y192279D01*
X411777Y193192D01*
X411176Y193976D01*
X410392Y194577D01*
X409480Y194955D01*
X408500Y195084D01*
D02*
G37*
G36*
X398500D02*
X397520Y194955D01*
X396608Y194577D01*
X395824Y193976D01*
X395223Y193192D01*
X394845Y192279D01*
X394716Y191300D01*
X394845Y190321D01*
X395223Y189408D01*
X395824Y188624D01*
X396608Y188023D01*
X397520Y187645D01*
X398500Y187516D01*
X399480Y187645D01*
X400392Y188023D01*
X401176Y188624D01*
X401777Y189408D01*
X402155Y190321D01*
X402284Y191300D01*
X402155Y192279D01*
X401777Y193192D01*
X401176Y193976D01*
X400392Y194577D01*
X399480Y194955D01*
X398500Y195084D01*
D02*
G37*
G36*
X388500D02*
X387521Y194955D01*
X386608Y194577D01*
X385824Y193976D01*
X385223Y193192D01*
X384845Y192279D01*
X384716Y191300D01*
X384845Y190321D01*
X385223Y189408D01*
X385824Y188624D01*
X386608Y188023D01*
X387521Y187645D01*
X388500Y187516D01*
X389479Y187645D01*
X390392Y188023D01*
X391176Y188624D01*
X391777Y189408D01*
X392155Y190321D01*
X392284Y191300D01*
X392155Y192279D01*
X391777Y193192D01*
X391176Y193976D01*
X390392Y194577D01*
X389479Y194955D01*
X388500Y195084D01*
D02*
G37*
G36*
X378500D02*
X377520Y194955D01*
X376608Y194577D01*
X375824Y193976D01*
X375223Y193192D01*
X374845Y192279D01*
X374716Y191300D01*
X374845Y190321D01*
X375223Y189408D01*
X375824Y188624D01*
X376608Y188023D01*
X377520Y187645D01*
X378500Y187516D01*
X379480Y187645D01*
X380392Y188023D01*
X381176Y188624D01*
X381777Y189408D01*
X382155Y190321D01*
X382284Y191300D01*
X382155Y192279D01*
X381777Y193192D01*
X381176Y193976D01*
X380392Y194577D01*
X379480Y194955D01*
X378500Y195084D01*
D02*
G37*
G36*
X368500D02*
X367520Y194955D01*
X366608Y194577D01*
X365824Y193976D01*
X365223Y193192D01*
X364845Y192279D01*
X364716Y191300D01*
X364845Y190321D01*
X365223Y189408D01*
X365824Y188624D01*
X366608Y188023D01*
X367520Y187645D01*
X368500Y187516D01*
X369479Y187645D01*
X370392Y188023D01*
X371176Y188624D01*
X371777Y189408D01*
X372155Y190321D01*
X372284Y191300D01*
X372155Y192279D01*
X371777Y193192D01*
X371176Y193976D01*
X370392Y194577D01*
X369479Y194955D01*
X368500Y195084D01*
D02*
G37*
G36*
X348500D02*
X347520Y194955D01*
X346608Y194577D01*
X345824Y193976D01*
X345223Y193192D01*
X344845Y192279D01*
X344716Y191300D01*
X344845Y190321D01*
X345223Y189408D01*
X345824Y188624D01*
X346608Y188023D01*
X347520Y187645D01*
X348500Y187516D01*
X349480Y187645D01*
X350392Y188023D01*
X351176Y188624D01*
X351777Y189408D01*
X352155Y190321D01*
X352284Y191300D01*
X352155Y192279D01*
X351777Y193192D01*
X351176Y193976D01*
X350392Y194577D01*
X349480Y194955D01*
X348500Y195084D01*
D02*
G37*
G36*
X338500D02*
X337521Y194955D01*
X336608Y194577D01*
X335824Y193976D01*
X335223Y193192D01*
X334845Y192279D01*
X334716Y191300D01*
X334845Y190321D01*
X335223Y189408D01*
X335824Y188624D01*
X336608Y188023D01*
X337521Y187645D01*
X338500Y187516D01*
X339479Y187645D01*
X340392Y188023D01*
X341176Y188624D01*
X341777Y189408D01*
X342155Y190321D01*
X342284Y191300D01*
X342155Y192279D01*
X341777Y193192D01*
X341176Y193976D01*
X340392Y194577D01*
X339479Y194955D01*
X338500Y195084D01*
D02*
G37*
G36*
X328500D02*
X327520Y194955D01*
X326608Y194577D01*
X325824Y193976D01*
X325223Y193192D01*
X324845Y192279D01*
X324716Y191300D01*
X324845Y190321D01*
X325223Y189408D01*
X325824Y188624D01*
X326608Y188023D01*
X327520Y187645D01*
X328500Y187516D01*
X329480Y187645D01*
X330392Y188023D01*
X331176Y188624D01*
X331777Y189408D01*
X332155Y190321D01*
X332284Y191300D01*
X332155Y192279D01*
X331777Y193192D01*
X331176Y193976D01*
X330392Y194577D01*
X329480Y194955D01*
X328500Y195084D01*
D02*
G37*
G36*
X308500D02*
X307521Y194955D01*
X306608Y194577D01*
X305824Y193976D01*
X305223Y193192D01*
X304845Y192279D01*
X304716Y191300D01*
X304845Y190321D01*
X305223Y189408D01*
X305824Y188624D01*
X306608Y188023D01*
X307521Y187645D01*
X308500Y187516D01*
X309479Y187645D01*
X310392Y188023D01*
X311176Y188624D01*
X311777Y189408D01*
X312155Y190321D01*
X312284Y191300D01*
X312155Y192279D01*
X311777Y193192D01*
X311176Y193976D01*
X310392Y194577D01*
X309479Y194955D01*
X308500Y195084D01*
D02*
G37*
G36*
X298500D02*
X297520Y194955D01*
X296608Y194577D01*
X295824Y193976D01*
X295223Y193192D01*
X294845Y192279D01*
X294716Y191300D01*
X294845Y190321D01*
X295223Y189408D01*
X295824Y188624D01*
X296608Y188023D01*
X297520Y187645D01*
X298500Y187516D01*
X299480Y187645D01*
X300392Y188023D01*
X301176Y188624D01*
X301777Y189408D01*
X302155Y190321D01*
X302284Y191300D01*
X302155Y192279D01*
X301777Y193192D01*
X301176Y193976D01*
X300392Y194577D01*
X299480Y194955D01*
X298500Y195084D01*
D02*
G37*
G36*
X288500D02*
X287521Y194955D01*
X286608Y194577D01*
X285824Y193976D01*
X285223Y193192D01*
X284845Y192279D01*
X284716Y191300D01*
X284845Y190321D01*
X285223Y189408D01*
X285824Y188624D01*
X286608Y188023D01*
X287521Y187645D01*
X288500Y187516D01*
X289479Y187645D01*
X290392Y188023D01*
X291176Y188624D01*
X291777Y189408D01*
X292155Y190321D01*
X292284Y191300D01*
X292155Y192279D01*
X291777Y193192D01*
X291176Y193976D01*
X290392Y194577D01*
X289479Y194955D01*
X288500Y195084D01*
D02*
G37*
G36*
X268500D02*
X267520Y194955D01*
X266608Y194577D01*
X265824Y193976D01*
X265223Y193192D01*
X264845Y192279D01*
X264716Y191300D01*
X264845Y190321D01*
X265223Y189408D01*
X265824Y188624D01*
X266608Y188023D01*
X267520Y187645D01*
X268500Y187516D01*
X269479Y187645D01*
X270392Y188023D01*
X271176Y188624D01*
X271777Y189408D01*
X272155Y190321D01*
X272284Y191300D01*
X272155Y192279D01*
X271777Y193192D01*
X271176Y193976D01*
X270392Y194577D01*
X269479Y194955D01*
X268500Y195084D01*
D02*
G37*
G36*
X199152Y194952D02*
X191648D01*
Y187448D01*
X199152D01*
Y194952D01*
D02*
G37*
G36*
X235400Y194984D02*
X234421Y194855D01*
X233508Y194477D01*
X232724Y193876D01*
X232123Y193092D01*
X231745Y192179D01*
X231616Y191200D01*
X231745Y190220D01*
X232123Y189308D01*
X232724Y188524D01*
X233508Y187923D01*
X234421Y187545D01*
X235400Y187416D01*
X236380Y187545D01*
X237292Y187923D01*
X238076Y188524D01*
X238677Y189308D01*
X239055Y190220D01*
X239184Y191200D01*
X239055Y192179D01*
X238677Y193092D01*
X238076Y193876D01*
X237292Y194477D01*
X236380Y194855D01*
X235400Y194984D01*
D02*
G37*
G36*
X225400D02*
X224421Y194855D01*
X223508Y194477D01*
X222724Y193876D01*
X222123Y193092D01*
X221745Y192179D01*
X221616Y191200D01*
X221745Y190220D01*
X222123Y189308D01*
X222724Y188524D01*
X223508Y187923D01*
X224421Y187545D01*
X225400Y187416D01*
X226379Y187545D01*
X227292Y187923D01*
X228076Y188524D01*
X228677Y189308D01*
X229055Y190220D01*
X229184Y191200D01*
X229055Y192179D01*
X228677Y193092D01*
X228076Y193876D01*
X227292Y194477D01*
X226379Y194855D01*
X225400Y194984D01*
D02*
G37*
G36*
X205400D02*
X204421Y194855D01*
X203508Y194477D01*
X202724Y193876D01*
X202123Y193092D01*
X201745Y192179D01*
X201616Y191200D01*
X201745Y190220D01*
X202123Y189308D01*
X202724Y188524D01*
X203508Y187923D01*
X204421Y187545D01*
X205400Y187416D01*
X206380Y187545D01*
X207292Y187923D01*
X208076Y188524D01*
X208677Y189308D01*
X209055Y190220D01*
X209184Y191200D01*
X209055Y192179D01*
X208677Y193092D01*
X208076Y193876D01*
X207292Y194477D01*
X206380Y194855D01*
X205400Y194984D01*
D02*
G37*
G36*
X303382Y189299D02*
X302610Y189146D01*
X301955Y188708D01*
X301517Y188053D01*
X301363Y187280D01*
X301517Y186508D01*
X301955Y185853D01*
X302610Y185415D01*
X303382Y185261D01*
X304155Y185415D01*
X304810Y185853D01*
X305248Y186508D01*
X305401Y187280D01*
X305248Y188053D01*
X304810Y188708D01*
X304155Y189146D01*
X303382Y189299D01*
D02*
G37*
G36*
X114699Y192699D02*
X107101D01*
Y185101D01*
X114699D01*
Y192699D01*
D02*
G37*
G36*
X362206Y188321D02*
X361433Y188167D01*
X360778Y187729D01*
X360340Y187074D01*
X360186Y186302D01*
X360340Y185529D01*
X360778Y184874D01*
X361433Y184436D01*
X362206Y184282D01*
X362978Y184436D01*
X363633Y184874D01*
X364071Y185529D01*
X364225Y186302D01*
X364071Y187074D01*
X363633Y187729D01*
X362978Y188167D01*
X362206Y188321D01*
D02*
G37*
G36*
X258500Y195084D02*
X257521Y194955D01*
X256608Y194577D01*
X255824Y193976D01*
X255223Y193192D01*
X254845Y192279D01*
X254716Y191300D01*
X254845Y190321D01*
X255223Y189408D01*
X255824Y188624D01*
X256608Y188023D01*
X257521Y187645D01*
X258435Y187524D01*
X258580Y187337D01*
X258713Y187039D01*
X258535Y186773D01*
X258381Y186000D01*
X258535Y185227D01*
X258972Y184572D01*
X259627Y184134D01*
X260400Y183981D01*
X261173Y184134D01*
X261828Y184572D01*
X262265Y185227D01*
X262419Y186000D01*
X262265Y186773D01*
X261828Y187428D01*
X261173Y187865D01*
X261042Y187891D01*
X260918Y188426D01*
X261176Y188624D01*
X261777Y189408D01*
X262155Y190321D01*
X262284Y191300D01*
X262155Y192279D01*
X261777Y193192D01*
X261176Y193976D01*
X260392Y194577D01*
X259479Y194955D01*
X258500Y195084D01*
D02*
G37*
G36*
X366499Y184346D02*
X365726Y184192D01*
X365071Y183755D01*
X364633Y183100D01*
X364500Y182432D01*
X364167Y182015D01*
X364145Y181993D01*
X363880Y182046D01*
X363107Y181892D01*
X362452Y181454D01*
X362014Y180799D01*
X361861Y180026D01*
X362014Y179254D01*
X362452Y178599D01*
X363107Y178161D01*
X363880Y178007D01*
X364652Y178161D01*
X365307Y178599D01*
X365745Y179254D01*
X365878Y179921D01*
X366211Y180339D01*
X366233Y180361D01*
X366499Y180308D01*
X367271Y180462D01*
X367926Y180899D01*
X368364Y181554D01*
X368518Y182327D01*
X368364Y183100D01*
X367926Y183755D01*
X367271Y184192D01*
X366499Y184346D01*
D02*
G37*
G36*
X9700Y195328D02*
X8231Y195184D01*
X6819Y194755D01*
X5517Y194060D01*
X4377Y193123D01*
X3440Y191982D01*
X2745Y190681D01*
X2316Y189269D01*
X2172Y187800D01*
X2316Y186331D01*
X2745Y184919D01*
X3440Y183617D01*
X4377Y182477D01*
X5517Y181540D01*
X6819Y180845D01*
X8231Y180416D01*
X9700Y180272D01*
X11169Y180416D01*
X12581Y180845D01*
X13882Y181540D01*
X15023Y182477D01*
X15960Y183617D01*
X16655Y184919D01*
X17084Y186331D01*
X17228Y187800D01*
X17084Y189269D01*
X16655Y190681D01*
X15960Y191982D01*
X15023Y193123D01*
X13882Y194060D01*
X12581Y194755D01*
X11169Y195184D01*
X9700Y195328D01*
D02*
G37*
G36*
X299382Y184241D02*
X298610Y184087D01*
X297955Y183650D01*
X297517Y182995D01*
X297363Y182222D01*
X297517Y181449D01*
X297955Y180794D01*
X298610Y180357D01*
X299382Y180203D01*
X300155Y180357D01*
X300810Y180794D01*
X301248Y181449D01*
X301401Y182222D01*
X301248Y182995D01*
X300810Y183650D01*
X300155Y184087D01*
X299382Y184241D01*
D02*
G37*
G36*
X193500Y186619D02*
X192727Y186465D01*
X192072Y186028D01*
X191635Y185373D01*
X191481Y184600D01*
X191635Y183827D01*
X192072Y183172D01*
X192727Y182735D01*
X193500Y182581D01*
X194007Y182682D01*
X194439Y182290D01*
X194381Y182000D01*
X194535Y181227D01*
X194972Y180572D01*
X195627Y180134D01*
X196400Y179981D01*
X197173Y180134D01*
X197828Y180572D01*
X198265Y181227D01*
X198419Y182000D01*
X198265Y182773D01*
X197828Y183428D01*
X197173Y183865D01*
X196400Y184019D01*
X195893Y183918D01*
X195461Y184310D01*
X195519Y184600D01*
X195365Y185373D01*
X194928Y186028D01*
X194273Y186465D01*
X193500Y186619D01*
D02*
G37*
G36*
X270584Y183786D02*
X269811Y183633D01*
X269156Y183195D01*
X268718Y182540D01*
X268565Y181767D01*
X268718Y180995D01*
X269156Y180340D01*
X269811Y179902D01*
X270584Y179748D01*
X271356Y179902D01*
X272011Y180340D01*
X272449Y180995D01*
X272603Y181767D01*
X272449Y182540D01*
X272011Y183195D01*
X271356Y183633D01*
X270584Y183786D01*
D02*
G37*
G36*
X216700Y181019D02*
X215927Y180865D01*
X215272Y180428D01*
X214835Y179773D01*
X214681Y179000D01*
X214739Y178709D01*
X214742Y178690D01*
X214265Y178573D01*
X213828Y179228D01*
X213173Y179665D01*
X212400Y179819D01*
X211627Y179665D01*
X210972Y179228D01*
X210535Y178573D01*
X210381Y177800D01*
X210535Y177027D01*
X210972Y176372D01*
X211627Y175935D01*
X212400Y175781D01*
X213173Y175935D01*
X213828Y176372D01*
X214265Y177027D01*
X214419Y177800D01*
X214361Y178091D01*
X214357Y178110D01*
X214835Y178227D01*
X215272Y177572D01*
X215927Y177135D01*
X216700Y176981D01*
X217473Y177135D01*
X218128Y177572D01*
X218565Y178227D01*
X218719Y179000D01*
X218565Y179773D01*
X218128Y180428D01*
X217473Y180865D01*
X216700Y181019D01*
D02*
G37*
G36*
X239700Y182419D02*
X238927Y182265D01*
X238272Y181828D01*
X237835Y181173D01*
X237681Y180400D01*
X237835Y179627D01*
X238272Y178972D01*
X238927Y178534D01*
X239700Y178381D01*
X240473Y178534D01*
X241128Y178972D01*
X241565Y179627D01*
X241719Y180400D01*
X241565Y181173D01*
X241128Y181828D01*
X240473Y182265D01*
X239700Y182419D01*
D02*
G37*
G36*
X260900Y182019D02*
X260127Y181865D01*
X259472Y181428D01*
X259035Y180773D01*
X258881Y180000D01*
X259035Y179227D01*
X259472Y178572D01*
X260127Y178135D01*
X260900Y177981D01*
X261673Y178135D01*
X262328Y178572D01*
X262765Y179227D01*
X262919Y180000D01*
X262765Y180773D01*
X262328Y181428D01*
X261673Y181865D01*
X260900Y182019D01*
D02*
G37*
G36*
X427400Y178920D02*
X426512Y178744D01*
X425759Y178241D01*
X425534Y177903D01*
X424932D01*
X424841Y178041D01*
X424088Y178543D01*
X423200Y178720D01*
X422312Y178543D01*
X421559Y178041D01*
X421056Y177288D01*
X420880Y176400D01*
X421056Y175512D01*
X421528Y174806D01*
X421457Y174272D01*
X421259Y174141D01*
X420756Y173388D01*
X420715Y173179D01*
X420205D01*
X420144Y173488D01*
X419641Y174241D01*
X419477Y174350D01*
Y174850D01*
X419641Y174959D01*
X420144Y175712D01*
X420320Y176600D01*
X420144Y177488D01*
X419641Y178241D01*
X418888Y178744D01*
X418000Y178920D01*
X417112Y178744D01*
X416359Y178241D01*
X415856Y177488D01*
X415680Y176600D01*
X415856Y175712D01*
X416359Y174959D01*
X416523Y174850D01*
Y174350D01*
X416359Y174241D01*
X415856Y173488D01*
X415680Y172600D01*
X415856Y171712D01*
X416359Y170959D01*
X417112Y170456D01*
X418000Y170280D01*
X418888Y170456D01*
X419641Y170959D01*
X420144Y171712D01*
X420185Y171921D01*
X420695D01*
X420756Y171612D01*
X421259Y170859D01*
X422012Y170356D01*
X422900Y170180D01*
X423788Y170356D01*
X424541Y170859D01*
X424972Y171505D01*
X425152Y171545D01*
X425348D01*
X425528Y171505D01*
X425959Y170859D01*
X426712Y170356D01*
X427600Y170180D01*
X428488Y170356D01*
X429241Y170859D01*
X429744Y171612D01*
X429920Y172500D01*
X429744Y173388D01*
X429241Y174141D01*
X428902Y174367D01*
Y174867D01*
X429041Y174959D01*
X429544Y175712D01*
X429720Y176600D01*
X429544Y177488D01*
X429041Y178241D01*
X428288Y178744D01*
X427400Y178920D01*
D02*
G37*
G36*
X370069Y181406D02*
X369297Y181252D01*
X368642Y180815D01*
X368204Y180160D01*
X368050Y179387D01*
X368204Y178614D01*
X368642Y177959D01*
X369297Y177522D01*
X370069Y177368D01*
X370842Y177522D01*
X371497Y177959D01*
X371935Y178614D01*
X372088Y179387D01*
X371935Y180160D01*
X371497Y180815D01*
X370842Y181252D01*
X370069Y181406D01*
D02*
G37*
G36*
X186599Y184699D02*
X179001D01*
Y177101D01*
X186599D01*
Y184699D01*
D02*
G37*
G36*
X172800Y184732D02*
X171808Y184601D01*
X170884Y184219D01*
X170090Y183610D01*
X169481Y182816D01*
X169099Y181892D01*
X168968Y180900D01*
X169099Y179908D01*
X169481Y178984D01*
X170090Y178190D01*
X170884Y177581D01*
X171808Y177199D01*
X172800Y177068D01*
X173792Y177199D01*
X174716Y177581D01*
X175510Y178190D01*
X176119Y178984D01*
X176501Y179908D01*
X176632Y180900D01*
X176501Y181892D01*
X176119Y182816D01*
X175510Y183610D01*
X174716Y184219D01*
X173792Y184601D01*
X172800Y184732D01*
D02*
G37*
G36*
X162800D02*
X161808Y184601D01*
X160884Y184219D01*
X160090Y183610D01*
X159481Y182816D01*
X159099Y181892D01*
X158968Y180900D01*
X159099Y179908D01*
X159481Y178984D01*
X160090Y178190D01*
X160884Y177581D01*
X161808Y177199D01*
X162800Y177068D01*
X163792Y177199D01*
X164716Y177581D01*
X165510Y178190D01*
X166119Y178984D01*
X166501Y179908D01*
X166632Y180900D01*
X166501Y181892D01*
X166119Y182816D01*
X165510Y183610D01*
X164716Y184219D01*
X163792Y184601D01*
X162800Y184732D01*
D02*
G37*
G36*
X152800D02*
X151808Y184601D01*
X150884Y184219D01*
X150090Y183610D01*
X149481Y182816D01*
X149099Y181892D01*
X148968Y180900D01*
X149099Y179908D01*
X149481Y178984D01*
X150090Y178190D01*
X150884Y177581D01*
X151808Y177199D01*
X152800Y177068D01*
X153792Y177199D01*
X154716Y177581D01*
X155510Y178190D01*
X156119Y178984D01*
X156501Y179908D01*
X156632Y180900D01*
X156501Y181892D01*
X156119Y182816D01*
X155510Y183610D01*
X154716Y184219D01*
X153792Y184601D01*
X152800Y184732D01*
D02*
G37*
G36*
X142800D02*
X141808Y184601D01*
X140884Y184219D01*
X140090Y183610D01*
X139481Y182816D01*
X139099Y181892D01*
X138968Y180900D01*
X139099Y179908D01*
X139481Y178984D01*
X140090Y178190D01*
X140884Y177581D01*
X141808Y177199D01*
X142800Y177068D01*
X143792Y177199D01*
X144716Y177581D01*
X145510Y178190D01*
X146119Y178984D01*
X146501Y179908D01*
X146632Y180900D01*
X146501Y181892D01*
X146119Y182816D01*
X145510Y183610D01*
X144716Y184219D01*
X143792Y184601D01*
X142800Y184732D01*
D02*
G37*
G36*
X132800D02*
X131808Y184601D01*
X130884Y184219D01*
X130090Y183610D01*
X129481Y182816D01*
X129099Y181892D01*
X128968Y180900D01*
X129099Y179908D01*
X129481Y178984D01*
X130090Y178190D01*
X130884Y177581D01*
X131808Y177199D01*
X132800Y177068D01*
X133792Y177199D01*
X134716Y177581D01*
X135510Y178190D01*
X136119Y178984D01*
X136501Y179908D01*
X136632Y180900D01*
X136501Y181892D01*
X136119Y182816D01*
X135510Y183610D01*
X134716Y184219D01*
X133792Y184601D01*
X132800Y184732D01*
D02*
G37*
G36*
X122800D02*
X121808Y184601D01*
X120884Y184219D01*
X120090Y183610D01*
X119481Y182816D01*
X119099Y181892D01*
X118968Y180900D01*
X119099Y179908D01*
X119481Y178984D01*
X120090Y178190D01*
X120884Y177581D01*
X121808Y177199D01*
X122800Y177068D01*
X123792Y177199D01*
X124716Y177581D01*
X125510Y178190D01*
X126119Y178984D01*
X126501Y179908D01*
X126632Y180900D01*
X126501Y181892D01*
X126119Y182816D01*
X125510Y183610D01*
X124716Y184219D01*
X123792Y184601D01*
X122800Y184732D01*
D02*
G37*
G36*
X296100Y181019D02*
X295327Y180865D01*
X294672Y180428D01*
X294235Y179773D01*
X294081Y179000D01*
X294235Y178227D01*
X294672Y177572D01*
X295327Y177135D01*
X296100Y176981D01*
X296873Y177135D01*
X297528Y177572D01*
X297965Y178227D01*
X298119Y179000D01*
X297965Y179773D01*
X297528Y180428D01*
X296873Y180865D01*
X296100Y181019D01*
D02*
G37*
G36*
X230431Y180635D02*
X229659Y180481D01*
X229003Y180044D01*
X228566Y179389D01*
X228412Y178616D01*
X228566Y177843D01*
X229003Y177188D01*
X229659Y176751D01*
X230431Y176597D01*
X231204Y176751D01*
X231859Y177188D01*
X232296Y177843D01*
X232450Y178616D01*
X232296Y179389D01*
X231859Y180044D01*
X231204Y180481D01*
X230431Y180635D01*
D02*
G37*
G36*
X327597Y180135D02*
X326825Y179981D01*
X326170Y179543D01*
X325732Y178888D01*
X325578Y178116D01*
X325732Y177343D01*
X326170Y176688D01*
X326825Y176250D01*
X327597Y176097D01*
X328370Y176250D01*
X329025Y176688D01*
X329463Y177343D01*
X329617Y178116D01*
X329463Y178888D01*
X329025Y179543D01*
X328370Y179981D01*
X327597Y180135D01*
D02*
G37*
G36*
X384507Y179308D02*
X383735Y179154D01*
X383080Y178716D01*
X382642Y178061D01*
X382488Y177288D01*
X382642Y176516D01*
X383080Y175861D01*
X383735Y175423D01*
X384507Y175269D01*
X385280Y175423D01*
X385935Y175861D01*
X386373Y176516D01*
X386526Y177288D01*
X386373Y178061D01*
X385935Y178716D01*
X385280Y179154D01*
X384507Y179308D01*
D02*
G37*
G36*
X323070Y178560D02*
X322297Y178406D01*
X321642Y177969D01*
X321204Y177314D01*
X321051Y176541D01*
X321204Y175768D01*
X321642Y175113D01*
X322297Y174676D01*
X323070Y174522D01*
X323843Y174676D01*
X324498Y175113D01*
X324935Y175768D01*
X325089Y176541D01*
X324935Y177314D01*
X324498Y177969D01*
X323843Y178406D01*
X323070Y178560D01*
D02*
G37*
G36*
X397076Y179446D02*
X396303Y179293D01*
X395648Y178855D01*
X395211Y178200D01*
X395057Y177427D01*
X395211Y176654D01*
X395648Y175999D01*
X396303Y175562D01*
X397053Y175413D01*
X397194Y175368D01*
X397494Y175067D01*
X397481Y175000D01*
X397635Y174227D01*
X398072Y173572D01*
X398727Y173135D01*
X399500Y172981D01*
X400273Y173135D01*
X400928Y173572D01*
X401365Y174227D01*
X401519Y175000D01*
X401365Y175773D01*
X400928Y176428D01*
X400273Y176865D01*
X399523Y177015D01*
X399382Y177059D01*
X399082Y177360D01*
X399095Y177427D01*
X398941Y178200D01*
X398504Y178855D01*
X397849Y179293D01*
X397076Y179446D01*
D02*
G37*
G36*
X318505Y176903D02*
X317732Y176750D01*
X317077Y176312D01*
X316639Y175657D01*
X316486Y174884D01*
X316639Y174111D01*
X317077Y173457D01*
X317732Y173019D01*
X318505Y172865D01*
X319277Y173019D01*
X319933Y173457D01*
X320370Y174111D01*
X320524Y174884D01*
X320370Y175657D01*
X319933Y176312D01*
X319277Y176750D01*
X318505Y176903D01*
D02*
G37*
G36*
X351700Y175119D02*
X350927Y174965D01*
X350272Y174528D01*
X349835Y173873D01*
X349681Y173100D01*
X349835Y172327D01*
X350272Y171672D01*
X350927Y171235D01*
X351700Y171081D01*
X352473Y171235D01*
X353128Y171672D01*
X353565Y172327D01*
X353719Y173100D01*
X353565Y173873D01*
X353128Y174528D01*
X352473Y174965D01*
X351700Y175119D01*
D02*
G37*
G36*
X342000Y175099D02*
X341227Y174946D01*
X340572Y174508D01*
X340135Y173853D01*
X339981Y173080D01*
X340135Y172308D01*
X340572Y171652D01*
X341227Y171215D01*
X342000Y171061D01*
X342773Y171215D01*
X343428Y171652D01*
X343865Y172308D01*
X344019Y173080D01*
X343865Y173853D01*
X343428Y174508D01*
X342773Y174946D01*
X342000Y175099D01*
D02*
G37*
G36*
X240700Y177819D02*
X239927Y177665D01*
X239272Y177228D01*
X238835Y176573D01*
X238681Y175800D01*
X238835Y175027D01*
X238923Y174896D01*
X238769Y174226D01*
X238472Y174028D01*
X238035Y173373D01*
X237881Y172600D01*
X238035Y171827D01*
X238472Y171172D01*
X239127Y170735D01*
X239900Y170581D01*
X240673Y170735D01*
X241328Y171172D01*
X241765Y171827D01*
X241919Y172600D01*
X241765Y173373D01*
X241677Y173504D01*
X241831Y174174D01*
X242128Y174372D01*
X242565Y175027D01*
X242719Y175800D01*
X242565Y176573D01*
X242128Y177228D01*
X241473Y177665D01*
X240700Y177819D01*
D02*
G37*
G36*
X255800Y176618D02*
X255027Y176465D01*
X254372Y176027D01*
X253935Y175372D01*
X253781Y174599D01*
X253935Y173827D01*
X254372Y173171D01*
X255027Y172734D01*
X255800Y172580D01*
X256473Y172714D01*
X256773Y172513D01*
X256913Y172360D01*
X256881Y172200D01*
X257035Y171427D01*
X257472Y170772D01*
X258127Y170334D01*
X258900Y170181D01*
X259673Y170334D01*
X260328Y170772D01*
X260765Y171427D01*
X260919Y172200D01*
X260765Y172973D01*
X260328Y173628D01*
X259673Y174065D01*
X258900Y174219D01*
X258227Y174085D01*
X257927Y174286D01*
X257787Y174440D01*
X257819Y174599D01*
X257665Y175372D01*
X257228Y176027D01*
X256573Y176465D01*
X255800Y176618D01*
D02*
G37*
G36*
X273812Y172690D02*
X273039Y172536D01*
X272384Y172099D01*
X271946Y171443D01*
X271793Y170671D01*
X271946Y169898D01*
X272384Y169243D01*
X273039Y168805D01*
X273812Y168652D01*
X274585Y168805D01*
X275239Y169243D01*
X275677Y169898D01*
X275831Y170671D01*
X275677Y171443D01*
X275239Y172099D01*
X274585Y172536D01*
X273812Y172690D01*
D02*
G37*
G36*
X290900Y171519D02*
X290127Y171365D01*
X289472Y170928D01*
X289035Y170273D01*
X288881Y169500D01*
X289035Y168727D01*
X289472Y168072D01*
X290127Y167634D01*
X290900Y167481D01*
X291673Y167634D01*
X292328Y168072D01*
X292765Y168727D01*
X292919Y169500D01*
X292765Y170273D01*
X292328Y170928D01*
X291673Y171365D01*
X290900Y171519D01*
D02*
G37*
G36*
X394489Y172086D02*
X393601Y171910D01*
X392848Y171407D01*
X392345Y170654D01*
X392169Y169766D01*
X392345Y168878D01*
X392848Y168125D01*
X393601Y167622D01*
X394489Y167446D01*
X395377Y167622D01*
X396130Y168125D01*
X396633Y168878D01*
X396809Y169766D01*
X396633Y170654D01*
X396130Y171407D01*
X395377Y171910D01*
X394489Y172086D01*
D02*
G37*
G36*
X235579Y170123D02*
X234807Y169970D01*
X234152Y169532D01*
X233714Y168877D01*
X233560Y168104D01*
X233714Y167332D01*
X234152Y166676D01*
X234807Y166239D01*
X235579Y166085D01*
X236352Y166239D01*
X237007Y166676D01*
X237445Y167332D01*
X237599Y168104D01*
X237445Y168877D01*
X237007Y169532D01*
X236352Y169970D01*
X235579Y170123D01*
D02*
G37*
G36*
X240520Y168141D02*
X239747Y167987D01*
X239092Y167550D01*
X238654Y166895D01*
X238500Y166122D01*
X238311Y165932D01*
X237985Y165997D01*
X237212Y165843D01*
X236557Y165406D01*
X236120Y164751D01*
X235966Y163978D01*
X236120Y163205D01*
X236557Y162550D01*
X237212Y162112D01*
X237985Y161959D01*
X238758Y162112D01*
X239413Y162550D01*
X239850Y163205D01*
X240004Y163978D01*
X240194Y164168D01*
X240520Y164103D01*
X241292Y164257D01*
X241947Y164694D01*
X242385Y165349D01*
X242539Y166122D01*
X242385Y166895D01*
X241947Y167550D01*
X241292Y167987D01*
X240520Y168141D01*
D02*
G37*
G36*
X361100Y168619D02*
X360327Y168465D01*
X359672Y168028D01*
X359235Y167373D01*
X359081Y166600D01*
X359235Y165827D01*
X359672Y165172D01*
X360327Y164734D01*
X361100Y164581D01*
X361873Y164734D01*
X362528Y165172D01*
X362965Y165827D01*
X363119Y166600D01*
X362965Y167373D01*
X362528Y168028D01*
X361873Y168465D01*
X361100Y168619D01*
D02*
G37*
G36*
X367600Y168419D02*
X366827Y168265D01*
X366172Y167828D01*
X365735Y167173D01*
X365581Y166400D01*
X365735Y165627D01*
X366172Y164972D01*
X366827Y164535D01*
X367600Y164381D01*
X368373Y164535D01*
X369028Y164972D01*
X369465Y165627D01*
X369619Y166400D01*
X369465Y167173D01*
X369028Y167828D01*
X368373Y168265D01*
X367600Y168419D01*
D02*
G37*
G36*
X284600Y167619D02*
X283827Y167465D01*
X283172Y167028D01*
X282735Y166373D01*
X282581Y165600D01*
X282735Y164827D01*
X283172Y164172D01*
X283827Y163734D01*
X284600Y163581D01*
X285373Y163734D01*
X286028Y164172D01*
X286465Y164827D01*
X286619Y165600D01*
X286465Y166373D01*
X286028Y167028D01*
X285373Y167465D01*
X284600Y167619D01*
D02*
G37*
G36*
X257507Y166744D02*
X256734Y166590D01*
X256079Y166152D01*
X255641Y165497D01*
X255488Y164724D01*
X255641Y163952D01*
X256079Y163297D01*
X256734Y162859D01*
X257507Y162705D01*
X258279Y162859D01*
X258934Y163297D01*
X259372Y163952D01*
X259526Y164724D01*
X259372Y165497D01*
X258934Y166152D01*
X258279Y166590D01*
X257507Y166744D01*
D02*
G37*
G36*
X385631Y165750D02*
X384858Y165596D01*
X384203Y165158D01*
X383765Y164503D01*
X383612Y163731D01*
X383765Y162958D01*
X384203Y162303D01*
X384858Y161865D01*
X385631Y161712D01*
X386403Y161865D01*
X387058Y162303D01*
X387496Y162958D01*
X387650Y163731D01*
X387496Y164503D01*
X387058Y165158D01*
X386403Y165596D01*
X385631Y165750D01*
D02*
G37*
G36*
X314782Y165641D02*
X314010Y165487D01*
X313354Y165050D01*
X312917Y164395D01*
X312763Y163622D01*
X312917Y162849D01*
X313354Y162194D01*
X314010Y161757D01*
X314782Y161603D01*
X315555Y161757D01*
X316210Y162194D01*
X316648Y162849D01*
X316801Y163622D01*
X316648Y164395D01*
X316210Y165050D01*
X315555Y165487D01*
X314782Y165641D01*
D02*
G37*
G36*
X301500Y165519D02*
X300727Y165365D01*
X300072Y164928D01*
X299635Y164273D01*
X299481Y163500D01*
X299635Y162727D01*
X300072Y162072D01*
X300727Y161635D01*
X301500Y161481D01*
X302273Y161635D01*
X302928Y162072D01*
X303365Y162727D01*
X303519Y163500D01*
X303365Y164273D01*
X302928Y164928D01*
X302273Y165365D01*
X301500Y165519D01*
D02*
G37*
G36*
X377954Y163517D02*
X377181Y163364D01*
X376526Y162926D01*
X376088Y162271D01*
X375934Y161498D01*
X376088Y160726D01*
X376526Y160071D01*
X377181Y159633D01*
X377954Y159479D01*
X378726Y159633D01*
X379381Y160071D01*
X379819Y160726D01*
X379973Y161498D01*
X379819Y162271D01*
X379381Y162926D01*
X378726Y163364D01*
X377954Y163517D01*
D02*
G37*
G36*
X258457Y160091D02*
X257685Y159938D01*
X257030Y159500D01*
X256790Y159141D01*
X256188D01*
X255948Y159500D01*
X255293Y159938D01*
X254521Y160091D01*
X253748Y159938D01*
X253093Y159500D01*
X252853Y159141D01*
X252251D01*
X252011Y159500D01*
X251356Y159938D01*
X250584Y160091D01*
X249811Y159938D01*
X249156Y159500D01*
X248718Y158845D01*
X248564Y158072D01*
X248718Y157300D01*
X249156Y156645D01*
X249811Y156207D01*
X250584Y156053D01*
X251356Y156207D01*
X252011Y156645D01*
X252251Y157004D01*
X252853D01*
X253093Y156645D01*
X253748Y156207D01*
X254521Y156053D01*
X255293Y156207D01*
X255948Y156645D01*
X256188Y157004D01*
X256790D01*
X257030Y156645D01*
X257685Y156207D01*
X258457Y156053D01*
X259230Y156207D01*
X259885Y156645D01*
X260323Y157300D01*
X260477Y158072D01*
X260323Y158845D01*
X259885Y159500D01*
X259230Y159938D01*
X258457Y160091D01*
D02*
G37*
G36*
X284835Y163039D02*
X284063Y162885D01*
X283408Y162447D01*
X282970Y161792D01*
X282816Y161020D01*
X282970Y160247D01*
X283408Y159592D01*
X284063Y159154D01*
X284835Y159001D01*
X285608Y159154D01*
X286263Y159592D01*
X286701Y160247D01*
X286855Y161020D01*
X286701Y161792D01*
X286263Y162447D01*
X285608Y162885D01*
X284835Y163039D01*
D02*
G37*
G36*
X163800Y162519D02*
X163027Y162365D01*
X162372Y161928D01*
X161935Y161273D01*
X161781Y160500D01*
X161935Y159727D01*
X162372Y159072D01*
X163027Y158635D01*
X163800Y158481D01*
X164573Y158635D01*
X165228Y159072D01*
X165665Y159727D01*
X165819Y160500D01*
X165665Y161273D01*
X165228Y161928D01*
X164573Y162365D01*
X163800Y162519D01*
D02*
G37*
G36*
X201700Y162266D02*
X200927Y162112D01*
X200272Y161674D01*
X199835Y161019D01*
X199681Y160247D01*
X199835Y159474D01*
X200272Y158819D01*
X200927Y158381D01*
X201700Y158228D01*
X202473Y158381D01*
X203128Y158819D01*
X203565Y159474D01*
X203719Y160247D01*
X203565Y161019D01*
X203128Y161674D01*
X202473Y162112D01*
X201700Y162266D01*
D02*
G37*
G36*
X361023Y162730D02*
X360251Y162576D01*
X359596Y162138D01*
X359158Y161483D01*
X359004Y160711D01*
X359158Y159938D01*
X359596Y159283D01*
X360251Y158845D01*
X361023Y158692D01*
X361796Y158845D01*
X362169Y159094D01*
X362569Y159179D01*
X362810Y158967D01*
X363094Y158542D01*
X363749Y158104D01*
X364522Y157951D01*
X365294Y158104D01*
X365949Y158542D01*
X366387Y159197D01*
X366541Y159970D01*
X366387Y160742D01*
X365949Y161398D01*
X365294Y161835D01*
X364522Y161989D01*
X363749Y161835D01*
X363376Y161586D01*
X362976Y161502D01*
X362735Y161714D01*
X362451Y162138D01*
X361796Y162576D01*
X361023Y162730D01*
D02*
G37*
G36*
X346020Y161806D02*
X345247Y161653D01*
X344592Y161215D01*
X344154Y160560D01*
X344001Y159787D01*
X344154Y159015D01*
X344592Y158360D01*
X345247Y157922D01*
X346020Y157768D01*
X346792Y157922D01*
X347447Y158360D01*
X347885Y159015D01*
X348039Y159787D01*
X347885Y160560D01*
X347447Y161215D01*
X346792Y161653D01*
X346020Y161806D01*
D02*
G37*
G36*
X231600Y161719D02*
X230827Y161565D01*
X230172Y161128D01*
X229735Y160473D01*
X229581Y159700D01*
X229735Y158927D01*
X230172Y158272D01*
X230827Y157835D01*
X231600Y157681D01*
X232373Y157835D01*
X233028Y158272D01*
X233465Y158927D01*
X233619Y159700D01*
X233465Y160473D01*
X233028Y161128D01*
X232373Y161565D01*
X231600Y161719D01*
D02*
G37*
G36*
X220323Y161197D02*
X219550Y161043D01*
X218895Y160605D01*
X218457Y159950D01*
X218303Y159178D01*
X218457Y158405D01*
X218895Y157750D01*
X219550Y157312D01*
X220323Y157159D01*
X221095Y157312D01*
X221750Y157750D01*
X222188Y158405D01*
X222342Y159178D01*
X222188Y159950D01*
X221750Y160605D01*
X221095Y161043D01*
X220323Y161197D01*
D02*
G37*
G36*
X297184Y161086D02*
X296411Y160933D01*
X295756Y160495D01*
X295318Y159840D01*
X295165Y159067D01*
X295318Y158295D01*
X295756Y157640D01*
X296411Y157202D01*
X297184Y157048D01*
X297956Y157202D01*
X298611Y157640D01*
X299049Y158295D01*
X299203Y159067D01*
X299049Y159840D01*
X298611Y160495D01*
X297956Y160933D01*
X297184Y161086D01*
D02*
G37*
G36*
X267119Y159698D02*
X266346Y159544D01*
X265691Y159106D01*
X265253Y158451D01*
X265100Y157679D01*
X265253Y156906D01*
X265691Y156251D01*
X266346Y155813D01*
X267119Y155660D01*
X267892Y155813D01*
X268547Y156251D01*
X268984Y156906D01*
X269138Y157679D01*
X268984Y158451D01*
X268547Y159106D01*
X267892Y159544D01*
X267119Y159698D01*
D02*
G37*
G36*
X322331Y159570D02*
X321558Y159416D01*
X320903Y158979D01*
X320465Y158324D01*
X320311Y157551D01*
X320465Y156778D01*
X320903Y156123D01*
X321558Y155685D01*
X322331Y155532D01*
X323103Y155685D01*
X323758Y156123D01*
X324196Y156778D01*
X324350Y157551D01*
X324196Y158324D01*
X323758Y158979D01*
X323103Y159416D01*
X322331Y159570D01*
D02*
G37*
G36*
X227900Y165019D02*
X227127Y164865D01*
X226472Y164428D01*
X226035Y163773D01*
X225881Y163000D01*
X226035Y162227D01*
X225908Y161921D01*
X225627Y161865D01*
X224972Y161428D01*
X224535Y160773D01*
X224381Y160000D01*
X224535Y159227D01*
X224972Y158572D01*
X225212Y158412D01*
X225107Y157881D01*
X225027Y157865D01*
X224372Y157428D01*
X223935Y156773D01*
X223781Y156000D01*
X223935Y155227D01*
X224372Y154572D01*
X225027Y154135D01*
X225800Y153981D01*
X226573Y154135D01*
X227228Y154572D01*
X227665Y155227D01*
X227819Y156000D01*
X227665Y156773D01*
X227228Y157428D01*
X226988Y157588D01*
X227093Y158119D01*
X227173Y158135D01*
X227828Y158572D01*
X228265Y159227D01*
X228419Y160000D01*
X228265Y160773D01*
X228392Y161079D01*
X228673Y161135D01*
X229328Y161572D01*
X229765Y162227D01*
X229919Y163000D01*
X229765Y163773D01*
X229328Y164428D01*
X228673Y164865D01*
X227900Y165019D01*
D02*
G37*
G36*
X393308Y157612D02*
X392535Y157458D01*
X391880Y157021D01*
X391442Y156366D01*
X391289Y155593D01*
X391442Y154820D01*
X391880Y154165D01*
X392535Y153727D01*
X393308Y153574D01*
X394080Y153727D01*
X394736Y154165D01*
X395173Y154820D01*
X395327Y155593D01*
X395173Y156366D01*
X394736Y157021D01*
X394080Y157458D01*
X393308Y157612D01*
D02*
G37*
G36*
X293400Y157219D02*
X292627Y157065D01*
X291972Y156628D01*
X291535Y155973D01*
X291381Y155200D01*
X291535Y154427D01*
X291972Y153772D01*
X292627Y153334D01*
X293400Y153181D01*
X294173Y153334D01*
X294828Y153772D01*
X295265Y154427D01*
X295419Y155200D01*
X295265Y155973D01*
X294828Y156628D01*
X294173Y157065D01*
X293400Y157219D01*
D02*
G37*
G36*
X201500Y155066D02*
X200727Y154912D01*
X200072Y154474D01*
X199635Y153819D01*
X199481Y153047D01*
X199635Y152274D01*
X200072Y151619D01*
X200727Y151181D01*
X201500Y151028D01*
X202273Y151181D01*
X202928Y151619D01*
X203365Y152274D01*
X203519Y153047D01*
X203365Y153819D01*
X202928Y154474D01*
X202273Y154912D01*
X201500Y155066D01*
D02*
G37*
G36*
X322000Y153519D02*
X321227Y153365D01*
X320572Y152928D01*
X320135Y152273D01*
X319981Y151500D01*
X320135Y150727D01*
X320572Y150072D01*
X321227Y149635D01*
X322000Y149481D01*
X322773Y149635D01*
X323428Y150072D01*
X323865Y150727D01*
X324019Y151500D01*
X323865Y152273D01*
X323428Y152928D01*
X322773Y153365D01*
X322000Y153519D01*
D02*
G37*
G36*
X341135Y152699D02*
X340362Y152545D01*
X339707Y152107D01*
X339269Y151452D01*
X339116Y150680D01*
X339269Y149907D01*
X339707Y149252D01*
X340362Y148814D01*
X341135Y148660D01*
X341907Y148814D01*
X342562Y149252D01*
X343000Y149907D01*
X343154Y150680D01*
X343000Y151452D01*
X342562Y152107D01*
X341907Y152545D01*
X341135Y152699D01*
D02*
G37*
G36*
X332284Y152694D02*
X331435Y152525D01*
X330715Y152044D01*
X330234Y151324D01*
X330065Y150475D01*
X330234Y149625D01*
X330715Y148905D01*
X331435Y148424D01*
X332284Y148255D01*
X333134Y148424D01*
X333854Y148905D01*
X334335Y149625D01*
X334504Y150475D01*
X334335Y151324D01*
X333854Y152044D01*
X333134Y152525D01*
X332284Y152694D01*
D02*
G37*
G36*
X390158Y152100D02*
X389386Y151946D01*
X388731Y151509D01*
X388293Y150854D01*
X388139Y150081D01*
X388293Y149308D01*
X388731Y148653D01*
X389386Y148216D01*
X390158Y148062D01*
X390931Y148216D01*
X391586Y148653D01*
X392024Y149308D01*
X392177Y150081D01*
X392024Y150854D01*
X391586Y151509D01*
X390931Y151946D01*
X390158Y152100D01*
D02*
G37*
G36*
X226020Y150339D02*
X225248Y150186D01*
X224592Y149748D01*
X224155Y149093D01*
X224001Y148320D01*
X224155Y147547D01*
X224592Y146892D01*
X225248Y146455D01*
X226020Y146301D01*
X226793Y146455D01*
X227448Y146892D01*
X227886Y147547D01*
X228039Y148320D01*
X227886Y149093D01*
X227448Y149748D01*
X226793Y150186D01*
X226020Y150339D01*
D02*
G37*
G36*
X243497Y152812D02*
X242724Y152658D01*
X242069Y152221D01*
X241631Y151566D01*
X241478Y150793D01*
X241631Y150020D01*
X242069Y149365D01*
X242724Y148927D01*
X243312Y148811D01*
X243176Y148126D01*
X243330Y147354D01*
X243768Y146699D01*
X244423Y146261D01*
X245195Y146107D01*
X245968Y146261D01*
X246623Y146699D01*
X247061Y147354D01*
X247214Y148126D01*
X247061Y148899D01*
X246623Y149554D01*
X245968Y149992D01*
X245380Y150109D01*
X245516Y150793D01*
X245362Y151566D01*
X244925Y152221D01*
X244269Y152658D01*
X243497Y152812D01*
D02*
G37*
G36*
X422820Y153101D02*
X421932Y152924D01*
X421180Y152421D01*
X420677Y151669D01*
X420500Y150781D01*
X420677Y149893D01*
X420928Y149517D01*
X421114Y149042D01*
X420903Y148723D01*
X420612Y148287D01*
X420435Y147400D01*
X420612Y146512D01*
X421115Y145759D01*
X421868Y145256D01*
X422756Y145080D01*
X423643Y145256D01*
X424396Y145759D01*
X424899Y146512D01*
X425076Y147400D01*
X424899Y148287D01*
X424648Y148664D01*
X424462Y149139D01*
X424673Y149457D01*
X424964Y149893D01*
X425140Y150781D01*
X424964Y151669D01*
X424461Y152421D01*
X423708Y152924D01*
X422820Y153101D01*
D02*
G37*
G36*
X318706Y148417D02*
X317933Y148264D01*
X317278Y147826D01*
X316841Y147171D01*
X316687Y146398D01*
X316841Y145626D01*
X317278Y144971D01*
X317933Y144533D01*
X318706Y144379D01*
X319479Y144533D01*
X320134Y144971D01*
X320571Y145626D01*
X320725Y146398D01*
X320571Y147171D01*
X320134Y147826D01*
X319479Y148264D01*
X318706Y148417D01*
D02*
G37*
G36*
X138100Y151519D02*
X137327Y151365D01*
X136672Y150928D01*
X136235Y150273D01*
X136100Y149593D01*
X135908Y149329D01*
X135643Y149137D01*
X134964Y149002D01*
X134309Y148565D01*
X133871Y147909D01*
X133718Y147137D01*
X133871Y146364D01*
X134309Y145709D01*
X134900Y145314D01*
X134986Y145072D01*
X135021Y144750D01*
X134760Y144361D01*
X134224Y144300D01*
X134175Y144316D01*
X133546Y144736D01*
X132773Y144889D01*
X132001Y144736D01*
X131346Y144298D01*
X130908Y143643D01*
X130754Y142870D01*
X130908Y142097D01*
X131346Y141443D01*
X131112Y140997D01*
X130808Y140543D01*
X130654Y139770D01*
X130808Y138997D01*
X131127Y138520D01*
X131207Y138170D01*
X131127Y137820D01*
X130808Y137343D01*
X130654Y136570D01*
X130808Y135798D01*
X131246Y135143D01*
X131901Y134705D01*
X132674Y134551D01*
X133446Y134705D01*
X134101Y135143D01*
X134539Y135798D01*
X134693Y136570D01*
X134539Y137343D01*
X134220Y137820D01*
X134140Y138170D01*
X134220Y138520D01*
X134539Y138997D01*
X134693Y139770D01*
X134539Y140543D01*
X134101Y141198D01*
X134335Y141643D01*
X134513Y141909D01*
X135050Y141970D01*
X135099Y141954D01*
X135727Y141535D01*
X136500Y141381D01*
X137273Y141535D01*
X137928Y141972D01*
X137995Y142072D01*
X138472D01*
X139127Y141635D01*
X139900Y141481D01*
X140673Y141635D01*
X141328Y142072D01*
X141765Y142727D01*
X141919Y143500D01*
X141765Y144273D01*
X141328Y144928D01*
X140673Y145365D01*
X139900Y145519D01*
X139127Y145365D01*
X138472Y144928D01*
X138406Y144828D01*
X137928D01*
X137337Y145223D01*
X137251Y145464D01*
X137216Y145786D01*
X137602Y146364D01*
X137737Y147043D01*
X137929Y147308D01*
X138194Y147500D01*
X138873Y147635D01*
X139528Y148072D01*
X139965Y148727D01*
X140119Y149500D01*
X139965Y150273D01*
X139528Y150928D01*
X138873Y151365D01*
X138100Y151519D01*
D02*
G37*
G36*
X218800Y146866D02*
X218027Y146712D01*
X217372Y146274D01*
X216935Y145619D01*
X216781Y144847D01*
X216935Y144074D01*
X217372Y143419D01*
X218027Y142981D01*
X218800Y142827D01*
X219573Y142981D01*
X220228Y143419D01*
X220665Y144074D01*
X220819Y144847D01*
X220665Y145619D01*
X220228Y146274D01*
X219573Y146712D01*
X218800Y146866D01*
D02*
G37*
G36*
X305800Y149519D02*
X305027Y149365D01*
X304372Y148928D01*
X303935Y148273D01*
X303781Y147500D01*
X303935Y146727D01*
X304372Y146072D01*
X304573Y145938D01*
Y145766D01*
X304135Y145111D01*
X303981Y144339D01*
X304135Y143566D01*
X304573Y142911D01*
X305228Y142473D01*
X306001Y142319D01*
X306773Y142473D01*
X307428Y142911D01*
X307866Y143566D01*
X308020Y144339D01*
X307866Y145111D01*
X307503Y145655D01*
X307428Y145768D01*
X307426Y146369D01*
X307665Y146727D01*
X307819Y147500D01*
X307665Y148273D01*
X307228Y148928D01*
X306573Y149365D01*
X305800Y149519D01*
D02*
G37*
G36*
X341800Y145119D02*
X341027Y144965D01*
X340372Y144528D01*
X339935Y143873D01*
X339781Y143100D01*
X339935Y142327D01*
X340372Y141672D01*
X341027Y141235D01*
X341800Y141081D01*
X342573Y141235D01*
X343228Y141672D01*
X343665Y142327D01*
X343819Y143100D01*
X343665Y143873D01*
X343228Y144528D01*
X342573Y144965D01*
X341800Y145119D01*
D02*
G37*
G36*
X272631Y144245D02*
X271858Y144091D01*
X271203Y143654D01*
X270765Y142999D01*
X270612Y142226D01*
X270765Y141453D01*
X271203Y140798D01*
X271858Y140361D01*
X272631Y140207D01*
X273403Y140361D01*
X274058Y140798D01*
X274496Y141453D01*
X274650Y142226D01*
X274496Y142999D01*
X274058Y143654D01*
X273403Y144091D01*
X272631Y144245D01*
D02*
G37*
G36*
X433247Y144032D02*
X432475Y143878D01*
X431819Y143440D01*
X431382Y142785D01*
X431228Y142013D01*
X431382Y141240D01*
X431819Y140585D01*
X432475Y140147D01*
X433247Y139993D01*
X434020Y140147D01*
X434675Y140585D01*
X435113Y141240D01*
X435266Y142013D01*
X435113Y142785D01*
X434675Y143440D01*
X434020Y143878D01*
X433247Y144032D01*
D02*
G37*
G36*
X408268Y144527D02*
X407381Y144351D01*
X406628Y143848D01*
X406125Y143095D01*
X405948Y142207D01*
X406125Y141319D01*
X406628Y140566D01*
X407381Y140064D01*
X408268Y139887D01*
X409156Y140064D01*
X409909Y140566D01*
X410412Y141319D01*
X410589Y142207D01*
X410412Y143095D01*
X409909Y143848D01*
X409156Y144351D01*
X408268Y144527D01*
D02*
G37*
G36*
X328260Y142920D02*
X327372Y142744D01*
X326619Y142241D01*
X326116Y141488D01*
X325940Y140600D01*
X326116Y139712D01*
X326619Y138959D01*
X327372Y138456D01*
X328260Y138280D01*
X329148Y138456D01*
X329901Y138959D01*
X330403Y139712D01*
X330580Y140600D01*
X330403Y141488D01*
X329901Y142241D01*
X329148Y142744D01*
X328260Y142920D01*
D02*
G37*
G36*
X308120Y142027D02*
X307347Y141873D01*
X306692Y141436D01*
X306254Y140781D01*
X306101Y140008D01*
X306254Y139235D01*
X306692Y138580D01*
X307347Y138143D01*
X308120Y137989D01*
X308892Y138143D01*
X309547Y138580D01*
X309985Y139235D01*
X310139Y140008D01*
X309985Y140781D01*
X309547Y141436D01*
X308892Y141873D01*
X308120Y142027D01*
D02*
G37*
G36*
X314900Y144819D02*
X314127Y144665D01*
X313472Y144228D01*
X313035Y143573D01*
X312881Y142800D01*
X313035Y142027D01*
X313472Y141372D01*
X314127Y140935D01*
X314268Y140397D01*
X314085Y140123D01*
X313931Y139350D01*
X314085Y138577D01*
X314522Y137922D01*
X315177Y137485D01*
X315950Y137331D01*
X316723Y137485D01*
X317378Y137922D01*
X317565Y138203D01*
X317771Y138213D01*
X318127Y138143D01*
X318508Y137572D01*
X319163Y137135D01*
X319935Y136981D01*
X320708Y137135D01*
X321363Y137572D01*
X321801Y138227D01*
X321955Y139000D01*
X321801Y139773D01*
X321594Y140082D01*
X321428Y140572D01*
X321865Y141227D01*
X322019Y142000D01*
X321865Y142773D01*
X321428Y143428D01*
X320773Y143865D01*
X320000Y144019D01*
X319227Y143865D01*
X318572Y143428D01*
X318135Y142773D01*
X317981Y142000D01*
X318135Y141227D01*
X318341Y140918D01*
X318452Y140591D01*
X318221Y140249D01*
X317705Y140287D01*
X317378Y140778D01*
X316723Y141215D01*
X316582Y141753D01*
X316765Y142027D01*
X316919Y142800D01*
X316765Y143573D01*
X316328Y144228D01*
X315673Y144665D01*
X314900Y144819D01*
D02*
G37*
G36*
X245072Y140013D02*
X244299Y139859D01*
X243644Y139421D01*
X243206Y138766D01*
X243053Y137994D01*
X243206Y137221D01*
X243644Y136566D01*
X244299Y136128D01*
X245072Y135975D01*
X245844Y136128D01*
X246499Y136566D01*
X246937Y137221D01*
X247091Y137994D01*
X246937Y138766D01*
X246499Y139421D01*
X245844Y139859D01*
X245072Y140013D01*
D02*
G37*
G36*
X268265Y139422D02*
X267492Y139269D01*
X266837Y138831D01*
X266400Y138176D01*
X266246Y137403D01*
X266400Y136630D01*
X266837Y135975D01*
X267492Y135538D01*
X268265Y135384D01*
X269038Y135538D01*
X269693Y135975D01*
X270130Y136630D01*
X270284Y137403D01*
X270130Y138176D01*
X269693Y138831D01*
X269038Y139269D01*
X268265Y139422D01*
D02*
G37*
G36*
X301120Y142919D02*
X300347Y142765D01*
X299692Y142328D01*
X299254Y141673D01*
X299101Y140900D01*
X299254Y140127D01*
X299692Y139472D01*
X300029Y139247D01*
Y138646D01*
X299972Y138608D01*
X299535Y137953D01*
X299381Y137180D01*
X299535Y136408D01*
X299972Y135752D01*
X300627Y135315D01*
X301400Y135161D01*
X302173Y135315D01*
X302828Y135752D01*
X303265Y136408D01*
X303419Y137180D01*
X303265Y137953D01*
X302828Y138608D01*
X302491Y138833D01*
Y139434D01*
X302547Y139472D01*
X302985Y140127D01*
X303139Y140900D01*
X302985Y141673D01*
X302547Y142328D01*
X301892Y142765D01*
X301120Y142919D01*
D02*
G37*
G36*
X202600Y136919D02*
X201827Y136765D01*
X201172Y136328D01*
X200735Y135673D01*
X200581Y134900D01*
X200735Y134127D01*
X201172Y133472D01*
X201827Y133035D01*
X202600Y132881D01*
X203373Y133035D01*
X204028Y133472D01*
X204465Y134127D01*
X204619Y134900D01*
X204465Y135673D01*
X204028Y136328D01*
X203373Y136765D01*
X202600Y136919D01*
D02*
G37*
G36*
X260032Y134501D02*
X259259Y134347D01*
X258604Y133909D01*
X258166Y133254D01*
X258108Y132960D01*
X257655Y132773D01*
X256883Y132926D01*
X256110Y132773D01*
X255455Y132335D01*
X255017Y131680D01*
X254864Y130907D01*
X255017Y130134D01*
X255455Y129479D01*
X256110Y129042D01*
X256883Y128888D01*
X257655Y129042D01*
X258310Y129479D01*
X258748Y130134D01*
X258807Y130429D01*
X259259Y130616D01*
X260032Y130462D01*
X260804Y130616D01*
X261459Y131054D01*
X261897Y131709D01*
X262051Y132482D01*
X261897Y133254D01*
X261459Y133909D01*
X260804Y134347D01*
X260032Y134501D01*
D02*
G37*
G36*
X382678Y133203D02*
X381905Y133049D01*
X381250Y132611D01*
X381010Y132251D01*
X380408D01*
X380168Y132611D01*
X379513Y133049D01*
X378740Y133202D01*
X377967Y133049D01*
X377312Y132611D01*
X376875Y131956D01*
X376721Y131183D01*
X376875Y130411D01*
X377312Y129755D01*
X377967Y129318D01*
X378740Y129164D01*
X379513Y129318D01*
X380168Y129755D01*
X380408Y130116D01*
X381010D01*
X381250Y129756D01*
X381905Y129318D01*
X382678Y129164D01*
X383451Y129318D01*
X384106Y129756D01*
X384543Y130411D01*
X384697Y131183D01*
X384543Y131956D01*
X384106Y132611D01*
X383451Y133049D01*
X382678Y133203D01*
D02*
G37*
G36*
X222300Y135819D02*
X221527Y135665D01*
X220872Y135228D01*
X220435Y134573D01*
X220281Y133800D01*
X220435Y133027D01*
X220872Y132372D01*
X221527Y131934D01*
X222300Y131781D01*
X223073Y131934D01*
X223728Y132372D01*
X224165Y133027D01*
X224319Y133800D01*
X224165Y134573D01*
X223728Y135228D01*
X223073Y135665D01*
X222300Y135819D01*
D02*
G37*
G36*
X213300D02*
X212527Y135665D01*
X211872Y135228D01*
X211435Y134573D01*
X211281Y133800D01*
X211435Y133027D01*
X211872Y132372D01*
X212527Y131934D01*
X213300Y131781D01*
X214073Y131934D01*
X214728Y132372D01*
X215165Y133027D01*
X215319Y133800D01*
X215165Y134573D01*
X214728Y135228D01*
X214073Y135665D01*
X213300Y135819D01*
D02*
G37*
G36*
X339905Y136539D02*
X339132Y136385D01*
X338477Y135947D01*
X338039Y135292D01*
X337885Y134520D01*
X338039Y133747D01*
X338402Y133204D01*
X338278Y132670D01*
X338204Y132655D01*
X337549Y132217D01*
X337111Y131562D01*
X336957Y130789D01*
X337111Y130017D01*
X337549Y129362D01*
X338204Y128924D01*
X338976Y128770D01*
X339749Y128924D01*
X340404Y129362D01*
X340842Y130017D01*
X340995Y130789D01*
X340842Y131562D01*
X340479Y132105D01*
X340603Y132640D01*
X340677Y132654D01*
X341077Y132922D01*
X341569Y132852D01*
X341662Y132757D01*
X342040Y132192D01*
X342695Y131754D01*
X343468Y131600D01*
X344240Y131754D01*
X344767Y132106D01*
X345189Y132001D01*
X345314Y131919D01*
X345379Y131592D01*
X345817Y130937D01*
X346472Y130499D01*
X347245Y130345D01*
X348018Y130499D01*
X348673Y130937D01*
X349110Y131592D01*
X349264Y132364D01*
X349110Y133137D01*
X348673Y133792D01*
X348018Y134230D01*
X347245Y134384D01*
X346472Y134230D01*
X345945Y133878D01*
X345523Y133984D01*
X345398Y134065D01*
X345333Y134392D01*
X344895Y135047D01*
X344240Y135485D01*
X343468Y135639D01*
X342695Y135485D01*
X342295Y135218D01*
X341803Y135288D01*
X341710Y135382D01*
X341332Y135947D01*
X340677Y136385D01*
X339905Y136539D01*
D02*
G37*
G36*
X306200Y134119D02*
X305427Y133965D01*
X304772Y133528D01*
X304335Y132873D01*
X304181Y132100D01*
X304335Y131327D01*
X304772Y130672D01*
X305427Y130235D01*
X306200Y130081D01*
X306973Y130235D01*
X307628Y130672D01*
X308065Y131327D01*
X308219Y132100D01*
X308065Y132873D01*
X307628Y133528D01*
X306973Y133965D01*
X306200Y134119D01*
D02*
G37*
G36*
X387796Y133990D02*
X387023Y133836D01*
X386368Y133399D01*
X385931Y132744D01*
X385777Y131971D01*
X385931Y131198D01*
X386368Y130543D01*
X387023Y130105D01*
X387796Y129952D01*
X388569Y130105D01*
X389224Y130543D01*
X389662Y131198D01*
X389815Y131971D01*
X389662Y132744D01*
X389224Y133399D01*
X388569Y133836D01*
X387796Y133990D01*
D02*
G37*
G36*
X231421Y132198D02*
X230648Y132044D01*
X229993Y131607D01*
X229556Y130952D01*
X229402Y130179D01*
X229423Y130071D01*
X229070Y129718D01*
X228930Y129745D01*
X228558Y129672D01*
X228133Y130097D01*
X228133Y130098D01*
X227979Y130870D01*
X227541Y131526D01*
X226886Y131963D01*
X226114Y132117D01*
X225341Y131963D01*
X224686Y131526D01*
X224248Y130870D01*
X224095Y130098D01*
X224248Y129325D01*
X224686Y128670D01*
X225341Y128232D01*
X226114Y128079D01*
X226486Y128153D01*
X226911Y127727D01*
X226911Y127726D01*
X227064Y126954D01*
X227502Y126299D01*
X228157Y125861D01*
X228930Y125707D01*
X229703Y125861D01*
X230358Y126299D01*
X230795Y126954D01*
X230949Y127726D01*
X230928Y127834D01*
X231281Y128188D01*
X231421Y128160D01*
X232194Y128314D01*
X232849Y128751D01*
X233286Y129406D01*
X233440Y130179D01*
X233286Y130952D01*
X232849Y131607D01*
X232194Y132044D01*
X231421Y132198D01*
D02*
G37*
G36*
X373400Y133319D02*
X372627Y133165D01*
X371972Y132728D01*
X371535Y132073D01*
X371381Y131300D01*
X371535Y130527D01*
X371972Y129872D01*
X372627Y129435D01*
X373400Y129281D01*
X374173Y129435D01*
X374828Y129872D01*
X375265Y130527D01*
X375419Y131300D01*
X375265Y132073D01*
X374828Y132728D01*
X374173Y133165D01*
X373400Y133319D01*
D02*
G37*
G36*
X202900Y131119D02*
X202127Y130965D01*
X201472Y130528D01*
X201035Y129873D01*
X200881Y129100D01*
X200912Y128941D01*
X200559Y128587D01*
X200400Y128619D01*
X199627Y128465D01*
X198972Y128028D01*
X198535Y127373D01*
X198381Y126600D01*
X198535Y125827D01*
X198972Y125172D01*
X199627Y124734D01*
X200400Y124581D01*
X201173Y124734D01*
X201828Y125172D01*
X202265Y125827D01*
X202419Y126600D01*
X202387Y126759D01*
X202741Y127112D01*
X202900Y127081D01*
X203673Y127234D01*
X204328Y127672D01*
X204765Y128327D01*
X204919Y129100D01*
X204765Y129873D01*
X204328Y130528D01*
X203673Y130965D01*
X202900Y131119D01*
D02*
G37*
G36*
X299900Y131319D02*
X299127Y131165D01*
X298472Y130728D01*
X298035Y130073D01*
X297881Y129300D01*
X298035Y128527D01*
X298472Y127872D01*
X299127Y127435D01*
X299900Y127281D01*
X300673Y127435D01*
X301328Y127872D01*
X301765Y128527D01*
X301919Y129300D01*
X301765Y130073D01*
X301328Y130728D01*
X300673Y131165D01*
X299900Y131319D01*
D02*
G37*
G36*
X126700Y126619D02*
X125927Y126465D01*
X125519Y126193D01*
X125150Y126069D01*
X124781Y126193D01*
X124373Y126465D01*
X123600Y126619D01*
X122827Y126465D01*
X122172Y126028D01*
X122018Y125797D01*
X121597Y125528D01*
X121380Y125673D01*
X120942Y125965D01*
X120169Y126119D01*
X119397Y125965D01*
X118742Y125528D01*
X118304Y124873D01*
X118150Y124100D01*
X118304Y123327D01*
X118596Y122890D01*
X118504Y122669D01*
X118320Y122403D01*
X117627Y122265D01*
X116972Y121828D01*
X116535Y121173D01*
X116381Y120400D01*
X116535Y119627D01*
X116915Y119057D01*
X116272Y118628D01*
X115835Y117973D01*
X115681Y117200D01*
X115835Y116427D01*
X116272Y115772D01*
X116927Y115334D01*
X117700Y115181D01*
X118473Y115334D01*
X119128Y115772D01*
X119565Y116427D01*
X119719Y117200D01*
X119565Y117973D01*
X119185Y118543D01*
X119828Y118972D01*
X120265Y119627D01*
X120419Y120400D01*
X120265Y121173D01*
X119973Y121610D01*
X120065Y121831D01*
X120249Y122097D01*
X120942Y122234D01*
X121597Y122672D01*
X121751Y122903D01*
X122172Y123172D01*
X122390Y123027D01*
X122827Y122735D01*
X123600Y122581D01*
X124373Y122735D01*
X124781Y123007D01*
X125150Y123131D01*
X125519Y123007D01*
X125927Y122735D01*
X126700Y122581D01*
X127473Y122735D01*
X128128Y123172D01*
X128565Y123827D01*
X128719Y124600D01*
X128565Y125373D01*
X128128Y126028D01*
X127473Y126465D01*
X126700Y126619D01*
D02*
G37*
G36*
X208865Y129745D02*
X208092Y129592D01*
X207437Y129154D01*
X206999Y128499D01*
X206845Y127726D01*
X206999Y126954D01*
X207437Y126299D01*
X208092Y125861D01*
X208865Y125707D01*
X209637Y125861D01*
X210292Y126299D01*
X210730Y126954D01*
X210884Y127726D01*
X210730Y128499D01*
X210292Y129154D01*
X209637Y129592D01*
X208865Y129745D01*
D02*
G37*
G36*
X237044Y129509D02*
X236272Y129355D01*
X235617Y128917D01*
X235179Y128262D01*
X235025Y127490D01*
X235179Y126717D01*
X235617Y126062D01*
X236272Y125624D01*
X237044Y125470D01*
X237817Y125624D01*
X238472Y126062D01*
X238910Y126717D01*
X239064Y127490D01*
X238910Y128262D01*
X238472Y128917D01*
X237817Y129355D01*
X237044Y129509D01*
D02*
G37*
G36*
X240700Y126619D02*
X239927Y126465D01*
X239272Y126028D01*
X238835Y125373D01*
X238681Y124600D01*
X238835Y123827D01*
X239272Y123172D01*
X239927Y122735D01*
X240700Y122581D01*
X241473Y122735D01*
X242128Y123172D01*
X242565Y123827D01*
X242719Y124600D01*
X242565Y125373D01*
X242128Y126028D01*
X241473Y126465D01*
X240700Y126619D01*
D02*
G37*
G36*
X333500Y126520D02*
X332612Y126344D01*
X331859Y125841D01*
X331356Y125088D01*
X331180Y124200D01*
X331356Y123312D01*
X331859Y122559D01*
X332612Y122056D01*
X333500Y121880D01*
X334388Y122056D01*
X335141Y122559D01*
X335644Y123312D01*
X335820Y124200D01*
X335644Y125088D01*
X335141Y125841D01*
X334388Y126344D01*
X333500Y126520D01*
D02*
G37*
G36*
X401969Y126417D02*
X401081Y126240D01*
X400329Y125737D01*
X399826Y124985D01*
X399649Y124097D01*
X399826Y123209D01*
X400329Y122456D01*
X401081Y121953D01*
X401969Y121777D01*
X402857Y121953D01*
X403610Y122456D01*
X404113Y123209D01*
X404289Y124097D01*
X404113Y124985D01*
X403610Y125737D01*
X402857Y126240D01*
X401969Y126417D01*
D02*
G37*
G36*
X380993Y122179D02*
X380220Y122025D01*
X379565Y121588D01*
X379128Y120933D01*
X378974Y120160D01*
X379128Y119387D01*
X379565Y118732D01*
X380220Y118295D01*
X380993Y118141D01*
X381766Y118295D01*
X382421Y118732D01*
X382858Y119387D01*
X383012Y120160D01*
X382858Y120933D01*
X382421Y121588D01*
X381766Y122025D01*
X380993Y122179D01*
D02*
G37*
G36*
X376378Y122179D02*
X375605Y122025D01*
X374950Y121587D01*
X374512Y120932D01*
X374359Y120159D01*
X374512Y119387D01*
X374950Y118732D01*
X375605Y118294D01*
X376378Y118140D01*
X377151Y118294D01*
X377805Y118732D01*
X378243Y119387D01*
X378397Y120159D01*
X378243Y120932D01*
X377805Y121587D01*
X377151Y122025D01*
X376378Y122179D01*
D02*
G37*
G36*
X359449Y121155D02*
X358676Y121002D01*
X358021Y120564D01*
X357583Y119909D01*
X357430Y119136D01*
X357583Y118363D01*
X358021Y117708D01*
X358676Y117271D01*
X359449Y117117D01*
X360221Y117271D01*
X360876Y117708D01*
X361314Y118363D01*
X361468Y119136D01*
X361314Y119909D01*
X360876Y120564D01*
X360221Y121002D01*
X359449Y121155D01*
D02*
G37*
G36*
X364567Y120210D02*
X363794Y120056D01*
X363139Y119619D01*
X362701Y118964D01*
X362548Y118191D01*
X362701Y117418D01*
X363139Y116763D01*
X363794Y116326D01*
X364567Y116172D01*
X365339Y116326D01*
X365995Y116763D01*
X366432Y117418D01*
X366586Y118191D01*
X366432Y118964D01*
X365995Y119619D01*
X365339Y120056D01*
X364567Y120210D01*
D02*
G37*
G36*
X352363Y118242D02*
X351590Y118088D01*
X350935Y117651D01*
X350498Y116996D01*
X350344Y116223D01*
X349915Y115819D01*
X349607Y115880D01*
X348834Y115726D01*
X348179Y115288D01*
X347742Y114633D01*
X347588Y113861D01*
X347742Y113088D01*
X348179Y112433D01*
X348834Y111995D01*
X349607Y111841D01*
X350380Y111995D01*
X351035Y112433D01*
X351472Y113088D01*
X351626Y113861D01*
X352056Y114265D01*
X352363Y114204D01*
X353136Y114357D01*
X353791Y114795D01*
X354228Y115450D01*
X354382Y116223D01*
X354228Y116996D01*
X353791Y117651D01*
X353136Y118088D01*
X352363Y118242D01*
D02*
G37*
G36*
X219800Y119319D02*
X219027Y119165D01*
X218372Y118728D01*
X217935Y118073D01*
X217781Y117300D01*
X217935Y116527D01*
X218372Y115872D01*
X219027Y115435D01*
X219800Y115281D01*
X220573Y115435D01*
X221228Y115872D01*
X221665Y116527D01*
X221819Y117300D01*
X221665Y118073D01*
X221228Y118728D01*
X220573Y119165D01*
X219800Y119319D01*
D02*
G37*
G36*
X372047Y119029D02*
X371274Y118875D01*
X370619Y118438D01*
X370182Y117783D01*
X370028Y117010D01*
X370182Y116237D01*
X370619Y115582D01*
X371274Y115145D01*
X372047Y114991D01*
X372820Y115145D01*
X373475Y115582D01*
X373913Y116237D01*
X374066Y117010D01*
X373913Y117783D01*
X373475Y118438D01*
X372820Y118875D01*
X372047Y119029D01*
D02*
G37*
G36*
X323700Y117919D02*
X322927Y117765D01*
X322272Y117328D01*
X321835Y116673D01*
X321681Y115900D01*
X321835Y115127D01*
X322272Y114472D01*
X322927Y114034D01*
X323700Y113881D01*
X324473Y114034D01*
X325128Y114472D01*
X325565Y115127D01*
X325719Y115900D01*
X325565Y116673D01*
X325128Y117328D01*
X324473Y117765D01*
X323700Y117919D01*
D02*
G37*
G36*
X383465Y117362D02*
X382577Y117185D01*
X381825Y116682D01*
X381322Y115930D01*
X381145Y115042D01*
X381322Y114154D01*
X381825Y113401D01*
X382577Y112898D01*
X383465Y112722D01*
X384353Y112898D01*
X385106Y113401D01*
X385609Y114154D01*
X385786Y115042D01*
X385609Y115930D01*
X385106Y116682D01*
X384353Y117185D01*
X383465Y117362D01*
D02*
G37*
G36*
X234603Y110216D02*
X233831Y110062D01*
X233176Y109624D01*
X233056Y109446D01*
X232556D01*
X232437Y109624D01*
X231782Y110062D01*
X231009Y110216D01*
X230237Y110062D01*
X229582Y109624D01*
X229144Y108969D01*
X228990Y108197D01*
X229144Y107424D01*
X229582Y106769D01*
X230237Y106331D01*
X231009Y106177D01*
X231782Y106331D01*
X232437Y106769D01*
X232556Y106947D01*
X233056D01*
X233176Y106769D01*
X233831Y106331D01*
X234603Y106177D01*
X235376Y106331D01*
X236031Y106769D01*
X236469Y107424D01*
X236623Y108197D01*
X236469Y108969D01*
X236031Y109624D01*
X235376Y110062D01*
X234603Y110216D01*
D02*
G37*
G36*
X370867Y112244D02*
X369979Y112067D01*
X369226Y111564D01*
X368723Y110811D01*
X368547Y109924D01*
X368723Y109036D01*
X369226Y108283D01*
X369979Y107780D01*
X370867Y107603D01*
X371755Y107780D01*
X372508Y108283D01*
X373010Y109036D01*
X373187Y109924D01*
X373010Y110811D01*
X372508Y111564D01*
X371755Y112067D01*
X370867Y112244D01*
D02*
G37*
G36*
X259589Y110154D02*
X258816Y110001D01*
X258161Y109563D01*
X257723Y108908D01*
X257569Y108135D01*
X257723Y107363D01*
X258161Y106708D01*
X258816Y106270D01*
X259589Y106116D01*
X260361Y106270D01*
X261016Y106708D01*
X261454Y107363D01*
X261608Y108135D01*
X261454Y108908D01*
X261016Y109563D01*
X260361Y110001D01*
X259589Y110154D01*
D02*
G37*
G36*
X164788Y108707D02*
X164015Y108553D01*
X163360Y108115D01*
X162922Y107460D01*
X162768Y106687D01*
X162922Y105915D01*
X163360Y105260D01*
X164015Y104822D01*
X164788Y104668D01*
X165068Y104387D01*
X165222Y103615D01*
X165660Y102960D01*
X166315Y102522D01*
X167088Y102368D01*
X167860Y102522D01*
X168515Y102960D01*
X168953Y103615D01*
X169107Y104387D01*
X168953Y105160D01*
X168515Y105815D01*
X167860Y106253D01*
X167088Y106407D01*
X166807Y106687D01*
X166653Y107460D01*
X166215Y108115D01*
X165560Y108553D01*
X164788Y108707D01*
D02*
G37*
G36*
X159000Y106219D02*
X158227Y106065D01*
X157572Y105628D01*
X157135Y104973D01*
X156981Y104200D01*
X157135Y103427D01*
X157572Y102772D01*
X158227Y102334D01*
X159000Y102181D01*
X159773Y102334D01*
X160428Y102772D01*
X160865Y103427D01*
X161019Y104200D01*
X160865Y104973D01*
X160428Y105628D01*
X159773Y106065D01*
X159000Y106219D01*
D02*
G37*
G36*
X134100Y111119D02*
X133327Y110965D01*
X132672Y110528D01*
X132235Y109873D01*
X132081Y109100D01*
X132235Y108327D01*
X132672Y107672D01*
X133327Y107235D01*
X133413Y107027D01*
X133202Y106711D01*
X133049Y105939D01*
X133202Y105166D01*
X133640Y104511D01*
X134295Y104073D01*
X134747Y103983D01*
X135158Y103620D01*
X135213Y103438D01*
X135335Y102827D01*
X135772Y102172D01*
X136427Y101734D01*
X137200Y101581D01*
X137973Y101734D01*
X138628Y102172D01*
X139065Y102827D01*
X139219Y103600D01*
X139065Y104373D01*
X138628Y105028D01*
X137973Y105465D01*
X137520Y105555D01*
X137109Y105919D01*
X137055Y106100D01*
X136933Y106711D01*
X136495Y107366D01*
X135840Y107804D01*
X135754Y108011D01*
X135965Y108327D01*
X136119Y109100D01*
X135965Y109873D01*
X135528Y110528D01*
X134873Y110965D01*
X134100Y111119D01*
D02*
G37*
G36*
X135880Y95819D02*
X135030Y95650D01*
X134310Y95169D01*
X134161Y94946D01*
X133661D01*
X133512Y95169D01*
X132792Y95650D01*
X131942Y95819D01*
X131093Y95650D01*
X130373Y95169D01*
X129892Y94449D01*
X129723Y93599D01*
X129892Y92750D01*
X130373Y92030D01*
X130596Y91881D01*
Y91381D01*
X130373Y91232D01*
X129892Y90512D01*
X129723Y89662D01*
X129892Y88813D01*
X130373Y88092D01*
X130596Y87944D01*
Y87444D01*
X130373Y87295D01*
X129892Y86575D01*
X129723Y85725D01*
X129892Y84876D01*
X130373Y84155D01*
X131093Y83674D01*
X131942Y83505D01*
X132792Y83674D01*
X133512Y84155D01*
X133661Y84378D01*
X134161D01*
X134310Y84155D01*
X135030Y83674D01*
X135880Y83505D01*
X136729Y83674D01*
X137449Y84155D01*
X137930Y84876D01*
X138099Y85725D01*
X137930Y86575D01*
X137449Y87295D01*
X137226Y87444D01*
Y87944D01*
X137449Y88092D01*
X137930Y88813D01*
X138099Y89662D01*
X137930Y90512D01*
X137449Y91232D01*
X137226Y91381D01*
Y91881D01*
X137449Y92030D01*
X137930Y92750D01*
X138099Y93599D01*
X137930Y94449D01*
X137449Y95169D01*
X136729Y95650D01*
X135880Y95819D01*
D02*
G37*
G36*
X319002Y91389D02*
X318230Y91235D01*
X317575Y90798D01*
X317137Y90143D01*
X316983Y89370D01*
X317137Y88597D01*
X317575Y87942D01*
X318230Y87505D01*
X319002Y87351D01*
X319775Y87505D01*
X320430Y87942D01*
X320868Y88597D01*
X321022Y89370D01*
X320868Y90143D01*
X320430Y90798D01*
X319775Y91235D01*
X319002Y91389D01*
D02*
G37*
G36*
X252073D02*
X251301Y91235D01*
X250645Y90798D01*
X250208Y90143D01*
X250054Y89370D01*
X250208Y88597D01*
X250645Y87942D01*
X251301Y87505D01*
X252073Y87351D01*
X252846Y87505D01*
X253501Y87942D01*
X253939Y88597D01*
X254092Y89370D01*
X253939Y90143D01*
X253501Y90798D01*
X252846Y91235D01*
X252073Y91389D01*
D02*
G37*
G36*
X167428Y84897D02*
X166578Y84728D01*
X166443Y84638D01*
X166309Y84728D01*
X165459Y84897D01*
X164610Y84728D01*
X164475Y84638D01*
X164340Y84728D01*
X163490Y84897D01*
X162641Y84728D01*
X162506Y84638D01*
X162372Y84728D01*
X161522Y84897D01*
X160673Y84728D01*
X160538Y84638D01*
X160403Y84728D01*
X159554Y84897D01*
X158704Y84728D01*
X158569Y84638D01*
X158435Y84728D01*
X157585Y84897D01*
X156736Y84728D01*
X156601Y84638D01*
X156466Y84728D01*
X155616Y84897D01*
X154767Y84728D01*
X154632Y84638D01*
X154498Y84728D01*
X153648Y84897D01*
X152799Y84728D01*
X152664Y84638D01*
X152529Y84728D01*
X151680Y84897D01*
X150830Y84728D01*
X150695Y84638D01*
X150560Y84728D01*
X149711Y84897D01*
X148862Y84728D01*
X148141Y84247D01*
X147660Y83527D01*
X147491Y82677D01*
X147660Y81828D01*
X147750Y81693D01*
X147660Y81558D01*
X147491Y80709D01*
X147660Y79859D01*
X148141Y79139D01*
X148152Y78530D01*
X148072Y78454D01*
X147349Y78598D01*
X146499Y78429D01*
X146364Y78339D01*
X146230Y78429D01*
X145380Y78598D01*
X144531Y78429D01*
X144396Y78339D01*
X144261Y78429D01*
X143412Y78598D01*
X142562Y78429D01*
X141842Y77947D01*
X141361Y77227D01*
X141192Y76378D01*
X141361Y75528D01*
X141451Y75394D01*
X141361Y75259D01*
X141192Y74409D01*
X141361Y73560D01*
X141451Y73425D01*
X141361Y73290D01*
X141192Y72441D01*
X141361Y71591D01*
X141451Y71457D01*
X141361Y71322D01*
X141192Y70472D01*
X141361Y69623D01*
X141842Y68903D01*
X142562Y68421D01*
X143412Y68252D01*
X144261Y68421D01*
X144396Y68511D01*
X144531Y68421D01*
X145380Y68252D01*
X146230Y68421D01*
X146364Y68511D01*
X146499Y68421D01*
X147349Y68252D01*
X148198Y68421D01*
X148918Y68903D01*
X149400Y69623D01*
X149527Y70263D01*
X150167Y70390D01*
X150887Y70871D01*
X151368Y71591D01*
X151495Y72231D01*
X152135Y72358D01*
X152855Y72840D01*
X153337Y73560D01*
X153506Y74409D01*
X153337Y75259D01*
X153246Y75394D01*
X153337Y75528D01*
X153506Y76378D01*
X153337Y77227D01*
X152855Y77947D01*
X152845Y78556D01*
X152925Y78633D01*
X153648Y78489D01*
X154498Y78658D01*
X154632Y78748D01*
X154767Y78658D01*
X155616Y78489D01*
X156466Y78658D01*
X156601Y78748D01*
X156736Y78658D01*
X157585Y78489D01*
X158435Y78658D01*
X158569Y78748D01*
X158704Y78658D01*
X159554Y78489D01*
X160403Y78658D01*
X160538Y78748D01*
X160673Y78658D01*
X161522Y78489D01*
X162372Y78658D01*
X162506Y78748D01*
X162641Y78658D01*
X163490Y78489D01*
X164340Y78658D01*
X164475Y78748D01*
X164610Y78658D01*
X165459Y78489D01*
X166309Y78658D01*
X166443Y78748D01*
X166578Y78658D01*
X167428Y78489D01*
X168277Y78658D01*
X168997Y79139D01*
X169478Y79859D01*
X169647Y80709D01*
X169478Y81558D01*
X169388Y81693D01*
X169478Y81828D01*
X169647Y82677D01*
X169478Y83527D01*
X168997Y84247D01*
X168277Y84728D01*
X167428Y84897D01*
D02*
G37*
G36*
X379632Y78991D02*
X378783Y78822D01*
X378648Y78732D01*
X378513Y78822D01*
X377664Y78991D01*
X376814Y78822D01*
X376679Y78732D01*
X376545Y78822D01*
X375695Y78991D01*
X374846Y78822D01*
X374126Y78341D01*
X373644Y77621D01*
X373475Y76771D01*
X373644Y75922D01*
X373734Y75787D01*
X373644Y75653D01*
X373475Y74803D01*
X373644Y73954D01*
X373734Y73819D01*
X373644Y73684D01*
X373475Y72834D01*
X373644Y71985D01*
X373734Y71850D01*
X373644Y71716D01*
X373475Y70866D01*
X373644Y70017D01*
X374126Y69296D01*
X374846Y68815D01*
X375695Y68646D01*
X376545Y68815D01*
X376679Y68905D01*
X376814Y68815D01*
X377664Y68646D01*
X378513Y68815D01*
X378648Y68905D01*
X378783Y68815D01*
X379632Y68646D01*
X380482Y68815D01*
X381202Y69296D01*
X381683Y70017D01*
X381852Y70866D01*
X381683Y71716D01*
X381593Y71850D01*
X381683Y71985D01*
X381852Y72834D01*
X381683Y73684D01*
X381593Y73819D01*
X381683Y73954D01*
X381852Y74803D01*
X381683Y75653D01*
X381593Y75787D01*
X381683Y75922D01*
X381852Y76771D01*
X381683Y77621D01*
X381202Y78341D01*
X380482Y78822D01*
X379632Y78991D01*
D02*
G37*
G36*
X135674Y80358D02*
X134552Y80211D01*
X133506Y79777D01*
X132608Y79088D01*
X131919Y78190D01*
X131485Y77144D01*
X131338Y76022D01*
X131485Y74900D01*
X131919Y73854D01*
X132608Y72956D01*
X133506Y72267D01*
X134552Y71833D01*
X135674Y71686D01*
X136796Y71833D01*
X137842Y72267D01*
X138740Y72956D01*
X139429Y73854D01*
X139863Y74900D01*
X140010Y76022D01*
X139863Y77144D01*
X139429Y78190D01*
X138740Y79088D01*
X137842Y79777D01*
X136796Y80211D01*
X135674Y80358D01*
D02*
G37*
G36*
X310735Y81940D02*
X309962Y81787D01*
X309307Y81349D01*
X308869Y80694D01*
X308716Y79921D01*
X308805Y79470D01*
X308803Y79446D01*
X308465Y78939D01*
X308442Y78927D01*
X307917Y78822D01*
X307196Y78341D01*
X306715Y77621D01*
X306546Y76771D01*
X306715Y75922D01*
X306805Y75787D01*
X306715Y75653D01*
X306546Y74803D01*
X306715Y73954D01*
X306805Y73819D01*
X306715Y73684D01*
X306546Y72834D01*
X306715Y71985D01*
X306805Y71850D01*
X306715Y71716D01*
X306546Y70866D01*
X306715Y70017D01*
X307196Y69296D01*
X307917Y68815D01*
X308766Y68646D01*
X309616Y68815D01*
X309750Y68905D01*
X309885Y68815D01*
X310735Y68646D01*
X311584Y68815D01*
X311719Y68905D01*
X311854Y68815D01*
X312703Y68646D01*
X313553Y68815D01*
X314273Y69296D01*
X314754Y70017D01*
X314923Y70866D01*
X314754Y71716D01*
X314664Y71850D01*
X314754Y71985D01*
X314923Y72834D01*
X314754Y73684D01*
X314664Y73819D01*
X314754Y73954D01*
X314923Y74803D01*
X314754Y75653D01*
X314664Y75787D01*
X314754Y75922D01*
X314923Y76771D01*
X314754Y77621D01*
X314273Y78341D01*
X313553Y78822D01*
X313027Y78927D01*
X313004Y78939D01*
X312666Y79446D01*
X312664Y79470D01*
X312754Y79921D01*
X312600Y80694D01*
X312162Y81349D01*
X311507Y81787D01*
X310735Y81940D01*
D02*
G37*
G36*
X243806D02*
X243033Y81787D01*
X242378Y81349D01*
X241940Y80694D01*
X241787Y79921D01*
X241876Y79470D01*
X241874Y79446D01*
X241536Y78939D01*
X241513Y78927D01*
X240987Y78822D01*
X240267Y78341D01*
X239786Y77621D01*
X239617Y76771D01*
X239786Y75922D01*
X239876Y75787D01*
X239786Y75653D01*
X239617Y74803D01*
X239786Y73954D01*
X239876Y73819D01*
X239786Y73684D01*
X239617Y72834D01*
X239786Y71985D01*
X239876Y71850D01*
X239786Y71716D01*
X239617Y70866D01*
X239786Y70017D01*
X240267Y69296D01*
X240987Y68815D01*
X241837Y68646D01*
X242686Y68815D01*
X242821Y68905D01*
X242956Y68815D01*
X243806Y68646D01*
X244655Y68815D01*
X244790Y68905D01*
X244924Y68815D01*
X245774Y68646D01*
X246623Y68815D01*
X247344Y69296D01*
X247825Y70017D01*
X247994Y70866D01*
X247825Y71716D01*
X247735Y71850D01*
X247825Y71985D01*
X247994Y72834D01*
X247825Y73684D01*
X247735Y73819D01*
X247825Y73954D01*
X247994Y74803D01*
X247825Y75653D01*
X247735Y75787D01*
X247825Y75922D01*
X247994Y76771D01*
X247825Y77621D01*
X247344Y78341D01*
X246623Y78822D01*
X246098Y78927D01*
X246075Y78939D01*
X245737Y79446D01*
X245735Y79470D01*
X245825Y79921D01*
X245671Y80694D01*
X245233Y81349D01*
X244578Y81787D01*
X243806Y81940D01*
D02*
G37*
G36*
X129769Y68988D02*
X125831D01*
X124595Y68825D01*
X123443Y68348D01*
X122454Y67589D01*
X121694Y66600D01*
X121217Y65447D01*
X121054Y64211D01*
X121217Y62975D01*
X121694Y61822D01*
X122454Y60833D01*
X123443Y60074D01*
X124595Y59597D01*
X125831Y59434D01*
X129769D01*
X131005Y59597D01*
X132157Y60074D01*
X133146Y60833D01*
X133906Y61822D01*
X134383Y62975D01*
X134546Y64211D01*
X134383Y65447D01*
X133906Y66600D01*
X133146Y67589D01*
X132157Y68348D01*
X131005Y68825D01*
X129769Y68988D01*
D02*
G37*
G36*
X366246Y59113D02*
X365320Y58929D01*
X364535Y58404D01*
X364415D01*
X363629Y58929D01*
X362703Y59113D01*
X361777Y58929D01*
X360992Y58404D01*
X360871D01*
X360086Y58929D01*
X359160Y59113D01*
X358233Y58929D01*
X357448Y58404D01*
X356924Y57619D01*
X356739Y56693D01*
X356924Y55766D01*
X356562Y55419D01*
X356169Y55156D01*
X355644Y54371D01*
X355460Y53445D01*
X355644Y52518D01*
X356169Y51733D01*
X356594Y51449D01*
Y50847D01*
X356267Y50629D01*
X355743Y49843D01*
X355558Y48917D01*
X355743Y47991D01*
X356267Y47206D01*
X356731Y46896D01*
X356530Y46595D01*
X356346Y45669D01*
X356530Y44743D01*
X357055Y43958D01*
X357840Y43433D01*
X358766Y43249D01*
X359692Y43433D01*
X360478Y43958D01*
X360598D01*
X361383Y43433D01*
X362309Y43249D01*
X363236Y43433D01*
X364021Y43958D01*
X364141D01*
X364926Y43433D01*
X365853Y43249D01*
X366779Y43433D01*
X367564Y43958D01*
X367915Y44482D01*
X368465Y44547D01*
X368501Y44528D01*
X369257Y44023D01*
X370183Y43839D01*
X371110Y44023D01*
X371895Y44548D01*
X372420Y45333D01*
X372604Y46260D01*
X372420Y47186D01*
X371895Y47971D01*
X371180Y48449D01*
X371142Y48720D01*
X371180Y48992D01*
X371895Y49469D01*
X372420Y50255D01*
X372604Y51181D01*
X372420Y52107D01*
X371895Y52893D01*
X371180Y53370D01*
X371142Y53642D01*
X371180Y53913D01*
X371895Y54391D01*
X372420Y55176D01*
X372604Y56102D01*
X372420Y57029D01*
X371895Y57814D01*
X371110Y58338D01*
X370183Y58523D01*
X369257Y58338D01*
X368782Y58021D01*
X368134Y58140D01*
X367958Y58404D01*
X367173Y58929D01*
X366246Y59113D01*
D02*
G37*
G36*
X299317D02*
X298391Y58929D01*
X297606Y58404D01*
X297486D01*
X296700Y58929D01*
X295774Y59113D01*
X294848Y58929D01*
X294062Y58404D01*
X293942D01*
X293157Y58929D01*
X292231Y59113D01*
X291304Y58929D01*
X290519Y58404D01*
X289994Y57619D01*
X289810Y56693D01*
X289994Y55766D01*
X289633Y55419D01*
X289240Y55156D01*
X288715Y54371D01*
X288531Y53445D01*
X288715Y52518D01*
X289240Y51733D01*
X289665Y51449D01*
Y50847D01*
X289338Y50629D01*
X288813Y49843D01*
X288629Y48917D01*
X288813Y47991D01*
X289338Y47206D01*
X289802Y46896D01*
X289601Y46595D01*
X289417Y45669D01*
X289601Y44743D01*
X290125Y43958D01*
X290911Y43433D01*
X291837Y43249D01*
X292763Y43433D01*
X293548Y43958D01*
X293669D01*
X294454Y43433D01*
X295380Y43249D01*
X296307Y43433D01*
X297092Y43958D01*
X297212D01*
X297997Y43433D01*
X298924Y43249D01*
X299850Y43433D01*
X300635Y43958D01*
X300986Y44482D01*
X301536Y44547D01*
X301572Y44528D01*
X302328Y44023D01*
X303254Y43839D01*
X304181Y44023D01*
X304966Y44548D01*
X305491Y45333D01*
X305675Y46260D01*
X305491Y47186D01*
X304966Y47971D01*
X304251Y48449D01*
X304212Y48720D01*
X304251Y48992D01*
X304966Y49469D01*
X305491Y50255D01*
X305675Y51181D01*
X305491Y52107D01*
X304966Y52893D01*
X304251Y53370D01*
X304212Y53642D01*
X304251Y53913D01*
X304966Y54391D01*
X305491Y55176D01*
X305675Y56102D01*
X305491Y57029D01*
X304966Y57814D01*
X304181Y58338D01*
X303254Y58523D01*
X302328Y58338D01*
X301853Y58021D01*
X301205Y58140D01*
X301029Y58404D01*
X300244Y58929D01*
X299317Y59113D01*
D02*
G37*
G36*
X433176Y59113D02*
X432249Y58929D01*
X431464Y58404D01*
X431344D01*
X430558Y58929D01*
X429632Y59113D01*
X428706Y58929D01*
X427921Y58404D01*
X427801D01*
X427015Y58929D01*
X426089Y59113D01*
X425163Y58929D01*
X424377Y58404D01*
X423853Y57619D01*
X423668Y56693D01*
X423853Y55766D01*
X423491Y55419D01*
X423098Y55156D01*
X422573Y54371D01*
X422389Y53445D01*
X422573Y52518D01*
X423098Y51733D01*
X423524Y51449D01*
Y50847D01*
X423196Y50629D01*
X422672Y49843D01*
X422487Y48917D01*
X422672Y47991D01*
X423196Y47206D01*
X423660Y46896D01*
X423459Y46595D01*
X423275Y45669D01*
X423459Y44743D01*
X423984Y43958D01*
X424769Y43433D01*
X425695Y43249D01*
X426621Y43433D01*
X427407Y43958D01*
X427527D01*
X428312Y43433D01*
X429239Y43249D01*
X430165Y43433D01*
X430950Y43958D01*
X431070D01*
X431855Y43433D01*
X432782Y43249D01*
X433708Y43433D01*
X434493Y43958D01*
X434844Y44482D01*
X435394Y44547D01*
X435430Y44528D01*
X436186Y44023D01*
X437113Y43839D01*
X438039Y44023D01*
X438824Y44548D01*
X439349Y45333D01*
X439533Y46260D01*
X439349Y47186D01*
X438824Y47971D01*
X438109Y48449D01*
X438071Y48720D01*
X438109Y48992D01*
X438824Y49469D01*
X439349Y50255D01*
X439533Y51181D01*
X439349Y52107D01*
X438824Y52893D01*
X438109Y53370D01*
X438071Y53642D01*
X438109Y53913D01*
X438824Y54391D01*
X439349Y55176D01*
X439533Y56102D01*
X439349Y57029D01*
X438824Y57814D01*
X438039Y58338D01*
X437113Y58523D01*
X436186Y58338D01*
X435711Y58021D01*
X435064Y58140D01*
X434887Y58404D01*
X434102Y58929D01*
X433176Y59113D01*
D02*
G37*
G36*
X231207Y59113D02*
X230281Y58929D01*
X229496Y58404D01*
X229375D01*
X228590Y58929D01*
X227664Y59113D01*
X226737Y58929D01*
X225952Y58404D01*
X225832D01*
X225047Y58929D01*
X224120Y59113D01*
X223194Y58929D01*
X222409Y58404D01*
X221884Y57619D01*
X221700Y56693D01*
X221884Y55766D01*
X221522Y55419D01*
X221129Y55156D01*
X220605Y54371D01*
X220420Y53445D01*
X220605Y52518D01*
X221129Y51733D01*
X221555Y51449D01*
Y50847D01*
X221228Y50629D01*
X220703Y49843D01*
X220519Y48917D01*
X220703Y47991D01*
X221228Y47205D01*
X221691Y46896D01*
X221491Y46595D01*
X221306Y45669D01*
X221491Y44743D01*
X222015Y43957D01*
X222800Y43433D01*
X223727Y43249D01*
X224653Y43433D01*
X225438Y43957D01*
X225558D01*
X226344Y43433D01*
X227270Y43249D01*
X228196Y43433D01*
X228982Y43957D01*
X229102D01*
X229887Y43433D01*
X230813Y43249D01*
X231740Y43433D01*
X232525Y43957D01*
X232875Y44482D01*
X233426Y44547D01*
X233462Y44528D01*
X234218Y44023D01*
X235144Y43839D01*
X236070Y44023D01*
X236856Y44548D01*
X237380Y45333D01*
X237565Y46260D01*
X237380Y47186D01*
X236856Y47971D01*
X236141Y48449D01*
X236102Y48720D01*
X236141Y48992D01*
X236856Y49469D01*
X237380Y50255D01*
X237565Y51181D01*
X237380Y52107D01*
X236856Y52892D01*
X236141Y53370D01*
X236102Y53641D01*
X236141Y53913D01*
X236856Y54391D01*
X237380Y55176D01*
X237565Y56102D01*
X237380Y57028D01*
X236856Y57814D01*
X236070Y58338D01*
X235144Y58523D01*
X234218Y58338D01*
X233743Y58021D01*
X233095Y58140D01*
X232919Y58404D01*
X232133Y58929D01*
X231207Y59113D01*
D02*
G37*
G36*
X129769Y57177D02*
X125831D01*
X124595Y57014D01*
X123443Y56537D01*
X122454Y55778D01*
X121694Y54789D01*
X121217Y53636D01*
X121054Y52400D01*
X121217Y51164D01*
X121694Y50011D01*
X122454Y49022D01*
X123443Y48263D01*
X124595Y47786D01*
X125831Y47623D01*
X129769D01*
X131005Y47786D01*
X132157Y48263D01*
X133146Y49022D01*
X133906Y50011D01*
X134383Y51164D01*
X134546Y52400D01*
X134383Y53636D01*
X133906Y54789D01*
X133146Y55778D01*
X132157Y56537D01*
X131005Y57014D01*
X129769Y57177D01*
D02*
G37*
G36*
X198400Y42819D02*
X197627Y42665D01*
X196972Y42228D01*
X196535Y41573D01*
X196473Y41262D01*
X195942Y41157D01*
X195828Y41328D01*
X195173Y41765D01*
X194400Y41919D01*
X193627Y41765D01*
X192972Y41328D01*
X192535Y40673D01*
X192457Y40285D01*
X192318Y40201D01*
X191912Y40105D01*
X191373Y40465D01*
X190600Y40619D01*
X189827Y40465D01*
X189172Y40028D01*
X188735Y39373D01*
X188581Y38600D01*
X188735Y37827D01*
X189172Y37172D01*
X189827Y36735D01*
X190600Y36581D01*
X191373Y36735D01*
X191728Y36972D01*
X191739Y36979D01*
X192099Y36619D01*
X192082Y36592D01*
X191735Y36073D01*
X191581Y35300D01*
X191735Y34527D01*
X192172Y33872D01*
X192827Y33435D01*
X193600Y33281D01*
X194373Y33435D01*
X194702Y33654D01*
X194882Y33596D01*
X195203Y33388D01*
X195335Y32727D01*
X195772Y32072D01*
X196427Y31635D01*
X197200Y31481D01*
X197973Y31635D01*
X198105Y31723D01*
X198133Y31722D01*
X198627Y31470D01*
X198735Y30927D01*
X199172Y30272D01*
X199827Y29834D01*
X200600Y29681D01*
X201373Y29834D01*
X202028Y30272D01*
X202465Y30927D01*
X202619Y31700D01*
X202465Y32473D01*
X202028Y33128D01*
X201845Y33250D01*
Y33750D01*
X202028Y33872D01*
X202465Y34527D01*
X202619Y35300D01*
X202465Y36073D01*
X202330Y36275D01*
X202516Y36897D01*
X202928Y37172D01*
X203365Y37827D01*
X203519Y38600D01*
X203365Y39373D01*
X202928Y40028D01*
X202273Y40465D01*
X201500Y40619D01*
X200868Y40493D01*
X200495Y40748D01*
X200408Y40854D01*
X200265Y41573D01*
X199828Y42228D01*
X199173Y42665D01*
X198400Y42819D01*
D02*
G37*
G36*
X135674Y44925D02*
X134552Y44778D01*
X133506Y44344D01*
X132608Y43655D01*
X131919Y42757D01*
X131485Y41711D01*
X131338Y40589D01*
X131485Y39467D01*
X131919Y38421D01*
X132608Y37523D01*
X133506Y36834D01*
X134552Y36400D01*
X135674Y36253D01*
X136796Y36400D01*
X137842Y36834D01*
X138740Y37523D01*
X139429Y38421D01*
X139863Y39467D01*
X140010Y40589D01*
X139863Y41711D01*
X139429Y42757D01*
X138740Y43655D01*
X137842Y44344D01*
X136796Y44778D01*
X135674Y44925D01*
D02*
G37*
G36*
X128037Y36042D02*
X127264Y35888D01*
X126609Y35451D01*
X126172Y34796D01*
X126018Y34023D01*
X126172Y33250D01*
X126609Y32595D01*
X127264Y32157D01*
X128037Y32004D01*
X128466Y31579D01*
X128572Y31050D01*
X129009Y30395D01*
X129664Y29958D01*
X130437Y29804D01*
X131210Y29958D01*
X131260Y29991D01*
X131722Y29800D01*
X131772Y29550D01*
X132209Y28895D01*
X132864Y28457D01*
X133637Y28304D01*
X134410Y28457D01*
X135065Y28895D01*
X135503Y29550D01*
X135656Y30323D01*
X135503Y31096D01*
X135065Y31751D01*
X134410Y32188D01*
X133637Y32342D01*
X132864Y32188D01*
X132814Y32155D01*
X132352Y32346D01*
X132302Y32596D01*
X131865Y33251D01*
X131210Y33688D01*
X130437Y33842D01*
X130008Y34266D01*
X129903Y34796D01*
X129465Y35451D01*
X128810Y35888D01*
X128037Y36042D01*
D02*
G37*
G36*
X224000Y27919D02*
X223227Y27765D01*
X222572Y27328D01*
X222183Y26746D01*
X222093Y26665D01*
X221606Y26576D01*
X221173Y26865D01*
X220400Y27019D01*
X219627Y26865D01*
X218972Y26428D01*
X218535Y25773D01*
X218381Y25000D01*
X218535Y24227D01*
X218972Y23572D01*
X219627Y23134D01*
X220400Y22981D01*
X221173Y23134D01*
X221828Y23572D01*
X222217Y24154D01*
X222307Y24235D01*
X222794Y24324D01*
X223227Y24035D01*
X224000Y23881D01*
X224773Y24035D01*
X225428Y24472D01*
X225865Y25127D01*
X226019Y25900D01*
X225865Y26673D01*
X225428Y27328D01*
X224773Y27765D01*
X224000Y27919D01*
D02*
G37*
G36*
X420333Y26010D02*
X419211Y25863D01*
X418165Y25429D01*
X417267Y24740D01*
X416578Y23842D01*
X416145Y22796D01*
X415997Y21674D01*
X416145Y20552D01*
X416578Y19506D01*
X417267Y18608D01*
X418165Y17919D01*
X419211Y17485D01*
X420333Y17338D01*
X421455Y17485D01*
X422501Y17919D01*
X423399Y18608D01*
X424088Y19506D01*
X424522Y20552D01*
X424669Y21674D01*
X424522Y22796D01*
X424088Y23842D01*
X423399Y24740D01*
X422501Y25429D01*
X421455Y25863D01*
X420333Y26010D01*
D02*
G37*
G36*
X373089D02*
X371967Y25863D01*
X370921Y25429D01*
X370023Y24740D01*
X369334Y23842D01*
X368900Y22796D01*
X368753Y21674D01*
X368900Y20552D01*
X369334Y19506D01*
X370023Y18608D01*
X370921Y17919D01*
X371967Y17485D01*
X373089Y17338D01*
X374211Y17485D01*
X375257Y17919D01*
X376155Y18608D01*
X376844Y19506D01*
X377277Y20552D01*
X377425Y21674D01*
X377277Y22796D01*
X376844Y23842D01*
X376155Y24740D01*
X375257Y25429D01*
X374211Y25863D01*
X373089Y26010D01*
D02*
G37*
G36*
X408522Y20546D02*
X407286Y20383D01*
X406134Y19906D01*
X405144Y19146D01*
X404385Y18157D01*
X403908Y17005D01*
X403745Y15768D01*
Y11831D01*
X403908Y10595D01*
X404385Y9443D01*
X405144Y8454D01*
X406134Y7694D01*
X407286Y7217D01*
X408522Y7054D01*
X409758Y7217D01*
X410911Y7694D01*
X411900Y8454D01*
X412659Y9443D01*
X413136Y10595D01*
X413299Y11831D01*
Y15768D01*
X413136Y17005D01*
X412659Y18157D01*
X411900Y19146D01*
X410911Y19906D01*
X409758Y20383D01*
X408522Y20546D01*
D02*
G37*
G36*
X396711D02*
X395475Y20383D01*
X394322Y19906D01*
X393333Y19146D01*
X392574Y18157D01*
X392097Y17005D01*
X391934Y15768D01*
Y11831D01*
X392097Y10595D01*
X392574Y9443D01*
X393333Y8454D01*
X394322Y7694D01*
X395475Y7217D01*
X396711Y7054D01*
X397947Y7217D01*
X399100Y7694D01*
X400089Y8454D01*
X400848Y9443D01*
X401325Y10595D01*
X401488Y11831D01*
Y15768D01*
X401325Y17005D01*
X400848Y18157D01*
X400089Y19146D01*
X399100Y19906D01*
X397947Y20383D01*
X396711Y20546D01*
D02*
G37*
G36*
X384900D02*
X383664Y20383D01*
X382511Y19906D01*
X381522Y19146D01*
X380763Y18157D01*
X380286Y17005D01*
X380123Y15768D01*
Y11831D01*
X380286Y10595D01*
X380763Y9443D01*
X381522Y8454D01*
X382511Y7694D01*
X383664Y7217D01*
X384900Y7054D01*
X386136Y7217D01*
X387288Y7694D01*
X388278Y8454D01*
X389037Y9443D01*
X389514Y10595D01*
X389677Y11831D01*
Y15768D01*
X389514Y17005D01*
X389037Y18157D01*
X388278Y19146D01*
X387288Y19906D01*
X386136Y20383D01*
X384900Y20546D01*
D02*
G37*
G36*
X352800Y15141D02*
X351547Y14976D01*
X350380Y14492D01*
X349377Y13723D01*
X348608Y12720D01*
X348124Y11553D01*
X347959Y10300D01*
X348124Y9047D01*
X348608Y7880D01*
X349377Y6877D01*
X350380Y6108D01*
X351547Y5624D01*
X352800Y5459D01*
X354053Y5624D01*
X355220Y6108D01*
X356223Y6877D01*
X356992Y7880D01*
X357476Y9047D01*
X357641Y10300D01*
X357476Y11553D01*
X356992Y12720D01*
X356223Y13723D01*
X355220Y14492D01*
X354053Y14976D01*
X352800Y15141D01*
D02*
G37*
G36*
X252800D02*
X251547Y14976D01*
X250380Y14492D01*
X249377Y13723D01*
X248608Y12720D01*
X248124Y11553D01*
X247959Y10300D01*
X248124Y9047D01*
X248608Y7880D01*
X249377Y6877D01*
X250380Y6108D01*
X251547Y5624D01*
X252800Y5459D01*
X254053Y5624D01*
X255220Y6108D01*
X256223Y6877D01*
X256992Y7880D01*
X257476Y9047D01*
X257641Y10300D01*
X257476Y11553D01*
X256992Y12720D01*
X256223Y13723D01*
X255220Y14492D01*
X254053Y14976D01*
X252800Y15141D01*
D02*
G37*
G36*
X201299Y10999D02*
X193701D01*
Y3401D01*
X201299D01*
Y10999D01*
D02*
G37*
G36*
X211899Y10899D02*
X204301D01*
Y3301D01*
X211899D01*
Y10899D01*
D02*
G37*
G36*
X176899Y10599D02*
X169301D01*
Y3001D01*
X176899D01*
Y10599D01*
D02*
G37*
G36*
X431900Y16628D02*
X430431Y16484D01*
X429019Y16055D01*
X427717Y15360D01*
X426577Y14423D01*
X425640Y13283D01*
X424945Y11981D01*
X424516Y10569D01*
X424372Y9100D01*
X424516Y7631D01*
X424945Y6219D01*
X425640Y4917D01*
X426577Y3777D01*
X427717Y2840D01*
X429019Y2145D01*
X430431Y1716D01*
X431900Y1572D01*
X433369Y1716D01*
X434781Y2145D01*
X436083Y2840D01*
X437223Y3777D01*
X438160Y4917D01*
X438855Y6219D01*
X439284Y7631D01*
X439428Y9100D01*
X439284Y10569D01*
X438855Y11981D01*
X438160Y13283D01*
X437223Y14423D01*
X436083Y15360D01*
X434781Y16055D01*
X433369Y16484D01*
X431900Y16628D01*
D02*
G37*
%LPD*%
D30*
X218972Y7000D02*
D03*
X240428D02*
D03*
X141572Y7100D02*
D03*
X163028D02*
D03*
D69*
X22600Y188900D02*
D03*
D70*
X182800Y190900D02*
D03*
X172800D02*
D03*
X162800D02*
D03*
X152800D02*
D03*
X142800D02*
D03*
X132800D02*
D03*
X122800D02*
D03*
D103*
X220153Y18909D02*
D03*
X239247D02*
D03*
X142753Y19009D02*
D03*
X161847D02*
D03*
D107*
X418500Y191300D02*
D03*
X358500D02*
D03*
X318500D02*
D03*
X278500D02*
D03*
X215400Y191200D02*
D03*
D109*
X139500Y131500D02*
D03*
X169500Y124000D02*
D03*
X173100Y124100D02*
D03*
X220700Y154647D02*
D03*
X124000Y155500D02*
D03*
X127300Y155600D02*
D03*
X130600Y155300D02*
D03*
X134268Y99426D02*
D03*
X288767Y135633D02*
D03*
X432100Y148900D02*
D03*
X432000Y152200D02*
D03*
X179937Y123923D02*
D03*
X176737Y124023D02*
D03*
X146537Y134023D02*
D03*
X142756Y133141D02*
D03*
X199919Y116044D02*
D03*
X202800Y182200D02*
D03*
X200600Y184500D02*
D03*
X252552Y147322D02*
D03*
X263969Y147836D02*
D03*
X245072Y141537D02*
D03*
X258064Y142521D02*
D03*
X269300Y146000D02*
D03*
X296253Y153447D02*
D03*
X329971Y159787D02*
D03*
X403246Y107400D02*
D03*
X342800Y138500D02*
D03*
X333647Y133405D02*
D03*
X403400Y172100D02*
D03*
X432300Y110900D02*
D03*
X432200Y106900D02*
D03*
X427100Y110500D02*
D03*
X427000Y106800D02*
D03*
X423800Y136080D02*
D03*
X429922Y154412D02*
D03*
X401576Y141205D02*
D03*
X375985Y173703D02*
D03*
X271843Y154923D02*
D03*
D110*
X408943Y182390D02*
D03*
X406694Y124097D02*
D03*
D111*
X373820Y144963D02*
D03*
Y140632D02*
D03*
Y136301D02*
D03*
X369489Y144963D02*
D03*
Y140632D02*
D03*
Y136301D02*
D03*
X365158Y144963D02*
D03*
Y140632D02*
D03*
Y136301D02*
D03*
X360827Y144963D02*
D03*
Y140632D02*
D03*
Y136301D02*
D03*
X356497Y144963D02*
D03*
Y140632D02*
D03*
Y136301D02*
D03*
X352166Y144963D02*
D03*
Y140632D02*
D03*
Y136301D02*
D03*
M02*
