G04*
G04 #@! TF.GenerationSoftware,Altium Limited,Altium Designer,20.0.11 (256)*
G04*
G04 Layer_Color=16711935*
%FSLAX25Y25*%
%MOIN*%
G70*
G01*
G75*
G04:AMPARAMS|DCode=50|XSize=59.18mil|YSize=94.61mil|CornerRadius=16.8mil|HoleSize=0mil|Usage=FLASHONLY|Rotation=0.000|XOffset=0mil|YOffset=0mil|HoleType=Round|Shape=RoundedRectangle|*
%AMROUNDEDRECTD50*
21,1,0.05918,0.06102,0,0,0.0*
21,1,0.02559,0.09461,0,0,0.0*
1,1,0.03359,0.01280,-0.03051*
1,1,0.03359,-0.01280,-0.03051*
1,1,0.03359,-0.01280,0.03051*
1,1,0.03359,0.01280,0.03051*
%
%ADD50ROUNDEDRECTD50*%
%ADD56C,0.01784*%
%ADD57R,0.07493X0.04737*%
%ADD58R,0.04147X0.03556*%
G04:AMPARAMS|DCode=62|XSize=47.37mil|YSize=43.43mil|CornerRadius=8.43mil|HoleSize=0mil|Usage=FLASHONLY|Rotation=90.000|XOffset=0mil|YOffset=0mil|HoleType=Round|Shape=RoundedRectangle|*
%AMROUNDEDRECTD62*
21,1,0.04737,0.02657,0,0,90.0*
21,1,0.03051,0.04343,0,0,90.0*
1,1,0.01686,0.01329,0.01526*
1,1,0.01686,0.01329,-0.01526*
1,1,0.01686,-0.01329,-0.01526*
1,1,0.01686,-0.01329,0.01526*
%
%ADD62ROUNDEDRECTD62*%
G04:AMPARAMS|DCode=63|XSize=47.37mil|YSize=43.43mil|CornerRadius=8.43mil|HoleSize=0mil|Usage=FLASHONLY|Rotation=180.000|XOffset=0mil|YOffset=0mil|HoleType=Round|Shape=RoundedRectangle|*
%AMROUNDEDRECTD63*
21,1,0.04737,0.02657,0,0,180.0*
21,1,0.03051,0.04343,0,0,180.0*
1,1,0.01686,-0.01526,0.01329*
1,1,0.01686,0.01526,0.01329*
1,1,0.01686,0.01526,-0.01329*
1,1,0.01686,-0.01526,-0.01329*
%
%ADD63ROUNDEDRECTD63*%
G04:AMPARAMS|DCode=66|XSize=31.62mil|YSize=31.62mil|CornerRadius=6.36mil|HoleSize=0mil|Usage=FLASHONLY|Rotation=180.000|XOffset=0mil|YOffset=0mil|HoleType=Round|Shape=RoundedRectangle|*
%AMROUNDEDRECTD66*
21,1,0.03162,0.01890,0,0,180.0*
21,1,0.01890,0.03162,0,0,180.0*
1,1,0.01272,-0.00945,0.00945*
1,1,0.01272,0.00945,0.00945*
1,1,0.01272,0.00945,-0.00945*
1,1,0.01272,-0.00945,-0.00945*
%
%ADD66ROUNDEDRECTD66*%
%ADD68R,0.06800X0.06800*%
%ADD69R,0.06000X0.06000*%
%ADD70C,0.06000*%
%ADD71C,0.07800*%
%ADD72O,0.12611X0.08674*%
G04:AMPARAMS|DCode=73|XSize=49.34mil|YSize=65.48mil|CornerRadius=14.34mil|HoleSize=0mil|Usage=FLASHONLY|Rotation=0.000|XOffset=0mil|YOffset=0mil|HoleType=Round|Shape=RoundedRectangle|*
%AMROUNDEDRECTD73*
21,1,0.04934,0.03681,0,0,0.0*
21,1,0.02067,0.06548,0,0,0.0*
1,1,0.02867,0.01034,-0.01841*
1,1,0.02867,-0.01034,-0.01841*
1,1,0.02867,-0.01034,0.01841*
1,1,0.02867,0.01034,0.01841*
%
%ADD73ROUNDEDRECTD73*%
%ADD74C,0.08800*%
%ADD75O,0.08674X0.12611*%
%ADD76C,0.12611*%
%ADD77C,0.06706*%
%ADD78R,0.06706X0.06706*%
%ADD79C,0.03556*%
%ADD80C,0.03950*%
%ADD132R,0.06299X0.17717*%
G04:AMPARAMS|DCode=133|XSize=57.21mil|YSize=76.9mil|CornerRadius=16.3mil|HoleSize=0mil|Usage=FLASHONLY|Rotation=90.000|XOffset=0mil|YOffset=0mil|HoleType=Round|Shape=RoundedRectangle|*
%AMROUNDEDRECTD133*
21,1,0.05721,0.04429,0,0,90.0*
21,1,0.02461,0.07690,0,0,90.0*
1,1,0.03261,0.02215,0.01230*
1,1,0.03261,0.02215,-0.01230*
1,1,0.03261,-0.02215,-0.01230*
1,1,0.03261,-0.02215,0.01230*
%
%ADD133ROUNDEDRECTD133*%
%ADD134R,0.06312X0.04737*%
%ADD135R,0.14580X0.09658*%
%ADD136R,0.14383X0.07887*%
%ADD137R,0.08595X0.25288*%
%ADD138R,0.05721X0.06509*%
%ADD139R,0.06509X0.05721*%
%ADD140R,0.03556X0.04147*%
%ADD141O,0.08674X0.03950*%
G04:AMPARAMS|DCode=142|XSize=145.8mil|YSize=76.9mil|CornerRadius=12.61mil|HoleSize=0mil|Usage=FLASHONLY|Rotation=180.000|XOffset=0mil|YOffset=0mil|HoleType=Round|Shape=RoundedRectangle|*
%AMROUNDEDRECTD142*
21,1,0.14580,0.05167,0,0,180.0*
21,1,0.12057,0.07690,0,0,180.0*
1,1,0.02522,-0.06029,0.02584*
1,1,0.02522,0.06029,0.02584*
1,1,0.02522,0.06029,-0.02584*
1,1,0.02522,-0.06029,-0.02584*
%
%ADD142ROUNDEDRECTD142*%
G04:AMPARAMS|DCode=143|XSize=51.31mil|YSize=76.9mil|CornerRadius=9.41mil|HoleSize=0mil|Usage=FLASHONLY|Rotation=180.000|XOffset=0mil|YOffset=0mil|HoleType=Round|Shape=RoundedRectangle|*
%AMROUNDEDRECTD143*
21,1,0.05131,0.05807,0,0,180.0*
21,1,0.03248,0.07690,0,0,180.0*
1,1,0.01883,-0.01624,0.02904*
1,1,0.01883,0.01624,0.02904*
1,1,0.01883,0.01624,-0.02904*
1,1,0.01883,-0.01624,-0.02904*
%
%ADD143ROUNDEDRECTD143*%
G04:AMPARAMS|DCode=144|XSize=51.31mil|YSize=76.9mil|CornerRadius=9.41mil|HoleSize=0mil|Usage=FLASHONLY|Rotation=180.000|XOffset=0mil|YOffset=0mil|HoleType=Round|Shape=RoundedRectangle|*
%AMROUNDEDRECTD144*
21,1,0.05131,0.05807,0,0,180.0*
21,1,0.03248,0.07690,0,0,180.0*
1,1,0.01883,-0.01624,0.02904*
1,1,0.01883,0.01624,0.02904*
1,1,0.01883,0.01624,-0.02904*
1,1,0.01883,-0.01624,-0.02904*
%
%ADD144ROUNDEDRECTD144*%
G04:AMPARAMS|DCode=145|XSize=31.62mil|YSize=47.37mil|CornerRadius=6.95mil|HoleSize=0mil|Usage=FLASHONLY|Rotation=0.000|XOffset=0mil|YOffset=0mil|HoleType=Round|Shape=RoundedRectangle|*
%AMROUNDEDRECTD145*
21,1,0.03162,0.03347,0,0,0.0*
21,1,0.01772,0.04737,0,0,0.0*
1,1,0.01391,0.00886,-0.01673*
1,1,0.01391,-0.00886,-0.01673*
1,1,0.01391,-0.00886,0.01673*
1,1,0.01391,0.00886,0.01673*
%
%ADD145ROUNDEDRECTD145*%
G04:AMPARAMS|DCode=146|XSize=86.74mil|YSize=169.42mil|CornerRadius=13.84mil|HoleSize=0mil|Usage=FLASHONLY|Rotation=180.000|XOffset=0mil|YOffset=0mil|HoleType=Round|Shape=RoundedRectangle|*
%AMROUNDEDRECTD146*
21,1,0.08674,0.14173,0,0,180.0*
21,1,0.05906,0.16942,0,0,180.0*
1,1,0.02769,-0.02953,0.07087*
1,1,0.02769,0.02953,0.07087*
1,1,0.02769,0.02953,-0.07087*
1,1,0.02769,-0.02953,-0.07087*
%
%ADD146ROUNDEDRECTD146*%
G36*
X222152Y55118D02*
X222152Y47638D01*
X224120Y45669D01*
X235144Y45669D01*
Y57086D01*
X227270D01*
X224120Y57086D01*
X222152Y55118D01*
D02*
G37*
G36*
X290262Y55118D02*
X290262Y47638D01*
X292231Y45669D01*
X303254Y45669D01*
Y57086D01*
X295380D01*
X292231Y57086D01*
X290262Y55118D01*
D02*
G37*
G36*
X357191D02*
X357191Y47638D01*
X359160Y45669D01*
X370183Y45669D01*
Y57086D01*
X362309D01*
X359160Y57086D01*
X357191Y55118D01*
D02*
G37*
G36*
X424121Y55118D02*
X424120Y47638D01*
X426089Y45669D01*
X437113Y45669D01*
Y57086D01*
X429239D01*
X426089Y57086D01*
X424121Y55118D01*
D02*
G37*
D50*
X218972Y7000D02*
D03*
X240428D02*
D03*
X141572Y7100D02*
D03*
X163028D02*
D03*
D56*
X252073Y90551D02*
D03*
Y92520D02*
D03*
X319002Y90551D02*
D03*
Y92520D02*
D03*
D57*
X147366Y104100D02*
D03*
X155634D02*
D03*
D58*
X228930Y134647D02*
D03*
Y139765D02*
D03*
X255308Y148033D02*
D03*
Y153151D02*
D03*
X260820Y148033D02*
D03*
Y153151D02*
D03*
X267119Y137403D02*
D03*
Y142521D02*
D03*
X255308Y137403D02*
D03*
Y142521D02*
D03*
X249796Y153151D02*
D03*
Y148033D02*
D03*
X267119D02*
D03*
Y153151D02*
D03*
X249796Y142521D02*
D03*
Y137403D02*
D03*
X260820Y142521D02*
D03*
Y137403D02*
D03*
X272631Y148033D02*
D03*
Y142915D02*
D03*
X240347Y135828D02*
D03*
Y140946D02*
D03*
X342600Y143459D02*
D03*
Y138341D02*
D03*
X337009Y151065D02*
D03*
Y156183D02*
D03*
X333465Y133349D02*
D03*
Y128231D02*
D03*
X234835Y135828D02*
D03*
Y140946D02*
D03*
X139100Y103859D02*
D03*
Y98741D02*
D03*
D62*
X137253Y112300D02*
D03*
X143947D02*
D03*
X232147Y182700D02*
D03*
X225453D02*
D03*
X216846D02*
D03*
X210154D02*
D03*
X336846Y140400D02*
D03*
X330153Y140400D02*
D03*
X320346Y151500D02*
D03*
X313653D02*
D03*
X319947Y158000D02*
D03*
X313253D02*
D03*
X359647Y176065D02*
D03*
X366339D02*
D03*
X347048Y176154D02*
D03*
X353741D02*
D03*
X334450Y176065D02*
D03*
X341143D02*
D03*
X238947Y155000D02*
D03*
X232254D02*
D03*
X426728Y136080D02*
D03*
X433421D02*
D03*
D63*
X401576Y143191D02*
D03*
Y149884D02*
D03*
X395276Y143191D02*
D03*
Y149884D02*
D03*
X388583Y166813D02*
D03*
Y173506D02*
D03*
X403400Y169046D02*
D03*
Y162353D02*
D03*
X376772Y173506D02*
D03*
Y166813D02*
D03*
X213400Y133647D02*
D03*
Y126953D02*
D03*
X220100Y126953D02*
D03*
Y133647D02*
D03*
X197700Y25646D02*
D03*
X197700Y18953D02*
D03*
X190200Y22946D02*
D03*
Y16253D02*
D03*
X204200Y160093D02*
D03*
Y153400D02*
D03*
D66*
X195900Y109831D02*
D03*
Y113768D02*
D03*
D68*
X197500Y7200D02*
D03*
X208100Y7100D02*
D03*
X173100Y6800D02*
D03*
X110900Y188900D02*
D03*
X22600Y188900D02*
D03*
X110900Y4500D02*
D03*
X22600D02*
D03*
D69*
X182800Y180900D02*
D03*
D70*
Y190900D02*
D03*
X172800Y180900D02*
D03*
Y190900D02*
D03*
X162800Y180900D02*
D03*
Y190900D02*
D03*
X152800Y180900D02*
D03*
Y190900D02*
D03*
X142800Y180900D02*
D03*
Y190900D02*
D03*
X132800Y180900D02*
D03*
Y190900D02*
D03*
X122800Y180900D02*
D03*
Y190900D02*
D03*
D71*
X135674Y76022D02*
D03*
Y40589D02*
D03*
X373089Y21674D02*
D03*
X420333D02*
D03*
D72*
X127800Y52400D02*
D03*
Y64211D02*
D03*
D73*
X220153Y18909D02*
D03*
X239247D02*
D03*
X142753Y19009D02*
D03*
X161847D02*
D03*
D74*
X352800Y10300D02*
D03*
X252800D02*
D03*
D75*
X384900Y13800D02*
D03*
X396711D02*
D03*
X408522D02*
D03*
D76*
X431900Y9100D02*
D03*
X9700Y187800D02*
D03*
X8600Y9200D02*
D03*
X432200Y188100D02*
D03*
D77*
X418500Y191300D02*
D03*
X408500D02*
D03*
X398500D02*
D03*
X388500D02*
D03*
X378500D02*
D03*
X368500D02*
D03*
X358500D02*
D03*
X348500D02*
D03*
X338500D02*
D03*
X328500D02*
D03*
X318500D02*
D03*
X308500D02*
D03*
X298500D02*
D03*
X288500D02*
D03*
X278500D02*
D03*
X268500D02*
D03*
X258500D02*
D03*
X235400Y191200D02*
D03*
X225400D02*
D03*
X215400D02*
D03*
X205400D02*
D03*
D78*
X248500Y191300D02*
D03*
X195400Y191200D02*
D03*
D79*
X373820Y144963D02*
D03*
Y140632D02*
D03*
Y136301D02*
D03*
X369489Y144963D02*
D03*
Y140632D02*
D03*
Y136301D02*
D03*
X365158Y144963D02*
D03*
Y140632D02*
D03*
Y136301D02*
D03*
X360827Y144963D02*
D03*
Y140632D02*
D03*
Y136301D02*
D03*
X356497Y144963D02*
D03*
Y140632D02*
D03*
Y136301D02*
D03*
X352166Y144963D02*
D03*
Y140632D02*
D03*
Y136301D02*
D03*
X131942Y85725D02*
D03*
X135880D02*
D03*
Y89662D02*
D03*
X131942D02*
D03*
Y93599D02*
D03*
X135880D02*
D03*
X149711Y80709D02*
D03*
X159554D02*
D03*
Y82677D02*
D03*
X149711D02*
D03*
X157585D02*
D03*
Y80709D02*
D03*
X167428Y82677D02*
D03*
Y80709D02*
D03*
X165459D02*
D03*
Y82677D02*
D03*
X155616Y80709D02*
D03*
Y82677D02*
D03*
X153648D02*
D03*
Y80709D02*
D03*
X163490Y82677D02*
D03*
Y80709D02*
D03*
X161522D02*
D03*
Y82677D02*
D03*
X151680Y80709D02*
D03*
Y82677D02*
D03*
X243806Y74803D02*
D03*
X241837Y76771D02*
D03*
X145380Y76378D02*
D03*
Y74409D02*
D03*
Y72441D02*
D03*
Y70472D02*
D03*
X147349D02*
D03*
Y72441D02*
D03*
Y74409D02*
D03*
Y76378D02*
D03*
X149317D02*
D03*
Y74409D02*
D03*
Y72441D02*
D03*
X151286Y74409D02*
D03*
Y76378D02*
D03*
X143412D02*
D03*
Y74409D02*
D03*
Y72441D02*
D03*
Y70472D02*
D03*
X241837Y70866D02*
D03*
Y72834D02*
D03*
Y74803D02*
D03*
X245774Y76771D02*
D03*
Y74803D02*
D03*
Y72834D02*
D03*
Y70866D02*
D03*
X243806D02*
D03*
Y72834D02*
D03*
Y76771D02*
D03*
X308766Y70866D02*
D03*
Y72834D02*
D03*
Y74803D02*
D03*
Y76771D02*
D03*
X312703D02*
D03*
Y74803D02*
D03*
Y72834D02*
D03*
Y70866D02*
D03*
X310735D02*
D03*
Y72834D02*
D03*
Y74803D02*
D03*
Y76771D02*
D03*
X375695Y70866D02*
D03*
Y72834D02*
D03*
Y74803D02*
D03*
Y76771D02*
D03*
X379632D02*
D03*
Y74803D02*
D03*
Y72834D02*
D03*
Y70866D02*
D03*
X377664D02*
D03*
Y72834D02*
D03*
Y74803D02*
D03*
Y76771D02*
D03*
D80*
X426089Y56693D02*
D03*
X429632D02*
D03*
X433176D02*
D03*
X425695Y45669D02*
D03*
X429239D02*
D03*
X432782D02*
D03*
X428156Y48917D02*
D03*
X437113Y46260D02*
D03*
Y51181D02*
D03*
Y56102D02*
D03*
X434652Y53445D02*
D03*
X434750Y48917D02*
D03*
X424809Y53445D02*
D03*
X424908Y48917D02*
D03*
X428057Y53445D02*
D03*
X431502Y48917D02*
D03*
X431404Y53445D02*
D03*
X359160Y56693D02*
D03*
X362703D02*
D03*
X366246D02*
D03*
X358766Y45669D02*
D03*
X362309D02*
D03*
X365853D02*
D03*
X361227Y48917D02*
D03*
X370183Y46260D02*
D03*
Y51181D02*
D03*
Y56102D02*
D03*
X367723Y53445D02*
D03*
X367821Y48917D02*
D03*
X357880Y53445D02*
D03*
X357979Y48917D02*
D03*
X361128Y53445D02*
D03*
X364573Y48917D02*
D03*
X364475Y53445D02*
D03*
X292231Y56693D02*
D03*
X295774D02*
D03*
X299317D02*
D03*
X291837Y45669D02*
D03*
X295380D02*
D03*
X298924D02*
D03*
X294298Y48917D02*
D03*
X303254Y46260D02*
D03*
Y51181D02*
D03*
Y56102D02*
D03*
X300794Y53445D02*
D03*
X300892Y48917D02*
D03*
X290951Y53445D02*
D03*
X291050Y48917D02*
D03*
X294199Y53445D02*
D03*
X297644Y48917D02*
D03*
X297546Y53445D02*
D03*
X224120Y56693D02*
D03*
X227664D02*
D03*
X231207D02*
D03*
X223727Y45669D02*
D03*
X227270D02*
D03*
X230813D02*
D03*
X226187Y48917D02*
D03*
X235144Y46260D02*
D03*
Y51181D02*
D03*
Y56102D02*
D03*
X232683Y53445D02*
D03*
X232782Y48917D02*
D03*
X222841Y53445D02*
D03*
X222939Y48917D02*
D03*
X226089Y53445D02*
D03*
X229534Y48917D02*
D03*
X229435Y53445D02*
D03*
D132*
X435931Y87598D02*
D03*
Y60039D02*
D03*
D133*
X133600Y155905D02*
D03*
Y144095D02*
D03*
D134*
X281292Y141143D02*
D03*
X296253D02*
D03*
X281292Y149805D02*
D03*
X296253D02*
D03*
D135*
X429900Y127150D02*
D03*
Y108449D02*
D03*
D136*
X319002Y95571D02*
D03*
Y73720D02*
D03*
X252073Y95571D02*
D03*
Y73720D02*
D03*
D137*
X414016Y124884D02*
D03*
X394647D02*
D03*
D138*
X201847Y183100D02*
D03*
X195153D02*
D03*
X403347Y181577D02*
D03*
X396654D02*
D03*
X403246Y107400D02*
D03*
X396553D02*
D03*
D139*
X227415Y114890D02*
D03*
Y108196D02*
D03*
X385931Y78149D02*
D03*
Y71457D02*
D03*
D140*
X240150Y146261D02*
D03*
X235032D02*
D03*
X380119Y150475D02*
D03*
X385237D02*
D03*
X380119Y136695D02*
D03*
X385237D02*
D03*
X380119Y144569D02*
D03*
X385237D02*
D03*
X383268Y125672D02*
D03*
X378150D02*
D03*
X372245D02*
D03*
X367127D02*
D03*
X365158Y115042D02*
D03*
X360040D02*
D03*
X360434Y155987D02*
D03*
X365552D02*
D03*
X356497Y126459D02*
D03*
X351379D02*
D03*
X341142Y162286D02*
D03*
X336024D02*
D03*
X340749Y126459D02*
D03*
X345867D02*
D03*
X268159Y186200D02*
D03*
X263041D02*
D03*
X268259Y180900D02*
D03*
X263141D02*
D03*
X206746Y118236D02*
D03*
X201628D02*
D03*
D141*
X205368Y109574D02*
D03*
Y113512D02*
D03*
D142*
X422835Y174884D02*
D03*
D143*
X413780Y148900D02*
D03*
X422835D02*
D03*
D144*
X431890D02*
D03*
D145*
X212258Y107212D02*
D03*
X219738Y117448D02*
D03*
X215998D02*
D03*
X212258D02*
D03*
X219738Y107212D02*
D03*
D146*
X281601Y57677D02*
D03*
Y91929D02*
D03*
X411128Y57677D02*
D03*
Y91929D02*
D03*
X167428Y57677D02*
D03*
Y91929D02*
D03*
X210735Y57677D02*
D03*
Y91929D02*
D03*
X348530Y57677D02*
D03*
Y91929D02*
D03*
M02*
