M48
;Layer_Color=9474304
;FILE_FORMAT=2:5
INCH,LZ
;TYPE=PLATED
T1F00S00C0.01181
T2F00S00C0.01378
T3F00S00C0.03543
T4F00S00C0.03800
T5F00S00C0.04000
T6F00S00C0.04213
T7F00S00C0.04724
T8F00S00C0.05201
;TYPE=NON_PLATED
T9F00S00C0.13386
%
T01
X0128037Y0034023
X0130437Y0031823
X0133637Y0030323
X01936Y00353
X01972Y00335
X01973Y00372
X01984Y00408
X01944Y00399
X01906Y00386
X02015
X02006Y00353
Y00317
X02204Y0025
X0224Y00259
X0223727Y0045669
X022727
X0230813
X0235144Y004626
X0291837Y0045669
X029538
X0298924
X0303254Y004626
X0358766Y0045669
X0362309
X0365853
X0370183Y004626
X0425695Y0045669
X0429239
X0432782
X0437113Y004626
Y0051181
X043475Y0048917
X0431502
X0428156
X0424908
X0424809Y0053445
X0428057
X0431404
X0434652
X0433176Y0056693
X0429632
X0426089
X0437113Y0056102
X04322Y01069
X04323Y01109
X04271Y01105
X0427Y01068
X04238Y013608
X0433247Y0142013
X04321Y01489
X0432Y01522
X0429922Y0154412
X0393308Y0155593
X0390158Y0150081
X0385631Y0163731
X0377954Y0161498
X0375985Y0173703
X0370069Y0179387
X0366499Y0182327
X036388Y0180026
X0362206Y0186302
X03611Y01666
X0361023Y0160711
X0364522Y015997
X03676Y01664
X03517Y01731
X0342Y017308
X034602Y0159787
X0341135Y015068
X03418Y01431
X03428Y01385
X0343468Y013362
X0339905Y013452
X0338976Y0130789
X0333647Y0133405
X0347245Y0132364
X0352166Y0136301
X0356497
X0360827
X0365158
X0369489
X037382
Y0140632
Y0144963
X0369489
Y0140632
X0365158
Y0144963
X0360827
Y0140632
X0356497
X0352166
Y0144963
X0356497
X0359449Y0119136
X0364567Y0118191
X0372047Y011701
X0376378Y0120159
X0380993Y012016
X0382678Y0131183
X037874Y0131183
X03734Y01313
X0387796Y0131971
X0401576Y0141205
X04034Y01721
X03995Y0175
X0397076Y0177427
X0384507Y0177288
X0327597Y0178116
X032307Y0176541
X0318505Y0174884
X0314782Y0163622
X03015Y01635
X0297184Y0159067
X0296253Y0153447
X02934Y01552
X0284835Y016102
X02846Y01656
X02909Y01695
X02961Y0179
X0299382Y0182222
X0303382Y018728
X0270584Y0181767
X02609Y018
X02604Y0186
X02589Y01722
X02558Y0174599
X0257507Y0164724
X0258457Y0158072
X0254521
X0252552Y0147322
X0258064Y0142521
X0263969Y0147836
X02693Y0146
X0272631Y0142226
X0268265Y0137403
X0260032Y0132482
X0256883Y0130907
X0259589Y0108135
X0288767Y0135633
X03014Y013718
X030112Y01409
X030812Y0140008
X0306001Y0144339
X03058Y01475
X03149Y01428
X031595Y013935
X0319935Y0139
X032Y0142
X0318706Y0146398
X0322Y01515
X0322331Y0157551
X0329971Y0159787
X03237Y01159
X0349607Y0113861
X0352363Y0116223
X0403246Y01074
X0379632Y0076771
Y0074803
X0377664
Y0076771
X0375695
Y0074803
Y0072834
Y0070866
X0377664
X0379632
Y0072834
X0377664
X0370183Y0056102
X0366246Y0056693
X0362703
X035916
X035788Y0053445
X0361128
X0364475
X0367723
X0367821Y0048917
X0364573
X0361227
X0357979
X0370183Y0051181
X0303254
X0300892Y0048917
X0297644
X0294298
X029105
X0290951Y0053445
X0294199
X0297546
X0300794
X0299317Y0056693
X0295774
X0292231
X0303254Y0056102
X0308766Y0070866
Y0072834
X0310735
Y0070866
X0312703
Y0072834
Y0074803
Y0076771
X0310735
X0308766
Y0074803
X0310735
X0310735Y0079921
X0319002Y008937
X03062Y01321
X02999Y01293
X0271843Y0154923
X0267119Y0157679
X0273812Y0170671
X0250584Y0158072
X0243497Y0150793
X0245195Y0148126
X0245072Y0141537
Y0137994
X02407Y01246
X0237044Y012749
X0231421Y0130179
X022893Y0127726
X0226114Y0130098
X02223Y01338
X02133
X0208865Y0127726
X02029Y01291
X02004Y01266
X02026Y01349
X02015Y0153047
X02017Y0160247
X0220323Y0159178
X02207Y0154647
X02258Y0156
X02264Y016
X02279Y0163
X02316Y01597
X0237985Y0163978
X024052Y0166122
X0235579Y0168104
X02399Y01726
X02407Y01758
X02397Y01804
X0230431Y0178616
X02167Y0179
X02124Y01778
X02028Y01822
X02006Y01845
X01964Y0182
X01935Y01846
X01638Y01605
X01381Y01495
X0135737Y0147137
X01365Y01434
X01399Y01435
X0132773Y014287
X0132674Y013977
Y013657
X01395Y01315
X0142756Y0133141
X0146537Y0134023
X01267Y01246
X01236
X0120169Y01241
X01184Y01204
X01177Y01172
X01341Y01091
X0135068Y0105939
X01372Y01036
X0134268Y0099426
X013588Y0093599
X0131942
Y0089662
X013588
Y0085725
X0131942
X0149711Y0082677
Y0080709
X015168
Y0082677
X0153648
X0155616
Y0080709
X0153648
X0157585
X0159554
Y0082677
X0157585
X0161522
X016349
Y0080709
X0161522
X0165459
X0167428
Y0082677
X0165459
X0151286Y0076378
X0149317
X0147349
X014538
Y0074409
Y0072441
X0147349
Y0074409
X0149317
Y0072441
X0151286Y0074409
X0147349Y0070472
X014538
X0143412
Y0072441
Y0074409
Y0076378
X0159Y01042
X0164788Y0106687
X0167088Y0104387
X01695Y0124
X01731Y01241
X0176737Y0124023
X0179937Y0123923
X0199919Y0116044
X02198Y01173
X0231009Y0108197
X0234603
X0252073Y008937
X0243806Y0079921
X0243806Y0076771
Y0074803
X0245774
Y0076771
X0241837
Y0074803
Y0072834
Y0070866
X0243806
X0245774
Y0072834
X0243806
X0235144Y0056102
X0231207Y0056693
X0227664
X022412
X0222841Y0053445
X0226089
X0229435
X0232683
X0232782Y0048917
X0229534
X0226187
X0222939
X0235144Y0051181
X022602Y014832
X02188Y0144847
X01306Y01553
X01273Y01556
X0124Y01555
T02
X0422756Y01474
X042282Y0150781
X04229Y01725
X04232Y01764
X04274Y01766
X04276Y01725
X0418Y01726
Y01766
X0408943Y018239
X0394489Y0169766
X0408268Y0142207
X0406694Y0124097
X0401969
X0383465Y0115042
X0370867Y0109924
X03335Y01242
X032826Y01406
X0332284Y0150475
T03
X00226Y00045
X01109
X01731Y00068
X01975Y00072
X02081Y00071
X04185Y01913
X04085
X03985
X03885
X03785
X03685
X03585
X03485
X03385
X03285
X03185
X03085
X02985
X02885
X02785
X02685
X02585
X02485
X02354Y01912
X02254
X02154
X02054
X01954
X01109Y01889
X00226Y01889
T04
X01828Y01809
T05
X02528Y00103
X03528
X01828Y01909
X01728
Y01809
X01628
Y01909
X01528
Y01809
X01428
Y01909
X01328
Y01809
X01228
Y01909
T06
X03849Y00138
X0396711
X0408522
X01278Y00524
Y0064211
T07
X0141572Y00071
X0142753Y0019009
X0161847
X0163028Y00071
X0218972Y0007
X0220153Y0018909
X0239247
X0240428Y0007
T08
X0135674Y0040589
X0373089Y0021674
X0420333
X0135674Y0076022
T09
X00086Y00092
X04319Y00091
X04322Y01881
X00097Y01878
M30
