G04*
G04 #@! TF.GenerationSoftware,Altium Limited,Altium Designer,20.0.11 (256)*
G04*
G04 Layer_Color=65535*
%FSLAX25Y25*%
%MOIN*%
G70*
G01*
G75*
%ADD10C,0.00787*%
%ADD11C,0.00984*%
%ADD12C,0.02362*%
%ADD13C,0.00394*%
%ADD14C,0.00600*%
%ADD15C,0.00500*%
%ADD16C,0.01000*%
%ADD17C,0.00800*%
%ADD18C,0.00598*%
G36*
X276652Y101846D02*
X276572Y101705D01*
X276472Y101585D01*
X276412Y101465D01*
X276372Y101445D01*
Y101425D01*
X276231Y101244D01*
X276111Y101084D01*
X276011Y100963D01*
X275991Y100943D01*
X275970Y100923D01*
X275810Y100743D01*
X275670Y100602D01*
X275570Y100522D01*
X275549Y100482D01*
X275529D01*
X275389Y100382D01*
X275289Y100322D01*
X275209Y100302D01*
X271880D01*
X271800Y100322D01*
X271720Y100342D01*
X271600Y100442D01*
X271519Y100522D01*
X271499Y100542D01*
Y100562D01*
X271399Y100783D01*
X271299Y101004D01*
X271279Y101104D01*
X271239Y101184D01*
X271219Y101224D01*
Y101244D01*
X271138Y101545D01*
X271078Y101825D01*
X271058Y101926D01*
X271038Y102006D01*
X271018Y102066D01*
Y102086D01*
X270978Y102387D01*
X270938Y102507D01*
X270918Y102628D01*
X270898Y102708D01*
Y102768D01*
X270878Y102808D01*
Y102828D01*
X269655Y113555D01*
X273123D01*
X274086Y104632D01*
X279640Y113555D01*
X283770D01*
X276652Y101846D01*
D02*
G37*
G36*
X268752Y113414D02*
X268672Y113274D01*
X268512Y112973D01*
X268452Y112853D01*
X268392Y112753D01*
X268352Y112673D01*
X268331Y112653D01*
X268091Y112232D01*
X267970Y112051D01*
X267870Y111891D01*
X267770Y111730D01*
X267690Y111630D01*
X267650Y111550D01*
X267630Y111530D01*
X267369Y111149D01*
X267249Y110988D01*
X267128Y110848D01*
X267048Y110748D01*
X266968Y110668D01*
X266928Y110607D01*
X266908Y110587D01*
X266788Y110447D01*
X266687Y110347D01*
X266607Y110287D01*
X266527Y110247D01*
X266447Y110186D01*
X264041D01*
X262136Y103670D01*
X265925D01*
X265865Y103530D01*
X265785Y103389D01*
X265645Y103089D01*
X265564Y102948D01*
X265524Y102848D01*
X265484Y102768D01*
X265464Y102748D01*
X265224Y102327D01*
X265103Y102146D01*
X265003Y101986D01*
X264903Y101825D01*
X264823Y101725D01*
X264783Y101645D01*
X264762Y101625D01*
X264482Y101244D01*
X264362Y101084D01*
X264241Y100943D01*
X264161Y100843D01*
X264081Y100763D01*
X264041Y100703D01*
X264021Y100683D01*
X263900Y100562D01*
X263800Y100462D01*
X263720Y100402D01*
X263660Y100342D01*
X263560Y100302D01*
X253555D01*
D01*
X249264D01*
X245154Y105054D01*
X244933Y104853D01*
X243590Y100302D01*
X239740D01*
X243630Y113555D01*
X252552D01*
X252793Y113535D01*
X253013Y113495D01*
X253194Y113435D01*
X253354Y113374D01*
X253494Y113294D01*
X253575Y113234D01*
X253635Y113194D01*
X253655Y113174D01*
X253815Y113033D01*
X253956Y112873D01*
X254056Y112713D01*
X254156Y112572D01*
X254236Y112432D01*
X254296Y112332D01*
X254316Y112251D01*
X254337Y112232D01*
X254497Y111810D01*
X254557Y111590D01*
X254597Y111409D01*
X254637Y111229D01*
X254657Y111109D01*
X254677Y111029D01*
Y110988D01*
X254697Y110748D01*
X254717Y110507D01*
X254737Y110287D01*
X254757Y110106D01*
Y109946D01*
Y109826D01*
Y109745D01*
Y109725D01*
X254737Y109264D01*
X254677Y108863D01*
X254597Y108502D01*
X254517Y108201D01*
X254417Y107961D01*
X254337Y107780D01*
X254276Y107660D01*
X254256Y107620D01*
X254056Y107319D01*
X253855Y107079D01*
X253635Y106838D01*
X253434Y106658D01*
X253254Y106517D01*
X253114Y106397D01*
X253033Y106337D01*
X252993Y106317D01*
X252712Y106156D01*
X252412Y105996D01*
X252131Y105876D01*
X251870Y105795D01*
X251650Y105715D01*
X251489Y105655D01*
X251369Y105635D01*
X251349Y105615D01*
X251329D01*
X250988Y105535D01*
X250687Y105475D01*
X250387Y105435D01*
X250146Y105394D01*
X249925Y105374D01*
X249765Y105354D01*
X249665Y105334D01*
X249625D01*
X253522Y100344D01*
X253535Y100382D01*
X253575Y100442D01*
X253675Y100622D01*
X253735Y100723D01*
X253775Y100803D01*
X253795Y100843D01*
X253815Y100863D01*
X254036Y101224D01*
X254136Y101384D01*
X254236Y101545D01*
X254337Y101665D01*
X254397Y101765D01*
X254437Y101846D01*
X254457Y101866D01*
X254737Y102267D01*
X254858Y102447D01*
X254978Y102608D01*
X255078Y102748D01*
X255159Y102848D01*
X255199Y102908D01*
X255219Y102928D01*
X255359Y103109D01*
X255499Y103269D01*
X255620Y103389D01*
X255720Y103490D01*
X255800Y103570D01*
X255860Y103630D01*
X255880Y103670D01*
X258306D01*
X260191Y110186D01*
X256422D01*
Y110206D01*
X256442Y110267D01*
X256482Y110327D01*
X256562Y110507D01*
X256622Y110607D01*
X256662Y110688D01*
X256682Y110728D01*
X256702Y110748D01*
X256923Y111109D01*
X257023Y111269D01*
X257123Y111430D01*
X257204Y111550D01*
X257284Y111650D01*
X257324Y111730D01*
X257344Y111750D01*
X257625Y112151D01*
X257745Y112332D01*
X257865Y112492D01*
X257965Y112633D01*
X258046Y112733D01*
X258086Y112793D01*
X258106Y112813D01*
X258246Y112993D01*
X258387Y113154D01*
X258487Y113274D01*
X258587Y113374D01*
X258667Y113454D01*
X258727Y113515D01*
X258748Y113555D01*
X268813D01*
X268752Y113414D01*
D02*
G37*
G36*
X296061Y113414D02*
X295980Y113274D01*
X295820Y112973D01*
X295760Y112853D01*
X295700Y112753D01*
X295659Y112673D01*
X295639Y112653D01*
X295399Y112232D01*
X295279Y112051D01*
X295178Y111891D01*
X295078Y111730D01*
X294998Y111630D01*
X294958Y111550D01*
X294938Y111530D01*
X294677Y111149D01*
X294557Y110988D01*
X294437Y110848D01*
X294356Y110748D01*
X294276Y110668D01*
X294236Y110607D01*
X294216Y110587D01*
X294096Y110447D01*
X293995Y110347D01*
X293915Y110287D01*
X293835Y110247D01*
X293755Y110186D01*
X287539D01*
X286417Y106257D01*
X288301Y108562D01*
X292953D01*
X290066Y105174D01*
X286076D01*
X285634Y103670D01*
X293314D01*
X293294Y103610D01*
X293253Y103550D01*
X293233Y103470D01*
X293214Y103450D01*
X293153Y103329D01*
X293113Y103229D01*
X293073Y103149D01*
X293053Y103109D01*
X292993Y102988D01*
X292953Y102888D01*
X292913Y102808D01*
X292893Y102788D01*
X292853Y102708D01*
X292812Y102648D01*
X292792Y102628D01*
X292632Y102387D01*
X292472Y102166D01*
X292411Y102066D01*
X292351Y101986D01*
X292311Y101946D01*
X292291Y101926D01*
X292071Y101645D01*
X291870Y101384D01*
X291810Y101284D01*
X291750Y101204D01*
X291710Y101164D01*
X291690Y101144D01*
X291489Y100903D01*
X291309Y100703D01*
X291208Y100582D01*
X291188Y100562D01*
X291168Y100542D01*
X291088Y100462D01*
X291028Y100402D01*
X290948Y100342D01*
X290928Y100302D01*
X280823Y100302D01*
X284712Y113555D01*
X296121Y113555D01*
X296061Y113414D01*
D02*
G37*
G36*
X239359Y113535D02*
X239560Y113515D01*
X239820Y113454D01*
X240121Y113354D01*
X240402Y113214D01*
X240683Y113013D01*
X240903Y112733D01*
X240923Y112693D01*
X240983Y112592D01*
X241083Y112412D01*
X241184Y112171D01*
X241264Y111851D01*
X241364Y111490D01*
X241424Y111089D01*
X241444Y110627D01*
Y110607D01*
Y110587D01*
Y110527D01*
Y110467D01*
X241424Y110267D01*
X241404Y110006D01*
X241364Y109685D01*
X241324Y109324D01*
X241244Y108943D01*
X241144Y108522D01*
Y108502D01*
X241124Y108462D01*
X241104Y108402D01*
X241083Y108322D01*
X241023Y108101D01*
X240923Y107820D01*
X240783Y107480D01*
X240622Y107119D01*
X240442Y106738D01*
X240221Y106337D01*
Y106317D01*
X240181Y106257D01*
X240141Y106176D01*
X240081Y106056D01*
X240001Y105916D01*
X239900Y105755D01*
X239700Y105374D01*
X239439Y104933D01*
X239139Y104472D01*
X238838Y103991D01*
X238517Y103550D01*
Y103530D01*
X238477Y103510D01*
X238437Y103450D01*
X238377Y103369D01*
X238196Y103149D01*
X237956Y102888D01*
X237675Y102608D01*
X237354Y102287D01*
X237013Y101986D01*
X236632Y101685D01*
X236612D01*
X236592Y101645D01*
X236532Y101625D01*
X236452Y101565D01*
X236251Y101445D01*
X235971Y101284D01*
X235630Y101104D01*
X235249Y100923D01*
X234828Y100763D01*
X234367Y100622D01*
X234347D01*
X234307Y100602D01*
X234246D01*
X234146Y100582D01*
X234026Y100542D01*
X233886Y100522D01*
X233725Y100502D01*
X233545Y100462D01*
X233144Y100402D01*
X232662Y100362D01*
X232141Y100322D01*
X231580Y100302D01*
X226567Y100302D01*
X230457Y113555D01*
X239279D01*
X239359Y113535D01*
D02*
G37*
G36*
X226186Y113535D02*
X226387Y113515D01*
X226647Y113454D01*
X226948Y113354D01*
X227229Y113214D01*
X227510Y113013D01*
X227730Y112733D01*
X227750Y112693D01*
X227810Y112592D01*
X227911Y112412D01*
X228011Y112171D01*
X228091Y111851D01*
X228191Y111490D01*
X228252Y111089D01*
X228272Y110627D01*
Y110607D01*
Y110587D01*
Y110527D01*
Y110467D01*
X228252Y110267D01*
X228231Y110006D01*
X228191Y109685D01*
X228151Y109324D01*
X228071Y108943D01*
X227971Y108522D01*
Y108502D01*
X227951Y108462D01*
X227931Y108402D01*
X227911Y108322D01*
X227851Y108101D01*
X227750Y107820D01*
X227610Y107480D01*
X227449Y107119D01*
X227269Y106738D01*
X227048Y106337D01*
Y106317D01*
X227008Y106257D01*
X226968Y106176D01*
X226908Y106056D01*
X226828Y105916D01*
X226728Y105755D01*
X226527Y105374D01*
X226267Y104933D01*
X225966Y104472D01*
X225665Y103991D01*
X225344Y103550D01*
Y103530D01*
X225304Y103510D01*
X225264Y103450D01*
X225204Y103369D01*
X225023Y103149D01*
X224783Y102888D01*
X224502Y102608D01*
X224181Y102287D01*
X223840Y101986D01*
X223460Y101685D01*
X223439D01*
X223419Y101645D01*
X223359Y101625D01*
X223279Y101565D01*
X223078Y101445D01*
X222798Y101284D01*
X222457Y101104D01*
X222076Y100923D01*
X221655Y100763D01*
X221194Y100622D01*
X221174D01*
X221134Y100602D01*
X221074D01*
X220973Y100582D01*
X220853Y100542D01*
X220713Y100522D01*
X220552Y100502D01*
X220372Y100462D01*
X219971Y100402D01*
X219490Y100362D01*
X218968Y100322D01*
X218407Y100302D01*
X213394D01*
X217284Y113555D01*
X226106D01*
X226186Y113535D01*
D02*
G37*
G36*
X212893D02*
X213074Y113515D01*
X213254Y113454D01*
X213394Y113394D01*
X213495Y113334D01*
X213595Y113294D01*
X213635Y113254D01*
X213655Y113234D01*
X213916Y112973D01*
X214116Y112713D01*
X214176Y112612D01*
X214236Y112512D01*
X214277Y112452D01*
Y112432D01*
X214437Y112031D01*
X214477Y111830D01*
X214537Y111650D01*
X214557Y111490D01*
X214577Y111369D01*
X214597Y111289D01*
Y111249D01*
X214657Y110748D01*
X214678Y110527D01*
Y110327D01*
X214698Y110146D01*
Y110006D01*
Y109926D01*
Y109886D01*
Y109826D01*
X214678Y109465D01*
X214637Y109304D01*
X214617Y109144D01*
X214577Y109023D01*
X214537Y108923D01*
X214517Y108863D01*
Y108843D01*
X214377Y108502D01*
X214317Y108362D01*
X214257Y108221D01*
X214196Y108121D01*
X214136Y108041D01*
X214116Y107981D01*
X214096Y107961D01*
X213916Y107680D01*
X213735Y107460D01*
X213655Y107359D01*
X213615Y107299D01*
X213575Y107259D01*
X213555Y107239D01*
X213354Y107038D01*
X213174Y106898D01*
X213053Y106798D01*
X213034Y106778D01*
X213014D01*
X213174Y106577D01*
X213314Y106377D01*
X213374Y106277D01*
X213394Y106196D01*
X213435Y106156D01*
Y106136D01*
X213535Y105835D01*
X213595Y105535D01*
X213615Y105414D01*
Y105314D01*
Y105254D01*
Y105234D01*
X213595Y104973D01*
X213575Y104733D01*
X213555Y104653D01*
Y104572D01*
X213535Y104532D01*
Y104512D01*
X213475Y104272D01*
X213394Y104051D01*
X213354Y103971D01*
X213334Y103911D01*
X213314Y103871D01*
Y103851D01*
X213254Y103570D01*
X213134Y103249D01*
X213034Y102968D01*
X212913Y102708D01*
X212813Y102487D01*
X212733Y102307D01*
X212673Y102186D01*
X212632Y102086D01*
X212612Y102066D01*
X212472Y101846D01*
X212332Y101645D01*
X212191Y101465D01*
X212071Y101324D01*
X211951Y101204D01*
X211851Y101124D01*
X211790Y101064D01*
X211770Y101044D01*
X211590Y100903D01*
X211389Y100803D01*
X211189Y100703D01*
X210988Y100622D01*
X210828Y100562D01*
X210688Y100522D01*
X210608Y100482D01*
X210567D01*
X210287Y100422D01*
X210006Y100382D01*
X209705Y100342D01*
X209424Y100322D01*
X209184D01*
X209003Y100302D01*
X199600D01*
X203490Y113555D01*
X212673D01*
X212893Y113535D01*
D02*
G37*
G36*
X344704Y99400D02*
X343025D01*
X345053Y102608D01*
X343760Y101471D01*
X340797D01*
X343139Y105177D01*
X344791D01*
X343375Y102940D01*
X345272D01*
X346679Y105177D01*
X348357D01*
X344704Y99400D01*
D02*
G37*
G36*
X330221Y100073D02*
X330160Y100012D01*
X330099Y99959D01*
X330047Y99907D01*
X330038Y99898D01*
X330029Y99889D01*
X329942Y99811D01*
X329863Y99741D01*
X329828Y99715D01*
X329811Y99688D01*
X329793Y99680D01*
X329784Y99671D01*
X329688Y99592D01*
X329610Y99531D01*
X329575Y99514D01*
X329548Y99496D01*
X329540Y99479D01*
X329531D01*
X329452Y99435D01*
X329391Y99409D01*
X329356Y99400D01*
X327905D01*
X327870Y99409D01*
X327844Y99418D01*
X327809Y99461D01*
X327792Y99496D01*
X327783Y99505D01*
Y99514D01*
X327765Y99610D01*
X327757Y99706D01*
Y99750D01*
Y99785D01*
Y99802D01*
Y99811D01*
X327765Y99942D01*
X327774Y100064D01*
X327783Y100108D01*
X327792Y100143D01*
Y100169D01*
Y100178D01*
X327818Y100309D01*
X327827Y100361D01*
X327835Y100414D01*
Y100449D01*
X327844Y100475D01*
Y100493D01*
Y100501D01*
X328902Y105177D01*
X330414D01*
X329505Y101288D01*
X333254Y105177D01*
X335055D01*
X330221Y100073D01*
D02*
G37*
G36*
X318291Y100073D02*
X318230Y100012D01*
X318169Y99959D01*
X318116Y99907D01*
X318108Y99898D01*
X318099Y99889D01*
X318012Y99811D01*
X317933Y99741D01*
X317898Y99715D01*
X317881Y99688D01*
X317863Y99680D01*
X317854Y99671D01*
X317758Y99592D01*
X317680Y99531D01*
X317645Y99514D01*
X317618Y99496D01*
X317610Y99479D01*
X317601D01*
X317522Y99435D01*
X317461Y99409D01*
X317426Y99400D01*
X315975D01*
X315940Y99409D01*
X315914Y99418D01*
X315879Y99461D01*
X315862Y99496D01*
X315853Y99505D01*
Y99514D01*
X315835Y99610D01*
X315827Y99706D01*
Y99750D01*
Y99785D01*
Y99802D01*
Y99811D01*
X315835Y99942D01*
X315844Y100064D01*
X315853Y100108D01*
X315862Y100143D01*
Y100169D01*
Y100178D01*
X315888Y100309D01*
X315897Y100361D01*
X315905Y100414D01*
Y100449D01*
X315914Y100475D01*
Y100493D01*
Y100501D01*
X316972Y105177D01*
X318484D01*
X317575Y101288D01*
X321324Y105177D01*
X323125Y105177D01*
X318291Y100073D01*
D02*
G37*
G36*
X368922Y105116D02*
X368861Y105055D01*
X368756Y104924D01*
X368704Y104871D01*
X368660Y104827D01*
X368634Y104793D01*
X368625Y104784D01*
X368459Y104600D01*
X368380Y104522D01*
X368302Y104452D01*
X368240Y104382D01*
X368197Y104338D01*
X368162Y104303D01*
X368153Y104294D01*
X367978Y104128D01*
X367899Y104058D01*
X367830Y103997D01*
X367768Y103954D01*
X367725Y103919D01*
X367699Y103892D01*
X367690Y103884D01*
X367620Y103823D01*
X367559Y103779D01*
X367515Y103753D01*
X367480Y103735D01*
X367454Y103718D01*
X367436Y103709D01*
X364718D01*
X363652Y101996D01*
X364823Y103001D01*
X366842D01*
X365085Y101524D01*
X363346D01*
X362927Y100868D01*
X366283D01*
X366256Y100842D01*
X366230Y100816D01*
X366204Y100781D01*
X366195Y100772D01*
X366151Y100720D01*
X366117Y100676D01*
X366090Y100641D01*
X366082Y100624D01*
X366038Y100571D01*
X365994Y100528D01*
X365968Y100493D01*
X365959Y100484D01*
X365924Y100449D01*
X365907Y100423D01*
X365889Y100414D01*
X365793Y100309D01*
X365688Y100213D01*
X365645Y100169D01*
X365610Y100134D01*
X365583Y100117D01*
X365575Y100108D01*
X365435Y99986D01*
X365374Y99924D01*
X365313Y99872D01*
X365269Y99828D01*
X365234Y99793D01*
X365208Y99776D01*
X365199Y99767D01*
X365068Y99662D01*
X364972Y99575D01*
X364928Y99549D01*
X364902Y99522D01*
X364884Y99514D01*
X364876Y99505D01*
X364832Y99470D01*
X364797Y99444D01*
X364753Y99418D01*
X364736Y99400D01*
X360331D01*
X363993Y105177D01*
X368966D01*
X368922Y105116D01*
D02*
G37*
G36*
X363495D02*
X363433Y105055D01*
X363329Y104924D01*
X363276Y104871D01*
X363232Y104827D01*
X363206Y104793D01*
X363197Y104784D01*
X363031Y104600D01*
X362953Y104522D01*
X362874Y104452D01*
X362813Y104382D01*
X362769Y104338D01*
X362734Y104303D01*
X362725Y104294D01*
X362551Y104128D01*
X362472Y104058D01*
X362402Y103997D01*
X362341Y103954D01*
X362297Y103919D01*
X362271Y103892D01*
X362262Y103884D01*
X362192Y103823D01*
X362131Y103779D01*
X362087Y103753D01*
X362052Y103735D01*
X362026Y103718D01*
X362009Y103709D01*
X360951D01*
X358233Y99400D01*
X356564D01*
X359282Y103709D01*
X357639D01*
Y103718D01*
X357656Y103744D01*
X357682Y103770D01*
X357752Y103849D01*
X357787Y103892D01*
X357814Y103927D01*
X357831Y103945D01*
X357840Y103954D01*
X357988Y104111D01*
X358058Y104181D01*
X358120Y104251D01*
X358181Y104303D01*
X358224Y104347D01*
X358259Y104382D01*
X358268Y104391D01*
X358452Y104565D01*
X358539Y104644D01*
X358609Y104714D01*
X358679Y104775D01*
X358722Y104819D01*
X358757Y104845D01*
X358766Y104854D01*
X358854Y104932D01*
X358932Y105002D01*
X359002Y105055D01*
X359055Y105098D01*
X359098Y105133D01*
X359133Y105160D01*
X359151Y105177D01*
X363538D01*
X363495Y105116D01*
D02*
G37*
G36*
X354449Y99400D02*
X352762D01*
X356415Y105177D01*
X358093D01*
X354449Y99400D01*
D02*
G37*
G36*
X350446Y100868D02*
X353216D01*
X353199Y100842D01*
X353181Y100825D01*
X353155Y100790D01*
X353112Y100746D01*
X353050Y100685D01*
X353042Y100676D01*
X353015Y100650D01*
X352980Y100615D01*
X352928Y100562D01*
X352867Y100501D01*
X352797Y100423D01*
X352709Y100344D01*
X352622Y100248D01*
X352613Y100239D01*
X352578Y100204D01*
X352535Y100160D01*
X352465Y100099D01*
X352395Y100021D01*
X352307Y99942D01*
X352115Y99758D01*
X352106Y99750D01*
X352071Y99715D01*
X352028Y99671D01*
X351967Y99619D01*
X351827Y99505D01*
X351757Y99452D01*
X351696Y99400D01*
X347850D01*
X351512Y105177D01*
X353181D01*
X350446Y100868D01*
D02*
G37*
G36*
X339381Y100929D02*
X339442Y100912D01*
X339503Y100895D01*
X339538Y100868D01*
X339573Y100833D01*
X339591Y100816D01*
X339608Y100798D01*
Y100790D01*
X339634Y100728D01*
X339643Y100667D01*
Y100606D01*
X339634Y100554D01*
X339626Y100501D01*
X339617Y100458D01*
X339608Y100431D01*
Y100423D01*
X339582Y100353D01*
X339547Y100283D01*
X339460Y100143D01*
X339425Y100091D01*
X339390Y100047D01*
X339372Y100012D01*
X339363Y100003D01*
X339224Y99846D01*
X339154Y99776D01*
X339084Y99723D01*
X339031Y99671D01*
X338988Y99636D01*
X338953Y99619D01*
X338944Y99610D01*
X338830Y99549D01*
X338725Y99496D01*
X338690Y99479D01*
X338655Y99461D01*
X338638Y99452D01*
X338629D01*
X338516Y99426D01*
X338420Y99409D01*
X338385Y99400D01*
X338332D01*
X338253Y99409D01*
X338192Y99426D01*
X338140Y99444D01*
X338096Y99470D01*
X338061Y99496D01*
X338044Y99522D01*
X338026Y99531D01*
Y99540D01*
X338000Y99592D01*
X337991Y99654D01*
Y99715D01*
X338000Y99776D01*
X338009Y99828D01*
X338018Y99872D01*
X338026Y99898D01*
Y99907D01*
X338070Y100012D01*
X338105Y100091D01*
X338140Y100143D01*
X338149Y100160D01*
X338236Y100274D01*
X338323Y100379D01*
X338411Y100466D01*
X338498Y100554D01*
X338577Y100615D01*
X338638Y100659D01*
X338673Y100694D01*
X338690Y100702D01*
X338813Y100781D01*
X338926Y100842D01*
X339031Y100877D01*
X339119Y100912D01*
X339197Y100929D01*
X339250Y100938D01*
X339302D01*
X339381Y100929D01*
D02*
G37*
G36*
X339390Y105168D02*
X339468Y105151D01*
X339521Y105125D01*
X339573Y105098D01*
X339608Y105063D01*
X339634Y105037D01*
X339643Y105020D01*
X339652Y105011D01*
X339713Y104880D01*
X339757Y104740D01*
X339766Y104688D01*
X339774Y104644D01*
Y104609D01*
Y104600D01*
X339783Y104417D01*
Y104329D01*
X339774Y104251D01*
X339766Y104181D01*
Y104120D01*
X339757Y104085D01*
Y104076D01*
X339739Y103971D01*
X339722Y103884D01*
X339704Y103796D01*
X339687Y103726D01*
X339669Y103665D01*
X339652Y103613D01*
X339643Y103586D01*
Y103578D01*
X339634Y103551D01*
X339573Y103403D01*
X339538Y103333D01*
X339512Y103263D01*
X339477Y103211D01*
X339460Y103167D01*
X339442Y103141D01*
X339433Y103132D01*
X339337Y102983D01*
X339285Y102913D01*
X339241Y102852D01*
X339206Y102800D01*
X339171Y102765D01*
X339154Y102739D01*
X339145Y102730D01*
X339031Y102599D01*
X338970Y102538D01*
X338918Y102494D01*
X338874Y102450D01*
X338839Y102424D01*
X338822Y102407D01*
X338813Y102398D01*
X338699Y102310D01*
X338594Y102241D01*
X338559Y102214D01*
X338533Y102206D01*
X338516Y102188D01*
X338507D01*
X338516Y102118D01*
X338533Y102048D01*
X338542Y101996D01*
X338551Y101987D01*
Y101978D01*
X338568Y101935D01*
Y101882D01*
Y101769D01*
X338559Y101725D01*
X338551Y101681D01*
X338542Y101655D01*
Y101646D01*
X338498Y101524D01*
X338437Y101410D01*
X338411Y101358D01*
X338393Y101323D01*
X338385Y101297D01*
X338376Y101288D01*
X338297Y101148D01*
X338253Y101096D01*
X338227Y101043D01*
X338201Y100999D01*
X338175Y100973D01*
X338166Y100956D01*
X338157Y100947D01*
X338087Y100825D01*
X337991Y100685D01*
X337904Y100562D01*
X337817Y100449D01*
X337747Y100353D01*
X337694Y100274D01*
X337642Y100222D01*
X337615Y100178D01*
X337607Y100169D01*
X337519Y100073D01*
X337441Y99986D01*
X337362Y99907D01*
X337283Y99846D01*
X337222Y99793D01*
X337170Y99758D01*
X337135Y99732D01*
X337126Y99723D01*
X337030Y99662D01*
X336925Y99619D01*
X336820Y99575D01*
X336733Y99540D01*
X336645Y99514D01*
X336584Y99496D01*
X336540Y99479D01*
X336523D01*
X336383Y99452D01*
X336243Y99435D01*
X336095Y99418D01*
X335964Y99409D01*
X335841D01*
X335745Y99400D01*
X331803D01*
X331943Y99549D01*
X332066Y99697D01*
X332188Y99828D01*
X332293Y99951D01*
X332380Y100047D01*
X332441Y100125D01*
X332485Y100169D01*
X332503Y100187D01*
X332634Y100326D01*
X332756Y100458D01*
X332870Y100571D01*
X332983Y100676D01*
X333071Y100755D01*
X333141Y100825D01*
X333184Y100860D01*
X333202Y100877D01*
X336051D01*
X336060Y100886D01*
X336077Y100895D01*
X336095Y100903D01*
X336103D01*
X336147Y100929D01*
X336182Y100956D01*
X336217Y100964D01*
X336226Y100973D01*
X336278Y100999D01*
X336322Y101026D01*
X336348Y101034D01*
X336357Y101043D01*
X336401Y101078D01*
X336427Y101096D01*
X336444Y101113D01*
X336453Y101122D01*
X336462Y101130D01*
X336471Y101139D01*
X336506Y101165D01*
X336514Y101174D01*
X336540Y101227D01*
X336567Y101262D01*
X336584Y101297D01*
X336602Y101332D01*
Y101340D01*
X336628Y101393D01*
X336645Y101445D01*
X336663Y101480D01*
Y101489D01*
X334303D01*
X336147Y102966D01*
X337545D01*
X337554Y102975D01*
X337572Y102992D01*
X337580Y103001D01*
X337589Y103010D01*
X337624Y103053D01*
X337659Y103088D01*
X337685Y103114D01*
X337694Y103123D01*
X337738Y103176D01*
X337773Y103219D01*
X337799Y103246D01*
X337808Y103254D01*
X337843Y103298D01*
X337869Y103324D01*
X337878Y103342D01*
X337886Y103350D01*
X337921Y103403D01*
Y103420D01*
Y103429D01*
Y103447D01*
Y103455D01*
X337913Y103499D01*
X337904Y103551D01*
X337895Y103586D01*
X337886Y103604D01*
X337878Y103639D01*
X337860Y103656D01*
X337843Y103691D01*
X337834Y103700D01*
X334565D01*
X334687Y103840D01*
X334801Y103980D01*
X334915Y104102D01*
X335011Y104216D01*
X335098Y104312D01*
X335159Y104391D01*
X335203Y104434D01*
X335221Y104452D01*
X335352Y104592D01*
X335483Y104731D01*
X335605Y104854D01*
X335719Y104959D01*
X335815Y105046D01*
X335885Y105116D01*
X335937Y105160D01*
X335955Y105177D01*
X339311D01*
X339390Y105168D01*
D02*
G37*
G36*
X328465Y105116D02*
X328403Y105055D01*
X328299Y104924D01*
X328246Y104871D01*
X328203Y104827D01*
X328176Y104793D01*
X328168Y104784D01*
X328001Y104600D01*
X327923Y104522D01*
X327844Y104452D01*
X327783Y104382D01*
X327739Y104338D01*
X327704Y104303D01*
X327695Y104294D01*
X327521Y104128D01*
X327442Y104058D01*
X327372Y103997D01*
X327311Y103954D01*
X327267Y103919D01*
X327241Y103892D01*
X327232Y103884D01*
X327162Y103823D01*
X327101Y103779D01*
X327058Y103753D01*
X327023Y103735D01*
X326996Y103718D01*
X326979Y103709D01*
X324261D01*
X323194Y101996D01*
X324366Y103001D01*
X326384D01*
X324628Y101524D01*
X322888Y101524D01*
X322469Y100868D01*
X325825Y100868D01*
X325799Y100842D01*
X325773Y100816D01*
X325746Y100781D01*
X325738Y100772D01*
X325694Y100720D01*
X325659Y100676D01*
X325633Y100641D01*
X325624Y100624D01*
X325581Y100571D01*
X325537Y100528D01*
X325511Y100493D01*
X325502Y100484D01*
X325467Y100449D01*
X325449Y100423D01*
X325432Y100414D01*
X325336Y100309D01*
X325231Y100213D01*
X325187Y100169D01*
X325152Y100134D01*
X325126Y100117D01*
X325117Y100108D01*
X324977Y99986D01*
X324916Y99924D01*
X324855Y99872D01*
X324811Y99828D01*
X324776Y99793D01*
X324750Y99776D01*
X324741Y99767D01*
X324610Y99662D01*
X324514Y99575D01*
X324470Y99549D01*
X324444Y99522D01*
X324427Y99514D01*
X324418Y99505D01*
X324374Y99470D01*
X324339Y99444D01*
X324296Y99418D01*
X324278Y99400D01*
X319873Y99400D01*
X323535Y105177D01*
X328508D01*
X328465Y105116D01*
D02*
G37*
G36*
X312899Y99400D02*
X311212D01*
X314865Y105177D01*
X316543D01*
X312899Y99400D01*
D02*
G37*
G36*
X312759Y105168D02*
X312855Y105151D01*
X312934Y105125D01*
X312995Y105098D01*
X313039Y105063D01*
X313073Y105037D01*
X313091Y105020D01*
X313100Y105011D01*
X313143Y104950D01*
X313178Y104880D01*
X313205Y104810D01*
X313231Y104749D01*
X313240Y104688D01*
X313248Y104644D01*
Y104609D01*
Y104600D01*
Y104417D01*
X313240Y104321D01*
X313231Y104242D01*
X313213Y104163D01*
X313205Y104111D01*
X313196Y104076D01*
Y104058D01*
X313170Y103954D01*
X313143Y103849D01*
X313117Y103753D01*
X313091Y103674D01*
X313073Y103604D01*
X313056Y103551D01*
X313039Y103516D01*
Y103508D01*
X312960Y103307D01*
X312881Y103132D01*
X312794Y102975D01*
X312706Y102844D01*
X312628Y102739D01*
X312567Y102660D01*
X312532Y102608D01*
X312514Y102590D01*
X312383Y102459D01*
X312252Y102354D01*
X312130Y102249D01*
X312007Y102171D01*
X311911Y102109D01*
X311832Y102057D01*
X311780Y102031D01*
X311771Y102022D01*
X311762D01*
X311614Y101952D01*
X311465Y101882D01*
X311326Y101830D01*
X311194Y101795D01*
X311089Y101760D01*
X311002Y101734D01*
X310950Y101725D01*
X310941Y101716D01*
X310932D01*
X310775Y101681D01*
X310635Y101655D01*
X310504Y101637D01*
X310390Y101620D01*
X310294Y101611D01*
X310215Y101602D01*
X310172Y101594D01*
X310154D01*
X311116Y99400D01*
X309245D01*
X308153Y101471D01*
X308031Y101384D01*
X306772Y99400D01*
X305094D01*
X308756Y105177D01*
X312645D01*
X312759Y105168D01*
D02*
G37*
G36*
X306894D02*
X306982Y105160D01*
X307087Y105133D01*
X307191Y105090D01*
X307296Y105029D01*
X307384Y104941D01*
X307419Y104880D01*
X307445Y104819D01*
X307454Y104801D01*
X307462Y104758D01*
X307471Y104679D01*
X307480Y104574D01*
Y104434D01*
X307462Y104277D01*
X307428Y104102D01*
X307366Y103901D01*
Y103892D01*
X307358Y103884D01*
X307349Y103857D01*
X307340Y103831D01*
X307305Y103744D01*
X307261Y103630D01*
X307200Y103490D01*
X307122Y103333D01*
X307025Y103167D01*
X306921Y102983D01*
Y102975D01*
X306903Y102957D01*
X306894Y102931D01*
X306868Y102896D01*
X306807Y102800D01*
X306719Y102678D01*
X306615Y102529D01*
X306492Y102372D01*
X306352Y102206D01*
X306195Y102031D01*
X306186Y102022D01*
X306169Y101996D01*
X306134Y101961D01*
X306090Y101908D01*
X306038Y101847D01*
X305977Y101777D01*
X305828Y101611D01*
X305644Y101419D01*
X305452Y101218D01*
X305251Y101008D01*
X305042Y100816D01*
X305033Y100807D01*
X305015Y100798D01*
X304989Y100772D01*
X304945Y100737D01*
X304902Y100694D01*
X304840Y100641D01*
X304701Y100528D01*
X304535Y100405D01*
X304351Y100265D01*
X304150Y100134D01*
X303940Y100003D01*
X303931D01*
X303914Y99986D01*
X303888Y99977D01*
X303844Y99951D01*
X303792Y99924D01*
X303739Y99898D01*
X303591Y99828D01*
X303416Y99750D01*
X303223Y99671D01*
X303014Y99601D01*
X302795Y99540D01*
X302786D01*
X302769Y99531D01*
X302734D01*
X302690Y99522D01*
X302638Y99505D01*
X302577Y99496D01*
X302498Y99487D01*
X302419Y99470D01*
X302227Y99444D01*
X302017Y99426D01*
X301781Y99409D01*
X301537Y99400D01*
X299352D01*
X303014Y105177D01*
X306859D01*
X306894Y105168D01*
D02*
G37*
G36*
X299832D02*
X300007Y105160D01*
X300165Y105133D01*
X300313Y105107D01*
X300444Y105072D01*
X300558Y105037D01*
X300663Y104994D01*
X300759Y104950D01*
X300837Y104906D01*
X300907Y104862D01*
X300960Y104827D01*
X301004Y104793D01*
X301039Y104766D01*
X301065Y104740D01*
X301074Y104731D01*
X301082Y104723D01*
X301143Y104635D01*
X301196Y104530D01*
X301231Y104417D01*
X301257Y104303D01*
X301266Y104181D01*
Y104058D01*
X301248Y103805D01*
X301231Y103691D01*
X301213Y103586D01*
X301187Y103482D01*
X301170Y103403D01*
X301152Y103324D01*
X301135Y103272D01*
X301117Y103237D01*
Y103228D01*
X301074Y103106D01*
X301039Y102992D01*
X301021Y102948D01*
X301004Y102913D01*
X300995Y102896D01*
Y102887D01*
X300942Y102756D01*
X300890Y102643D01*
X300872Y102599D01*
X300855Y102564D01*
X300837Y102538D01*
Y102529D01*
X300715Y102293D01*
X300593Y102066D01*
X300462Y101865D01*
X300339Y101681D01*
X300287Y101602D01*
X300235Y101533D01*
X300191Y101463D01*
X300156Y101410D01*
X300121Y101375D01*
X300095Y101340D01*
X300086Y101323D01*
X300077Y101314D01*
X299902Y101104D01*
X299728Y100921D01*
X299562Y100746D01*
X299413Y100606D01*
X299282Y100484D01*
X299229Y100431D01*
X299177Y100396D01*
X299142Y100361D01*
X299116Y100335D01*
X299098Y100326D01*
X299090Y100318D01*
X298888Y100169D01*
X298696Y100038D01*
X298504Y99924D01*
X298338Y99828D01*
X298198Y99750D01*
X298137Y99715D01*
X298084Y99688D01*
X298041Y99671D01*
X298014Y99654D01*
X297997Y99645D01*
X297988D01*
X297779Y99566D01*
X297586Y99505D01*
X297403Y99461D01*
X297237Y99435D01*
X297097Y99418D01*
X297044Y99409D01*
X296992Y99400D01*
X296030D01*
X295856Y99409D01*
X295698Y99418D01*
X295550Y99435D01*
X295419Y99452D01*
X295323Y99470D01*
X295244Y99479D01*
X295192Y99496D01*
X295174D01*
X295043Y99540D01*
X294920Y99592D01*
X294824Y99645D01*
X294737Y99697D01*
X294667Y99750D01*
X294623Y99793D01*
X294588Y99819D01*
X294580Y99828D01*
X294510Y99924D01*
X294449Y100029D01*
X294405Y100134D01*
X294370Y100239D01*
X294352Y100326D01*
X294335Y100396D01*
X294326Y100449D01*
Y100466D01*
Y100624D01*
X294335Y100798D01*
X294370Y100964D01*
X294405Y101122D01*
X294440Y101262D01*
X294457Y101323D01*
X294466Y101375D01*
X294483Y101419D01*
X294492Y101454D01*
X294501Y101471D01*
Y101480D01*
X294536Y101576D01*
X294571Y101664D01*
X294588Y101699D01*
X294597Y101725D01*
X294606Y101742D01*
Y101751D01*
X294650Y101865D01*
X294693Y101952D01*
X294711Y101996D01*
X294728Y102022D01*
X294737Y102040D01*
Y102048D01*
X294842Y102276D01*
X294964Y102494D01*
X295087Y102695D01*
X295200Y102870D01*
X295296Y103018D01*
X295340Y103079D01*
X295384Y103132D01*
X295410Y103176D01*
X295436Y103202D01*
X295445Y103219D01*
X295454Y103228D01*
X295628Y103438D01*
X295795Y103621D01*
X295961Y103796D01*
X296109Y103936D01*
X296240Y104058D01*
X296336Y104146D01*
X296371Y104181D01*
X296398Y104207D01*
X296415Y104216D01*
X296424Y104225D01*
X296625Y104382D01*
X296808Y104513D01*
X296992Y104635D01*
X297158Y104731D01*
X297289Y104810D01*
X297350Y104845D01*
X297394Y104871D01*
X297438Y104889D01*
X297464Y104906D01*
X297481Y104915D01*
X297490D01*
X297691Y105002D01*
X297875Y105063D01*
X298041Y105116D01*
X298189Y105142D01*
X298312Y105160D01*
X298408Y105177D01*
X299649D01*
X299832Y105168D01*
D02*
G37*
G36*
X172700Y162273D02*
X172766Y162268D01*
X172800D01*
X172827Y162262D01*
X172889Y162257D01*
X172961Y162246D01*
X172977D01*
X173000Y162240D01*
X173022D01*
X173083Y162229D01*
X173155Y162218D01*
X173172D01*
X173194Y162212D01*
X173216Y162207D01*
X173277Y162196D01*
X173338Y162185D01*
Y161785D01*
X173327D01*
X173305Y161796D01*
X173266Y161802D01*
X173216Y161813D01*
X173160Y161824D01*
X173094Y161840D01*
X172950Y161863D01*
X172944D01*
X172916Y161868D01*
X172883Y161874D01*
X172833Y161879D01*
X172777Y161885D01*
X172711Y161890D01*
X172578Y161896D01*
X172517D01*
X172450Y161890D01*
X172367Y161879D01*
X172273Y161863D01*
X172178Y161840D01*
X172095Y161807D01*
X172017Y161763D01*
X172012Y161757D01*
X171989Y161741D01*
X171962Y161713D01*
X171928Y161674D01*
X171895Y161624D01*
X171867Y161563D01*
X171845Y161496D01*
X171840Y161419D01*
Y161413D01*
Y161396D01*
X171845Y161374D01*
X171851Y161341D01*
X171873Y161269D01*
X171889Y161230D01*
X171912Y161191D01*
X171917Y161186D01*
X171923Y161174D01*
X171940Y161158D01*
X171962Y161136D01*
X172023Y161080D01*
X172100Y161019D01*
X172106Y161013D01*
X172123Y161008D01*
X172145Y160991D01*
X172184Y160975D01*
X172222Y160952D01*
X172267Y160930D01*
X172378Y160886D01*
X172383D01*
X172406Y160875D01*
X172433Y160864D01*
X172478Y160847D01*
X172522Y160830D01*
X172572Y160808D01*
X172689Y160758D01*
X172694D01*
X172716Y160747D01*
X172750Y160736D01*
X172789Y160719D01*
X172839Y160697D01*
X172889Y160675D01*
X173005Y160619D01*
X173011Y160614D01*
X173033Y160608D01*
X173061Y160592D01*
X173099Y160570D01*
X173188Y160508D01*
X173277Y160436D01*
X173283Y160431D01*
X173299Y160420D01*
X173321Y160397D01*
X173349Y160364D01*
X173377Y160331D01*
X173410Y160286D01*
X173471Y160187D01*
X173477Y160181D01*
X173482Y160159D01*
X173494Y160131D01*
X173510Y160092D01*
X173527Y160042D01*
X173538Y159981D01*
X173543Y159920D01*
X173549Y159848D01*
Y159837D01*
Y159809D01*
X173543Y159765D01*
X173538Y159709D01*
X173527Y159648D01*
X173504Y159576D01*
X173482Y159504D01*
X173449Y159437D01*
X173443Y159432D01*
X173432Y159409D01*
X173410Y159376D01*
X173382Y159337D01*
X173344Y159293D01*
X173299Y159243D01*
X173244Y159193D01*
X173183Y159149D01*
X173177Y159143D01*
X173155Y159132D01*
X173116Y159110D01*
X173072Y159082D01*
X173011Y159054D01*
X172944Y159027D01*
X172866Y158999D01*
X172777Y158977D01*
X172766D01*
X172739Y158966D01*
X172689Y158960D01*
X172622Y158949D01*
X172544Y158938D01*
X172456Y158932D01*
X172356Y158921D01*
X172173D01*
X172128Y158927D01*
X172089D01*
X171989Y158932D01*
X171967D01*
X171945Y158938D01*
X171912D01*
X171834Y158949D01*
X171745Y158960D01*
X171723D01*
X171701Y158966D01*
X171673D01*
X171601Y158977D01*
X171523Y158988D01*
X171518D01*
X171507Y158993D01*
X171484Y158999D01*
X171462Y159004D01*
X171401Y159021D01*
X171335Y159038D01*
Y159465D01*
X171346Y159459D01*
X171368Y159454D01*
X171407Y159443D01*
X171457Y159426D01*
X171518Y159404D01*
X171590Y159387D01*
X171668Y159371D01*
X171751Y159354D01*
X171762D01*
X171790Y159348D01*
X171840Y159343D01*
X171906Y159337D01*
X171984Y159326D01*
X172073Y159321D01*
X172173Y159315D01*
X172361D01*
X172411Y159321D01*
X172467D01*
X172528Y159332D01*
X172589Y159337D01*
X172650Y159348D01*
X172655D01*
X172678Y159354D01*
X172700Y159365D01*
X172739Y159371D01*
X172816Y159404D01*
X172894Y159443D01*
X172900Y159448D01*
X172911Y159454D01*
X172927Y159471D01*
X172950Y159487D01*
X173000Y159537D01*
X173038Y159604D01*
Y159609D01*
X173044Y159620D01*
X173055Y159643D01*
X173061Y159670D01*
X173072Y159704D01*
X173077Y159742D01*
X173083Y159826D01*
Y159831D01*
Y159848D01*
X173077Y159870D01*
X173072Y159904D01*
X173049Y159976D01*
X173033Y160009D01*
X173005Y160048D01*
X173000Y160053D01*
X172994Y160064D01*
X172977Y160081D01*
X172955Y160103D01*
X172927Y160131D01*
X172894Y160159D01*
X172811Y160214D01*
X172805Y160220D01*
X172789Y160225D01*
X172766Y160242D01*
X172733Y160259D01*
X172694Y160281D01*
X172650Y160303D01*
X172539Y160353D01*
X172533Y160359D01*
X172511Y160364D01*
X172483Y160375D01*
X172439Y160392D01*
X172395Y160408D01*
X172339Y160431D01*
X172222Y160475D01*
X172217Y160481D01*
X172195Y160486D01*
X172167Y160503D01*
X172128Y160520D01*
X172078Y160542D01*
X172028Y160564D01*
X171912Y160619D01*
X171906Y160625D01*
X171884Y160636D01*
X171856Y160647D01*
X171817Y160669D01*
X171779Y160697D01*
X171729Y160725D01*
X171634Y160797D01*
X171629Y160803D01*
X171618Y160814D01*
X171595Y160836D01*
X171568Y160869D01*
X171540Y160903D01*
X171507Y160947D01*
X171446Y161041D01*
X171440Y161047D01*
X171434Y161069D01*
X171423Y161097D01*
X171412Y161136D01*
X171396Y161186D01*
X171384Y161241D01*
X171379Y161308D01*
X171373Y161374D01*
Y161380D01*
Y161402D01*
X171379Y161435D01*
X171384Y161480D01*
X171390Y161530D01*
X171401Y161585D01*
X171418Y161646D01*
X171440Y161707D01*
X171446Y161713D01*
X171451Y161735D01*
X171473Y161763D01*
X171495Y161802D01*
X171523Y161846D01*
X171562Y161896D01*
X171606Y161946D01*
X171656Y161996D01*
X171662Y162001D01*
X171684Y162018D01*
X171718Y162040D01*
X171762Y162068D01*
X171812Y162101D01*
X171878Y162135D01*
X171950Y162168D01*
X172034Y162201D01*
X172045Y162207D01*
X172078Y162212D01*
X172123Y162223D01*
X172189Y162240D01*
X172273Y162257D01*
X172367Y162268D01*
X172472Y162273D01*
X172589Y162279D01*
X172644D01*
X172700Y162273D01*
D02*
G37*
G36*
X175636Y159371D02*
X176363D01*
Y158966D01*
X174315D01*
Y159371D01*
X175153D01*
Y161752D01*
X174370Y161330D01*
X174215Y161702D01*
X175247Y162246D01*
X175636D01*
Y159371D01*
D02*
G37*
G36*
X169703Y162223D02*
X169775Y162218D01*
X169853Y162207D01*
X170019Y162173D01*
X170030D01*
X170058Y162162D01*
X170097Y162151D01*
X170152Y162129D01*
X170213Y162107D01*
X170274Y162074D01*
X170341Y162040D01*
X170408Y161996D01*
X170413Y161990D01*
X170435Y161974D01*
X170469Y161951D01*
X170508Y161913D01*
X170552Y161868D01*
X170596Y161818D01*
X170641Y161757D01*
X170680Y161691D01*
X170685Y161679D01*
X170696Y161657D01*
X170713Y161618D01*
X170729Y161563D01*
X170746Y161496D01*
X170763Y161419D01*
X170774Y161330D01*
X170780Y161230D01*
Y161219D01*
Y161197D01*
X170774Y161158D01*
X170768Y161108D01*
X170763Y161047D01*
X170746Y160975D01*
X170729Y160903D01*
X170702Y160830D01*
X170696Y160819D01*
X170691Y160797D01*
X170668Y160758D01*
X170646Y160714D01*
X170613Y160658D01*
X170574Y160603D01*
X170524Y160542D01*
X170469Y160481D01*
X170463Y160475D01*
X170441Y160453D01*
X170408Y160425D01*
X170363Y160392D01*
X170302Y160353D01*
X170236Y160309D01*
X170158Y160270D01*
X170069Y160231D01*
X170058Y160225D01*
X170025Y160214D01*
X169975Y160203D01*
X169903Y160187D01*
X169819Y160164D01*
X169720Y160153D01*
X169603Y160142D01*
X169481Y160137D01*
X169081D01*
Y158966D01*
X168637D01*
Y162229D01*
X169642D01*
X169703Y162223D01*
D02*
G37*
G36*
X127432Y130881D02*
Y130381D01*
X124574Y131802D01*
Y130043D01*
X124168D01*
Y132252D01*
X124574D01*
X127432Y130881D01*
D02*
G37*
G36*
X126483Y129488D02*
X126538Y129482D01*
X126605Y129471D01*
X126677Y129460D01*
X126749Y129438D01*
X126827Y129410D01*
X126838Y129404D01*
X126860Y129393D01*
X126893Y129377D01*
X126943Y129349D01*
X126993Y129316D01*
X127049Y129277D01*
X127110Y129232D01*
X127165Y129177D01*
X127171Y129171D01*
X127188Y129149D01*
X127215Y129116D01*
X127249Y129077D01*
X127282Y129022D01*
X127321Y128960D01*
X127359Y128894D01*
X127393Y128816D01*
X127398Y128805D01*
X127404Y128777D01*
X127421Y128738D01*
X127432Y128677D01*
X127448Y128611D01*
X127465Y128533D01*
X127471Y128444D01*
X127476Y128350D01*
Y128305D01*
X127471Y128256D01*
X127465Y128189D01*
X127454Y128111D01*
X127443Y128034D01*
X127421Y127950D01*
X127393Y127867D01*
X127387Y127856D01*
X127376Y127834D01*
X127354Y127795D01*
X127326Y127745D01*
X127287Y127695D01*
X127243Y127634D01*
X127188Y127578D01*
X127126Y127523D01*
X127115Y127517D01*
X127093Y127501D01*
X127054Y127473D01*
X127004Y127445D01*
X126938Y127412D01*
X126860Y127373D01*
X126777Y127340D01*
X126677Y127312D01*
X126671D01*
X126666Y127306D01*
X126649D01*
X126627Y127301D01*
X126572Y127290D01*
X126494Y127279D01*
X126399Y127262D01*
X126288Y127251D01*
X126166Y127245D01*
X126033Y127240D01*
X126028D01*
X126022D01*
X125989D01*
X125944D01*
X125878Y127245D01*
X125805D01*
X125722Y127251D01*
X125550Y127268D01*
X125539D01*
X125511Y127273D01*
X125467Y127284D01*
X125406Y127295D01*
X125339Y127306D01*
X125267Y127329D01*
X125112Y127373D01*
X125101Y127379D01*
X125078Y127390D01*
X125034Y127406D01*
X124984Y127429D01*
X124923Y127456D01*
X124862Y127490D01*
X124729Y127573D01*
X124723Y127578D01*
X124701Y127595D01*
X124668Y127623D01*
X124629Y127662D01*
X124579Y127706D01*
X124535Y127756D01*
X124485Y127817D01*
X124435Y127884D01*
X124429Y127895D01*
X124413Y127917D01*
X124390Y127956D01*
X124363Y128011D01*
X124329Y128073D01*
X124296Y128150D01*
X124268Y128233D01*
X124241Y128322D01*
Y128328D01*
X124235Y128333D01*
X124229Y128367D01*
X124218Y128422D01*
X124202Y128494D01*
X124190Y128577D01*
X124179Y128677D01*
X124174Y128788D01*
X124168Y128911D01*
Y129238D01*
X124546D01*
Y128833D01*
X124551Y128783D01*
X124557Y128711D01*
X124562Y128633D01*
X124574Y128550D01*
X124596Y128461D01*
X124618Y128378D01*
X124623Y128367D01*
X124629Y128344D01*
X124646Y128300D01*
X124668Y128250D01*
X124696Y128195D01*
X124734Y128133D01*
X124773Y128073D01*
X124818Y128017D01*
X124823Y128011D01*
X124840Y127995D01*
X124868Y127967D01*
X124906Y127934D01*
X124951Y127900D01*
X125001Y127862D01*
X125062Y127828D01*
X125128Y127795D01*
X125134Y127789D01*
X125162Y127784D01*
X125195Y127767D01*
X125245Y127756D01*
X125306Y127734D01*
X125373Y127723D01*
X125445Y127706D01*
X125528Y127695D01*
X125628Y127690D01*
X125622Y127695D01*
X125611Y127717D01*
X125595Y127751D01*
X125578Y127795D01*
X125556Y127845D01*
X125528Y127906D01*
X125506Y127978D01*
X125484Y128050D01*
X125478Y128061D01*
X125473Y128089D01*
X125461Y128128D01*
X125450Y128183D01*
X125439Y128250D01*
X125434Y128328D01*
X125423Y128411D01*
Y128539D01*
X125428Y128589D01*
X125434Y128644D01*
X125439Y128711D01*
X125456Y128783D01*
X125473Y128855D01*
X125500Y128927D01*
X125506Y128938D01*
X125511Y128960D01*
X125528Y128994D01*
X125550Y129038D01*
X125578Y129088D01*
X125617Y129138D01*
X125656Y129188D01*
X125700Y129238D01*
X125706Y129244D01*
X125722Y129260D01*
X125750Y129282D01*
X125789Y129310D01*
X125833Y129338D01*
X125883Y129371D01*
X125944Y129399D01*
X126011Y129427D01*
X126016Y129432D01*
X126044Y129438D01*
X126077Y129449D01*
X126127Y129460D01*
X126183Y129471D01*
X126250Y129482D01*
X126322Y129493D01*
X126399D01*
X126410D01*
X126438D01*
X126483Y129488D01*
D02*
G37*
G36*
X127310Y126602D02*
X127315Y126591D01*
X127326Y126568D01*
X127332Y126541D01*
X127348Y126502D01*
X127359Y126457D01*
X127376Y126413D01*
X127387Y126357D01*
X127421Y126230D01*
X127443Y126091D01*
X127465Y125941D01*
X127471Y125780D01*
Y125752D01*
X127465Y125714D01*
Y125664D01*
X127459Y125608D01*
X127448Y125542D01*
X127437Y125470D01*
X127421Y125386D01*
X127398Y125303D01*
X127371Y125214D01*
X127337Y125125D01*
X127298Y125037D01*
X127249Y124953D01*
X127193Y124870D01*
X127132Y124787D01*
X127060Y124715D01*
X127054Y124709D01*
X127038Y124698D01*
X127015Y124681D01*
X126982Y124659D01*
X126938Y124631D01*
X126888Y124598D01*
X126821Y124565D01*
X126749Y124531D01*
X126671Y124498D01*
X126577Y124465D01*
X126477Y124432D01*
X126372Y124404D01*
X126250Y124382D01*
X126122Y124365D01*
X125983Y124354D01*
X125839Y124348D01*
X125833D01*
X125822D01*
X125800D01*
X125772D01*
X125739Y124354D01*
X125695D01*
X125600Y124360D01*
X125495Y124371D01*
X125373Y124393D01*
X125250Y124415D01*
X125128Y124448D01*
X125123D01*
X125112Y124454D01*
X125095Y124459D01*
X125073Y124465D01*
X125017Y124493D01*
X124940Y124521D01*
X124856Y124565D01*
X124768Y124615D01*
X124673Y124670D01*
X124590Y124737D01*
X124579Y124748D01*
X124551Y124770D01*
X124512Y124815D01*
X124462Y124870D01*
X124407Y124937D01*
X124351Y125014D01*
X124296Y125103D01*
X124246Y125198D01*
Y125203D01*
X124241Y125209D01*
X124235Y125225D01*
X124229Y125248D01*
X124207Y125303D01*
X124185Y125375D01*
X124163Y125464D01*
X124141Y125569D01*
X124129Y125686D01*
X124124Y125808D01*
Y125891D01*
X124129Y125947D01*
X124135Y126013D01*
X124141Y126080D01*
X124163Y126230D01*
Y126241D01*
X124168Y126263D01*
X124179Y126302D01*
X124190Y126352D01*
X124207Y126407D01*
X124229Y126469D01*
X124279Y126607D01*
X124718D01*
X124712Y126602D01*
X124701Y126574D01*
X124684Y126541D01*
X124662Y126491D01*
X124640Y126435D01*
X124618Y126374D01*
X124574Y126235D01*
Y126224D01*
X124562Y126202D01*
X124557Y126163D01*
X124546Y126113D01*
X124535Y126052D01*
X124529Y125980D01*
X124518Y125902D01*
Y125780D01*
X124523Y125736D01*
X124529Y125680D01*
X124540Y125619D01*
X124557Y125547D01*
X124579Y125475D01*
X124607Y125403D01*
X124612Y125397D01*
X124623Y125375D01*
X124646Y125336D01*
X124673Y125297D01*
X124707Y125248D01*
X124751Y125192D01*
X124801Y125136D01*
X124862Y125087D01*
X124868Y125081D01*
X124890Y125064D01*
X124923Y125042D01*
X124973Y125014D01*
X125029Y124981D01*
X125101Y124948D01*
X125178Y124915D01*
X125262Y124887D01*
X125273D01*
X125301Y124876D01*
X125350Y124865D01*
X125417Y124853D01*
X125495Y124842D01*
X125584Y124831D01*
X125683Y124826D01*
X125794Y124820D01*
X125800D01*
X125822D01*
X125856D01*
X125900Y124826D01*
X125950D01*
X126011Y124831D01*
X126077Y124842D01*
X126150Y124853D01*
X126305Y124881D01*
X126466Y124926D01*
X126616Y124992D01*
X126682Y125031D01*
X126749Y125075D01*
X126755Y125081D01*
X126760Y125087D01*
X126777Y125103D01*
X126799Y125125D01*
X126821Y125148D01*
X126849Y125181D01*
X126882Y125220D01*
X126910Y125264D01*
X126938Y125314D01*
X126971Y125370D01*
X126999Y125436D01*
X127021Y125503D01*
X127043Y125575D01*
X127054Y125653D01*
X127065Y125742D01*
X127071Y125830D01*
Y125908D01*
X127065Y125958D01*
X127060Y126019D01*
X127054Y126085D01*
X127026Y126230D01*
Y126241D01*
X127015Y126263D01*
X127004Y126302D01*
X126988Y126352D01*
X126971Y126407D01*
X126949Y126469D01*
X126888Y126607D01*
X127310D01*
Y126602D01*
D02*
G37*
%LPC*%
G36*
X250547Y110206D02*
X246477D01*
X245354Y106297D01*
X247098Y108522D01*
X250306D01*
X250407Y108542D01*
X250507Y108582D01*
X250627Y108703D01*
X250708Y108803D01*
X250728Y108843D01*
Y108863D01*
X250808Y109104D01*
X250848Y109284D01*
X250868Y109364D01*
Y109424D01*
Y109444D01*
Y109465D01*
Y109725D01*
Y109866D01*
X250848Y109966D01*
X250828Y110046D01*
X250808Y110066D01*
X250788Y110106D01*
X250748Y110146D01*
X250647Y110186D01*
X250547Y110206D01*
D02*
G37*
G36*
X236592Y110186D02*
X233344D01*
X231459Y103670D01*
X232061D01*
X232161Y103690D01*
X232301Y103710D01*
X232462Y103730D01*
X232642Y103790D01*
X232863Y103851D01*
X233084Y103931D01*
X233103Y103951D01*
X233204Y103971D01*
X233324Y104031D01*
X233485Y104111D01*
X233685Y104211D01*
X233906Y104332D01*
X234367Y104613D01*
X234387Y104632D01*
X234467Y104693D01*
X234607Y104773D01*
X234748Y104893D01*
X234928Y105054D01*
X235129Y105214D01*
X235550Y105595D01*
X235570Y105615D01*
X235650Y105695D01*
X235750Y105795D01*
X235870Y105936D01*
X236011Y106096D01*
X236151Y106277D01*
X236272Y106477D01*
X236392Y106678D01*
X236412Y106718D01*
X236452Y106818D01*
X236532Y106958D01*
X236632Y107119D01*
Y107139D01*
X236652Y107159D01*
X236733Y107299D01*
X236813Y107480D01*
X236893Y107700D01*
Y107720D01*
X236913Y107760D01*
X236933Y107841D01*
X236973Y107941D01*
X237053Y108201D01*
X237154Y108482D01*
Y108502D01*
X237174Y108542D01*
X237194Y108623D01*
X237234Y108723D01*
X237274Y108943D01*
X237294Y109184D01*
Y109204D01*
Y109264D01*
Y109324D01*
X237274Y109424D01*
X237214Y109665D01*
X237113Y109886D01*
Y109906D01*
X237093Y109926D01*
X236993Y110046D01*
X236833Y110146D01*
X236713Y110166D01*
X236592Y110186D01*
D02*
G37*
G36*
X223419Y110186D02*
X220171D01*
X218287Y103670D01*
X218888D01*
X218988Y103690D01*
X219129Y103710D01*
X219289Y103730D01*
X219469Y103790D01*
X219690Y103851D01*
X219911Y103931D01*
X219931Y103951D01*
X220031Y103971D01*
X220151Y104031D01*
X220312Y104111D01*
X220512Y104211D01*
X220733Y104332D01*
X221194Y104613D01*
X221214Y104632D01*
X221294Y104693D01*
X221434Y104773D01*
X221575Y104893D01*
X221755Y105054D01*
X221956Y105214D01*
X222377Y105595D01*
X222397Y105615D01*
X222477Y105695D01*
X222577Y105795D01*
X222698Y105936D01*
X222838Y106096D01*
X222978Y106277D01*
X223099Y106477D01*
X223219Y106678D01*
X223239Y106718D01*
X223279Y106818D01*
X223359Y106958D01*
X223460Y107119D01*
Y107139D01*
X223480Y107159D01*
X223560Y107299D01*
X223640Y107480D01*
X223720Y107700D01*
Y107720D01*
X223740Y107760D01*
X223760Y107841D01*
X223800Y107941D01*
X223881Y108201D01*
X223981Y108482D01*
Y108502D01*
X224001Y108542D01*
X224021Y108623D01*
X224061Y108723D01*
X224101Y108943D01*
X224121Y109184D01*
Y109204D01*
Y109264D01*
Y109324D01*
X224101Y109424D01*
X224041Y109665D01*
X223941Y109886D01*
Y109906D01*
X223921Y109926D01*
X223820Y110046D01*
X223660Y110146D01*
X223540Y110166D01*
X223419Y110186D01*
D02*
G37*
G36*
X210427Y110166D02*
X206317D01*
X205214Y106357D01*
X207139Y108482D01*
X210347D01*
X210367Y108502D01*
X210407Y108542D01*
X210427Y108562D01*
X210447Y108582D01*
X210507Y108683D01*
X210547Y108763D01*
X210587Y108823D01*
Y108843D01*
X210648Y108963D01*
X210708Y109064D01*
X210728Y109124D01*
X210748Y109144D01*
X210788Y109244D01*
X210828Y109304D01*
Y109344D01*
Y109364D01*
X210868Y109485D01*
X210848Y109525D01*
X210828Y109545D01*
Y109585D01*
Y109605D01*
X210768Y109705D01*
X210688Y109826D01*
X210628Y109906D01*
X210608Y109946D01*
X210567Y110026D01*
X210527Y110066D01*
X210467Y110146D01*
X210427Y110166D01*
D02*
G37*
G36*
X209565Y105374D02*
X204953D01*
X204432Y103690D01*
X208542D01*
X208562Y103710D01*
X208602Y103730D01*
X208703Y103811D01*
X208823Y103871D01*
X208843Y103911D01*
X208863D01*
X209064Y104051D01*
X209184Y104171D01*
X209264Y104232D01*
X209284Y104252D01*
X209304Y104272D01*
X209324Y104352D01*
X209344Y104412D01*
X209364Y104432D01*
X209424Y104552D01*
X209444Y104613D01*
X209465Y104653D01*
X209525Y104773D01*
X209545Y104853D01*
X209565Y104933D01*
Y105014D01*
Y105034D01*
Y105154D01*
Y105274D01*
Y105354D01*
Y105374D01*
D02*
G37*
G36*
X311273Y103718D02*
X309499D01*
X308433Y102013D01*
X309525Y102983D01*
X310924D01*
X310967Y102992D01*
X311020Y103010D01*
X311089Y103062D01*
X311142Y103106D01*
X311151Y103123D01*
X311159Y103132D01*
X311229Y103237D01*
X311273Y103315D01*
X311282Y103350D01*
X311291Y103377D01*
X311299Y103385D01*
Y103394D01*
X311343Y103508D01*
X311361Y103569D01*
X311369Y103613D01*
Y103648D01*
Y103656D01*
X311361Y103674D01*
X311352Y103691D01*
X311317Y103709D01*
X311273Y103718D01*
D02*
G37*
G36*
X305181Y103709D02*
X303774D01*
X301982Y100868D01*
X302245D01*
X302297Y100877D01*
X302358Y100886D01*
X302428Y100894D01*
X302516Y100921D01*
X302621Y100947D01*
X302734Y100982D01*
X302752Y100991D01*
X302786Y100999D01*
X302848Y101026D01*
X302935Y101061D01*
X303031Y101104D01*
X303145Y101157D01*
X303267Y101218D01*
X303390Y101279D01*
X303407Y101288D01*
X303451Y101314D01*
X303521Y101349D01*
X303608Y101401D01*
X303704Y101471D01*
X303818Y101541D01*
X304054Y101707D01*
X304071Y101716D01*
X304106Y101751D01*
X304168Y101795D01*
X304237Y101856D01*
X304325Y101926D01*
X304412Y102005D01*
X304500Y102092D01*
X304578Y102179D01*
X304587Y102197D01*
X304631Y102241D01*
X304683Y102302D01*
X304753Y102372D01*
X304762Y102380D01*
X304770Y102389D01*
X304814Y102450D01*
X304875Y102529D01*
X304945Y102625D01*
X304954Y102634D01*
X304963Y102651D01*
X304989Y102686D01*
X305015Y102730D01*
X305085Y102844D01*
X305173Y102966D01*
X305181Y102975D01*
X305190Y102992D01*
X305216Y103027D01*
X305242Y103071D01*
X305295Y103167D01*
X305339Y103272D01*
Y103281D01*
X305347Y103307D01*
X305356Y103333D01*
X305365Y103377D01*
X305382Y103482D01*
X305374Y103578D01*
Y103586D01*
X305365Y103595D01*
X305339Y103648D01*
X305312Y103665D01*
X305277Y103691D01*
X305234Y103700D01*
X305181Y103709D01*
D02*
G37*
G36*
X298967D02*
X298128D01*
X298076Y103691D01*
X297971Y103665D01*
X297927Y103648D01*
X297892Y103630D01*
X297866Y103621D01*
X297857Y103613D01*
X297717Y103534D01*
X297647Y103499D01*
X297586Y103455D01*
X297534Y103420D01*
X297490Y103394D01*
X297464Y103377D01*
X297455Y103368D01*
X297298Y103254D01*
X297228Y103193D01*
X297167Y103141D01*
X297114Y103097D01*
X297071Y103062D01*
X297044Y103036D01*
X297036Y103027D01*
X296896Y102887D01*
X296843Y102826D01*
X296791Y102765D01*
X296747Y102721D01*
X296721Y102686D01*
X296704Y102660D01*
X296695Y102651D01*
X296634Y102555D01*
X296581Y102477D01*
X296564Y102442D01*
X296546Y102415D01*
X296537Y102407D01*
Y102398D01*
X296494Y102319D01*
X296459Y102258D01*
X296433Y102223D01*
X296424Y102206D01*
X296415Y102188D01*
X296406Y102162D01*
X296398Y102136D01*
X296389Y102127D01*
X296371Y102057D01*
X296328Y101908D01*
X296310Y101839D01*
X296302Y101777D01*
X296293Y101725D01*
X296284Y101681D01*
Y101655D01*
Y101646D01*
Y101498D01*
X296293Y101436D01*
X296302Y101375D01*
X296310Y101331D01*
X296319Y101297D01*
X296328Y101270D01*
Y101262D01*
X296371Y101139D01*
X296424Y101052D01*
X296441Y101017D01*
X296459Y100991D01*
X296476Y100982D01*
Y100973D01*
X296511Y100938D01*
X296555Y100912D01*
X296642Y100886D01*
X296677Y100877D01*
X296712Y100868D01*
X297341D01*
X297385Y100886D01*
X297481Y100912D01*
X297525Y100929D01*
X297551Y100938D01*
X297578Y100956D01*
X297586D01*
X297735Y101034D01*
X297805Y101078D01*
X297875Y101113D01*
X297927Y101148D01*
X297971Y101174D01*
X297997Y101192D01*
X298006Y101200D01*
X298172Y101323D01*
X298251Y101384D01*
X298320Y101436D01*
X298373Y101480D01*
X298425Y101515D01*
X298451Y101541D01*
X298460Y101550D01*
X298539Y101620D01*
X298618Y101690D01*
X298679Y101751D01*
X298731Y101812D01*
X298775Y101856D01*
X298801Y101891D01*
X298819Y101917D01*
X298827Y101926D01*
X298906Y102031D01*
X298958Y102101D01*
X298993Y102153D01*
X299002Y102171D01*
X299072Y102276D01*
X299090Y102310D01*
X299107Y102337D01*
X299116Y102354D01*
X299125Y102363D01*
Y102372D01*
X299151Y102442D01*
X299177Y102494D01*
X299186Y102538D01*
X299194Y102555D01*
X299221Y102625D01*
X299247Y102686D01*
X299256Y102730D01*
X299264Y102747D01*
X299308Y102878D01*
X299334Y102992D01*
X299343Y103036D01*
Y103071D01*
X299352Y103088D01*
Y103097D01*
X299369Y103219D01*
Y103315D01*
X299360Y103350D01*
Y103377D01*
X299352Y103394D01*
Y103403D01*
X299317Y103499D01*
X299273Y103569D01*
X299229Y103604D01*
X299221Y103621D01*
X299212D01*
X299168Y103648D01*
X299116Y103674D01*
X299020Y103700D01*
X298967Y103709D01*
D02*
G37*
G36*
X169531Y161857D02*
X169081D01*
Y160514D01*
X169531D01*
X169559Y160520D01*
X169592D01*
X169631Y160525D01*
X169714Y160536D01*
X169814Y160558D01*
X169914Y160586D01*
X170014Y160631D01*
X170102Y160686D01*
X170114Y160692D01*
X170136Y160719D01*
X170169Y160758D01*
X170213Y160814D01*
X170252Y160891D01*
X170285Y160980D01*
X170308Y161086D01*
X170319Y161208D01*
Y161213D01*
Y161219D01*
Y161235D01*
X170313Y161258D01*
X170308Y161313D01*
X170291Y161385D01*
X170269Y161463D01*
X170230Y161541D01*
X170180Y161618D01*
X170108Y161685D01*
X170097Y161691D01*
X170069Y161713D01*
X170025Y161741D01*
X169958Y161774D01*
X169875Y161802D01*
X169781Y161829D01*
X169664Y161852D01*
X169531Y161857D01*
D02*
G37*
G36*
X126488Y129038D02*
X126427D01*
X126422D01*
X126399D01*
X126372D01*
X126338Y129033D01*
X126294Y129027D01*
X126250Y129022D01*
X126155Y128999D01*
X126150D01*
X126133Y128994D01*
X126111Y128983D01*
X126083Y128972D01*
X126016Y128933D01*
X125950Y128883D01*
X125944Y128877D01*
X125933Y128872D01*
X125922Y128849D01*
X125900Y128827D01*
X125861Y128766D01*
X125822Y128689D01*
Y128683D01*
X125817Y128666D01*
X125805Y128644D01*
X125794Y128611D01*
X125789Y128566D01*
X125778Y128522D01*
X125772Y128466D01*
Y128344D01*
X125783Y128283D01*
X125794Y128211D01*
Y128206D01*
X125800Y128195D01*
Y128178D01*
X125805Y128150D01*
X125822Y128095D01*
X125844Y128023D01*
Y128017D01*
X125850Y128006D01*
X125856Y127989D01*
X125861Y127967D01*
X125889Y127906D01*
X125917Y127839D01*
Y127834D01*
X125922Y127828D01*
X125939Y127789D01*
X125967Y127740D01*
X126000Y127690D01*
X126005D01*
X126016D01*
X126033D01*
X126055D01*
X126111D01*
X126189Y127695D01*
X126272Y127701D01*
X126360Y127706D01*
X126455Y127717D01*
X126538Y127734D01*
X126549D01*
X126572Y127745D01*
X126616Y127751D01*
X126660Y127767D01*
X126716Y127784D01*
X126777Y127812D01*
X126832Y127834D01*
X126888Y127867D01*
X126893Y127873D01*
X126910Y127884D01*
X126932Y127900D01*
X126960Y127928D01*
X126988Y127961D01*
X127021Y127995D01*
X127049Y128039D01*
X127071Y128084D01*
Y128089D01*
X127076Y128106D01*
X127088Y128133D01*
X127093Y128172D01*
X127104Y128217D01*
X127115Y128267D01*
X127121Y128383D01*
Y128433D01*
X127115Y128472D01*
X127104Y128555D01*
X127076Y128644D01*
Y128650D01*
X127065Y128666D01*
X127060Y128689D01*
X127043Y128716D01*
X126999Y128783D01*
X126943Y128849D01*
X126938Y128855D01*
X126927Y128866D01*
X126904Y128883D01*
X126882Y128899D01*
X126849Y128922D01*
X126810Y128944D01*
X126721Y128988D01*
X126716D01*
X126699Y128994D01*
X126671Y129005D01*
X126638Y129016D01*
X126594Y129022D01*
X126544Y129033D01*
X126488Y129038D01*
D02*
G37*
%LPD*%
D10*
X136135Y153900D02*
G03*
X136135Y153900I-394J0D01*
G01*
X133862Y126719D02*
Y129081D01*
X129138Y126719D02*
Y129081D01*
X335237Y151262D02*
X390749D01*
X335237Y130002D02*
X390749D01*
Y151262D01*
X335237Y130002D02*
Y151262D01*
X139994Y81001D02*
X142572D01*
X125250D02*
X127828D01*
X139994Y98324D02*
X142572D01*
X125250D02*
X127828D01*
X142572Y81001D02*
Y82772D01*
Y96552D02*
Y98324D01*
X125250Y81001D02*
Y82772D01*
Y96552D02*
Y98324D01*
X212099Y146804D02*
Y166489D01*
X199501Y146804D02*
Y166489D01*
Y146804D02*
X212099D01*
X199501Y166489D02*
X212099D01*
X410040Y126262D02*
Y126853D01*
X398623Y126262D02*
Y126853D01*
X410040Y133152D02*
Y133742D01*
X398623Y133152D02*
Y133742D01*
Y126262D02*
X410040D01*
X398623Y133742D02*
X410040D01*
X243500Y196300D02*
X251000D01*
X243500Y186300D02*
Y196300D01*
Y186300D02*
X423500D01*
Y196300D01*
X251000D02*
X423500D01*
X259639Y121417D02*
X283302Y145080D01*
X235976D02*
X259639Y121417D01*
X259639Y168743D02*
X283302Y145080D01*
X235976D02*
X259639Y168743D01*
X190400Y186200D02*
Y196200D01*
X240400D01*
X190400Y186200D02*
X240400D01*
Y196200D01*
D11*
X392816Y155593D02*
G03*
X392816Y155593I-492J0D01*
G01*
X217021Y145800D02*
G03*
X217021Y145800I-492J0D01*
G01*
X257068Y172919D02*
G03*
X257068Y172919I-492J0D01*
G01*
D12*
X387993Y147325D02*
G03*
X387993Y147325I-1181J0D01*
G01*
X209343Y150741D02*
G03*
X209343Y150741I-1181J0D01*
G01*
X260820Y163175D02*
G03*
X260820Y163175I-1181J0D01*
G01*
X52576Y51823D02*
X62572D01*
Y56821D01*
X60906Y58487D01*
X59240D01*
X57574Y56821D01*
Y51823D01*
Y56821D01*
X55908Y58487D01*
X54242D01*
X52576Y56821D01*
Y51823D01*
Y61819D02*
X60906D01*
X62572Y63486D01*
Y66818D01*
X60906Y68484D01*
X52576D01*
X54242Y78481D02*
X52576Y76815D01*
Y73482D01*
X54242Y71816D01*
X60906D01*
X62572Y73482D01*
Y76815D01*
X60906Y78481D01*
X52576Y81813D02*
X62572D01*
X59240D01*
X52576Y88477D01*
X57574Y83479D01*
X62572Y88477D01*
Y91810D02*
X55908Y98474D01*
X52576Y101806D02*
X62572D01*
Y106805D01*
X60906Y108471D01*
X59240D01*
X57574Y106805D01*
Y101806D01*
Y106805D01*
X55908Y108471D01*
X54242D01*
X52576Y106805D01*
Y101806D01*
Y116802D02*
Y113469D01*
X54242Y111803D01*
X60906D01*
X62572Y113469D01*
Y116802D01*
X60906Y118468D01*
X54242D01*
X52576Y116802D01*
Y126798D02*
Y123466D01*
X54242Y121800D01*
X60906D01*
X62572Y123466D01*
Y126798D01*
X60906Y128465D01*
X54242D01*
X52576Y126798D01*
X54242Y138461D02*
X52576Y136795D01*
Y133463D01*
X54242Y131797D01*
X55908D01*
X57574Y133463D01*
Y136795D01*
X59240Y138461D01*
X60906D01*
X62572Y136795D01*
Y133463D01*
X60906Y131797D01*
X52576Y141794D02*
Y148458D01*
Y145126D01*
X62572D01*
X71907Y63486D02*
X70241Y61819D01*
Y58487D01*
X71907Y56821D01*
X78572D01*
X80238Y58487D01*
Y61819D01*
X78572Y63486D01*
X70241Y71816D02*
Y68484D01*
X71907Y66818D01*
X78572D01*
X80238Y68484D01*
Y71816D01*
X78572Y73482D01*
X71907D01*
X70241Y71816D01*
X80238Y76815D02*
X70241D01*
X80238Y83479D01*
X70241D01*
Y86811D02*
X76906D01*
X80238Y90144D01*
X76906Y93476D01*
X70241D01*
Y103473D02*
Y96808D01*
X80238D01*
Y103473D01*
X75239Y96808D02*
Y100140D01*
X80238Y106805D02*
X70241D01*
Y111803D01*
X71907Y113469D01*
X75239D01*
X76906Y111803D01*
Y106805D01*
Y110137D02*
X80238Y113469D01*
X70241Y116802D02*
Y123466D01*
Y120134D01*
X80238D01*
X70241Y133463D02*
Y126798D01*
X80238D01*
Y133463D01*
X75239Y126798D02*
Y130131D01*
X80238Y136795D02*
X70241D01*
Y141794D01*
X71907Y143460D01*
X75239D01*
X76906Y141794D01*
Y136795D01*
Y140128D02*
X80238Y143460D01*
X44515Y32424D02*
Y22427D01*
X49513D01*
X51179Y24094D01*
Y30758D01*
X49513Y32424D01*
X44515D01*
X61176Y30758D02*
X59510Y32424D01*
X56178D01*
X54511Y30758D01*
Y24094D01*
X56178Y22427D01*
X59510D01*
X61176Y24094D01*
X64508Y32424D02*
Y22427D01*
X69507D01*
X71173Y24094D01*
Y25760D01*
X69507Y27426D01*
X64508D01*
X69507D01*
X71173Y29092D01*
Y30758D01*
X69507Y32424D01*
X64508D01*
X74505D02*
Y24094D01*
X76171Y22427D01*
X79503D01*
X81169Y24094D01*
Y32424D01*
X91166Y30758D02*
X89500Y32424D01*
X86168D01*
X84502Y30758D01*
Y29092D01*
X86168Y27426D01*
X89500D01*
X91166Y25760D01*
Y24094D01*
X89500Y22427D01*
X86168D01*
X84502Y24094D01*
X35351Y4762D02*
X38683D01*
X37017D01*
Y14759D01*
X35351Y13093D01*
X50346Y4762D02*
X43681D01*
X50346Y11427D01*
Y13093D01*
X48680Y14759D01*
X45348D01*
X43681Y13093D01*
X53678Y14759D02*
Y8094D01*
X57011Y4762D01*
X60343Y8094D01*
Y14759D01*
X63675Y9760D02*
X70340D01*
X80336Y4762D02*
X73672D01*
X80336Y11427D01*
Y13093D01*
X78670Y14759D01*
X75338D01*
X73672Y13093D01*
X88667Y4762D02*
Y14759D01*
X83669Y9760D01*
X90333D01*
X93665Y14759D02*
Y8094D01*
X96998Y4762D01*
X100330Y8094D01*
Y14759D01*
X33518Y192324D02*
Y182327D01*
X38516D01*
X40182Y183994D01*
Y185660D01*
X38516Y187326D01*
X33518D01*
X38516D01*
X40182Y188992D01*
Y190658D01*
X38516Y192324D01*
X33518D01*
X43515Y182327D02*
Y188992D01*
X46847Y192324D01*
X50179Y188992D01*
Y182327D01*
Y187326D01*
X43515D01*
X53511Y192324D02*
X60176D01*
X56844D01*
Y182327D01*
X73505D02*
Y192324D01*
X78503D01*
X80169Y190658D01*
Y187326D01*
X78503Y185660D01*
X73505D01*
X83502Y192324D02*
Y182327D01*
X86834Y185660D01*
X90166Y182327D01*
Y192324D01*
X93498Y182327D02*
Y192324D01*
X98497D01*
X100163Y190658D01*
Y187326D01*
X98497Y185660D01*
X93498D01*
X96831D02*
X100163Y182327D01*
X39349Y172993D02*
X41015Y174659D01*
X44348D01*
X46014Y172993D01*
Y171327D01*
X44348Y169660D01*
X46014Y167994D01*
Y166328D01*
X44348Y164662D01*
X41015D01*
X39349Y166328D01*
Y167994D01*
X41015Y169660D01*
X39349Y171327D01*
Y172993D01*
X41015Y169660D02*
X44348D01*
X49346Y174659D02*
Y167994D01*
X52678Y164662D01*
X56011Y167994D01*
Y174659D01*
X59343Y169660D02*
X66007D01*
X69340Y164662D02*
X72672D01*
X71006D01*
Y174659D01*
X69340Y172993D01*
X84335Y174659D02*
X81002Y172993D01*
X77670Y169660D01*
Y166328D01*
X79336Y164662D01*
X82669D01*
X84335Y166328D01*
Y167994D01*
X82669Y169660D01*
X77670D01*
X87667Y174659D02*
Y167994D01*
X90999Y164662D01*
X94332Y167994D01*
Y174659D01*
X26000Y177202D02*
X19335D01*
X27000Y13202D02*
X20335D01*
X110902Y175900D02*
Y182564D01*
X107569Y179232D02*
X114234D01*
X110702Y11300D02*
Y17965D01*
X107369Y14632D02*
X114034D01*
X375400Y28500D02*
Y38497D01*
X378732Y35164D01*
X382065Y38497D01*
Y28500D01*
X390395Y38497D02*
X387063D01*
X385397Y36831D01*
Y30166D01*
X387063Y28500D01*
X390395D01*
X392061Y30166D01*
Y36831D01*
X390395Y38497D01*
X395393D02*
X402058D01*
X398726D01*
Y28500D01*
X410389Y38497D02*
X407056D01*
X405390Y36831D01*
Y30166D01*
X407056Y28500D01*
X410389D01*
X412055Y30166D01*
Y36831D01*
X410389Y38497D01*
X415387Y28500D02*
Y38497D01*
X420386D01*
X422052Y36831D01*
Y33498D01*
X420386Y31832D01*
X415387D01*
X418719D02*
X422052Y28500D01*
X211200Y36397D02*
Y26400D01*
X216198D01*
X217864Y28066D01*
Y34731D01*
X216198Y36397D01*
X211200D01*
X221197Y26400D02*
Y33064D01*
X224529Y36397D01*
X227861Y33064D01*
Y26400D01*
Y31398D01*
X221197D01*
X231193Y36397D02*
X237858D01*
X234526D01*
Y26400D01*
X241190D02*
Y33064D01*
X244523Y36397D01*
X247855Y33064D01*
Y26400D01*
Y31398D01*
X241190D01*
X138400Y24600D02*
Y34597D01*
X143398D01*
X145064Y32931D01*
Y29598D01*
X143398Y27932D01*
X138400D01*
X148397Y34597D02*
Y24600D01*
X151729Y27932D01*
X155061Y24600D01*
Y34597D01*
X158394Y24600D02*
Y34597D01*
X163392D01*
X165058Y32931D01*
Y29598D01*
X163392Y27932D01*
X158394D01*
X161726D02*
X165058Y24600D01*
X115202Y61000D02*
Y67664D01*
X114902Y49000D02*
Y55664D01*
X111569Y52332D02*
X118234D01*
X285400Y4100D02*
Y11971D01*
X289336Y15907D01*
X293271Y11971D01*
Y4100D01*
Y10003D01*
X285400D01*
X297207Y15907D02*
Y6068D01*
X299175Y4100D01*
X303111D01*
X305079Y6068D01*
Y15907D01*
X309014D02*
X316886Y4100D01*
Y15907D02*
X309014Y4100D01*
X139600Y63907D02*
Y52100D01*
X145504D01*
X147471Y54068D01*
Y61939D01*
X145504Y63907D01*
X139600D01*
X159279Y61939D02*
X157311Y63907D01*
X153375D01*
X151407Y61939D01*
Y54068D01*
X153375Y52100D01*
X157311D01*
X159279Y54068D01*
D13*
X123872Y98324D02*
G03*
X123872Y98324I-197J0D01*
G01*
X397245Y133152D02*
G03*
X397245Y133152I-197J0D01*
G01*
D14*
X117300Y175900D02*
X188300D01*
Y195900D01*
X117300D02*
X188300D01*
X117300Y175900D02*
Y195900D01*
X196146Y15066D02*
X195479Y14399D01*
Y13066D01*
X196146Y12400D01*
X196812D01*
X197478Y13066D01*
Y14399D01*
X198145Y15066D01*
X198811D01*
X199478Y14399D01*
Y13066D01*
X198811Y12400D01*
X196146Y16399D02*
X195479Y17065D01*
Y18398D01*
X196146Y19064D01*
X196812D01*
X197478Y18398D01*
Y17732D01*
Y18398D01*
X198145Y19064D01*
X198811D01*
X199478Y18398D01*
Y17065D01*
X198811Y16399D01*
X206868Y15066D02*
X206201Y14399D01*
Y13067D01*
X206868Y12400D01*
X207534D01*
X208201Y13067D01*
Y14399D01*
X208867Y15066D01*
X209534D01*
X210200Y14399D01*
Y13067D01*
X209534Y12400D01*
X210200Y19064D02*
Y16399D01*
X207534Y19064D01*
X206868D01*
X206201Y18398D01*
Y17065D01*
X206868Y16399D01*
X171192Y14351D02*
Y11686D01*
X173192D01*
X172525Y13018D01*
Y13685D01*
X173192Y14351D01*
X174525D01*
X175191Y13685D01*
Y12352D01*
X174525Y11686D01*
X171192Y15684D02*
X173858D01*
X175191Y17017D01*
X173858Y18350D01*
X171192D01*
X109868Y157666D02*
X109201Y156999D01*
Y155666D01*
X109868Y155000D01*
X112533D01*
X113200Y155666D01*
Y156999D01*
X112533Y157666D01*
X111201D01*
Y156333D01*
X113200Y158999D02*
X109201D01*
Y160998D01*
X109868Y161664D01*
X111201D01*
X111867Y160998D01*
Y158999D01*
X109201Y162997D02*
Y164330D01*
Y163664D01*
X113200D01*
Y162997D01*
Y164330D01*
X109201Y168329D02*
Y166996D01*
X109868Y166330D01*
X112533D01*
X113200Y166996D01*
Y168329D01*
X112533Y168995D01*
X109868D01*
X109201Y168329D01*
X113200Y172328D02*
X109201D01*
X111201Y170328D01*
Y172994D01*
X181201Y169866D02*
Y167200D01*
X183201D01*
X182534Y168533D01*
Y169199D01*
X183201Y169866D01*
X184534D01*
X185200Y169199D01*
Y167867D01*
X184534Y167200D01*
X181201Y171199D02*
X183867D01*
X185200Y172532D01*
X183867Y173864D01*
X181201D01*
X171301Y169866D02*
Y167200D01*
X173301D01*
X172634Y168533D01*
Y169199D01*
X173301Y169866D01*
X174634D01*
X175300Y169199D01*
Y167867D01*
X174634Y167200D01*
X171301Y171199D02*
X173967D01*
X175300Y172532D01*
X173967Y173864D01*
X171301D01*
X151401Y169866D02*
Y167200D01*
X153401D01*
X152734Y168533D01*
Y169199D01*
X153401Y169866D01*
X154734D01*
X155400Y169199D01*
Y167867D01*
X154734Y167200D01*
X151401Y171199D02*
X154067D01*
X155400Y172532D01*
X154067Y173864D01*
X151401D01*
X121268Y158966D02*
X120601Y158299D01*
Y156966D01*
X121268Y156300D01*
X123933D01*
X124600Y156966D01*
Y158299D01*
X123933Y158966D01*
X122601D01*
Y157633D01*
X124600Y160299D02*
X120601D01*
Y162298D01*
X121268Y162964D01*
X122601D01*
X123267Y162298D01*
Y160299D01*
X120601Y164297D02*
Y165630D01*
Y164964D01*
X124600D01*
Y164297D01*
Y165630D01*
X120601Y169629D02*
Y168296D01*
X121268Y167630D01*
X123933D01*
X124600Y168296D01*
Y169629D01*
X123933Y170296D01*
X121268D01*
X120601Y169629D01*
X121268Y171628D02*
X120601Y172295D01*
Y173628D01*
X121268Y174294D01*
X121934D01*
X122601Y173628D01*
Y172961D01*
Y173628D01*
X123267Y174294D01*
X123933D01*
X124600Y173628D01*
Y172295D01*
X123933Y171628D01*
X131568Y159166D02*
X130901Y158499D01*
Y157167D01*
X131568Y156500D01*
X134233D01*
X134900Y157167D01*
Y158499D01*
X134233Y159166D01*
X132901D01*
Y157833D01*
X134900Y160499D02*
X130901D01*
Y162498D01*
X131568Y163164D01*
X132901D01*
X133567Y162498D01*
Y160499D01*
X130901Y164497D02*
Y165830D01*
Y165164D01*
X134900D01*
Y164497D01*
Y165830D01*
X130901Y169829D02*
Y168496D01*
X131568Y167830D01*
X134233D01*
X134900Y168496D01*
Y169829D01*
X134233Y170495D01*
X131568D01*
X130901Y169829D01*
X134900Y174494D02*
Y171828D01*
X132234Y174494D01*
X131568D01*
X130901Y173828D01*
Y172495D01*
X131568Y171828D01*
X141468Y159666D02*
X140801Y158999D01*
Y157667D01*
X141468Y157000D01*
X144133D01*
X144800Y157667D01*
Y158999D01*
X144133Y159666D01*
X142801D01*
Y158333D01*
X144800Y160999D02*
X140801D01*
Y162998D01*
X141468Y163664D01*
X142801D01*
X143467Y162998D01*
Y160999D01*
X140801Y164997D02*
Y166330D01*
Y165664D01*
X144800D01*
Y164997D01*
Y166330D01*
X140801Y170329D02*
Y168996D01*
X141468Y168330D01*
X144133D01*
X144800Y168996D01*
Y170329D01*
X144133Y170995D01*
X141468D01*
X140801Y170329D01*
X144800Y172328D02*
Y173661D01*
Y172995D01*
X140801D01*
X141468Y172328D01*
X161801Y169766D02*
Y167100D01*
X163801D01*
X163134Y168433D01*
Y169099D01*
X163801Y169766D01*
X165134D01*
X165800Y169099D01*
Y167766D01*
X165134Y167100D01*
X161801Y171099D02*
X164467D01*
X165800Y172432D01*
X164467Y173765D01*
X161801D01*
X193201Y173600D02*
X195867D01*
X197200Y174933D01*
X195867Y176266D01*
X193201D01*
X193868Y180264D02*
X193201Y179598D01*
Y178265D01*
X193868Y177599D01*
X196534D01*
X197200Y178265D01*
Y179598D01*
X196534Y180264D01*
X193868Y184263D02*
X193201Y183597D01*
Y182264D01*
X193868Y181597D01*
X196534D01*
X197200Y182264D01*
Y183597D01*
X196534Y184263D01*
X416568Y176466D02*
X415901Y175799D01*
Y174466D01*
X416568Y173800D01*
X419234D01*
X419900Y174466D01*
Y175799D01*
X419234Y176466D01*
X417901D01*
Y175133D01*
X419900Y177799D02*
X415901D01*
X419900Y180464D01*
X415901D01*
Y181797D02*
X419900D01*
Y183797D01*
X419234Y184463D01*
X416568D01*
X415901Y183797D01*
Y181797D01*
X389100Y178500D02*
X386434D01*
X385101Y179833D01*
X386434Y181166D01*
X389100D01*
X387101D01*
Y178500D01*
X396201Y178300D02*
X400200D01*
Y180299D01*
X399534Y180966D01*
X398867D01*
X398201Y180299D01*
Y178300D01*
Y180299D01*
X397534Y180966D01*
X396868D01*
X396201Y180299D01*
Y178300D01*
X405901Y178100D02*
Y180766D01*
X406568D01*
X409234Y178100D01*
X409900D01*
Y180766D01*
X237600Y174100D02*
X233601D01*
Y176099D01*
X234268Y176766D01*
X235601D01*
X236267Y176099D01*
Y174100D01*
Y175433D02*
X237600Y176766D01*
X234268Y180764D02*
X233601Y180098D01*
Y178765D01*
X234268Y178099D01*
X234934D01*
X235601Y178765D01*
Y180098D01*
X236267Y180764D01*
X236934D01*
X237600Y180098D01*
Y178765D01*
X236934Y178099D01*
X233601Y182097D02*
Y184763D01*
Y183430D01*
X237600D01*
X223568Y176666D02*
X222901Y175999D01*
Y174666D01*
X223568Y174000D01*
X224234D01*
X224901Y174666D01*
Y175999D01*
X225567Y176666D01*
X226234D01*
X226900Y175999D01*
Y174666D01*
X226234Y174000D01*
X222901Y177999D02*
X226900D01*
X225567Y179332D01*
X226900Y180665D01*
X222901D01*
Y181997D02*
X226900D01*
Y183997D01*
X226234Y184663D01*
X223568D01*
X222901Y183997D01*
Y181997D01*
X204168Y176666D02*
X203501Y175999D01*
Y174666D01*
X204168Y174000D01*
X204834D01*
X205501Y174666D01*
Y175999D01*
X206167Y176666D01*
X206834D01*
X207500Y175999D01*
Y174666D01*
X206834Y174000D01*
X203501Y177999D02*
X207500D01*
X206167Y179332D01*
X207500Y180665D01*
X203501D01*
X204168Y184663D02*
X203501Y183997D01*
Y182664D01*
X204168Y181997D01*
X206834D01*
X207500Y182664D01*
Y183997D01*
X206834Y184663D01*
X213917Y176415D02*
X213250Y175749D01*
Y174416D01*
X213917Y173749D01*
X216583D01*
X217249Y174416D01*
Y175749D01*
X216583Y176415D01*
X215250D01*
Y175082D01*
X217249Y177748D02*
X213250D01*
X217249Y180414D01*
X213250D01*
Y181747D02*
X217249D01*
Y183746D01*
X216583Y184412D01*
X213917D01*
X213250Y183746D01*
Y181747D01*
X355868Y175966D02*
X355201Y175299D01*
Y173966D01*
X355868Y173300D01*
X358534D01*
X359200Y173966D01*
Y175299D01*
X358534Y175966D01*
X357201D01*
Y174633D01*
X359200Y177299D02*
X355201D01*
X359200Y179964D01*
X355201D01*
Y181297D02*
X359200D01*
Y183297D01*
X358534Y183963D01*
X355868D01*
X355201Y183297D01*
Y181297D01*
X375101Y179766D02*
Y177100D01*
X377101D01*
X376434Y178433D01*
Y179099D01*
X377101Y179766D01*
X378434D01*
X379100Y179099D01*
Y177766D01*
X378434Y177100D01*
X375101Y181099D02*
X377767D01*
X379100Y182432D01*
X377767Y183765D01*
X375101D01*
X366468Y170000D02*
X365801Y170666D01*
Y171999D01*
X366468Y172666D01*
X367134D01*
X367801Y171999D01*
Y171333D01*
Y171999D01*
X368467Y172666D01*
X369134D01*
X369800Y171999D01*
Y170666D01*
X369134Y170000D01*
X369800Y173999D02*
X369134D01*
Y174665D01*
X369800D01*
Y173999D01*
X366468Y177331D02*
X365801Y177997D01*
Y179330D01*
X366468Y179997D01*
X367134D01*
X367801Y179330D01*
Y178664D01*
Y179330D01*
X368467Y179997D01*
X369134D01*
X369800Y179330D01*
Y177997D01*
X369134Y177331D01*
X365801Y181330D02*
X368467D01*
X369800Y182662D01*
X368467Y183995D01*
X365801D01*
X170184Y96063D02*
Y100062D01*
X172183D01*
X172849Y99395D01*
Y98062D01*
X172183Y97396D01*
X170184D01*
X171516D02*
X172849Y96063D01*
X176848Y100062D02*
X174182D01*
Y98062D01*
X175515Y98729D01*
X176181D01*
X176848Y98062D01*
Y96729D01*
X176181Y96063D01*
X174849D01*
X174182Y96729D01*
X180180Y96063D02*
Y100062D01*
X178181Y98062D01*
X180847D01*
X190313Y87132D02*
Y91131D01*
X192313D01*
X192979Y90465D01*
Y89132D01*
X192313Y88465D01*
X190313D01*
X191646D02*
X192979Y87132D01*
X196978Y91131D02*
X194312D01*
Y89132D01*
X195645Y89798D01*
X196311D01*
X196978Y89132D01*
Y87799D01*
X196311Y87132D01*
X194978D01*
X194312Y87799D01*
X198311Y87132D02*
X199644D01*
X198977D01*
Y91131D01*
X198311Y90465D01*
X251679Y85433D02*
X247681D01*
Y87432D01*
X248347Y88099D01*
X249680D01*
X250347Y87432D01*
Y85433D01*
Y86766D02*
X251679Y88099D01*
X248347Y89432D02*
X247681Y90098D01*
Y91431D01*
X248347Y92098D01*
X249014D01*
X249680Y91431D01*
Y90765D01*
Y91431D01*
X250347Y92098D01*
X251013D01*
X251679Y91431D01*
Y90098D01*
X251013Y89432D01*
X248347Y93430D02*
X247681Y94097D01*
Y95430D01*
X248347Y96096D01*
X251013D01*
X251679Y95430D01*
Y94097D01*
X251013Y93430D01*
X248347D01*
X305569Y85432D02*
X301571D01*
Y87432D01*
X302237Y88098D01*
X303570D01*
X304236Y87432D01*
Y85432D01*
Y86765D02*
X305569Y88098D01*
Y92097D02*
Y89431D01*
X302904Y92097D01*
X302237D01*
X301571Y91430D01*
Y90097D01*
X302237Y89431D01*
X301571Y96096D02*
Y93430D01*
X303570D01*
X302904Y94763D01*
Y95429D01*
X303570Y96096D01*
X304903D01*
X305569Y95429D01*
Y94096D01*
X304903Y93430D01*
X267821Y85433D02*
X263823D01*
Y87432D01*
X264489Y88099D01*
X265822D01*
X266488Y87432D01*
Y85433D01*
Y86766D02*
X267821Y88099D01*
Y92098D02*
Y89432D01*
X265156Y92098D01*
X264489D01*
X263823Y91431D01*
Y90098D01*
X264489Y89432D01*
X267821Y95430D02*
X263823D01*
X265822Y93430D01*
Y96096D01*
X321369Y85432D02*
X317371D01*
Y87432D01*
X318037Y88098D01*
X319370D01*
X320036Y87432D01*
Y85432D01*
Y86765D02*
X321369Y88098D01*
Y92097D02*
Y89431D01*
X318704Y92097D01*
X318037D01*
X317371Y91430D01*
Y90097D01*
X318037Y89431D01*
Y93430D02*
X317371Y94096D01*
Y95429D01*
X318037Y96096D01*
X318704D01*
X319370Y95429D01*
Y94763D01*
Y95429D01*
X320036Y96096D01*
X320703D01*
X321369Y95429D01*
Y94096D01*
X320703Y93430D01*
X384269Y85432D02*
X380271D01*
Y87432D01*
X380937Y88098D01*
X382270D01*
X382936Y87432D01*
Y85432D01*
Y86765D02*
X384269Y88098D01*
Y92097D02*
Y89431D01*
X381604Y92097D01*
X380937D01*
X380271Y91430D01*
Y90097D01*
X380937Y89431D01*
X384269Y96096D02*
Y93430D01*
X381604Y96096D01*
X380937D01*
X380271Y95429D01*
Y94096D01*
X380937Y93430D01*
X279969Y86032D02*
X275971D01*
Y88032D01*
X276637Y88698D01*
X277970D01*
X278636Y88032D01*
Y86032D01*
Y87365D02*
X279969Y88698D01*
Y90031D02*
Y91364D01*
Y90697D01*
X275971D01*
X276637Y90031D01*
X279303Y93363D02*
X279969Y94030D01*
Y95363D01*
X279303Y96029D01*
X276637D01*
X275971Y95363D01*
Y94030D01*
X276637Y93363D01*
X277304D01*
X277970Y94030D01*
Y96029D01*
X346869Y86032D02*
X342871D01*
Y88032D01*
X343537Y88698D01*
X344870D01*
X345536Y88032D01*
Y86032D01*
Y87365D02*
X346869Y88698D01*
Y90031D02*
Y91364D01*
Y90697D01*
X342871D01*
X343537Y90031D01*
Y93363D02*
X342871Y94030D01*
Y95363D01*
X343537Y96029D01*
X344203D01*
X344870Y95363D01*
X345536Y96029D01*
X346203D01*
X346869Y95363D01*
Y94030D01*
X346203Y93363D01*
X345536D01*
X344870Y94030D01*
X344203Y93363D01*
X343537D01*
X344870Y94030D02*
Y95363D01*
X413869Y86032D02*
X409871D01*
Y88032D01*
X410537Y88698D01*
X411870D01*
X412536Y88032D01*
Y86032D01*
Y87365D02*
X413869Y88698D01*
Y90031D02*
Y91364D01*
Y90697D01*
X409871D01*
X410537Y90031D01*
X409871Y93363D02*
Y96029D01*
X410537D01*
X413203Y93363D01*
X413869D01*
X155776Y94246D02*
X156442Y94912D01*
Y96245D01*
X155776Y96912D01*
X153110D01*
X152443Y96245D01*
Y94912D01*
X153110Y94246D01*
X156442Y90247D02*
Y92913D01*
X154443D01*
X155109Y91580D01*
Y90914D01*
X154443Y90247D01*
X153110D01*
X152443Y90914D01*
Y92247D01*
X153110Y92913D01*
Y88914D02*
X152443Y88248D01*
Y86915D01*
X153110Y86248D01*
X155776D01*
X156442Y86915D01*
Y88248D01*
X155776Y88914D01*
X155109D01*
X154443Y88248D01*
Y86248D01*
X327282Y115514D02*
X326616Y114847D01*
Y113514D01*
X327282Y112848D01*
X329948D01*
X330614Y113514D01*
Y114847D01*
X329948Y115514D01*
X330614Y118846D02*
X326616D01*
X328615Y116847D01*
Y119512D01*
X330614Y123511D02*
Y120845D01*
X327949Y123511D01*
X327282D01*
X326616Y122845D01*
Y121512D01*
X327282Y120845D01*
D15*
X146568Y157128D02*
Y163900D01*
X180032D01*
Y157128D02*
Y163900D01*
Y103900D02*
Y110672D01*
X146568Y103900D02*
X180032D01*
X146568D02*
Y110672D01*
X174701Y93726D02*
X175901D01*
X174701Y90526D02*
X175901D01*
X206300Y90500D02*
X207500D01*
X206300Y87300D02*
X207500D01*
X245799Y89951D02*
Y91151D01*
X242599Y89951D02*
Y91151D01*
X258347Y89951D02*
Y91151D01*
X261547Y89951D02*
Y91151D01*
X388268Y89951D02*
Y91151D01*
X391468Y89951D02*
Y91151D01*
X350867Y89951D02*
Y91151D01*
X354067Y89951D02*
Y91151D01*
X417796Y89951D02*
Y91151D01*
X420996Y89951D02*
Y91151D01*
X325276Y89951D02*
Y91151D01*
X328476Y89951D02*
Y91151D01*
X283938Y89951D02*
Y91151D01*
X287138Y89951D02*
Y91151D01*
X312728Y89951D02*
Y91151D01*
X309528Y89951D02*
Y91151D01*
X328765Y139566D02*
Y142716D01*
X324435Y139566D02*
X328765D01*
X324435D02*
Y142716D01*
X328765Y144684D02*
Y147834D01*
X324435D02*
X328765D01*
X324435Y144684D02*
Y147834D01*
X435115Y144557D02*
X435902Y143770D01*
Y140030D02*
Y143770D01*
X435706Y143967D02*
X436395Y143278D01*
X435804Y139931D02*
X436395Y140522D01*
X435115Y139242D02*
X435902Y140030D01*
X431572Y139242D02*
X435115D01*
X431572Y144557D02*
X435115D01*
X423698Y139242D02*
Y144557D01*
Y139242D02*
X428028D01*
X423698Y144557D02*
X428028D01*
X436395Y140522D02*
Y143278D01*
D16*
X260800Y10300D02*
X269300D01*
X336300D02*
X344800D01*
X269300Y300D02*
Y10300D01*
Y300D02*
X336300D01*
Y20300D01*
X269300D02*
X336300D01*
X269300Y10300D02*
Y20300D01*
X232300Y173476D02*
Y184500D01*
X404800Y139000D02*
Y144998D01*
X407799D01*
X408799Y143998D01*
Y141999D01*
X407799Y140999D01*
X404800D01*
X410798Y144998D02*
Y139000D01*
X412797Y140999D01*
X414797Y139000D01*
Y144998D01*
X416796Y139000D02*
Y144998D01*
X419795D01*
X420795Y143998D01*
Y141999D01*
X419795Y140999D01*
X416796D01*
X418795D02*
X420795Y139000D01*
X197400Y142998D02*
Y138000D01*
X198400Y137000D01*
X200399D01*
X201399Y138000D01*
Y142998D01*
X203398Y137000D02*
X205397D01*
X204398D01*
Y142998D01*
X203398Y141998D01*
X290800Y148098D02*
Y143100D01*
X291800Y142100D01*
X293799D01*
X294799Y143100D01*
Y148098D01*
X300797Y142100D02*
X296798D01*
X300797Y146099D01*
Y147098D01*
X299797Y148098D01*
X297798D01*
X296798Y147098D01*
X111800Y94898D02*
Y89900D01*
X112800Y88900D01*
X114799D01*
X115799Y89900D01*
Y94898D01*
X121797D02*
X119797Y93898D01*
X117798Y91899D01*
Y89900D01*
X118798Y88900D01*
X120797D01*
X121797Y89900D01*
Y90899D01*
X120797Y91899D01*
X117798D01*
X323000Y133298D02*
Y128300D01*
X324000Y127300D01*
X325999D01*
X326999Y128300D01*
Y133298D01*
X331997Y127300D02*
Y133298D01*
X328998Y130299D01*
X332997D01*
X414961Y132851D02*
Y126853D01*
X417961D01*
X418960Y127852D01*
Y131851D01*
X417961Y132851D01*
X414961D01*
X420960Y126853D02*
X422959D01*
X421959D01*
Y132851D01*
X420960Y131851D01*
D17*
X282191Y175643D02*
X282191Y174530D01*
X283304Y173417D01*
X284417Y173417D01*
X286643Y175643D01*
Y176757D01*
X285530Y177870D01*
X284417D01*
X283304Y176757D01*
X284417Y175643D01*
X283860Y179540D02*
X280521Y176200D01*
X281634Y181766D01*
X278294Y178426D01*
X277181Y179540D02*
X280521Y182879D01*
X278851Y184549D01*
X277738D01*
X275512Y182323D01*
X275512Y181209D01*
X277181Y179540D01*
X315464Y174648D02*
X314677Y173861D01*
Y172287D01*
X315464Y171500D01*
X318613D01*
X319400Y172287D01*
Y173861D01*
X318613Y174648D01*
X317039D01*
Y173074D01*
X319400Y176223D02*
X314677D01*
X319400Y179371D01*
X314677D01*
Y180946D02*
X319400D01*
Y183307D01*
X318613Y184094D01*
X315464D01*
X314677Y183307D01*
Y180946D01*
X299412Y175777D02*
X298625Y176564D01*
X297051D01*
X296264Y175777D01*
Y172628D01*
X297051Y171841D01*
X298625D01*
X299412Y172628D01*
X300987Y171841D02*
Y174989D01*
X302561Y176564D01*
X304135Y174989D01*
Y171841D01*
Y174202D01*
X300987D01*
X305710Y171841D02*
Y176564D01*
X308858Y171841D01*
Y176564D01*
X306106Y184044D02*
Y179321D01*
X309255D01*
X296264Y184044D02*
Y179321D01*
Y181683D01*
X299412D01*
Y184044D01*
Y179321D01*
X238217Y171883D02*
X238217Y172996D01*
X239330Y174109D01*
X240443Y174109D01*
X241000Y173553D01*
Y172440D01*
X240443Y171883D01*
X241000Y172440D01*
X242113D01*
X242670Y171883D01*
Y170770D01*
X241557Y169657D01*
X240443D01*
X244340Y172440D02*
X243783Y172996D01*
X244340Y173553D01*
X244896Y172996D01*
X244340Y172440D01*
Y178006D02*
X244340Y179119D01*
X245453Y180232D01*
X246566Y180232D01*
X247123Y179675D01*
Y178562D01*
X246566Y178006D01*
X247123Y178562D01*
X248236D01*
X248792Y178006D01*
Y176892D01*
X247679Y175779D01*
X246566D01*
X247123Y181902D02*
X249349Y179675D01*
X251575D01*
X251575Y181902D01*
X249349Y184128D01*
X293100Y172200D02*
X288377D01*
Y174561D01*
X289164Y175348D01*
X290739D01*
X291526Y174561D01*
Y172200D01*
Y173774D02*
X293100Y175348D01*
X289164Y180071D02*
X288377Y179284D01*
Y177710D01*
X289164Y176923D01*
X289951D01*
X290739Y177710D01*
Y179284D01*
X291526Y180071D01*
X292313D01*
X293100Y179284D01*
Y177710D01*
X292313Y176923D01*
X288377Y181646D02*
Y184794D01*
Y183220D01*
X293100D01*
X392700Y169700D02*
Y175698D01*
X394699Y173699D01*
X396699Y175698D01*
Y169700D01*
X398698Y174698D02*
X399698Y175698D01*
X401697D01*
X402697Y174698D01*
Y170700D01*
X401697Y169700D01*
X399698D01*
X398698Y170700D01*
Y174698D01*
X251100Y174800D02*
Y177949D01*
X252674Y179523D01*
X254249Y177949D01*
Y174800D01*
Y177161D01*
X251100D01*
X255823Y179523D02*
Y176374D01*
X257397Y174800D01*
X258972Y176374D01*
Y179523D01*
X263694Y178736D02*
X262907Y179523D01*
X261333D01*
X260546Y178736D01*
Y175587D01*
X261333Y174800D01*
X262907D01*
X263694Y175587D01*
X268417Y178736D02*
X267630Y179523D01*
X266056D01*
X265269Y178736D01*
Y175587D01*
X266056Y174800D01*
X267630D01*
X268417Y175587D01*
X282000Y173400D02*
X279774Y171174D01*
X277547D01*
X277547Y173400D01*
X279774Y175626D01*
X278104Y173957D01*
X280330Y171730D01*
X273651Y176183D02*
X273651Y175070D01*
X274764Y173957D01*
X275877Y173957D01*
X278104Y176183D01*
Y177296D01*
X276991Y178409D01*
X275877D01*
X274764Y177296D01*
X275877Y176183D01*
X275321Y180079D02*
X271981Y176740D01*
X273095Y182306D01*
X269755Y178966D01*
X268642Y180079D02*
X271981Y183419D01*
X270311Y185089D01*
X269198D01*
X266972Y182862D01*
X266972Y181749D01*
X268642Y180079D01*
X325464Y174249D02*
X324677Y173461D01*
Y171887D01*
X325464Y171100D01*
X326251D01*
X327039Y171887D01*
Y173461D01*
X327826Y174249D01*
X328613D01*
X329400Y173461D01*
Y171887D01*
X328613Y171100D01*
X325464Y178971D02*
X324677Y178184D01*
Y176610D01*
X325464Y175823D01*
X328613D01*
X329400Y176610D01*
Y178184D01*
X328613Y178971D01*
X324677Y180546D02*
X329400D01*
X327826D01*
X324677Y183694D01*
X327039Y181333D01*
X329400Y183694D01*
X339400Y167400D02*
X334677D01*
X336251Y168974D01*
X334677Y170548D01*
X339400D01*
X334677Y172123D02*
Y173697D01*
Y172910D01*
X339400D01*
Y172123D01*
Y173697D01*
X335464Y179207D02*
X334677Y178420D01*
Y176846D01*
X335464Y176059D01*
X336251D01*
X337039Y176846D01*
Y178420D01*
X337826Y179207D01*
X338613D01*
X339400Y178420D01*
Y176846D01*
X338613Y176059D01*
X334677Y183143D02*
Y181569D01*
X335464Y180781D01*
X338613D01*
X339400Y181569D01*
Y183143D01*
X338613Y183930D01*
X335464D01*
X334677Y183143D01*
X349800Y168100D02*
X345077D01*
X346651Y169674D01*
X345077Y171248D01*
X349800D01*
X345077Y175184D02*
Y173610D01*
X345864Y172823D01*
X349013D01*
X349800Y173610D01*
Y175184D01*
X349013Y175971D01*
X345864D01*
X345077Y175184D01*
X345864Y180694D02*
X345077Y179907D01*
Y178333D01*
X345864Y177546D01*
X346651D01*
X347439Y178333D01*
Y179907D01*
X348226Y180694D01*
X349013D01*
X349800Y179907D01*
Y178333D01*
X349013Y177546D01*
X345077Y182269D02*
Y183843D01*
Y183056D01*
X349800D01*
Y182269D01*
Y183843D01*
D18*
X322663Y138582D02*
X318664D01*
Y140581D01*
X319331Y141248D01*
X320664D01*
X321330Y140581D01*
Y138582D01*
Y139915D02*
X322663Y141248D01*
Y142580D02*
Y143913D01*
Y143247D01*
X318664D01*
X319331Y142580D01*
X322663Y148579D02*
Y145913D01*
X319997Y148579D01*
X319331D01*
X318664Y147912D01*
Y146579D01*
X319331Y145913D01*
M02*
