G04*
G04 #@! TF.GenerationSoftware,Altium Limited,Altium Designer,20.0.11 (256)*
G04*
G04 Layer_Physical_Order=2*
G04 Layer_Color=16711680*
%FSLAX25Y25*%
%MOIN*%
G70*
G01*
G75*
%ADD12C,0.00984*%
%ADD14C,0.00600*%
%ADD16C,0.01968*%
%ADD17C,0.00800*%
%ADD19C,0.01575*%
%ADD20C,0.00598*%
%ADD30R,0.06693X0.03937*%
G04:AMPARAMS|DCode=31|XSize=39.37mil|YSize=35.43mil|CornerRadius=4.43mil|HoleSize=0mil|Usage=FLASHONLY|Rotation=180.000|XOffset=0mil|YOffset=0mil|HoleType=Round|Shape=RoundedRectangle|*
%AMROUNDEDRECTD31*
21,1,0.03937,0.02657,0,0,180.0*
21,1,0.03051,0.03543,0,0,180.0*
1,1,0.00886,-0.01526,0.01329*
1,1,0.00886,0.01526,0.01329*
1,1,0.00886,0.01526,-0.01329*
1,1,0.00886,-0.01526,-0.01329*
%
%ADD31ROUNDEDRECTD31*%
G04:AMPARAMS|DCode=32|XSize=39.37mil|YSize=35.43mil|CornerRadius=4.43mil|HoleSize=0mil|Usage=FLASHONLY|Rotation=270.000|XOffset=0mil|YOffset=0mil|HoleType=Round|Shape=RoundedRectangle|*
%AMROUNDEDRECTD32*
21,1,0.03937,0.02657,0,0,270.0*
21,1,0.03051,0.03543,0,0,270.0*
1,1,0.00886,-0.01329,-0.01526*
1,1,0.00886,-0.01329,0.01526*
1,1,0.00886,0.01329,0.01526*
1,1,0.00886,0.01329,-0.01526*
%
%ADD32ROUNDEDRECTD32*%
%ADD39R,0.02756X0.03347*%
%ADD40R,0.03347X0.02756*%
%ADD69C,0.00984*%
%ADD70C,0.03937*%
%ADD75C,0.01181*%
%ADD76C,0.00799*%
%ADD77C,0.29528*%
%ADD78C,0.11811*%
G04:AMPARAMS|DCode=79|XSize=51.18mil|YSize=86.61mil|CornerRadius=12.8mil|HoleSize=0mil|Usage=FLASHONLY|Rotation=90.000|XOffset=0mil|YOffset=0mil|HoleType=Round|Shape=RoundedRectangle|*
%AMROUNDEDRECTD79*
21,1,0.05118,0.06102,0,0,90.0*
21,1,0.02559,0.08661,0,0,90.0*
1,1,0.02559,0.03051,0.01280*
1,1,0.02559,0.03051,-0.01280*
1,1,0.02559,-0.03051,-0.01280*
1,1,0.02559,-0.03051,0.01280*
%
%ADD79ROUNDEDRECTD79*%
G04:AMPARAMS|DCode=80|XSize=41.34mil|YSize=57.48mil|CornerRadius=10.34mil|HoleSize=0mil|Usage=FLASHONLY|Rotation=90.000|XOffset=0mil|YOffset=0mil|HoleType=Round|Shape=RoundedRectangle|*
%AMROUNDEDRECTD80*
21,1,0.04134,0.03681,0,0,90.0*
21,1,0.02067,0.05748,0,0,90.0*
1,1,0.02067,0.01841,0.01034*
1,1,0.02067,0.01841,-0.01034*
1,1,0.02067,-0.01841,-0.01034*
1,1,0.02067,-0.01841,0.01034*
%
%ADD80ROUNDEDRECTD80*%
%ADD81C,0.05906*%
%ADD82R,0.05906X0.05906*%
%ADD83C,0.09449*%
%ADD84C,0.02953*%
%ADD85C,0.02756*%
%ADD86C,0.02362*%
%ADD87C,0.03150*%
%ADD88R,0.04921X0.05709*%
%ADD89R,0.08858X0.13780*%
G04:AMPARAMS|DCode=90|XSize=137.8mil|YSize=68.9mil|CornerRadius=8.61mil|HoleSize=0mil|Usage=FLASHONLY|Rotation=180.000|XOffset=0mil|YOffset=0mil|HoleType=Round|Shape=RoundedRectangle|*
%AMROUNDEDRECTD90*
21,1,0.13780,0.05167,0,0,180.0*
21,1,0.12057,0.06890,0,0,180.0*
1,1,0.01722,-0.06029,0.02584*
1,1,0.01722,0.06029,0.02584*
1,1,0.01722,0.06029,-0.02584*
1,1,0.01722,-0.06029,-0.02584*
%
%ADD90ROUNDEDRECTD90*%
G04:AMPARAMS|DCode=91|XSize=43.31mil|YSize=68.9mil|CornerRadius=5.41mil|HoleSize=0mil|Usage=FLASHONLY|Rotation=180.000|XOffset=0mil|YOffset=0mil|HoleType=Round|Shape=RoundedRectangle|*
%AMROUNDEDRECTD91*
21,1,0.04331,0.05807,0,0,180.0*
21,1,0.03248,0.06890,0,0,180.0*
1,1,0.01083,-0.01624,0.02904*
1,1,0.01083,0.01624,0.02904*
1,1,0.01083,0.01624,-0.02904*
1,1,0.01083,-0.01624,-0.02904*
%
%ADD91ROUNDEDRECTD91*%
G04:AMPARAMS|DCode=92|XSize=43.31mil|YSize=68.9mil|CornerRadius=5.41mil|HoleSize=0mil|Usage=FLASHONLY|Rotation=180.000|XOffset=0mil|YOffset=0mil|HoleType=Round|Shape=RoundedRectangle|*
%AMROUNDEDRECTD92*
21,1,0.04331,0.05807,0,0,180.0*
21,1,0.03248,0.06890,0,0,180.0*
1,1,0.01083,-0.01624,0.02904*
1,1,0.01083,0.01624,0.02904*
1,1,0.01083,0.01624,-0.02904*
1,1,0.01083,-0.01624,-0.02904*
%
%ADD92ROUNDEDRECTD92*%
%ADD93R,0.05709X0.04921*%
G04:AMPARAMS|DCode=94|XSize=23.62mil|YSize=39.37mil|CornerRadius=2.95mil|HoleSize=0mil|Usage=FLASHONLY|Rotation=0.000|XOffset=0mil|YOffset=0mil|HoleType=Round|Shape=RoundedRectangle|*
%AMROUNDEDRECTD94*
21,1,0.02362,0.03347,0,0,0.0*
21,1,0.01772,0.03937,0,0,0.0*
1,1,0.00591,0.00886,-0.01673*
1,1,0.00591,-0.00886,-0.01673*
1,1,0.00591,-0.00886,0.01673*
1,1,0.00591,0.00886,0.01673*
%
%ADD94ROUNDEDRECTD94*%
%ADD95O,0.07874X0.03150*%
%ADD96R,0.03150X0.02559*%
G04:AMPARAMS|DCode=97|XSize=78.74mil|YSize=161.42mil|CornerRadius=9.84mil|HoleSize=0mil|Usage=FLASHONLY|Rotation=180.000|XOffset=0mil|YOffset=0mil|HoleType=Round|Shape=RoundedRectangle|*
%AMROUNDEDRECTD97*
21,1,0.07874,0.14173,0,0,180.0*
21,1,0.05906,0.16142,0,0,180.0*
1,1,0.01968,-0.02953,0.07087*
1,1,0.01968,0.02953,0.07087*
1,1,0.01968,0.02953,-0.07087*
1,1,0.01968,-0.02953,-0.07087*
%
%ADD97ROUNDEDRECTD97*%
%ADD98R,0.13583X0.07087*%
%ADD99R,0.05512X0.03937*%
%ADD100O,0.05709X0.02362*%
%ADD101R,0.07795X0.24488*%
%ADD102R,0.06890X0.01575*%
%ADD103R,0.09843X0.05610*%
%ADD104R,0.05748X0.06299*%
%ADD105R,0.02756X0.07185*%
%ADD106C,0.05000*%
%ADD107C,0.07874*%
%ADD108C,0.05906*%
G36*
X493280Y185377D02*
X492855Y184953D01*
X486504D01*
Y183917D01*
X467670D01*
X466974Y183778D01*
X466384Y183384D01*
X462557Y179557D01*
X462263Y179586D01*
X461853Y179861D01*
X461368Y179957D01*
X458710D01*
X458311Y179878D01*
X458268Y179921D01*
X456569D01*
X456378Y180383D01*
X464391Y188396D01*
X465162Y188077D01*
X466142Y187948D01*
X467121Y188077D01*
X468034Y188455D01*
X468818Y189056D01*
X469419Y189840D01*
X469797Y190753D01*
X469926Y191732D01*
X469797Y192712D01*
X469419Y193624D01*
X468838Y194382D01*
X468866Y194552D01*
X468978Y194882D01*
X493280D01*
Y185377D01*
D02*
G37*
G36*
X433417Y194552D02*
X433446Y194382D01*
X432864Y193624D01*
X432486Y192712D01*
X432357Y191732D01*
X432486Y190753D01*
X432864Y189840D01*
X433466Y189056D01*
X434250Y188455D01*
X435162Y188077D01*
X436142Y187948D01*
X437121Y188077D01*
X437195Y188107D01*
X441354Y183948D01*
X441163Y183486D01*
X433350D01*
X432921Y183401D01*
X432557Y183158D01*
X429357Y179957D01*
X426821D01*
X426336Y179861D01*
X425925Y179586D01*
X425651Y179175D01*
X425555Y178691D01*
Y175640D01*
X425651Y175155D01*
X425907Y174771D01*
X425876Y174622D01*
X425733Y174271D01*
X424999D01*
X424837Y174404D01*
Y187705D01*
X424914Y187793D01*
X425251Y188065D01*
X426142Y187948D01*
X427121Y188077D01*
X428034Y188455D01*
X428818Y189056D01*
X429419Y189840D01*
X429797Y190753D01*
X429926Y191732D01*
X429797Y192712D01*
X429419Y193624D01*
X428838Y194382D01*
X428866Y194552D01*
X428978Y194882D01*
X433305D01*
X433417Y194552D01*
D02*
G37*
G36*
X393417D02*
X393446Y194382D01*
X392864Y193624D01*
X392486Y192712D01*
X392357Y191732D01*
X392486Y190753D01*
X392864Y189840D01*
X393466Y189056D01*
X394250Y188455D01*
X395139Y188086D01*
Y179957D01*
X394931D01*
X394446Y179861D01*
X394036Y179586D01*
X393761Y179176D01*
X393665Y178691D01*
Y175640D01*
X393669Y175618D01*
X393352Y175232D01*
X392869D01*
X392551Y175618D01*
X392556Y175640D01*
Y178691D01*
X392459Y179176D01*
X392185Y179587D01*
X391774Y179861D01*
X391289Y179957D01*
X388632D01*
X388232Y179878D01*
X388189Y179921D01*
X385039D01*
X384996Y179878D01*
X384596Y179957D01*
X384388D01*
Y187856D01*
X384888Y188190D01*
X385162Y188077D01*
X386142Y187948D01*
X387121Y188077D01*
X388034Y188455D01*
X388818Y189056D01*
X389419Y189840D01*
X389797Y190753D01*
X389926Y191732D01*
X389797Y192712D01*
X389419Y193624D01*
X388838Y194382D01*
X388866Y194552D01*
X388978Y194882D01*
X393305D01*
X393417Y194552D01*
D02*
G37*
G36*
X383417D02*
X383446Y194382D01*
X382864Y193624D01*
X382486Y192712D01*
X382357Y191732D01*
X382486Y190753D01*
X382806Y189981D01*
X382475Y189651D01*
X382232Y189287D01*
X382147Y188858D01*
Y179957D01*
X381939D01*
X381454Y179861D01*
X381043Y179587D01*
X380873Y179332D01*
X380374Y179484D01*
Y181149D01*
X380235Y181845D01*
X379841Y182435D01*
X378104Y184172D01*
X377514Y184566D01*
X376818Y184704D01*
X372298D01*
X369483Y187518D01*
X369675Y187980D01*
X369894D01*
Y194882D01*
X373305D01*
X373417Y194552D01*
X373446Y194382D01*
X372864Y193624D01*
X372486Y192712D01*
X372357Y191732D01*
X372486Y190753D01*
X372864Y189840D01*
X373466Y189056D01*
X374250Y188455D01*
X375162Y188077D01*
X376142Y187948D01*
X377121Y188077D01*
X378034Y188455D01*
X378818Y189056D01*
X379419Y189840D01*
X379797Y190753D01*
X379926Y191732D01*
X379797Y192712D01*
X379419Y193624D01*
X378838Y194382D01*
X378866Y194552D01*
X378978Y194882D01*
X383305D01*
X383417Y194552D01*
D02*
G37*
G36*
X218535D02*
X218564Y194382D01*
X217983Y193624D01*
X217604Y192712D01*
X217476Y191732D01*
X217604Y190753D01*
X217983Y189840D01*
X218584Y189056D01*
X219368Y188455D01*
X220140Y188135D01*
Y187476D01*
X220225Y187047D01*
X220468Y186684D01*
X224388Y182764D01*
Y176251D01*
X223769Y175837D01*
X223331Y175182D01*
X223178Y174409D01*
X223331Y173637D01*
X223769Y172982D01*
X224424Y172544D01*
X225197Y172390D01*
X225970Y172544D01*
X226625Y172982D01*
X227137Y172849D01*
X227312Y172588D01*
X227967Y172150D01*
X228740Y171996D01*
X229512Y172150D01*
X230167Y172588D01*
X230605Y173243D01*
X230759Y174015D01*
X230605Y174788D01*
X230167Y175443D01*
X229860Y175649D01*
Y182213D01*
X230739Y183092D01*
X231102Y183020D01*
X231762Y183151D01*
X232261Y182877D01*
Y172130D01*
X232347Y171701D01*
X232590Y171337D01*
X233092Y170835D01*
X233020Y170472D01*
X233152Y169813D01*
X232877Y169313D01*
X232380D01*
X230610Y171083D01*
X230247Y171326D01*
X229818Y171411D01*
X225705D01*
X225276Y171326D01*
X224913Y171083D01*
X223444Y169614D01*
X222834Y169735D01*
X222061Y169582D01*
X221781Y169394D01*
X221281Y169662D01*
Y173560D01*
X221716Y173995D01*
X221958Y174358D01*
X222044Y174786D01*
X222044Y174787D01*
Y177501D01*
X221958Y177930D01*
X221716Y178294D01*
X220845Y179165D01*
X220917Y179528D01*
X220763Y180300D01*
X220325Y180955D01*
X219670Y181393D01*
X218898Y181547D01*
X218125Y181393D01*
X217470Y180955D01*
X217032Y180300D01*
X216879Y179528D01*
X217032Y178755D01*
X217470Y178100D01*
X217600Y178013D01*
X217598Y177413D01*
X217216Y177158D01*
X216779Y176503D01*
X216673Y175972D01*
X216488Y175652D01*
X216168Y175467D01*
X215636Y175361D01*
X214981Y174923D01*
X214543Y174268D01*
X214438Y173736D01*
X214173Y173279D01*
X213401Y173125D01*
X212745Y172688D01*
X212308Y172032D01*
X212249Y171738D01*
X211999Y171634D01*
X211706Y171568D01*
X211023Y171704D01*
X210250Y171550D01*
X209595Y171112D01*
X209555Y171052D01*
X209055Y171204D01*
Y171653D01*
X209012Y171697D01*
X209091Y172097D01*
Y174754D01*
X208995Y175239D01*
X208720Y175649D01*
X208310Y175924D01*
X207825Y176020D01*
X207420D01*
Y178288D01*
X207727Y178493D01*
X208165Y179149D01*
X208318Y179921D01*
X208165Y180694D01*
X207727Y181349D01*
X207072Y181787D01*
X206299Y181940D01*
X205526Y181787D01*
X204872Y181349D01*
X204434Y180694D01*
X204280Y179921D01*
X204434Y179149D01*
X204872Y178493D01*
X205178Y178288D01*
Y176020D01*
X204774D01*
X204289Y175924D01*
X203878Y175649D01*
X203604Y175239D01*
X203507Y174754D01*
Y172097D01*
X203587Y171697D01*
X203543Y171653D01*
Y168504D01*
X203587Y168461D01*
X203507Y168061D01*
Y165510D01*
X203295Y165193D01*
X203210Y164764D01*
Y161082D01*
X202903Y160877D01*
X202809Y160736D01*
X202309D01*
X202215Y160877D01*
X201907Y161082D01*
Y164213D01*
X202010Y164234D01*
X202421Y164508D01*
X202696Y164919D01*
X202792Y165403D01*
Y168061D01*
X202713Y168461D01*
X202756Y168504D01*
Y171653D01*
X202713Y171697D01*
X202792Y172097D01*
Y174754D01*
X202696Y175239D01*
X202421Y175649D01*
X202010Y175924D01*
X201526Y176020D01*
X201121D01*
Y178288D01*
X201428Y178493D01*
X201865Y179149D01*
X202019Y179921D01*
X201865Y180694D01*
X201428Y181349D01*
X200773Y181787D01*
X200000Y181940D01*
X199227Y181787D01*
X198572Y181349D01*
X198135Y180694D01*
X197981Y179921D01*
X198135Y179149D01*
X198572Y178493D01*
X198879Y178288D01*
Y176020D01*
X198474D01*
X197990Y175924D01*
X197579Y175649D01*
X197304Y175239D01*
X197208Y174754D01*
Y172097D01*
X197287Y171697D01*
X197244Y171653D01*
Y168504D01*
X197287Y168461D01*
X197208Y168061D01*
Y165403D01*
X197304Y164919D01*
X197579Y164508D01*
X197990Y164234D01*
X198474Y164137D01*
X199668D01*
Y161082D01*
X199360Y160877D01*
X199266Y160736D01*
X198766D01*
X198672Y160877D01*
X198017Y161314D01*
X197244Y161468D01*
X196881Y161396D01*
X195214Y163062D01*
Y169626D01*
X195522Y169832D01*
X195960Y170487D01*
X196114Y171260D01*
X195960Y172032D01*
X195522Y172688D01*
X194867Y173125D01*
X194095Y173279D01*
X193435Y173148D01*
X192935Y173422D01*
Y181822D01*
X199509Y188396D01*
X200280Y188077D01*
X201260Y187948D01*
X202239Y188077D01*
X203152Y188455D01*
X203936Y189056D01*
X204537Y189840D01*
X204915Y190753D01*
X205044Y191732D01*
X204915Y192712D01*
X204537Y193624D01*
X203956Y194382D01*
X203984Y194552D01*
X204096Y194882D01*
X208423D01*
X208535Y194552D01*
X208564Y194382D01*
X207982Y193624D01*
X207604Y192712D01*
X207475Y191732D01*
X207604Y190753D01*
X207982Y189840D01*
X208584Y189056D01*
X209368Y188455D01*
X210280Y188077D01*
X211260Y187948D01*
X212239Y188077D01*
X213152Y188455D01*
X213936Y189056D01*
X214537Y189840D01*
X214915Y190753D01*
X215044Y191732D01*
X214915Y192712D01*
X214537Y193624D01*
X213956Y194382D01*
X213984Y194552D01*
X214096Y194882D01*
X218424D01*
X218535Y194552D01*
D02*
G37*
G36*
X138535D02*
X138564Y194382D01*
X137982Y193624D01*
X137604Y192712D01*
X137476Y191732D01*
X137604Y190753D01*
X137982Y189840D01*
X138584Y189056D01*
X139368Y188455D01*
X140280Y188077D01*
X141260Y187948D01*
X142239Y188077D01*
X143011Y188396D01*
X157934Y173473D01*
Y168956D01*
X157627Y168751D01*
X157261Y168203D01*
X156709Y168048D01*
X149404Y175353D01*
X148814Y175747D01*
X148118Y175885D01*
X118986D01*
X118750Y176326D01*
X118794Y176392D01*
X118948Y177165D01*
X118794Y177938D01*
X118357Y178593D01*
X117702Y179030D01*
X116929Y179184D01*
X116156Y179030D01*
X115501Y178593D01*
X115296Y178286D01*
X104278D01*
X103849Y178200D01*
X103486Y177957D01*
X102851Y177323D01*
X102391Y177570D01*
X102398Y177608D01*
Y180659D01*
X102302Y181144D01*
X102027Y181555D01*
X101617Y181829D01*
X101132Y181926D01*
X101026D01*
Y187743D01*
X101260Y187948D01*
X102239Y188077D01*
X103152Y188455D01*
X103936Y189056D01*
X104537Y189840D01*
X104915Y190753D01*
X105044Y191732D01*
X104915Y192712D01*
X104537Y193624D01*
X103956Y194382D01*
X103984Y194552D01*
X104096Y194882D01*
X118423D01*
X118535Y194552D01*
X118564Y194382D01*
X117982Y193624D01*
X117604Y192712D01*
X117475Y191732D01*
X117604Y190753D01*
X117982Y189840D01*
X118584Y189056D01*
X119368Y188455D01*
X120280Y188077D01*
X121260Y187948D01*
X122239Y188077D01*
X123152Y188455D01*
X123936Y189056D01*
X124537Y189840D01*
X124915Y190753D01*
X125044Y191732D01*
X124915Y192712D01*
X124537Y193624D01*
X123956Y194382D01*
X123984Y194552D01*
X124096Y194882D01*
X128424D01*
X128535Y194552D01*
X128564Y194382D01*
X127982Y193624D01*
X127604Y192712D01*
X127476Y191732D01*
X127604Y190753D01*
X127982Y189840D01*
X128584Y189056D01*
X129368Y188455D01*
X130280Y188077D01*
X131260Y187948D01*
X132239Y188077D01*
X133152Y188455D01*
X133936Y189056D01*
X134537Y189840D01*
X134915Y190753D01*
X135044Y191732D01*
X134915Y192712D01*
X134537Y193624D01*
X133956Y194382D01*
X133984Y194552D01*
X134096Y194882D01*
X138424D01*
X138535Y194552D01*
D02*
G37*
G36*
X228535D02*
X228564Y194382D01*
X227982Y193624D01*
X227604Y192712D01*
X227476Y191732D01*
X227604Y190753D01*
X227982Y189840D01*
X228584Y189056D01*
X228735Y188940D01*
X228687Y188629D01*
X228585Y188426D01*
X228229Y188355D01*
X227865Y188112D01*
X227134Y187380D01*
X226772Y187452D01*
X225999Y187299D01*
X225344Y186861D01*
X224906Y186206D01*
X224878Y186065D01*
X224400Y185920D01*
X222624Y187695D01*
X222742Y188285D01*
X223152Y188455D01*
X223936Y189056D01*
X224537Y189840D01*
X224915Y190753D01*
X225044Y191732D01*
X224915Y192712D01*
X224537Y193624D01*
X223956Y194382D01*
X223984Y194552D01*
X224096Y194882D01*
X228424D01*
X228535Y194552D01*
D02*
G37*
G36*
X443417D02*
X443446Y194382D01*
X442864Y193624D01*
X442486Y192712D01*
X442357Y191732D01*
X442486Y190753D01*
X442864Y189840D01*
X443466Y189056D01*
X444250Y188455D01*
X445162Y188077D01*
X446142Y187948D01*
X447121Y188077D01*
X448034Y188455D01*
X448364Y188708D01*
X450078Y186995D01*
X449963Y186536D01*
X449902Y186464D01*
X443982D01*
X439767Y190679D01*
X439797Y190753D01*
X439926Y191732D01*
X439797Y192712D01*
X439419Y193624D01*
X438838Y194382D01*
X438866Y194552D01*
X438978Y194882D01*
X443305D01*
X443417Y194552D01*
D02*
G37*
G36*
X463417D02*
X463446Y194382D01*
X462864Y193624D01*
X462486Y192712D01*
X462357Y191732D01*
X462486Y190753D01*
X462806Y189981D01*
X457762Y184938D01*
X457263Y185145D01*
Y188135D01*
X458034Y188455D01*
X458818Y189056D01*
X459419Y189840D01*
X459797Y190753D01*
X459926Y191732D01*
X459797Y192712D01*
X459419Y193624D01*
X458838Y194382D01*
X458866Y194552D01*
X458978Y194882D01*
X463305D01*
X463417Y194552D01*
D02*
G37*
G36*
X198535D02*
X198564Y194382D01*
X197983Y193624D01*
X197604Y192712D01*
X197476Y191732D01*
X197604Y190753D01*
X197924Y189981D01*
X191739Y183797D01*
X191277Y183988D01*
Y187950D01*
X192239Y188077D01*
X193152Y188455D01*
X193936Y189056D01*
X194537Y189840D01*
X194915Y190753D01*
X195044Y191732D01*
X194915Y192712D01*
X194537Y193624D01*
X193956Y194382D01*
X193984Y194552D01*
X194096Y194882D01*
X198424D01*
X198535Y194552D01*
D02*
G37*
G36*
X158535D02*
X158564Y194382D01*
X157983Y193624D01*
X157604Y192712D01*
X157475Y191732D01*
X157604Y190753D01*
X157983Y189840D01*
X158584Y189056D01*
X159368Y188455D01*
X160280Y188077D01*
X161260Y187948D01*
X162239Y188077D01*
X163011Y188396D01*
X163364Y188043D01*
Y182214D01*
X162864Y182027D01*
X154688Y190203D01*
X154915Y190753D01*
X155044Y191732D01*
X154915Y192712D01*
X154537Y193624D01*
X153956Y194382D01*
X153984Y194552D01*
X154096Y194882D01*
X158423D01*
X158535Y194552D01*
D02*
G37*
G36*
X98535D02*
X98564Y194382D01*
X97983Y193624D01*
X97604Y192712D01*
X97475Y191732D01*
X97604Y190753D01*
X97983Y189840D01*
X98580Y189061D01*
Y181926D01*
X98474D01*
X98075Y181846D01*
X98032Y181890D01*
X94882D01*
X94839Y181846D01*
X94439Y181926D01*
X94333D01*
Y189574D01*
X94537Y189840D01*
X94915Y190753D01*
X95044Y191732D01*
X94915Y192712D01*
X94537Y193624D01*
X93956Y194382D01*
X93984Y194552D01*
X94096Y194882D01*
X98423D01*
X98535Y194552D01*
D02*
G37*
G36*
X319746Y179532D02*
Y177618D01*
X319438Y177412D01*
X319001Y176757D01*
X318847Y175984D01*
X319001Y175212D01*
X319438Y174557D01*
X320093Y174119D01*
X320866Y173965D01*
X321639Y174119D01*
X322294Y174557D01*
X322732Y175212D01*
X322885Y175984D01*
X322732Y176757D01*
X322294Y177412D01*
X321986Y177618D01*
Y179995D01*
X321954Y180159D01*
X322414Y180406D01*
X324470Y178350D01*
Y173680D01*
X324163Y173475D01*
X323725Y172820D01*
X323571Y172047D01*
X323725Y171275D01*
X324163Y170619D01*
X324818Y170182D01*
X325590Y170028D01*
X326363Y170182D01*
X327018Y170619D01*
X327193Y170880D01*
X327706Y171013D01*
X328361Y170575D01*
X329133Y170422D01*
X329441Y170483D01*
X329870Y170078D01*
X330024Y169306D01*
X330461Y168651D01*
X330552Y168590D01*
X330400Y168090D01*
X313062D01*
X305176Y175977D01*
X305367Y176439D01*
X312135D01*
X314588Y173985D01*
X314516Y173622D01*
X314670Y172849D01*
X315108Y172194D01*
X315763Y171757D01*
X316535Y171603D01*
X317308Y171757D01*
X317963Y172194D01*
X318401Y172849D01*
X318554Y173622D01*
X318401Y174395D01*
X317963Y175050D01*
X317308Y175487D01*
X316535Y175641D01*
X316172Y175569D01*
X313390Y178351D01*
X313027Y178594D01*
X312598Y178679D01*
X310518D01*
X310327Y179141D01*
X313150Y181964D01*
X313779Y181839D01*
X314552Y181993D01*
X315207Y182431D01*
X315581Y182990D01*
X316129Y183149D01*
X319746Y179532D01*
D02*
G37*
G36*
X362390Y187980D02*
X364385D01*
X364462Y187593D01*
X364856Y187003D01*
X370259Y181600D01*
X370848Y181206D01*
X371544Y181067D01*
X373419D01*
X373700Y180567D01*
X373571Y179921D01*
X373725Y179149D01*
X373772Y179078D01*
Y174925D01*
X373867Y174449D01*
X373519Y174034D01*
X373482Y174016D01*
X373228Y174066D01*
X372456Y173913D01*
X371801Y173475D01*
X371707Y173334D01*
X371207D01*
X371113Y173475D01*
X370458Y173913D01*
X369685Y174066D01*
X369582Y174556D01*
Y177921D01*
X369496Y178349D01*
X369254Y178713D01*
X362135Y185831D01*
X361772Y186074D01*
X361343Y186159D01*
X359901D01*
X359695Y186467D01*
X359040Y186905D01*
X358268Y187058D01*
X357495Y186905D01*
X356840Y186467D01*
X356402Y185812D01*
X356249Y185039D01*
X356402Y184267D01*
X356840Y183612D01*
X357495Y183174D01*
X358268Y183020D01*
X359040Y183174D01*
X359695Y183612D01*
X359901Y183919D01*
X360879D01*
X361209Y183590D01*
X361044Y183047D01*
X360645Y182968D01*
X359990Y182530D01*
X359552Y181875D01*
X359398Y181102D01*
X359552Y180330D01*
X359990Y179675D01*
X360645Y179237D01*
X361417Y179083D01*
X362190Y179237D01*
X362845Y179675D01*
X362903Y179680D01*
X363463Y179120D01*
X363304Y178573D01*
X362745Y178199D01*
X362307Y177544D01*
X362153Y176771D01*
X362225Y176409D01*
X361346Y175530D01*
X353601D01*
X353396Y175837D01*
X352741Y176275D01*
X351968Y176428D01*
X351195Y176275D01*
X350540Y175837D01*
X350102Y175182D01*
X349949Y174409D01*
X350102Y173636D01*
X350540Y172981D01*
X350692Y172880D01*
X350540Y172380D01*
X349665D01*
X349459Y172688D01*
X348804Y173125D01*
X348031Y173279D01*
X347259Y173125D01*
X346604Y172688D01*
X346230Y172128D01*
X345683Y171969D01*
X331124Y186527D01*
X331279Y187079D01*
X331389Y187106D01*
X337397Y181098D01*
X337760Y180855D01*
X338189Y180770D01*
X348760D01*
X348966Y180462D01*
X349621Y180024D01*
X350394Y179871D01*
X351166Y180024D01*
X351821Y180462D01*
X352259Y181117D01*
X352413Y181890D01*
X352259Y182662D01*
X351821Y183317D01*
X351166Y183755D01*
X350394Y183909D01*
X349621Y183755D01*
X348966Y183317D01*
X348760Y183010D01*
X338653D01*
X332656Y189007D01*
X332728Y189370D01*
X332574Y190143D01*
X332136Y190798D01*
X331481Y191235D01*
X330709Y191389D01*
X329936Y191235D01*
X329281Y190798D01*
X328843Y190143D01*
X328739Y189619D01*
X328203Y189448D01*
X323232Y194420D01*
X323423Y194882D01*
X362390D01*
Y187980D01*
D02*
G37*
G36*
X67508Y192599D02*
X52246Y177337D01*
X51852Y176747D01*
X51713Y176051D01*
Y158595D01*
X51852Y157899D01*
X52246Y157309D01*
X53982Y155572D01*
X54572Y155178D01*
X55268Y155040D01*
X61582D01*
X62278Y155178D01*
X62868Y155572D01*
X70300Y163004D01*
X77110D01*
X77180Y162957D01*
X77953Y162804D01*
X81299D01*
X82072Y162957D01*
X82142Y163004D01*
X94882D01*
X94985Y163025D01*
X95231Y162564D01*
X93611Y160943D01*
X82932D01*
X82727Y161250D01*
X82072Y161688D01*
X81299Y161842D01*
X77953D01*
X77180Y161688D01*
X76525Y161250D01*
X76087Y160596D01*
X75934Y159823D01*
X76087Y159050D01*
X76525Y158395D01*
X77180Y157957D01*
X77953Y157804D01*
X81299D01*
X82072Y157957D01*
X82727Y158395D01*
X82932Y158702D01*
X94075D01*
X94504Y158787D01*
X94795Y158982D01*
X95114Y158594D01*
X86065Y149545D01*
X37438D01*
Y151919D01*
X37341Y152404D01*
X37067Y152815D01*
X36656Y153089D01*
X36171Y153186D01*
X33514D01*
X33114Y153106D01*
X33071Y153150D01*
X29921D01*
X29569Y153504D01*
Y155990D01*
X30010Y156173D01*
X30700Y156702D01*
X31228Y157391D01*
X31561Y158194D01*
X31674Y159055D01*
X31561Y159916D01*
X31228Y160719D01*
X30700Y161408D01*
X30010Y161937D01*
X29208Y162269D01*
X28346Y162383D01*
X27485Y162269D01*
X26683Y161937D01*
X25993Y161408D01*
X25465Y160719D01*
X25132Y159916D01*
X25019Y159055D01*
X25132Y158194D01*
X25465Y157391D01*
X25993Y156702D01*
X26683Y156173D01*
X27124Y155990D01*
Y153186D01*
X26821D01*
X26336Y153089D01*
X25925Y152815D01*
X25651Y152404D01*
X25554Y151919D01*
Y151616D01*
X24213D01*
X23745Y151523D01*
X23348Y151258D01*
X23348Y151258D01*
X21772Y149681D01*
X21272Y149729D01*
Y152571D01*
X12783D01*
Y149398D01*
Y146839D01*
Y144280D01*
Y141721D01*
X21272D01*
Y144644D01*
X21935D01*
X23348Y143230D01*
X23348Y143230D01*
X23745Y142965D01*
X24213Y142872D01*
X24545D01*
X24737Y142410D01*
X24189Y141862D01*
X23924Y141466D01*
X23831Y140998D01*
Y134626D01*
X23924Y134158D01*
X24189Y133761D01*
X24953Y132997D01*
X24953Y132997D01*
X25350Y132732D01*
X25817Y132639D01*
X26285Y132732D01*
X26483Y132865D01*
X27092Y132613D01*
X27953Y132499D01*
X28814Y132613D01*
X29617Y132945D01*
X30306Y133474D01*
X30835Y134163D01*
X31167Y134966D01*
X31280Y135827D01*
X31167Y136688D01*
X30835Y137491D01*
X30306Y138180D01*
X29617Y138709D01*
X28814Y139041D01*
X27953Y139154D01*
X27915Y139149D01*
X27083D01*
X26776Y139088D01*
X26276Y139385D01*
Y140492D01*
X27086Y141302D01*
X29478D01*
X29878Y141382D01*
X29921Y141339D01*
X33071D01*
X33114Y141382D01*
X33514Y141302D01*
X36171D01*
X36656Y141399D01*
X37067Y141673D01*
X37341Y142084D01*
X37438Y142569D01*
Y145106D01*
X38062Y145730D01*
X86931D01*
X87359Y145816D01*
X87723Y146058D01*
X94895Y153230D01*
X95442Y153070D01*
X95816Y152509D01*
X96307Y152182D01*
X96452Y151964D01*
X97135Y151281D01*
X81429Y135576D01*
X81144Y135766D01*
X80660Y135863D01*
X77608D01*
X77124Y135766D01*
X76713Y135492D01*
X76438Y135081D01*
X76342Y134597D01*
Y131939D01*
X76421Y131539D01*
X76378Y131496D01*
Y128347D01*
X76421Y128303D01*
X76342Y127903D01*
Y125246D01*
X76438Y124761D01*
X76713Y124351D01*
X77124Y124076D01*
X77608Y123979D01*
X80660D01*
X81144Y124076D01*
X81555Y124351D01*
X81774Y124372D01*
X83388Y122758D01*
X94432Y111714D01*
X94012Y111086D01*
X93843Y110236D01*
X93973Y109583D01*
X93660Y109083D01*
X55051D01*
X54814Y109583D01*
X55472Y110384D01*
X56168Y111686D01*
X56596Y113098D01*
X56741Y114567D01*
X56596Y116036D01*
X56168Y117448D01*
X55472Y118749D01*
X54536Y119890D01*
X53395Y120826D01*
X52094Y121522D01*
X50681Y121951D01*
X49213Y122095D01*
X47744Y121951D01*
X46332Y121522D01*
X45030Y120826D01*
X43889Y119890D01*
X42953Y118749D01*
X42257Y117448D01*
X41829Y116036D01*
X41684Y114567D01*
X41829Y113098D01*
X42257Y111686D01*
X42953Y110384D01*
X43611Y109583D01*
X43374Y109083D01*
X25119D01*
X24509Y109335D01*
X22127Y109907D01*
X19685Y110099D01*
X17243Y109907D01*
X14861Y109335D01*
X14251Y109083D01*
X1969D01*
Y185477D01*
X2459Y185539D01*
X2887Y184127D01*
X3583Y182825D01*
X4519Y181685D01*
X5660Y180748D01*
X6961Y180053D01*
X8374Y179624D01*
X9843Y179480D01*
X11311Y179624D01*
X12723Y180053D01*
X14025Y180748D01*
X15166Y181685D01*
X16102Y182825D01*
X16798Y184127D01*
X17226Y185539D01*
X17371Y187008D01*
X17226Y188477D01*
X16798Y189889D01*
X16102Y191190D01*
X15166Y192331D01*
X14025Y193268D01*
X12723Y193963D01*
X11311Y194392D01*
X11374Y194882D01*
X67508D01*
Y192599D01*
D02*
G37*
G36*
X253417Y192115D02*
X240070Y178768D01*
X239827Y178405D01*
X239793Y178230D01*
X239686Y178160D01*
X239253Y178077D01*
X237734Y179596D01*
Y183800D01*
X238042Y184005D01*
X238480Y184660D01*
X238633Y185433D01*
X238508Y186061D01*
X238798Y186561D01*
X242938D01*
X243367Y186646D01*
X243730Y186889D01*
X249417Y192577D01*
X253225D01*
X253417Y192115D01*
D02*
G37*
G36*
X403417Y194552D02*
X403446Y194382D01*
X402864Y193624D01*
X402486Y192712D01*
X402357Y191732D01*
X402486Y190753D01*
X402864Y189840D01*
X403466Y189056D01*
X404250Y188455D01*
X405162Y188077D01*
X406142Y187948D01*
X407121Y188077D01*
X407696Y188315D01*
X408131Y187982D01*
Y179957D01*
X407923D01*
X407439Y179861D01*
X407028Y179587D01*
X406753Y179176D01*
X406657Y178691D01*
Y175640D01*
X406661Y175618D01*
X406344Y175232D01*
X405861D01*
X405544Y175618D01*
X405548Y175640D01*
Y178691D01*
X405452Y179176D01*
X405177Y179586D01*
X404766Y179861D01*
X404282Y179957D01*
X401624D01*
X401224Y179878D01*
X401181Y179921D01*
X398031D01*
X397988Y179878D01*
X397588Y179957D01*
X397380D01*
Y188184D01*
X398034Y188455D01*
X398818Y189056D01*
X399419Y189840D01*
X399797Y190753D01*
X399926Y191732D01*
X399797Y192712D01*
X399419Y193624D01*
X398838Y194382D01*
X398866Y194552D01*
X398978Y194882D01*
X403305D01*
X403417Y194552D01*
D02*
G37*
G36*
X88535D02*
X88564Y194382D01*
X87982Y193624D01*
X87604Y192712D01*
X87476Y191732D01*
X87604Y190753D01*
X87982Y189840D01*
X88584Y189056D01*
X89368Y188455D01*
X90280Y188077D01*
X91260Y187948D01*
X91512Y187981D01*
X91888Y187651D01*
Y181926D01*
X91782D01*
X91297Y181829D01*
X90886Y181555D01*
X90611Y181144D01*
X90515Y180659D01*
Y180357D01*
X75242D01*
X74774Y180263D01*
X74377Y179998D01*
X65424Y171045D01*
X61407D01*
X61270Y171250D01*
X60615Y171688D01*
X59843Y171842D01*
X56496D01*
X55850Y171713D01*
X55350Y171994D01*
Y172651D01*
X55850Y172932D01*
X56496Y172804D01*
X59843D01*
X60615Y172957D01*
X61270Y173395D01*
X61708Y174050D01*
X61862Y174823D01*
X61708Y175595D01*
X61270Y176251D01*
X60615Y176688D01*
X59843Y176842D01*
X57548D01*
X57356Y177304D01*
X68033Y187980D01*
X75012D01*
Y194882D01*
X88424D01*
X88535Y194552D01*
D02*
G37*
G36*
X303339Y184206D02*
X303330Y184192D01*
X269204D01*
X268775Y184106D01*
X268412Y183863D01*
X263868Y179320D01*
X263625Y178956D01*
X263540Y178527D01*
Y172424D01*
X263040Y172176D01*
X262584Y172480D01*
X261811Y172634D01*
X261569Y172586D01*
X256734Y177421D01*
Y179931D01*
X256940Y180068D01*
X257377Y180723D01*
X257531Y181496D01*
X257377Y182269D01*
X256940Y182924D01*
X256380Y183297D01*
X256221Y183845D01*
X257082Y184706D01*
X303056D01*
X303339Y184206D01*
D02*
G37*
G36*
X148535Y194552D02*
X148564Y194382D01*
X147983Y193624D01*
X147604Y192712D01*
X147476Y191732D01*
X147604Y190753D01*
X147983Y189840D01*
X148584Y189056D01*
X149368Y188455D01*
X150280Y188077D01*
X151260Y187948D01*
X152239Y188077D01*
X153152Y188455D01*
X153218Y188505D01*
X161085Y180639D01*
Y168750D01*
X160585Y168598D01*
X160483Y168751D01*
X160176Y168956D01*
Y173937D01*
X160091Y174366D01*
X159848Y174730D01*
X144596Y189981D01*
X144915Y190753D01*
X145044Y191732D01*
X144915Y192712D01*
X144537Y193624D01*
X143956Y194382D01*
X143984Y194552D01*
X144096Y194882D01*
X148424D01*
X148535Y194552D01*
D02*
G37*
G36*
X541022Y194882D02*
X541163Y194709D01*
X540987Y194133D01*
X540426Y193963D01*
X539124Y193268D01*
X537984Y192331D01*
X537047Y191190D01*
X536352Y189889D01*
X535923Y188477D01*
X535779Y187008D01*
X535923Y185539D01*
X536352Y184127D01*
X537047Y182825D01*
X537984Y181685D01*
X539124Y180748D01*
X540426Y180053D01*
X541838Y179624D01*
X543307Y179480D01*
X544776Y179624D01*
X546188Y180053D01*
X547490Y180748D01*
X548631Y181685D01*
X549567Y182825D01*
X550262Y184127D01*
X550432Y184687D01*
X551008Y184864D01*
X551181Y184723D01*
X551181Y141732D01*
X544500D01*
Y143516D01*
X543937D01*
Y145633D01*
X544045D01*
X544530Y145729D01*
X544941Y146004D01*
X545215Y146415D01*
X545312Y146900D01*
Y149557D01*
X545232Y149957D01*
X545276Y150000D01*
Y153150D01*
X545232Y153193D01*
X545312Y153593D01*
Y156250D01*
X545215Y156735D01*
X544941Y157146D01*
X544530Y157420D01*
X544045Y157516D01*
X540994D01*
X540510Y157420D01*
X540099Y157146D01*
X539824Y156735D01*
X539728Y156250D01*
Y155944D01*
X539490Y155786D01*
X539490Y155786D01*
X536463Y152758D01*
X536221Y152806D01*
X535448Y152653D01*
X534793Y152215D01*
X534355Y151560D01*
X534201Y150787D01*
X534355Y150015D01*
X534793Y149360D01*
X535448Y148922D01*
X536221Y148768D01*
X536993Y148922D01*
X537648Y149360D01*
X538086Y150015D01*
X538240Y150787D01*
X538191Y151030D01*
X539302Y152140D01*
X539764Y151949D01*
Y150000D01*
X539807Y149957D01*
X539728Y149557D01*
Y146900D01*
X539824Y146415D01*
X540099Y146004D01*
X540510Y145729D01*
X540994Y145633D01*
X541103D01*
Y143516D01*
X534154D01*
X528581Y149089D01*
Y152903D01*
X528477Y153427D01*
X528181Y153870D01*
X527738Y154166D01*
X527255Y154262D01*
X526876Y154829D01*
X524908Y156798D01*
X524318Y157192D01*
X523622Y157330D01*
X503150D01*
X502454Y157192D01*
X501864Y156798D01*
X501181Y156115D01*
X499317Y157979D01*
X498727Y158373D01*
X498032Y158511D01*
X495863D01*
X495376Y158836D01*
X494488Y159013D01*
X493600Y158836D01*
X492848Y158334D01*
X492345Y157581D01*
X492173Y156719D01*
X491990Y156598D01*
X491728Y156458D01*
X490628Y157557D01*
X490232Y157822D01*
X490204Y157828D01*
X486221Y161811D01*
Y168885D01*
X486721Y169111D01*
X487301Y168723D01*
X488189Y168546D01*
X489077Y168723D01*
X489830Y169226D01*
X490333Y169978D01*
X490509Y170866D01*
X490333Y171754D01*
X489830Y172507D01*
X489077Y173010D01*
X488503Y173124D01*
X486221Y175406D01*
Y177165D01*
X494095Y185039D01*
Y194882D01*
X541022Y194882D01*
D02*
G37*
G36*
X346329Y168155D02*
X346278Y167887D01*
X346144Y167655D01*
X339048D01*
X338194Y168509D01*
X337831Y168751D01*
X337402Y168836D01*
X337066D01*
X336861Y169144D01*
X336553Y169350D01*
Y174903D01*
X336553Y174903D01*
X336468Y175331D01*
X336225Y175695D01*
X336225Y175695D01*
X318407Y193512D01*
X318599Y193974D01*
X320510D01*
X346329Y168155D01*
D02*
G37*
G36*
X269400Y181607D02*
X269564Y181065D01*
X268893Y180394D01*
X268650Y180031D01*
X268565Y179602D01*
Y178011D01*
X268257Y177806D01*
X267820Y177151D01*
X267666Y176378D01*
X267820Y175605D01*
X268257Y174950D01*
X268912Y174513D01*
X269685Y174359D01*
X270458Y174513D01*
X271113Y174950D01*
X271550Y175605D01*
X271685Y176283D01*
X271879Y176546D01*
X272142Y176740D01*
X272819Y176874D01*
X273474Y177312D01*
X273680Y177620D01*
X286868D01*
X287351Y177559D01*
X287502Y176799D01*
X287517Y176709D01*
X287228Y176299D01*
X286990D01*
X286562Y176214D01*
X286198Y175971D01*
X282646Y172419D01*
X282283Y172492D01*
X281511Y172338D01*
X280856Y171900D01*
X280418Y171245D01*
X280264Y170472D01*
X280418Y169700D01*
X280856Y169045D01*
X281164Y168839D01*
Y167728D01*
X279024D01*
Y163374D01*
X283968D01*
Y167728D01*
X283403D01*
Y168839D01*
X283711Y169045D01*
X283951Y169404D01*
X284553D01*
X284793Y169045D01*
X284998Y168907D01*
Y167728D01*
X284535D01*
Y163374D01*
X289480D01*
Y167728D01*
X287443D01*
Y168907D01*
X287648Y169045D01*
X287888Y169404D01*
X288490D01*
X288730Y169045D01*
X289385Y168607D01*
X290158Y168453D01*
X290361Y168494D01*
X290663Y168169D01*
X290480Y167728D01*
X290047D01*
Y163374D01*
X294992D01*
Y167728D01*
X293742D01*
Y168110D01*
X293649Y168578D01*
X293384Y168974D01*
X293384Y168974D01*
X292128Y170230D01*
X292177Y170472D01*
X292130Y170704D01*
X292663Y171236D01*
X296655D01*
X296931Y170736D01*
X296800Y170079D01*
X296954Y169306D01*
X297391Y168651D01*
X297597Y168514D01*
Y167728D01*
X296346D01*
Y163374D01*
X301291D01*
Y167728D01*
X300041D01*
Y168514D01*
X300247Y168651D01*
X300684Y169306D01*
X300838Y170079D01*
X300707Y170736D01*
X300983Y171236D01*
X301648D01*
X309437Y163447D01*
Y159437D01*
X316547D01*
Y162688D01*
X317009Y162879D01*
X318051Y161837D01*
Y160432D01*
X318144Y159964D01*
X318409Y159567D01*
X319803Y158173D01*
X319804Y158173D01*
X320200Y157908D01*
X320668Y157815D01*
X320668Y157815D01*
X322073D01*
X324398Y155490D01*
Y150776D01*
X331508D01*
Y156311D01*
X327034D01*
X323444Y159902D01*
X323152Y160096D01*
X323519Y160645D01*
X323673Y161417D01*
X323519Y162190D01*
X323409Y162355D01*
X325206Y164152D01*
X330700D01*
X332919Y161932D01*
Y161138D01*
X333005Y160710D01*
X333247Y160346D01*
X334756Y158838D01*
X334756Y158838D01*
X335119Y158595D01*
X335548Y158510D01*
X348990D01*
X349418Y158595D01*
X349782Y158838D01*
X355900Y164956D01*
X358288Y167344D01*
X358651Y167272D01*
X359424Y167426D01*
X360079Y167864D01*
X360517Y168519D01*
X360670Y169291D01*
X360517Y170064D01*
X360079Y170719D01*
X359424Y171157D01*
X358651Y171310D01*
X357878Y171157D01*
X357223Y170719D01*
X356786Y170064D01*
X356632Y169291D01*
X356704Y168928D01*
X355543Y167767D01*
X354378Y168932D01*
X354442Y169576D01*
X354676Y169732D01*
X355114Y170387D01*
X355268Y171160D01*
X355114Y171933D01*
X354676Y172588D01*
X354376Y172788D01*
X354527Y173288D01*
X361810D01*
X362239Y173374D01*
X362603Y173617D01*
X363810Y174824D01*
X364173Y174752D01*
X364501Y174818D01*
X364888Y174500D01*
Y167336D01*
X364973Y166907D01*
X365216Y166544D01*
X380189Y151570D01*
X380553Y151328D01*
X380981Y151242D01*
X401123D01*
X401328Y150935D01*
X401596Y150755D01*
X401445Y150255D01*
X343319D01*
X342623Y150117D01*
X342033Y149723D01*
X339763Y147453D01*
X334831D01*
Y145519D01*
X330425D01*
Y149126D01*
X323118D01*
Y142606D01*
X327460D01*
X327651Y142415D01*
X328241Y142021D01*
X328937Y141882D01*
X334831D01*
Y139949D01*
X342335D01*
Y144881D01*
X344072Y146618D01*
X345462D01*
X345709Y146118D01*
X345305Y145593D01*
X344927Y144680D01*
X344798Y143701D01*
X344927Y142721D01*
X345305Y141808D01*
X345907Y141025D01*
X346691Y140423D01*
X347603Y140045D01*
X348583Y139916D01*
X349562Y140045D01*
X350475Y140423D01*
X351259Y141025D01*
X351860Y141808D01*
X352238Y142721D01*
X352367Y143701D01*
X352238Y144680D01*
X351860Y145593D01*
X351457Y146118D01*
X351703Y146618D01*
X365462D01*
X365709Y146118D01*
X365305Y145593D01*
X364927Y144680D01*
X364798Y143701D01*
X364927Y142721D01*
X365305Y141808D01*
X365907Y141025D01*
X366691Y140423D01*
X367603Y140045D01*
X368583Y139916D01*
X369562Y140045D01*
X370475Y140423D01*
X371259Y141025D01*
X371860Y141808D01*
X372238Y142721D01*
X372367Y143701D01*
X372238Y144680D01*
X371860Y145593D01*
X371457Y146118D01*
X371703Y146618D01*
X375462D01*
X375709Y146118D01*
X375305Y145593D01*
X374927Y144680D01*
X374798Y143701D01*
X374927Y142721D01*
X375305Y141808D01*
X375907Y141025D01*
X376691Y140423D01*
X377603Y140045D01*
X378583Y139916D01*
X379562Y140045D01*
X380475Y140423D01*
X381259Y141025D01*
X381860Y141808D01*
X382238Y142721D01*
X382367Y143701D01*
X382238Y144680D01*
X381860Y145593D01*
X381457Y146118D01*
X381703Y146618D01*
X400565D01*
X400807Y146118D01*
X400497Y145655D01*
X400343Y144882D01*
X400497Y144109D01*
X400935Y143454D01*
X401589Y143017D01*
X402362Y142863D01*
X403135Y143017D01*
X403205Y143063D01*
X409682D01*
X410377Y143202D01*
X410967Y143596D01*
X424120Y156749D01*
X424515Y157339D01*
X424653Y158035D01*
Y159787D01*
X424700Y159857D01*
X424854Y160630D01*
X424700Y161403D01*
X424653Y161473D01*
Y165230D01*
X427289Y167867D01*
X459548D01*
X460244Y168005D01*
X460834Y168399D01*
X468963Y176528D01*
X477987D01*
X479491Y175024D01*
Y173277D01*
X479529Y173087D01*
X479054Y172915D01*
X478346Y173622D01*
X474409D01*
X473697Y172910D01*
X473425Y172866D01*
X473153Y172910D01*
X472441Y173622D01*
X468504D01*
X467717Y172835D01*
Y169685D01*
X467760Y169642D01*
X467680Y169242D01*
Y166585D01*
X467777Y166100D01*
X468051Y165689D01*
X468462Y165414D01*
X468947Y165318D01*
X469250D01*
Y163780D01*
X469343Y163312D01*
X469608Y162915D01*
X469683Y162841D01*
X469634Y162598D01*
X469788Y161826D01*
X470226Y161171D01*
X470881Y160733D01*
X471654Y160579D01*
X472426Y160733D01*
X473081Y161171D01*
X473519Y161826D01*
X473673Y162598D01*
X473519Y163371D01*
X473081Y164026D01*
X472426Y164464D01*
X471695Y164609D01*
Y165318D01*
X471998D01*
X472483Y165414D01*
X472893Y165689D01*
X473168Y166100D01*
X473170Y166111D01*
X473680D01*
X473682Y166100D01*
X473957Y165689D01*
X474368Y165414D01*
X474852Y165318D01*
X475244D01*
X475447Y165014D01*
X477315Y163146D01*
X477269Y163076D01*
X477115Y162303D01*
X477269Y161530D01*
X477706Y160875D01*
X478361Y160438D01*
X479134Y160284D01*
X479907Y160438D01*
X480562Y160875D01*
X480999Y161530D01*
X481153Y162303D01*
X480999Y163076D01*
X480562Y163731D01*
X480134Y164017D01*
X480065Y164120D01*
X478772Y165413D01*
X478799Y165689D01*
X479074Y166100D01*
X479076Y166111D01*
X479586D01*
X479588Y166100D01*
X479862Y165689D01*
X480273Y165414D01*
X480758Y165318D01*
X483809D01*
X484294Y165414D01*
X484704Y165689D01*
X484906Y165990D01*
X485406Y165877D01*
Y161811D01*
X485468Y161499D01*
X485644Y161235D01*
X487818Y159061D01*
X487572Y158600D01*
X487008Y158712D01*
X486235Y158558D01*
X485580Y158121D01*
X485143Y157466D01*
X484989Y156693D01*
X485143Y155920D01*
X485580Y155265D01*
X486235Y154827D01*
X487008Y154674D01*
X487781Y154827D01*
X488436Y155265D01*
X488573Y155471D01*
X489257D01*
X490673Y154055D01*
X490553Y153722D01*
X490442Y153579D01*
X487451D01*
X486966Y153483D01*
X486555Y153208D01*
X486281Y152798D01*
X486184Y152313D01*
Y152206D01*
X485555D01*
X485286Y152609D01*
X484631Y153047D01*
X483858Y153200D01*
X483086Y153047D01*
X482431Y152609D01*
X482162Y152206D01*
X481114D01*
Y154047D01*
X476760D01*
Y149102D01*
X481114D01*
Y149762D01*
X482425D01*
X482431Y149753D01*
X483086Y149316D01*
X483858Y149162D01*
X484631Y149316D01*
X485286Y149753D01*
X485292Y149762D01*
X486184D01*
Y149655D01*
X486264Y149256D01*
X486221Y149213D01*
Y146727D01*
X485720Y146520D01*
X485707Y146534D01*
X485310Y146799D01*
X484842Y146892D01*
X481114D01*
Y148142D01*
X476760D01*
Y143197D01*
X481114D01*
Y144447D01*
X484336D01*
X485356Y143427D01*
X485752Y143162D01*
X486184Y143076D01*
Y142963D01*
X486281Y142478D01*
X486555Y142067D01*
X486966Y141793D01*
X487451Y141696D01*
X490502D01*
X490987Y141793D01*
X491397Y142067D01*
X491672Y142478D01*
X491768Y142963D01*
Y145620D01*
X491689Y146020D01*
X491732Y146063D01*
Y149213D01*
X491689Y149256D01*
X491768Y149655D01*
Y152004D01*
X492268Y152247D01*
X492484Y152077D01*
Y149656D01*
X492563Y149256D01*
X492520Y149213D01*
Y146063D01*
X493307Y145276D01*
X497244D01*
X498032Y146063D01*
Y149213D01*
X497988Y149256D01*
X498068Y149656D01*
Y152313D01*
X497971Y152798D01*
X497697Y153209D01*
X497286Y153483D01*
X496801Y153580D01*
X494606D01*
X492692Y155493D01*
X492689Y155498D01*
X492625Y156023D01*
X492626Y156042D01*
X492738Y156154D01*
X492849Y156264D01*
X492850Y156265D01*
X492851Y156266D01*
X492911Y156412D01*
X492972Y156557D01*
X492972Y156559D01*
X492973Y156560D01*
X493112Y157263D01*
X493435Y157746D01*
X493918Y158069D01*
X494488Y158182D01*
X495058Y158069D01*
X495410Y157834D01*
X495484Y157803D01*
X495551Y157758D01*
X495630Y157743D01*
X495704Y157712D01*
X495784D01*
X495863Y157696D01*
X497951D01*
X498409Y157605D01*
X498798Y157346D01*
X500605Y155539D01*
X500869Y155362D01*
X501181Y155300D01*
X501493Y155362D01*
X501757Y155539D01*
X502383Y156165D01*
X502772Y156424D01*
X503230Y156515D01*
X523542D01*
X524000Y156424D01*
X524388Y156165D01*
X526243Y154310D01*
X526578Y153810D01*
X526802Y153585D01*
X527096Y153463D01*
X527420Y153399D01*
X527594Y153282D01*
X527710Y153109D01*
X527767Y152823D01*
Y149089D01*
X527829Y148777D01*
X528005Y148512D01*
X533578Y142939D01*
X533842Y142763D01*
X534154Y142701D01*
X541103D01*
X541414Y142763D01*
X541679Y142939D01*
X541855Y143204D01*
X541918Y143516D01*
Y145633D01*
X541855Y145945D01*
X541679Y146209D01*
X541414Y146386D01*
X541103Y146448D01*
X541074D01*
X540827Y146497D01*
X540686Y146592D01*
X540592Y146733D01*
X540543Y146980D01*
Y148716D01*
X541041Y149213D01*
X544488D01*
X544497Y149209D01*
Y146980D01*
X544448Y146733D01*
X544353Y146592D01*
X544212Y146497D01*
X543965Y146448D01*
X543937D01*
X543625Y146386D01*
X543361Y146209D01*
X543184Y145945D01*
X543122Y145633D01*
Y143516D01*
X543184Y143204D01*
X543361Y142939D01*
X543625Y142763D01*
X543685Y142751D01*
Y141732D01*
X543747Y141420D01*
X543924Y141156D01*
X544188Y140979D01*
X544500Y140917D01*
X551181D01*
Y109083D01*
X546387D01*
X546069Y109469D01*
X546075Y109496D01*
Y109576D01*
X546091Y109655D01*
Y110818D01*
X546075Y110897D01*
Y110977D01*
X545848Y112118D01*
X545817Y112192D01*
X545801Y112271D01*
X545356Y113345D01*
X545312Y113412D01*
X545281Y113486D01*
X544635Y114453D01*
X544578Y114510D01*
X544533Y114577D01*
X543711Y115400D01*
X543644Y115444D01*
X543587Y115501D01*
X542620Y116147D01*
X542546Y116178D01*
X542479Y116223D01*
X541404Y116668D01*
X541326Y116683D01*
X541252Y116714D01*
X540111Y116941D01*
X540030D01*
X539952Y116957D01*
X538788D01*
X538710Y116941D01*
X538629D01*
X537489Y116714D01*
X537414Y116683D01*
X537336Y116668D01*
X536261Y116223D01*
X536194Y116178D01*
X536120Y116147D01*
X535153Y115501D01*
X535096Y115444D01*
X535029Y115400D01*
X534207Y114577D01*
X534162Y114510D01*
X534105Y114453D01*
X533525Y113584D01*
X533036Y113729D01*
X533119Y114567D01*
X532974Y116036D01*
X532546Y117448D01*
X531850Y118749D01*
X530914Y119890D01*
X529897Y120725D01*
X530051Y121225D01*
X537488D01*
Y119181D01*
X544008D01*
Y126488D01*
X537488D01*
Y124862D01*
X522080D01*
X521384Y124723D01*
X520794Y124329D01*
X514880Y118415D01*
X514485Y117825D01*
X514347Y117129D01*
Y112608D01*
X512746Y111007D01*
X484871D01*
X479423Y116456D01*
X479309Y117030D01*
X478806Y117782D01*
X478053Y118285D01*
X477165Y118462D01*
X476277Y118285D01*
X475525Y117782D01*
X475022Y117030D01*
X474908Y116456D01*
X471294Y112842D01*
X465941D01*
X465455Y113167D01*
X464567Y113344D01*
X463679Y113167D01*
X463192Y112842D01*
X444601D01*
X444449Y113342D01*
X444735Y113533D01*
X445173Y114188D01*
X445326Y114961D01*
X445756Y115365D01*
X446063Y115304D01*
X446836Y115457D01*
X447491Y115895D01*
X447928Y116550D01*
X448082Y117323D01*
X447928Y118096D01*
X447491Y118751D01*
X446836Y119188D01*
X446063Y119342D01*
X445932Y119316D01*
X441080Y124167D01*
Y125087D01*
X441744D01*
Y129675D01*
X442902D01*
Y125087D01*
X447256D01*
Y128057D01*
X447723Y128261D01*
X448020Y128022D01*
Y125087D01*
X452374D01*
Y130032D01*
X449783D01*
X445419Y134396D01*
X444992Y134681D01*
X444488Y134781D01*
X442447D01*
X442373Y134892D01*
X441718Y135330D01*
X440945Y135484D01*
X440172Y135330D01*
X439517Y134892D01*
X439502Y134870D01*
X439071Y135023D01*
X439023Y135053D01*
X438872Y135812D01*
X438435Y136467D01*
X437780Y136905D01*
X437007Y137058D01*
X436234Y136905D01*
X435579Y136467D01*
X435557Y136434D01*
X435027Y136540D01*
X434936Y136993D01*
X434499Y137648D01*
X433844Y138086D01*
X433071Y138240D01*
X432298Y138086D01*
X431643Y137648D01*
X431206Y136993D01*
X431052Y136221D01*
X431206Y135448D01*
X431643Y134793D01*
X432053Y134519D01*
X432140Y134389D01*
X432254Y134274D01*
X432109Y133796D01*
X431904Y133755D01*
X431249Y133317D01*
X430811Y132662D01*
X430657Y131889D01*
X430811Y131117D01*
X431249Y130462D01*
X431904Y130024D01*
X432272Y129951D01*
Y125087D01*
X433226D01*
Y123819D01*
X433320Y123351D01*
X433584Y122955D01*
X441110Y115429D01*
X441129Y115245D01*
X441109Y115179D01*
X440541Y115040D01*
X428984Y126597D01*
Y127153D01*
X429638D01*
Y131508D01*
X426653D01*
X425734Y132427D01*
X425307Y132712D01*
X424803Y132813D01*
X423904D01*
X423688Y133137D01*
X422935Y133640D01*
X422047Y133816D01*
X421159Y133640D01*
X420407Y133137D01*
X419904Y132384D01*
X419727Y131496D01*
X419904Y130608D01*
X420407Y129855D01*
X421159Y129352D01*
X422047Y129176D01*
X422935Y129352D01*
X423688Y129855D01*
X423814Y130044D01*
X424332Y130080D01*
X424693Y129733D01*
Y127153D01*
X425347D01*
Y126357D01*
X424847Y126150D01*
X424711Y126286D01*
X424121Y126680D01*
X423425Y126818D01*
X416646D01*
Y127177D01*
X411701D01*
Y127177D01*
X411201Y127064D01*
X411089Y127231D01*
X410368Y127713D01*
X410363Y127750D01*
X410636Y128213D01*
X411701D01*
Y127941D01*
X416646D01*
Y132047D01*
X428032Y143433D01*
X433641D01*
X434266Y143016D01*
X435039Y142862D01*
X435811Y143016D01*
X436466Y143454D01*
X436904Y144109D01*
X437058Y144882D01*
X436904Y145654D01*
X436855Y145727D01*
X437085Y146283D01*
X437370Y146340D01*
X437960Y146734D01*
X440481Y149254D01*
X440945Y149162D01*
X441718Y149316D01*
X442373Y149753D01*
X442810Y150408D01*
X442964Y151181D01*
X442810Y151954D01*
X442373Y152609D01*
X441718Y153047D01*
X440945Y153200D01*
X440172Y153047D01*
X440102Y152999D01*
X439836D01*
X439140Y152861D01*
X438550Y152467D01*
X437796Y151713D01*
X437318Y151858D01*
X437298Y151954D01*
X436861Y152609D01*
X436206Y153047D01*
X435433Y153200D01*
X434660Y153047D01*
X434428Y152891D01*
X433181D01*
Y154342D01*
X430481D01*
X430277Y154810D01*
X430516Y155106D01*
X433181D01*
Y159461D01*
X431346D01*
Y160913D01*
X431901D01*
Y165858D01*
X427547D01*
Y160913D01*
X427709D01*
Y157492D01*
X424698Y154481D01*
X424304Y153891D01*
X424166Y153196D01*
Y152772D01*
X423934Y152424D01*
X423904Y152277D01*
X409012Y137385D01*
X405875D01*
X405558Y137772D01*
X405562Y137795D01*
X405409Y138568D01*
X404971Y139223D01*
X404316Y139661D01*
X403543Y139814D01*
X402771Y139661D01*
X402116Y139223D01*
X401678Y138568D01*
X401524Y137795D01*
X401529Y137772D01*
X401212Y137385D01*
X400523D01*
X400306Y137885D01*
X400444Y138583D01*
X400291Y139355D01*
X399853Y140010D01*
X399198Y140448D01*
X398425Y140602D01*
X397653Y140448D01*
X397582Y140401D01*
X393884D01*
X393188Y140263D01*
X392598Y139868D01*
X390745Y138015D01*
X365724D01*
X365029Y137877D01*
X364439Y137483D01*
X356542Y129586D01*
X336405D01*
X335710Y129448D01*
X335120Y129053D01*
X334344Y128278D01*
X333950Y127688D01*
X333811Y126992D01*
Y126622D01*
X332295D01*
Y127276D01*
X327941D01*
Y122331D01*
X332295D01*
Y122985D01*
X333628D01*
Y122343D01*
X333713Y121915D01*
X333955Y121553D01*
X334317Y121312D01*
X334373Y121300D01*
X334538Y120758D01*
X333978Y120198D01*
X333436Y120363D01*
X333430Y120391D01*
X333253Y120655D01*
X332989Y120832D01*
X332677Y120894D01*
X324803D01*
X324491Y120832D01*
X324227Y120655D01*
X324050Y120391D01*
X323988Y120079D01*
Y117240D01*
X321866D01*
X321715Y117740D01*
X321900Y117864D01*
X322338Y118519D01*
X322492Y119291D01*
X322338Y120064D01*
X321900Y120719D01*
X321245Y121157D01*
X320472Y121310D01*
X319700Y121157D01*
X319045Y120719D01*
X318607Y120064D01*
X318453Y119291D01*
X318511Y119004D01*
X318173Y118624D01*
X313046D01*
X312897Y119124D01*
X313282Y119700D01*
X313436Y120472D01*
X313282Y121245D01*
X312844Y121900D01*
X312537Y122105D01*
Y122720D01*
X312930Y122930D01*
X313037Y122931D01*
X313779Y122784D01*
X314552Y122938D01*
X315207Y123375D01*
X315411Y123682D01*
X320151D01*
X320580Y123767D01*
X320943Y124010D01*
X328268Y131334D01*
X328510Y131698D01*
X328596Y132126D01*
Y134015D01*
X328596Y134015D01*
X328510Y134443D01*
X328268Y134807D01*
X326932Y136142D01*
X326569Y136385D01*
X326140Y136470D01*
X320912D01*
X320851Y136511D01*
X320078Y136664D01*
X319305Y136511D01*
X318650Y136073D01*
X318213Y135418D01*
X318059Y134645D01*
X318213Y133873D01*
X318589Y133309D01*
X318201Y132990D01*
X316908Y134283D01*
X316980Y134646D01*
X316826Y135418D01*
X316388Y136073D01*
X315733Y136511D01*
X314961Y136665D01*
X314188Y136511D01*
X313533Y136073D01*
X313095Y135418D01*
X312942Y134646D01*
X313095Y133873D01*
X313322Y133533D01*
X312934Y133215D01*
X312367Y133781D01*
X312003Y134024D01*
X311574Y134110D01*
X310075D01*
X309868Y134610D01*
X313242Y137984D01*
X318907D01*
X319044Y137778D01*
X319699Y137341D01*
X320472Y137187D01*
X321245Y137341D01*
X321900Y137778D01*
X322337Y138433D01*
X322491Y139206D01*
X322337Y139979D01*
X321900Y140634D01*
X321245Y141071D01*
X321143Y141092D01*
X320815Y141615D01*
X320916Y142126D01*
X320762Y142898D01*
X320325Y143553D01*
X319670Y143991D01*
X318897Y144145D01*
X318124Y143991D01*
X317469Y143553D01*
X317332Y143348D01*
X313394D01*
X312926Y143255D01*
X312530Y142990D01*
X312530Y142990D01*
X297712Y128172D01*
X297250Y128363D01*
Y129634D01*
X297259Y129648D01*
X297353Y130116D01*
Y138593D01*
X297788Y139245D01*
X297908Y139845D01*
X297976Y140046D01*
X298379Y140384D01*
X298842Y140476D01*
X299497Y140913D01*
X299935Y141569D01*
X300027Y142032D01*
X300365Y142435D01*
X300566Y142503D01*
X301166Y142623D01*
X301821Y143061D01*
X302259Y143716D01*
X302413Y144488D01*
X302259Y145261D01*
X301955Y145716D01*
X302315Y146077D01*
X302771Y145772D01*
X303543Y145619D01*
X304316Y145772D01*
X304971Y146210D01*
X305409Y146865D01*
X305562Y147638D01*
X305409Y148410D01*
X305140Y148813D01*
X305109Y149230D01*
X305280Y149434D01*
X305758Y149753D01*
X306195Y150408D01*
X306349Y151181D01*
X306195Y151953D01*
X305758Y152609D01*
X305714Y152638D01*
X305866Y153138D01*
X306803D01*
Y157492D01*
X301858D01*
Y154841D01*
X300582Y153565D01*
X295358D01*
X294930Y153480D01*
X294566Y153237D01*
X294566Y153237D01*
X293310Y151980D01*
X291729D01*
X290638Y153071D01*
X290275Y153314D01*
X289846Y153399D01*
X284169D01*
X283740Y153314D01*
X283377Y153071D01*
X282286Y151980D01*
X279024D01*
Y151616D01*
X278337D01*
X278199Y151821D01*
X277544Y152259D01*
X276772Y152413D01*
X275999Y152259D01*
X275344Y151821D01*
X275020Y151336D01*
X274520Y151488D01*
Y155524D01*
X273665D01*
Y156189D01*
X274028D01*
Y158913D01*
X274128Y159014D01*
X275207D01*
X275344Y158809D01*
X275999Y158371D01*
X276772Y158217D01*
X277544Y158371D01*
X278199Y158809D01*
X278637Y159464D01*
X278791Y160236D01*
X278637Y161009D01*
X278199Y161664D01*
X277544Y162102D01*
X277421Y162126D01*
X277117Y162696D01*
X277216Y163193D01*
X277062Y163966D01*
X276625Y164621D01*
X275970Y165058D01*
X275197Y165212D01*
X274424Y165058D01*
X273769Y164621D01*
X273632Y164415D01*
X272294D01*
X272145Y164515D01*
X271677Y164608D01*
X271480Y164569D01*
X271284Y164608D01*
X270816Y164515D01*
X270419Y164250D01*
X267303Y161134D01*
X264555D01*
Y156189D01*
X268909D01*
Y159234D01*
X269206Y159473D01*
X269673Y159269D01*
Y156189D01*
X270429D01*
Y155524D01*
X269575D01*
Y155161D01*
X269008D01*
Y155524D01*
X264063D01*
Y155161D01*
X261220D01*
X260601Y155038D01*
X260491Y154964D01*
X256241D01*
X256131Y155038D01*
X255512Y155161D01*
X250197D01*
X249578Y155038D01*
X249053Y154687D01*
X248708Y154342D01*
X247921D01*
Y153556D01*
X245990Y151624D01*
X245639Y151100D01*
X245516Y150480D01*
Y142639D01*
X245276Y142177D01*
X244503Y142023D01*
X244255Y141857D01*
X243755Y142124D01*
Y152401D01*
X244080Y152465D01*
X244735Y152903D01*
X245173Y153558D01*
X245326Y154331D01*
X245173Y155103D01*
X244735Y155758D01*
X244176Y156132D01*
X244016Y156680D01*
X245792Y158456D01*
X246210Y158415D01*
X246865Y157977D01*
X247638Y157823D01*
X248411Y157977D01*
X249065Y158415D01*
X249503Y159070D01*
X249657Y159843D01*
X249526Y160502D01*
X249800Y161002D01*
X250784D01*
X250935Y160777D01*
X251589Y160339D01*
X252362Y160186D01*
X253135Y160339D01*
X253790Y160777D01*
X254228Y161432D01*
X254381Y162205D01*
X254322Y162505D01*
X254684Y163047D01*
X254947Y163095D01*
X255067Y162992D01*
X255221Y162220D01*
X255659Y161564D01*
X256314Y161127D01*
X257087Y160973D01*
X257859Y161127D01*
X258514Y161564D01*
X258952Y162220D01*
X259106Y162992D01*
X258952Y163765D01*
X258514Y164420D01*
X257859Y164857D01*
X257087Y165011D01*
X256724Y164939D01*
X256386Y165276D01*
X256023Y165519D01*
X255594Y165604D01*
X247081D01*
X246890Y166066D01*
X247245Y166421D01*
X247487Y166784D01*
X247573Y167213D01*
Y175197D01*
X253163Y180787D01*
X253711Y180628D01*
X254084Y180068D01*
X254289Y179931D01*
Y176914D01*
X254382Y176446D01*
X254647Y176050D01*
X259840Y170857D01*
X259792Y170615D01*
X259946Y169842D01*
X260383Y169187D01*
X261038Y168749D01*
X261811Y168596D01*
X262584Y168749D01*
X263239Y169187D01*
X263370Y169384D01*
X264039Y169484D01*
X264137Y169404D01*
Y168553D01*
X264233Y168068D01*
X264508Y167658D01*
X264919Y167383D01*
X265404Y167287D01*
X268061D01*
X268461Y167366D01*
X268504Y167323D01*
X271654D01*
X272441Y168110D01*
Y172047D01*
X271654Y172835D01*
X268504D01*
X268460Y172791D01*
X268061Y172871D01*
X265781D01*
Y178063D01*
X269338Y181620D01*
X269400Y181607D01*
D02*
G37*
G36*
X76152Y173953D02*
X76525Y173395D01*
X77180Y172957D01*
X77953Y172804D01*
X81299D01*
X82072Y172957D01*
X82654Y173346D01*
X100181D01*
X100372Y172884D01*
X94129Y166641D01*
X82142D01*
X82072Y166688D01*
X81299Y166842D01*
X77953D01*
X77180Y166688D01*
X77110Y166641D01*
X69547D01*
X68851Y166503D01*
X68404Y166204D01*
X68085Y166593D01*
X75604Y174111D01*
X76152Y173953D01*
D02*
G37*
G36*
X337792Y165743D02*
X338155Y165500D01*
X338584Y165415D01*
X338584Y165415D01*
X350334D01*
X350540Y165107D01*
X351195Y164670D01*
X351648Y164579D01*
X351813Y164037D01*
X348526Y160750D01*
X338909D01*
X338673Y161191D01*
X338758Y161317D01*
X338934Y162205D01*
X338758Y163093D01*
X338255Y163845D01*
X337502Y164348D01*
X336614Y164525D01*
X336000Y164403D01*
X335161Y165242D01*
X335407Y165703D01*
X335433Y165697D01*
X336206Y165851D01*
X336861Y166289D01*
X337212Y166323D01*
X337792Y165743D01*
D02*
G37*
G36*
X225344Y166289D02*
X225999Y165851D01*
X226772Y165697D01*
X227224Y165787D01*
X227264Y165761D01*
X227693Y165675D01*
X229186D01*
X229377Y165213D01*
X227922Y163758D01*
X227559Y163830D01*
X226786Y163676D01*
X226131Y163238D01*
X225693Y162583D01*
X225592Y162076D01*
X225551Y162058D01*
X225122Y162144D01*
X220531D01*
X220325Y162451D01*
X219766Y162825D01*
X219607Y163373D01*
X220953Y164719D01*
X221196Y165083D01*
X221281Y165511D01*
Y165771D01*
X221781Y166038D01*
X222061Y165851D01*
X222834Y165697D01*
X223607Y165851D01*
X224262Y166288D01*
X224502Y166648D01*
X225104D01*
X225344Y166289D01*
D02*
G37*
G36*
X423417Y194552D02*
X423446Y194382D01*
X422864Y193624D01*
X422486Y192712D01*
X422357Y191732D01*
X422486Y190753D01*
X422517Y190679D01*
X421733Y189895D01*
X421339Y189305D01*
X421200Y188609D01*
Y170835D01*
X418584Y168219D01*
X418190Y167629D01*
X418052Y166933D01*
Y162240D01*
X414486D01*
X413629Y163096D01*
Y171595D01*
X415736D01*
X416432Y171733D01*
X417022Y172128D01*
X417231Y172336D01*
X417625Y172926D01*
X417763Y173622D01*
Y174473D01*
X418169Y174744D01*
X418443Y175155D01*
X418540Y175640D01*
Y178691D01*
X418443Y179176D01*
X418169Y179587D01*
X417758Y179861D01*
X417274Y179957D01*
X414616D01*
X414216Y179878D01*
X414173Y179921D01*
X411024D01*
X410980Y179878D01*
X410581Y179957D01*
X410373D01*
Y188622D01*
X410287Y189051D01*
X410044Y189415D01*
X409478Y189981D01*
X409797Y190753D01*
X409926Y191732D01*
X409797Y192712D01*
X409419Y193624D01*
X408838Y194382D01*
X408866Y194552D01*
X408978Y194882D01*
X423305D01*
X423417Y194552D01*
D02*
G37*
G36*
X409993Y162343D02*
X410131Y161647D01*
X409733Y161342D01*
X399942Y171133D01*
X400134Y171595D01*
X409993D01*
Y162343D01*
D02*
G37*
G36*
X154803Y160178D02*
X154612Y159716D01*
X137020D01*
Y164284D01*
X137009D01*
X136750Y164784D01*
X137090Y165292D01*
X137259Y166142D01*
X137090Y166991D01*
X136609Y167711D01*
X135889Y168193D01*
X135039Y168361D01*
X134190Y168193D01*
X133470Y167711D01*
X132989Y166991D01*
X132852Y166306D01*
X132531Y166238D01*
X132332Y166254D01*
X131884Y166924D01*
X131164Y167405D01*
X130315Y167574D01*
X129465Y167405D01*
X128745Y166924D01*
X128264Y166203D01*
X128095Y165354D01*
X128208Y164784D01*
X127856Y164284D01*
X127547D01*
Y159716D01*
X107035D01*
X106844Y160178D01*
X107579Y160913D01*
X110248D01*
Y165858D01*
X108176D01*
X107984Y166320D01*
X111131Y169467D01*
X113112D01*
X113348Y169026D01*
X113303Y168960D01*
X113135Y168110D01*
X113303Y167261D01*
X113785Y166541D01*
X114038Y166372D01*
Y165858D01*
X111012D01*
Y160913D01*
X115366D01*
Y162717D01*
X116285Y163636D01*
X116571Y164063D01*
X116671Y164567D01*
X116671Y164567D01*
Y166372D01*
X116924Y166541D01*
X117405Y167261D01*
X117574Y168110D01*
X117405Y168960D01*
X117361Y169026D01*
X117597Y169467D01*
X145514D01*
X154803Y160178D01*
D02*
G37*
G36*
X225822Y158739D02*
X226186Y158496D01*
X226614Y158411D01*
X229328D01*
X229520Y157949D01*
X227554Y155984D01*
X227312Y155621D01*
X227226Y155192D01*
Y145352D01*
X226845Y145000D01*
X226426Y145286D01*
X226275Y146048D01*
X225837Y146703D01*
X225182Y147141D01*
X224410Y147295D01*
X224046Y147222D01*
X217738Y153531D01*
Y158861D01*
X218238Y159136D01*
X218898Y159004D01*
X219670Y159158D01*
X220325Y159596D01*
X220531Y159904D01*
X224658D01*
X225822Y158739D01*
D02*
G37*
G36*
X402430Y159457D02*
X402238Y158995D01*
X391768D01*
Y159400D01*
X391672Y159884D01*
X391398Y160295D01*
X390987Y160570D01*
X390975Y160572D01*
Y161082D01*
X390987Y161084D01*
X391398Y161358D01*
X391672Y161769D01*
X391768Y162254D01*
Y162659D01*
X399228D01*
X402430Y159457D01*
D02*
G37*
G36*
X378585Y169360D02*
X379175Y168966D01*
X379870Y168827D01*
X397105D01*
X407549Y158383D01*
X407575Y158327D01*
X407583Y158282D01*
X407619Y158228D01*
X407690Y158073D01*
X407273Y157784D01*
X400484Y164572D01*
X400121Y164815D01*
X399692Y164900D01*
X391768D01*
Y165305D01*
X391672Y165790D01*
X391398Y166201D01*
X390987Y166475D01*
X390502Y166572D01*
X387844D01*
X387445Y166492D01*
X387402Y166535D01*
X384252D01*
X384209Y166492D01*
X383809Y166572D01*
X381152D01*
X380667Y166475D01*
X380498Y166362D01*
X375316Y171544D01*
X375363Y171883D01*
X375877Y172067D01*
X378585Y169360D01*
D02*
G37*
G36*
X369593Y170046D02*
X379720Y159919D01*
X379957Y159761D01*
X379885Y159400D01*
Y157672D01*
X379423Y157481D01*
X368526Y168379D01*
Y169885D01*
X369025Y170159D01*
X369593Y170046D01*
D02*
G37*
G36*
X211305Y161429D02*
Y149628D01*
X210843Y149436D01*
X209516Y150764D01*
X209436Y151164D01*
X209193Y151528D01*
X207039Y153682D01*
X206676Y153925D01*
X206247Y154010D01*
X198157D01*
X198157Y154010D01*
X197729Y153925D01*
X197365Y153682D01*
X197365Y153682D01*
X192536Y148853D01*
X192076Y149099D01*
X192177Y149606D01*
X192023Y150379D01*
X191585Y151034D01*
X191277Y151240D01*
Y158918D01*
X191777Y158967D01*
X191835Y158676D01*
X192273Y158021D01*
X192928Y157583D01*
X193701Y157430D01*
X194474Y157583D01*
X195129Y158021D01*
X195222Y158162D01*
X195722D01*
X195816Y158021D01*
X196471Y157583D01*
X197244Y157430D01*
X198017Y157583D01*
X198672Y158021D01*
X198766Y158162D01*
X199266D01*
X199360Y158021D01*
X200015Y157583D01*
X200787Y157430D01*
X201560Y157583D01*
X202215Y158021D01*
X202309Y158162D01*
X202809D01*
X202903Y158021D01*
X203558Y157583D01*
X204331Y157430D01*
X205103Y157583D01*
X205758Y158021D01*
X205852Y158162D01*
X206352D01*
X206446Y158021D01*
X207101Y157583D01*
X207874Y157430D01*
X208647Y157583D01*
X209302Y158021D01*
X209739Y158676D01*
X209893Y159449D01*
X209739Y160222D01*
X209621Y160398D01*
X210843Y161621D01*
X211305Y161429D01*
D02*
G37*
G36*
X168535Y194552D02*
X168564Y194382D01*
X167982Y193624D01*
X167604Y192712D01*
X167475Y191732D01*
X167604Y190753D01*
X167982Y189840D01*
X168584Y189056D01*
X169368Y188455D01*
X169827Y188265D01*
Y176614D01*
X169913Y176186D01*
X170156Y175822D01*
X173207Y172771D01*
Y162755D01*
X173292Y162326D01*
X173535Y161962D01*
X173994Y161504D01*
Y156681D01*
X171257Y153944D01*
X170796Y154190D01*
X170824Y154330D01*
X170647Y155218D01*
X170144Y155971D01*
X169392Y156474D01*
X168504Y156651D01*
X168172Y156585D01*
X164207Y160550D01*
X164305Y160841D01*
X164425Y161039D01*
X165141Y161181D01*
X165796Y161619D01*
X166234Y162274D01*
X166387Y163047D01*
X166234Y163820D01*
X165796Y164475D01*
X165606Y164602D01*
Y188507D01*
X165521Y188936D01*
X165278Y189300D01*
X164596Y189981D01*
X164915Y190753D01*
X165044Y191732D01*
X164915Y192712D01*
X164537Y193624D01*
X163956Y194382D01*
X163984Y194552D01*
X164096Y194882D01*
X168423D01*
X168535Y194552D01*
D02*
G37*
G36*
X121943Y155617D02*
X115828Y149502D01*
X115531Y149443D01*
X115102Y149842D01*
X115212Y150393D01*
X115043Y151243D01*
X114561Y151963D01*
X113841Y152444D01*
X112992Y152613D01*
X112675Y152550D01*
X112315Y152791D01*
X111811Y152891D01*
X109449D01*
X109322Y152866D01*
X105894D01*
Y147921D01*
X105896D01*
X106088Y147459D01*
X99238Y140610D01*
X95865D01*
X95397Y140517D01*
X95000Y140252D01*
X95000Y140252D01*
X94551Y139803D01*
X94053Y139852D01*
X93947Y140010D01*
X93292Y140448D01*
X92520Y140602D01*
X92253Y140549D01*
X92006Y141009D01*
X100394Y149397D01*
X100683Y149108D01*
X100776Y149046D01*
Y147921D01*
X105130D01*
Y152866D01*
X104046D01*
X103729Y153253D01*
X103787Y153543D01*
Y156079D01*
X121752D01*
X121943Y155617D01*
D02*
G37*
G36*
X284535Y149880D02*
Y147626D01*
X285786D01*
Y144882D01*
X285879Y144414D01*
X286144Y144018D01*
X286612Y143549D01*
X286564Y143307D01*
X286717Y142534D01*
X287155Y141879D01*
X287810Y141442D01*
X288583Y141288D01*
X289355Y141442D01*
X290010Y141879D01*
X290448Y142534D01*
X290700Y142549D01*
X290814Y142133D01*
X290721Y141666D01*
Y138369D01*
X290814Y137901D01*
X291079Y137504D01*
X291709Y136874D01*
Y132085D01*
X291209Y131810D01*
X290551Y131940D01*
X290309Y131892D01*
X284723Y137478D01*
X284326Y137743D01*
X283858Y137837D01*
X273270D01*
Y146051D01*
X274520D01*
Y149300D01*
X275020Y149451D01*
X275344Y148966D01*
X275999Y148528D01*
X276772Y148375D01*
X277544Y148528D01*
X278199Y148966D01*
X278337Y149171D01*
X279024D01*
Y147626D01*
X283968D01*
Y150102D01*
X284035Y150147D01*
X284535Y149880D01*
D02*
G37*
G36*
X178535Y194552D02*
X178564Y194382D01*
X177982Y193624D01*
X177604Y192712D01*
X177476Y191732D01*
X177604Y190753D01*
X177982Y189840D01*
X178584Y189056D01*
X179368Y188455D01*
X180280Y188077D01*
X181260Y187948D01*
X182239Y188077D01*
X182909Y188354D01*
X187360Y183903D01*
Y152081D01*
X186856Y151577D01*
X186614Y151625D01*
X185841Y151471D01*
X185186Y151034D01*
X184748Y150379D01*
X184595Y149606D01*
X184748Y148833D01*
X185186Y148178D01*
X185841Y147741D01*
X186614Y147587D01*
X187387Y147741D01*
X188041Y148178D01*
X188136Y148319D01*
X188636D01*
X188730Y148179D01*
X189385Y147741D01*
X190157Y147587D01*
X190188Y147593D01*
X190500Y147146D01*
X190440Y147047D01*
X172562D01*
X169094Y150515D01*
Y150567D01*
X169094Y150567D01*
X169009Y150996D01*
X168766Y151359D01*
X168766Y151359D01*
X168605Y151521D01*
X168769Y152063D01*
X169240Y152157D01*
X169590Y151897D01*
X169674Y151774D01*
X169634Y151575D01*
X169788Y150802D01*
X170226Y150147D01*
X170880Y149709D01*
X171653Y149555D01*
X172336Y149691D01*
X172628Y149625D01*
X172879Y149521D01*
X172938Y149227D01*
X173375Y148572D01*
X174030Y148135D01*
X174803Y147981D01*
X175576Y148135D01*
X176231Y148572D01*
X176744Y148440D01*
X176919Y148179D01*
X177574Y147741D01*
X178347Y147587D01*
X179119Y147741D01*
X179774Y148179D01*
X179868Y148319D01*
X180368D01*
X180462Y148178D01*
X181117Y147741D01*
X181889Y147587D01*
X182662Y147741D01*
X183317Y148178D01*
X183755Y148833D01*
X183908Y149606D01*
X183755Y150379D01*
X183317Y151034D01*
X183009Y151239D01*
Y170488D01*
X183449Y170575D01*
X184105Y171013D01*
X184542Y171668D01*
X184696Y172441D01*
X184542Y173213D01*
X184105Y173868D01*
X183449Y174306D01*
X182677Y174460D01*
X181904Y174306D01*
X181249Y173868D01*
X180811Y173213D01*
X180658Y172441D01*
X180811Y171668D01*
X180842Y171623D01*
X180770Y171259D01*
Y151239D01*
X180462Y151034D01*
X180368Y150894D01*
X179868D01*
X179774Y151034D01*
X179466Y151240D01*
Y173957D01*
X179774Y174163D01*
X180212Y174818D01*
X180366Y175591D01*
X180212Y176363D01*
X179774Y177018D01*
X179119Y177456D01*
X178347Y177610D01*
X177574Y177456D01*
X176919Y177018D01*
X176575Y176504D01*
X176010Y176362D01*
X175211Y177160D01*
X175487Y177573D01*
X175641Y178346D01*
X175487Y179119D01*
X175049Y179774D01*
X174394Y180211D01*
X173622Y180365D01*
X172849Y180211D01*
X172569Y180024D01*
X172069Y180291D01*
Y188054D01*
X172239Y188077D01*
X173152Y188455D01*
X173936Y189056D01*
X174537Y189840D01*
X174915Y190753D01*
X175044Y191732D01*
X174915Y192712D01*
X174537Y193624D01*
X173956Y194382D01*
X173984Y194552D01*
X174096Y194882D01*
X178424D01*
X178535Y194552D01*
D02*
G37*
G36*
X153534Y153216D02*
X153266Y152716D01*
X149323D01*
X148627Y152578D01*
X148037Y152183D01*
X147342Y151488D01*
X147259Y151472D01*
X146604Y151034D01*
X146166Y150379D01*
X146012Y149606D01*
X146166Y148834D01*
X146604Y148179D01*
X147259Y147741D01*
X148031Y147587D01*
X148804Y147741D01*
X149459Y148179D01*
X149897Y148834D01*
X149913Y148917D01*
X150076Y149079D01*
X151239D01*
X151475Y148638D01*
X151400Y148526D01*
X151223Y147638D01*
X151400Y146750D01*
X151903Y145997D01*
X152227Y145781D01*
Y144488D01*
X150394D01*
X149606Y143701D01*
Y139764D01*
X150394Y138976D01*
X153543D01*
X153587Y139020D01*
X153986Y138940D01*
X156644D01*
X156665Y138945D01*
X157052Y138627D01*
Y120287D01*
X157190Y119591D01*
X157584Y119001D01*
X164457Y112128D01*
Y109083D01*
X139529D01*
X139198Y109583D01*
X139328Y110236D01*
X139151Y111124D01*
X138648Y111877D01*
X137896Y112380D01*
X137008Y112556D01*
X136120Y112380D01*
X135633Y112055D01*
X120527D01*
X120291Y112496D01*
X120369Y112613D01*
X120523Y113386D01*
X120369Y114158D01*
X120327Y114221D01*
X120651Y114637D01*
X121260Y114516D01*
X122032Y114670D01*
X122688Y115108D01*
X123125Y115763D01*
X123279Y116535D01*
X123125Y117308D01*
X122688Y117963D01*
X122032Y118401D01*
X121260Y118554D01*
X121018Y118506D01*
X116577Y122947D01*
Y123147D01*
X116671Y123622D01*
Y125480D01*
X117335D01*
Y129699D01*
X118045D01*
X119673Y128071D01*
Y125480D01*
X124028D01*
Y128450D01*
X124495Y128655D01*
X124791Y128415D01*
Y125480D01*
X129146D01*
Y130425D01*
X126555D01*
X122191Y134789D01*
X121764Y135074D01*
X121260Y135175D01*
X118431D01*
X118357Y135286D01*
X117701Y135723D01*
X116929Y135877D01*
X116156Y135723D01*
X115501Y135286D01*
X115479Y135252D01*
X114948Y135357D01*
X114857Y135812D01*
X114420Y136467D01*
X113765Y136905D01*
X112992Y137058D01*
X112219Y136905D01*
X111564Y136467D01*
X111174Y135883D01*
X111113Y135861D01*
X110915Y135871D01*
X110658Y135942D01*
X110527Y136600D01*
X110089Y137255D01*
X109434Y137692D01*
X108661Y137846D01*
X107889Y137692D01*
X107234Y137255D01*
X106796Y136600D01*
X106642Y135827D01*
X106796Y135054D01*
X107234Y134399D01*
X107102Y133886D01*
X106840Y133711D01*
X106402Y133056D01*
X106248Y132283D01*
X106402Y131510D01*
X106840Y130856D01*
X107495Y130418D01*
X107862Y130345D01*
Y125480D01*
X108817D01*
Y121850D01*
X108872Y121572D01*
X108412Y121325D01*
X104574Y125163D01*
Y129134D01*
X104441Y129804D01*
Y131508D01*
X102954D01*
X102085Y132376D01*
X101495Y132771D01*
X100799Y132909D01*
X98513D01*
X98097Y133530D01*
X97345Y134033D01*
X96457Y134210D01*
X95569Y134033D01*
X95445Y133950D01*
X95004Y134186D01*
Y136798D01*
X96371Y138165D01*
X99745D01*
X100212Y138259D01*
X100609Y138523D01*
X108107Y146022D01*
X114222D01*
X114501Y145604D01*
X115254Y145100D01*
X116142Y144924D01*
X117030Y145100D01*
X117782Y145604D01*
X118285Y146356D01*
X118400Y146930D01*
X124781Y153311D01*
X153470D01*
X153534Y153216D01*
D02*
G37*
G36*
X205890Y149687D02*
X205969Y149287D01*
X206212Y148923D01*
X215895Y139240D01*
X215898Y139225D01*
X216141Y138862D01*
X220751Y134251D01*
X221115Y134009D01*
X221543Y133923D01*
X221543Y133923D01*
X221867D01*
X233743Y122047D01*
X233744Y122047D01*
X234107Y121804D01*
X234535Y121719D01*
X238077D01*
X238078Y121718D01*
X238078Y121718D01*
X248616D01*
X248851Y121277D01*
X248644Y120967D01*
X248467Y120079D01*
X248644Y119191D01*
X248827Y118917D01*
X248591Y118476D01*
X247008D01*
X246479Y118830D01*
X245783Y118968D01*
X242871D01*
X242810Y119276D01*
X242372Y119931D01*
X241717Y120369D01*
X240944Y120523D01*
X240172Y120369D01*
X239517Y119931D01*
X239079Y119276D01*
X239018Y118968D01*
X234762D01*
X223865Y129865D01*
X223275Y130259D01*
X222580Y130397D01*
X210732D01*
X210036Y130259D01*
X209446Y129865D01*
X201448Y121867D01*
X200837Y121880D01*
X200182Y122318D01*
X199409Y122472D01*
X196063D01*
X195290Y122318D01*
X194635Y121880D01*
X194498Y121675D01*
X192908D01*
X192505Y121944D01*
X191732Y122098D01*
X190960Y121944D01*
X190305Y121507D01*
X189867Y120851D01*
X189713Y120079D01*
X189867Y119306D01*
X190305Y118651D01*
X190755Y118350D01*
X190603Y117850D01*
X189052D01*
X181284Y125618D01*
X182971Y127305D01*
X183465Y127207D01*
X184353Y127384D01*
X185105Y127887D01*
X185608Y128640D01*
X185785Y129528D01*
X185608Y130415D01*
X185105Y131168D01*
X184353Y131671D01*
X183465Y131848D01*
X182577Y131671D01*
X181824Y131168D01*
X181321Y130415D01*
X181144Y129528D01*
X181243Y129034D01*
X179555Y127347D01*
X178776Y128126D01*
X178903Y128706D01*
X179381Y129025D01*
X179818Y129680D01*
X179972Y130453D01*
X179818Y131225D01*
X179381Y131880D01*
X178726Y132318D01*
X177953Y132472D01*
X174606D01*
X174460Y132443D01*
X173823Y133080D01*
X174069Y133540D01*
X174606Y133434D01*
X177953D01*
X178726Y133587D01*
X179381Y134025D01*
X179818Y134680D01*
X179972Y135453D01*
X179818Y136225D01*
X179381Y136881D01*
X178726Y137318D01*
X177953Y137472D01*
X174606D01*
X173834Y137318D01*
X173179Y136881D01*
X172741Y136225D01*
X172587Y135453D01*
X172694Y134915D01*
X172233Y134669D01*
X166224Y140678D01*
Y147588D01*
X166686Y147779D01*
X170727Y143738D01*
X171090Y143495D01*
X171519Y143410D01*
X191774D01*
X192202Y143495D01*
X192566Y143738D01*
X199200Y150372D01*
X205205D01*
X205890Y149687D01*
D02*
G37*
G36*
X264063Y151169D02*
X269008D01*
Y151926D01*
X269575D01*
Y151169D01*
X274397D01*
X274833Y150799D01*
X274829Y150777D01*
X274520Y150406D01*
X269575D01*
Y146051D01*
X270825D01*
Y138442D01*
X270226Y138042D01*
X269854Y137486D01*
X269471Y137417D01*
X269288Y137434D01*
X269144Y137648D01*
X268489Y138086D01*
X268151Y138153D01*
Y146051D01*
X269008D01*
Y150406D01*
X264063D01*
Y146051D01*
X265707D01*
Y137443D01*
X265551D01*
X265084Y137350D01*
X265036Y137319D01*
X265002Y137341D01*
X264518Y137437D01*
X262585D01*
X262317Y137937D01*
X262495Y138204D01*
X262649Y138976D01*
X262495Y139749D01*
X262058Y140404D01*
X261751Y140609D01*
Y144870D01*
X263102D01*
Y149224D01*
X258484D01*
X258157Y149224D01*
X257658Y149224D01*
X253366D01*
X253039Y149224D01*
X252539Y149224D01*
X248751D01*
Y149810D01*
X248929Y149988D01*
X252866D01*
Y149988D01*
X253039D01*
Y149988D01*
X257984D01*
Y149988D01*
X258157D01*
Y149988D01*
X263102D01*
Y151926D01*
X264063D01*
Y151169D01*
D02*
G37*
G36*
X266944Y134355D02*
X267717Y134201D01*
X267958Y134249D01*
X269190Y133018D01*
X269587Y132753D01*
X270055Y132660D01*
X280572D01*
X286687Y126544D01*
X286695Y126505D01*
X286420Y126005D01*
X281409D01*
X278194Y129221D01*
X277830Y129464D01*
X277402Y129549D01*
X251375D01*
X251100Y130049D01*
X251165Y130373D01*
X252128Y131337D01*
X252479Y131861D01*
X252484Y131888D01*
X252798Y131950D01*
X253209Y132225D01*
X253483Y132635D01*
X253485Y132646D01*
X253995D01*
X253997Y132635D01*
X254272Y132224D01*
X254683Y131950D01*
X255167Y131853D01*
X257825D01*
X258225Y131933D01*
X258268Y131890D01*
X261417D01*
X261460Y131933D01*
X261860Y131853D01*
X262374D01*
X262402Y131848D01*
X262429Y131853D01*
X264518D01*
X265002Y131950D01*
X265413Y132224D01*
X265688Y132635D01*
X265784Y133120D01*
Y134648D01*
X265930Y134744D01*
X266289Y134793D01*
X266944Y134355D01*
D02*
G37*
G36*
X90554Y138850D02*
X90501Y138583D01*
X90654Y137810D01*
X91092Y137155D01*
X91747Y136717D01*
X92520Y136564D01*
X92559Y136531D01*
Y131380D01*
X92059Y131229D01*
X91979Y131349D01*
X91324Y131787D01*
X90551Y131940D01*
X89779Y131787D01*
X89123Y131349D01*
X88686Y130694D01*
X88532Y129921D01*
X88604Y129558D01*
X84324Y125278D01*
X82164Y127439D01*
X81926Y127598D01*
Y127903D01*
X81846Y128303D01*
X81890Y128347D01*
Y131496D01*
X82264Y131800D01*
X82684Y131883D01*
X83274Y132277D01*
X90093Y139096D01*
X90554Y138850D01*
D02*
G37*
G36*
X92559Y128462D02*
Y117751D01*
X92059Y117543D01*
X85908Y123694D01*
X90188Y127974D01*
X90551Y127902D01*
X91324Y128056D01*
X91979Y128493D01*
X92059Y128614D01*
X92559Y128462D01*
D02*
G37*
G36*
X173975Y127784D02*
X173928Y127629D01*
X173774Y127278D01*
X173179Y126881D01*
X172741Y126225D01*
X172587Y125453D01*
X172741Y124680D01*
X173179Y124025D01*
X173834Y123587D01*
X174606Y123434D01*
X177953D01*
X178264Y123495D01*
X179069Y122690D01*
X178751Y122301D01*
X178726Y122318D01*
X177953Y122472D01*
X174606D01*
X173834Y122318D01*
X173179Y121880D01*
X172741Y121225D01*
X172587Y120453D01*
X172741Y119680D01*
X173179Y119025D01*
X173834Y118587D01*
X174606Y118434D01*
X175600D01*
X175751Y117934D01*
X175525Y117782D01*
X175022Y117030D01*
X174845Y116142D01*
X175022Y115254D01*
X175097Y115141D01*
X174861Y114700D01*
X170942D01*
X163456Y122186D01*
Y137650D01*
X163918Y137841D01*
X173975Y127784D01*
D02*
G37*
G36*
X303997Y128031D02*
Y127223D01*
X303690Y127018D01*
X303252Y126363D01*
X303098Y125590D01*
X303252Y124818D01*
X303690Y124163D01*
X304345Y123725D01*
X305118Y123571D01*
X305835Y123714D01*
X306057Y123579D01*
X306279Y123384D01*
X306249Y123228D01*
X306370Y122619D01*
X305953Y122296D01*
X305891Y122338D01*
X305118Y122492D01*
X304345Y122338D01*
X303690Y121900D01*
X303253Y121245D01*
X303099Y120472D01*
X303253Y119700D01*
X303690Y119045D01*
X304253Y118669D01*
X304187Y118211D01*
X304170Y118169D01*
X298820D01*
X298553Y118669D01*
X298715Y118912D01*
X298869Y119685D01*
X298715Y120457D01*
X298277Y121113D01*
X297622Y121550D01*
X297464Y121582D01*
X297319Y122060D01*
X303497Y128238D01*
X303997Y128031D01*
D02*
G37*
G36*
X332677Y116142D02*
X324803D01*
Y120079D01*
X332677D01*
Y116142D01*
D02*
G37*
G36*
X347134Y118024D02*
Y115598D01*
X345083D01*
X345027Y115880D01*
X344785Y116242D01*
X344423Y116484D01*
X343996Y116569D01*
X342224D01*
X341797Y116484D01*
X341435Y116242D01*
X341193Y115880D01*
X341137Y115598D01*
X337603D01*
X337547Y115880D01*
X337305Y116242D01*
X336943Y116484D01*
X336516Y116569D01*
X336145D01*
X335954Y117031D01*
X337368Y118445D01*
X346945D01*
X347134Y118024D01*
D02*
G37*
G36*
X112980Y129596D02*
Y125480D01*
X114038D01*
Y123622D01*
X114132Y123147D01*
Y122441D01*
X114225Y121973D01*
X114490Y121577D01*
X119289Y116778D01*
X119241Y116535D01*
X119394Y115763D01*
X119436Y115700D01*
X119113Y115284D01*
X118504Y115405D01*
X118262Y115357D01*
X111262Y122357D01*
Y125480D01*
X112216D01*
Y129631D01*
X112684Y129836D01*
X112980Y129596D01*
D02*
G37*
G36*
X186559Y115200D02*
X186352Y114700D01*
X179469D01*
X179234Y115141D01*
X179309Y115254D01*
X179485Y116142D01*
X179309Y117030D01*
X178806Y117782D01*
X178415Y118044D01*
X178420Y118526D01*
X178726Y118587D01*
X179381Y119025D01*
X179818Y119680D01*
X179972Y120453D01*
X179818Y121225D01*
X179801Y121251D01*
X180190Y121570D01*
X186559Y115200D01*
D02*
G37*
G36*
X408535Y127750D02*
X408529Y127713D01*
X407808Y127231D01*
X407305Y126478D01*
X407129Y125591D01*
X407305Y124703D01*
X407808Y123950D01*
X408226Y123670D01*
Y111736D01*
X407792Y111086D01*
X407735Y110802D01*
X407225D01*
X407169Y111086D01*
X406688Y111806D01*
X406340Y112038D01*
Y120079D01*
X406341Y120079D01*
X406247Y120546D01*
X405982Y120943D01*
X405982Y120943D01*
X400647Y126278D01*
X400745Y126772D01*
X400569Y127659D01*
X400493Y127772D01*
X400729Y128213D01*
X408261D01*
X408535Y127750D01*
D02*
G37*
G36*
X440700Y109738D02*
X440932Y109583D01*
X440780Y109083D01*
X432921D01*
Y116810D01*
X433421Y117017D01*
X440700Y109738D01*
D02*
G37*
G36*
X411701Y123965D02*
Y122823D01*
X416646D01*
Y123182D01*
X422672D01*
X429284Y116570D01*
Y109083D01*
X412246D01*
X411932Y109583D01*
X412062Y110236D01*
X411893Y111086D01*
X411412Y111806D01*
X410692Y112287D01*
X410671Y112291D01*
Y123670D01*
X411089Y123950D01*
X411201Y124117D01*
X411701Y123965D01*
D02*
G37*
G36*
X396235Y126116D02*
X396282Y125884D01*
X396785Y125131D01*
X397537Y124628D01*
X398425Y124451D01*
X398919Y124550D01*
X403896Y119572D01*
Y112038D01*
X403548Y111806D01*
X403067Y111086D01*
X402898Y110236D01*
X403028Y109583D01*
X402715Y109083D01*
X373948D01*
X373712Y109583D01*
X374370Y110384D01*
X375065Y111686D01*
X375494Y113098D01*
X375639Y114567D01*
X375494Y116036D01*
X375065Y117448D01*
X374370Y118749D01*
X373434Y119890D01*
X372293Y120826D01*
X370991Y121522D01*
X369579Y121951D01*
X368110Y122095D01*
X366801Y121966D01*
X366557Y122429D01*
X370203Y126075D01*
X394937D01*
X395633Y126214D01*
X395774Y126307D01*
X396235Y126116D01*
D02*
G37*
G36*
X230897Y109583D02*
X230877Y109408D01*
X230725Y109083D01*
X222374D01*
X222137Y109583D01*
X222795Y110384D01*
X223491Y111686D01*
X223919Y113098D01*
X224064Y114567D01*
X223939Y115834D01*
X224419Y116061D01*
X230897Y109583D01*
D02*
G37*
G36*
X95569Y129746D02*
X96265Y129608D01*
X96560Y129411D01*
X97256Y129272D01*
X99496D01*
Y127154D01*
X100937D01*
Y124409D01*
X101076Y123714D01*
X101470Y123124D01*
X115049Y109545D01*
X114858Y109083D01*
X103191D01*
X102877Y109583D01*
X103007Y110236D01*
X102838Y111086D01*
X102357Y111806D01*
X101637Y112287D01*
X100787Y112456D01*
X100378Y112374D01*
X95004Y117748D01*
Y129593D01*
X95445Y129829D01*
X95569Y129746D01*
D02*
G37*
G36*
X551181Y78740D02*
X427666D01*
X425693Y80713D01*
X425330Y80956D01*
X424901Y81041D01*
X424468D01*
X424262Y81349D01*
X423607Y81787D01*
X422835Y81940D01*
X422062Y81787D01*
X421407Y81349D01*
X420969Y80694D01*
X420816Y79921D01*
X420905Y79470D01*
X420903Y79446D01*
X420565Y78939D01*
X420542Y78927D01*
X420017Y78822D01*
X419894Y78740D01*
X360737D01*
X358764Y80713D01*
X358401Y80956D01*
X357972Y81041D01*
X357539D01*
X357333Y81349D01*
X356678Y81787D01*
X355906Y81940D01*
X355133Y81787D01*
X354478Y81349D01*
X354040Y80694D01*
X353887Y79921D01*
X353976Y79470D01*
X353974Y79446D01*
X353636Y78939D01*
X353613Y78927D01*
X353087Y78822D01*
X352964Y78740D01*
X252335D01*
X252018Y79127D01*
X252019Y79134D01*
X251865Y79906D01*
X251428Y80562D01*
X250773Y80999D01*
X250000Y81153D01*
X249227Y80999D01*
X248572Y80562D01*
X248135Y79906D01*
X247981Y79134D01*
X247982Y79127D01*
X247665Y78740D01*
X118611D01*
X116638Y80713D01*
X116275Y80956D01*
X115846Y81041D01*
X115413D01*
X115207Y81349D01*
X114552Y81787D01*
X113779Y81940D01*
X113007Y81787D01*
X112352Y81349D01*
X111914Y80694D01*
X111760Y79921D01*
X111850Y79470D01*
X111848Y79446D01*
X111510Y78939D01*
X111487Y78927D01*
X110961Y78822D01*
X110838Y78740D01*
X51682D01*
X49709Y80713D01*
X49346Y80956D01*
X48917Y81041D01*
X48484D01*
X48278Y81349D01*
X47623Y81787D01*
X46850Y81940D01*
X46078Y81787D01*
X45423Y81349D01*
X44985Y80694D01*
X44831Y79921D01*
X44921Y79470D01*
X44919Y79446D01*
X44581Y78939D01*
X44558Y78927D01*
X44032Y78822D01*
X43909Y78740D01*
X1969D01*
Y108268D01*
X45104D01*
X46332Y107612D01*
X47744Y107183D01*
X49213Y107039D01*
X50681Y107183D01*
X52094Y107612D01*
X53321Y108268D01*
X95090D01*
X95214Y108185D01*
X96063Y108016D01*
X96912Y108185D01*
X97036Y108268D01*
X99815D01*
X99938Y108185D01*
X100787Y108016D01*
X101637Y108185D01*
X101760Y108268D01*
X135858D01*
X136120Y108093D01*
X137008Y107916D01*
X137896Y108093D01*
X138158Y108268D01*
X164457D01*
Y108256D01*
X168500D01*
X168575Y108206D01*
X169271Y108067D01*
X200863D01*
X201559Y108206D01*
X201652Y108268D01*
X212427D01*
X213654Y107612D01*
X215067Y107183D01*
X216535Y107039D01*
X218004Y107183D01*
X219416Y107612D01*
X220644Y108268D01*
X247593D01*
X247686Y108206D01*
X248382Y108067D01*
X354484D01*
X355180Y108206D01*
X355273Y108268D01*
X364002D01*
X365229Y107612D01*
X366641Y107183D01*
X368110Y107039D01*
X369579Y107183D01*
X370991Y107612D01*
X372219Y108268D01*
X404145D01*
X404269Y108185D01*
X405118Y108016D01*
X405968Y108185D01*
X406091Y108268D01*
X408870D01*
X408993Y108185D01*
X409842Y108016D01*
X410692Y108185D01*
X410815Y108268D01*
X482468D01*
X482832Y107903D01*
X483422Y107509D01*
X484118Y107371D01*
X513499D01*
X514195Y107509D01*
X514785Y107903D01*
X515150Y108268D01*
X521482D01*
X522710Y107612D01*
X524122Y107183D01*
X525591Y107039D01*
X527059Y107183D01*
X528472Y107612D01*
X529699Y108268D01*
X532926D01*
X532939Y108202D01*
X533384Y107127D01*
X533428Y107060D01*
X533459Y106986D01*
X534105Y106019D01*
X534162Y105962D01*
X534207Y105895D01*
X535029Y105073D01*
X535096Y105028D01*
X535153Y104972D01*
X536120Y104325D01*
X536194Y104295D01*
X536261Y104250D01*
X537336Y103805D01*
X537414Y103789D01*
X537489Y103758D01*
X538629Y103532D01*
X538710D01*
X538788Y103516D01*
X539952D01*
X540030Y103532D01*
X540111D01*
X541252Y103758D01*
X541326Y103789D01*
X541404Y103805D01*
X542479Y104250D01*
X542546Y104295D01*
X542620Y104325D01*
X543587Y104972D01*
X543644Y105028D01*
X543711Y105073D01*
X544533Y105895D01*
X544578Y105962D01*
X544635Y106019D01*
X545281Y106986D01*
X545312Y107060D01*
X545356Y107127D01*
X545801Y108202D01*
X545815Y108268D01*
X551181D01*
Y78740D01*
D02*
G37*
G36*
X350394Y72835D02*
Y68898D01*
X352964D01*
X353087Y68815D01*
X353937Y68646D01*
X354786Y68815D01*
X354910Y68898D01*
X354933D01*
X355056Y68815D01*
X355906Y68646D01*
X356755Y68815D01*
X356878Y68898D01*
X356901D01*
X357025Y68815D01*
X357874Y68646D01*
X358723Y68815D01*
X358847Y68898D01*
X419893Y68898D01*
X420017Y68815D01*
X420866Y68646D01*
X421716Y68815D01*
X421839Y68898D01*
X421862D01*
X421985Y68815D01*
X422834Y68646D01*
X423684Y68815D01*
X423807Y68898D01*
X423830D01*
X423954Y68815D01*
X424803Y68646D01*
X425653Y68815D01*
X425776Y68898D01*
X486822D01*
X486946Y68815D01*
X487795Y68646D01*
X488645Y68815D01*
X488768Y68898D01*
X488791D01*
X488914Y68815D01*
X489764Y68646D01*
X490613Y68815D01*
X490736Y68898D01*
X490759D01*
X490883Y68815D01*
X491732Y68646D01*
X492582Y68815D01*
X492705Y68898D01*
X551181D01*
X551181Y35433D01*
X1969Y35433D01*
X1969Y68898D01*
X43909D01*
X44032Y68815D01*
X44882Y68646D01*
X45731Y68815D01*
X45854Y68898D01*
X45878D01*
X46001Y68815D01*
X46850Y68646D01*
X47700Y68815D01*
X47823Y68898D01*
X47846D01*
X47969Y68815D01*
X48819Y68646D01*
X49668Y68815D01*
X49791Y68898D01*
X110838D01*
X110961Y68815D01*
X111811Y68646D01*
X112660Y68815D01*
X112784Y68898D01*
X112807D01*
X112930Y68815D01*
X113779Y68646D01*
X114629Y68815D01*
X114752Y68898D01*
X114775D01*
X114899Y68815D01*
X115748Y68646D01*
X116597Y68815D01*
X116721Y68898D01*
X177768Y68898D01*
X177891Y68815D01*
X178740Y68646D01*
X179590Y68815D01*
X179713Y68898D01*
X179736D01*
X179859Y68815D01*
X180709Y68646D01*
X181558Y68815D01*
X181681Y68898D01*
X181704D01*
X181828Y68815D01*
X182677Y68646D01*
X183527Y68815D01*
X183650Y68898D01*
X253950D01*
X254662Y68422D01*
X255512Y68252D01*
X256361Y68422D01*
X256496Y68512D01*
X256631Y68422D01*
X257480Y68252D01*
X258330Y68422D01*
X258465Y68511D01*
X258599Y68422D01*
X259449Y68252D01*
X260298Y68422D01*
X260433Y68512D01*
X260568Y68422D01*
X261417Y68252D01*
X262267Y68422D01*
X262402Y68511D01*
X262536Y68422D01*
X263386Y68252D01*
X264235Y68422D01*
X264948Y68898D01*
X330709D01*
Y70866D01*
X336614Y76772D01*
X346457D01*
X350394Y72835D01*
D02*
G37*
%LPC*%
G36*
X39952Y183886D02*
X38788D01*
X38710Y183870D01*
X38629D01*
X37488Y183643D01*
X37414Y183612D01*
X37336Y183597D01*
X36261Y183152D01*
X36194Y183107D01*
X36120Y183076D01*
X35153Y182430D01*
X35096Y182373D01*
X35029Y182329D01*
X34207Y181506D01*
X34162Y181439D01*
X34105Y181383D01*
X33459Y180415D01*
X33428Y180341D01*
X33384Y180274D01*
X32939Y179200D01*
X32923Y179121D01*
X32892Y179047D01*
X32665Y177906D01*
Y177826D01*
X32650Y177747D01*
Y176584D01*
X32665Y176505D01*
Y176425D01*
X32892Y175284D01*
X32923Y175210D01*
X32939Y175131D01*
X33384Y174056D01*
X33428Y173989D01*
X33459Y173915D01*
X34105Y172948D01*
X34162Y172891D01*
X34207Y172825D01*
X35029Y172002D01*
X35096Y171957D01*
X35153Y171901D01*
X36120Y171254D01*
X36194Y171224D01*
X36261Y171179D01*
X37336Y170734D01*
X37414Y170718D01*
X37488Y170688D01*
X38629Y170461D01*
X38710D01*
X38788Y170445D01*
X39952D01*
X40031Y170461D01*
X40111D01*
X41252Y170688D01*
X41326Y170718D01*
X41405Y170734D01*
X42479Y171179D01*
X42546Y171224D01*
X42620Y171254D01*
X43587Y171901D01*
X43644Y171957D01*
X43711Y172002D01*
X44533Y172825D01*
X44578Y172891D01*
X44635Y172948D01*
X45281Y173915D01*
X45312Y173989D01*
X45356Y174056D01*
X45801Y175131D01*
X45817Y175210D01*
X45848Y175284D01*
X46075Y176425D01*
Y176505D01*
X46090Y176584D01*
Y177747D01*
X46075Y177826D01*
Y177906D01*
X45848Y179047D01*
X45817Y179121D01*
X45801Y179200D01*
X45356Y180274D01*
X45312Y180341D01*
X45281Y180415D01*
X44635Y181383D01*
X44578Y181439D01*
X44533Y181506D01*
X43711Y182329D01*
X43644Y182373D01*
X43587Y182430D01*
X42620Y183076D01*
X42546Y183107D01*
X42479Y183152D01*
X41405Y183597D01*
X41326Y183612D01*
X41252Y183643D01*
X40111Y183870D01*
X40031D01*
X39952Y183886D01*
D02*
G37*
G36*
X437020Y165858D02*
X432665D01*
Y160913D01*
X437020D01*
Y162069D01*
X438759D01*
X438991Y161914D01*
X439764Y161760D01*
X440536Y161914D01*
X441191Y162352D01*
X441629Y163007D01*
X441783Y163779D01*
X441629Y164552D01*
X441191Y165207D01*
X440536Y165645D01*
X439764Y165799D01*
X438991Y165645D01*
X438336Y165207D01*
X437999Y164702D01*
X437020D01*
Y165858D01*
D02*
G37*
G36*
X456298Y165798D02*
X455526Y165645D01*
X454871Y165207D01*
X454433Y164552D01*
X454279Y163779D01*
X454327Y163537D01*
X453073Y162283D01*
X452808Y161886D01*
X452714Y161418D01*
Y159559D01*
X451957D01*
Y154614D01*
X456311D01*
Y159559D01*
X455160D01*
Y160912D01*
X456056Y161808D01*
X456298Y161760D01*
X456956Y161891D01*
X457036Y161811D01*
X457190Y161038D01*
X457627Y160383D01*
X457832Y160246D01*
Y159559D01*
X457075D01*
Y154614D01*
X461429D01*
Y159559D01*
X460278D01*
Y160246D01*
X460483Y160383D01*
X460920Y161038D01*
X461074Y161811D01*
X460920Y162584D01*
X460483Y163239D01*
X459828Y163676D01*
X459055Y163830D01*
X458397Y163699D01*
X458317Y163779D01*
X458164Y164552D01*
X457726Y165207D01*
X457071Y165645D01*
X456298Y165798D01*
D02*
G37*
G36*
X518159Y154270D02*
X514911D01*
X514388Y154166D01*
X513945Y153870D01*
X513649Y153427D01*
X513545Y152904D01*
Y147097D01*
X513649Y146573D01*
X513778Y146380D01*
X513019Y145622D01*
X512992Y145627D01*
X512104Y145451D01*
X511351Y144948D01*
X510849Y144195D01*
X510672Y143307D01*
X510849Y142419D01*
X511351Y141666D01*
X512104Y141164D01*
X512992Y140987D01*
X513880Y141164D01*
X514633Y141666D01*
X514843Y141980D01*
X515343Y141829D01*
Y136182D01*
X512875Y133715D01*
X512413Y133906D01*
Y139028D01*
X509299D01*
Y143307D01*
Y145768D01*
X509627Y145834D01*
X510071Y146130D01*
X510367Y146573D01*
X510471Y147097D01*
Y152904D01*
X510367Y153427D01*
X510071Y153870D01*
X509627Y154166D01*
X509104Y154270D01*
X505856D01*
X505333Y154166D01*
X504890Y153870D01*
X504594Y153427D01*
X504490Y152904D01*
Y147097D01*
X504594Y146573D01*
X504890Y146130D01*
X505333Y145834D01*
X505662Y145768D01*
Y145125D01*
X503343D01*
X502856Y145451D01*
X501968Y145627D01*
X501081Y145451D01*
X500328Y144948D01*
X499825Y144195D01*
X499648Y143307D01*
X499825Y142419D01*
X500328Y141666D01*
X501081Y141164D01*
X501968Y140987D01*
X502856Y141164D01*
X503343Y141489D01*
X505662D01*
Y139028D01*
X503020D01*
Y112941D01*
X512413D01*
Y128110D01*
X514881Y130577D01*
X515343Y130385D01*
Y128138D01*
X525799D01*
Y143516D01*
X516142D01*
X515950Y143978D01*
X517679Y145706D01*
X517695Y145730D01*
X518159D01*
X518682Y145834D01*
X519126Y146130D01*
X519422Y146573D01*
X519526Y147097D01*
Y152904D01*
X519422Y153427D01*
X519126Y153870D01*
X518682Y154166D01*
X518159Y154270D01*
D02*
G37*
G36*
X476378Y134303D02*
X475605Y134149D01*
X474950Y133711D01*
X474710Y133351D01*
X474108D01*
X473868Y133711D01*
X473213Y134149D01*
X472440Y134302D01*
X471667Y134149D01*
X471012Y133711D01*
X470575Y133056D01*
X470421Y132283D01*
X470468Y132047D01*
X470437Y132001D01*
X470337Y131497D01*
Y129244D01*
X469673D01*
Y124299D01*
X474027D01*
Y129244D01*
X472970D01*
Y130370D01*
X473213Y130418D01*
X473868Y130856D01*
X474108Y131216D01*
X474710D01*
X474950Y130856D01*
X475605Y130418D01*
X475943Y130351D01*
Y129244D01*
X474791D01*
Y124299D01*
X479146D01*
Y129244D01*
X478388D01*
Y131496D01*
X478314Y131867D01*
X478397Y132283D01*
X478243Y133056D01*
X477806Y133711D01*
X477151Y134149D01*
X476378Y134303D01*
D02*
G37*
G36*
X481114Y140268D02*
X476760D01*
Y135323D01*
X479035D01*
X479678Y134680D01*
Y133914D01*
X479631Y133844D01*
X479477Y133071D01*
X479631Y132298D01*
X480068Y131643D01*
X480723Y131205D01*
X481496Y131052D01*
X482269Y131205D01*
X482924Y131643D01*
X483149Y131981D01*
X483649Y131829D01*
Y123859D01*
X482869Y123078D01*
X475646D01*
X475576Y123125D01*
X474803Y123279D01*
X474030Y123125D01*
X473375Y122688D01*
X472938Y122033D01*
X472784Y121260D01*
X472938Y120487D01*
X473375Y119832D01*
X474030Y119395D01*
X474803Y119241D01*
X475576Y119395D01*
X475646Y119441D01*
X483622D01*
X483649Y119419D01*
Y112941D01*
X493043D01*
Y123579D01*
X494013D01*
X494029Y123556D01*
X494781Y123053D01*
X495669Y122877D01*
X496557Y123053D01*
X497310Y123556D01*
X497813Y124309D01*
X497990Y125197D01*
X497813Y126085D01*
X497310Y126838D01*
X496557Y127340D01*
X495669Y127517D01*
X494781Y127340D01*
X494029Y126838D01*
X494013Y126814D01*
X493043D01*
Y139028D01*
X483649D01*
Y136479D01*
X483569Y136425D01*
X482890Y136556D01*
X482782Y136719D01*
X481114Y138387D01*
Y140268D01*
D02*
G37*
G36*
X468122Y129244D02*
X463768D01*
Y124299D01*
X466100D01*
Y124015D01*
X466193Y123547D01*
X466458Y123150D01*
X468107Y121501D01*
X468059Y121260D01*
X468212Y120487D01*
X468650Y119832D01*
X469305Y119394D01*
X470078Y119240D01*
X470851Y119394D01*
X471505Y119832D01*
X471943Y120487D01*
X472097Y121260D01*
X471943Y122032D01*
X471505Y122687D01*
X470851Y123125D01*
X470078Y123279D01*
X469836Y123231D01*
X468545Y124521D01*
Y126772D01*
X468452Y127240D01*
X468187Y127636D01*
X468122Y127680D01*
Y129244D01*
D02*
G37*
G36*
X463004D02*
X458650D01*
Y124299D01*
X459510D01*
Y123030D01*
X459610Y122527D01*
X459896Y122099D01*
X463754Y118241D01*
X463728Y118110D01*
X463882Y117337D01*
X464319Y116682D01*
X464974Y116245D01*
X465747Y116091D01*
X466520Y116245D01*
X467175Y116682D01*
X467613Y117337D01*
X467766Y118110D01*
X467613Y118883D01*
X467175Y119538D01*
X466520Y119975D01*
X465747Y120129D01*
X465616Y120103D01*
X462143Y123576D01*
Y124299D01*
X463004D01*
Y129244D01*
D02*
G37*
G36*
X453149Y122885D02*
X452376Y122731D01*
X451721Y122294D01*
X451283Y121639D01*
X451130Y120866D01*
X451283Y120093D01*
X451721Y119438D01*
X452227Y119100D01*
Y118614D01*
X451563D01*
Y113669D01*
X455917D01*
Y118133D01*
X455917Y118148D01*
X455917Y118148D01*
X455917Y118319D01*
X456380Y118501D01*
X456417Y118495D01*
X456533Y118322D01*
X456681Y118100D01*
Y113669D01*
X461035D01*
Y118614D01*
X460372D01*
Y119290D01*
X460272Y119794D01*
X460149Y119977D01*
X460132Y120064D01*
X459694Y120719D01*
X459039Y121157D01*
X458267Y121310D01*
X457494Y121157D01*
X456839Y120719D01*
X456401Y120064D01*
X456281Y119459D01*
X456248Y119291D01*
X456309Y118983D01*
X456327Y118769D01*
X455872Y118614D01*
X455540Y118614D01*
X454860D01*
Y119863D01*
X455014Y120093D01*
X455168Y120866D01*
X455014Y121639D01*
X454576Y122294D01*
X453921Y122731D01*
X453149Y122885D01*
D02*
G37*
G36*
X134646Y121310D02*
X133873Y121157D01*
X133218Y120719D01*
X132780Y120064D01*
X132627Y119291D01*
X132684Y119001D01*
X132367Y118614D01*
X132272D01*
Y113669D01*
X136626D01*
Y118614D01*
X136626D01*
X136549Y118708D01*
X136665Y119291D01*
X136511Y120064D01*
X136073Y120719D01*
X135418Y121157D01*
X134646Y121310D01*
D02*
G37*
G36*
X129134Y122885D02*
X128361Y122731D01*
X127706Y122294D01*
X127269Y121639D01*
X127115Y120866D01*
X127269Y120094D01*
X127706Y119438D01*
X127817Y119364D01*
Y118614D01*
X127154D01*
Y113669D01*
X131508D01*
Y118614D01*
X130450D01*
Y119364D01*
X130562Y119438D01*
X130999Y120094D01*
X131153Y120866D01*
X130999Y121639D01*
X130562Y122294D01*
X129906Y122731D01*
X129134Y122885D01*
D02*
G37*
G36*
X148031Y134303D02*
X147259Y134149D01*
X146604Y133711D01*
X146166Y133056D01*
X146012Y132283D01*
X146166Y131511D01*
X146604Y130856D01*
X146715Y130781D01*
Y117827D01*
X146445D01*
Y112882D01*
X150799D01*
Y117827D01*
X149348D01*
Y130781D01*
X149459Y130856D01*
X149897Y131511D01*
X150051Y132283D01*
X149897Y133056D01*
X149459Y133711D01*
X148804Y134149D01*
X148031Y134303D01*
D02*
G37*
G36*
X142534Y122271D02*
X141761Y122117D01*
X141106Y121680D01*
X140668Y121025D01*
X140515Y120252D01*
X140668Y119479D01*
X141106Y118824D01*
X141297Y118696D01*
Y117636D01*
X141217Y117232D01*
Y116915D01*
X141317Y116411D01*
X141327Y116397D01*
Y112882D01*
X145681D01*
Y117827D01*
X143931D01*
Y118804D01*
X143961Y118824D01*
X144399Y119479D01*
X144553Y120252D01*
X144399Y121025D01*
X143961Y121680D01*
X143306Y122117D01*
X142534Y122271D01*
D02*
G37*
G36*
X207098Y145091D02*
X202350D01*
Y140933D01*
X206995D01*
X207211Y140732D01*
X207270Y140287D01*
X207191Y140185D01*
X207074Y140169D01*
X206648Y140169D01*
X206648Y140169D01*
X206641Y140169D01*
X202350D01*
Y136675D01*
X200974D01*
X200837Y136881D01*
X200182Y137318D01*
X199409Y137472D01*
X196063D01*
X195290Y137318D01*
X194635Y136881D01*
X194197Y136225D01*
X194044Y135453D01*
X194197Y134680D01*
X194635Y134025D01*
X195290Y133587D01*
X196063Y133434D01*
X199409D01*
X200182Y133587D01*
X200837Y134025D01*
X200974Y134230D01*
X203661D01*
X204129Y134324D01*
X204526Y134588D01*
X205589Y135651D01*
X205589Y135651D01*
X205830Y136012D01*
X207098D01*
Y139679D01*
X207098Y139685D01*
X207098Y139685D01*
X207098Y139739D01*
X207184Y140085D01*
X207406Y140134D01*
X207655Y140066D01*
X208021Y139517D01*
X208676Y139079D01*
X209449Y138926D01*
X210222Y139079D01*
X210876Y139517D01*
X211314Y140172D01*
X211468Y140945D01*
X211314Y141718D01*
X210876Y142373D01*
X210222Y142810D01*
X209449Y142964D01*
X209087Y142892D01*
X208174Y143804D01*
X207811Y144047D01*
X207382Y144132D01*
X207098D01*
Y145091D01*
D02*
G37*
G36*
X199409Y132472D02*
X196063D01*
X195290Y132318D01*
X194635Y131880D01*
X194498Y131675D01*
X191476D01*
X191476Y131675D01*
X191443Y131668D01*
X191439Y131671D01*
X190551Y131848D01*
X189663Y131671D01*
X188911Y131168D01*
X188408Y130415D01*
X188231Y129528D01*
X188408Y128640D01*
X188911Y127887D01*
X189663Y127384D01*
X190551Y127207D01*
X191045Y127305D01*
X193762Y124588D01*
X194158Y124323D01*
X194478Y124260D01*
X194635Y124025D01*
X195290Y123587D01*
X196063Y123434D01*
X199409D01*
X200182Y123587D01*
X200837Y124025D01*
X201275Y124680D01*
X201429Y125453D01*
X201275Y126225D01*
X200837Y126881D01*
X200182Y127318D01*
X199409Y127472D01*
X196063D01*
X195290Y127318D01*
X194810Y126997D01*
X193077Y128730D01*
X193284Y129230D01*
X194498D01*
X194635Y129025D01*
X195290Y128587D01*
X196063Y128434D01*
X199409D01*
X200182Y128587D01*
X200837Y129025D01*
X201275Y129680D01*
X201429Y130453D01*
X201275Y131225D01*
X200837Y131880D01*
X200182Y132318D01*
X199409Y132472D01*
D02*
G37*
G36*
X250492Y93335D02*
X249508D01*
X249196Y93273D01*
X248932Y93096D01*
X248755Y92831D01*
X248693Y92520D01*
Y91272D01*
X248572Y91192D01*
X248135Y90536D01*
X247981Y89764D01*
X248135Y88991D01*
X248572Y88336D01*
X249227Y87898D01*
X250000Y87745D01*
X250773Y87898D01*
X251428Y88336D01*
X251865Y88991D01*
X252019Y89764D01*
X251865Y90536D01*
X251428Y91192D01*
X251307Y91272D01*
Y92520D01*
X251245Y92831D01*
X251068Y93096D01*
X250804Y93273D01*
X250492Y93335D01*
D02*
G37*
G36*
X55610D02*
X54626D01*
X54314Y93273D01*
X54050Y93096D01*
X53873Y92831D01*
X53811Y92520D01*
Y91272D01*
X53690Y91192D01*
X53253Y90536D01*
X53099Y89764D01*
X53253Y88991D01*
X53690Y88336D01*
X54345Y87898D01*
X55118Y87745D01*
X55891Y87898D01*
X56546Y88336D01*
X56984Y88991D01*
X57137Y89764D01*
X56984Y90536D01*
X56546Y91192D01*
X56425Y91272D01*
Y92520D01*
X56363Y92831D01*
X56186Y93096D01*
X55922Y93273D01*
X55610Y93335D01*
D02*
G37*
G36*
X431595D02*
X430610D01*
X430298Y93273D01*
X430034Y93096D01*
X429857Y92831D01*
X429795Y92520D01*
Y90878D01*
X429675Y90798D01*
X429237Y90143D01*
X429083Y89370D01*
X429237Y88597D01*
X429675Y87942D01*
X430330Y87505D01*
X431102Y87351D01*
X431875Y87505D01*
X432530Y87942D01*
X432968Y88597D01*
X433121Y89370D01*
X432968Y90143D01*
X432530Y90798D01*
X432409Y90878D01*
Y92520D01*
X432347Y92831D01*
X432171Y93096D01*
X431906Y93273D01*
X431595Y93335D01*
D02*
G37*
G36*
X364665D02*
X363681D01*
X363369Y93273D01*
X363105Y93096D01*
X362928Y92831D01*
X362866Y92520D01*
Y90878D01*
X362745Y90798D01*
X362308Y90143D01*
X362154Y89370D01*
X362308Y88597D01*
X362745Y87942D01*
X363401Y87505D01*
X364173Y87351D01*
X364946Y87505D01*
X365601Y87942D01*
X366039Y88597D01*
X366192Y89370D01*
X366039Y90143D01*
X365601Y90798D01*
X365480Y90878D01*
Y92520D01*
X365418Y92831D01*
X365242Y93096D01*
X364977Y93273D01*
X364665Y93335D01*
D02*
G37*
G36*
X122539D02*
X121555D01*
X121243Y93273D01*
X120979Y93096D01*
X120802Y92831D01*
X120740Y92520D01*
Y90878D01*
X120619Y90798D01*
X120182Y90143D01*
X120028Y89370D01*
X120182Y88597D01*
X120619Y87942D01*
X121275Y87505D01*
X122047Y87351D01*
X122820Y87505D01*
X123475Y87942D01*
X123913Y88597D01*
X124066Y89370D01*
X123913Y90143D01*
X123475Y90798D01*
X123354Y90878D01*
Y92520D01*
X123292Y92831D01*
X123116Y93096D01*
X122851Y93273D01*
X122539Y93335D01*
D02*
G37*
%LPD*%
G36*
X250492Y90551D02*
X249508D01*
Y92520D01*
X250492D01*
Y90551D01*
D02*
G37*
G36*
X55610D02*
X54626D01*
Y92520D01*
X55610D01*
Y90551D01*
D02*
G37*
G36*
X431595D02*
X430610D01*
Y92520D01*
X431595D01*
Y90551D01*
D02*
G37*
G36*
X364665D02*
X363681D01*
Y92520D01*
X364665D01*
Y90551D01*
D02*
G37*
G36*
X122539D02*
X121555D01*
Y92520D01*
X122539D01*
Y90551D01*
D02*
G37*
D12*
X108661Y135827D02*
X115354Y129134D01*
X112992Y134299D02*
Y135039D01*
X116929Y133858D02*
X121260D01*
X112992Y134299D02*
X116274Y131016D01*
X118590D01*
X121653Y127953D01*
X153543Y143504D02*
Y147638D01*
Y143504D02*
X155315Y141732D01*
X460827Y123030D02*
X465747Y118110D01*
X453543Y116535D02*
Y120471D01*
X453149Y120866D02*
X453543Y120471D01*
X458267Y119291D02*
X459054D01*
X459055Y119290D01*
Y116535D02*
Y119290D01*
X460827Y123030D02*
Y126772D01*
X439764Y123622D02*
X446063Y117323D01*
X115354Y164567D02*
Y168110D01*
X148031Y116142D02*
Y132283D01*
X142614Y117312D02*
Y120171D01*
X142534Y120252D02*
X142614Y120171D01*
X142534Y116915D02*
Y117232D01*
X142614Y117312D01*
X422047Y131496D02*
X424803D01*
X427165Y129134D01*
X471654Y126772D02*
Y131497D01*
X433071Y135320D02*
Y136221D01*
X437007Y133906D02*
Y135039D01*
X443811Y130992D02*
X444882Y129921D01*
X444488Y133465D02*
X450394Y127559D01*
X439764Y123622D02*
Y127559D01*
Y129134D01*
X444882Y127559D02*
Y129921D01*
X113386Y163386D02*
X113779Y162992D01*
X148031Y116142D02*
X148819Y115354D01*
X142534Y116915D02*
X143307Y116142D01*
X476378Y165945D02*
X479134Y163189D01*
X121260Y133858D02*
X127165Y127953D01*
X109449Y151575D02*
X111811D01*
X430709D02*
X435039D01*
X479134Y162303D02*
Y163189D01*
X471654Y131497D02*
X472440Y132283D01*
X433071Y135320D02*
X439182Y129209D01*
X439689D01*
X439764Y129134D01*
X437007Y133906D02*
X439921Y130992D01*
X443811D01*
X440945Y133465D02*
X444488D01*
X113779Y162992D02*
X115354Y164567D01*
X435039Y163386D02*
X439370D01*
X439764Y163779D01*
X476378Y165945D02*
Y167913D01*
X135039Y161811D02*
Y166142D01*
X435039Y151575D02*
X435433Y151181D01*
X129134Y115354D02*
X129331Y115551D01*
X115354Y123622D02*
Y129134D01*
X129134Y115748D02*
X129331Y115551D01*
X134646Y115354D02*
X134646Y115354D01*
X129134Y115748D02*
Y120866D01*
X134646Y115354D02*
Y119291D01*
D14*
X230003Y140545D02*
X237795Y132752D01*
X230003Y140545D02*
Y153625D01*
X204724Y143012D02*
X207382D01*
X209449Y140945D01*
X211023Y163385D02*
Y169685D01*
X207874Y159449D02*
Y160236D01*
X237795Y130709D02*
Y132752D01*
X230003Y153625D02*
X236614Y160236D01*
X233382Y172130D02*
X235039Y170472D01*
X232046Y187319D02*
X233382Y185984D01*
X228658Y187319D02*
X232046D01*
X233382Y172130D02*
Y185984D01*
X191814Y161335D02*
X193701Y159449D01*
X191814Y161335D02*
Y182287D01*
X201260Y191732D01*
X204331Y159449D02*
Y164764D01*
X206299Y166732D01*
X207874Y160236D02*
X211023Y163385D01*
X206299Y173425D02*
Y179921D01*
X200000Y173425D02*
Y179921D01*
X171653Y151575D02*
Y152756D01*
X164485Y163164D02*
Y188507D01*
X164368Y163047D02*
X164485Y163164D01*
X161260Y191732D02*
X164485Y188507D01*
X159055Y167323D02*
Y173937D01*
X141260Y191732D02*
X159055Y173937D01*
X174328Y162755D02*
Y173235D01*
Y162755D02*
X175115Y161968D01*
Y156217D02*
Y161968D01*
X94075Y159823D02*
X105512Y171260D01*
X104278Y177165D02*
X116929D01*
X171653Y152756D02*
X175115Y156217D01*
X260630Y138976D02*
Y147047D01*
X226772Y185433D02*
X228658Y187319D01*
X255118Y139764D02*
Y147047D01*
X410153Y153461D02*
X412992Y156299D01*
X408032Y153461D02*
X410153D01*
X403618Y157874D02*
X408032Y153461D01*
X389173Y157874D02*
X403618D01*
X399692Y163779D02*
X407730Y155741D01*
X408977D01*
X373228Y172047D02*
X381496Y163779D01*
X264661Y172151D02*
Y178527D01*
Y172151D02*
X266732Y170079D01*
X269204Y183071D02*
X305512D01*
X264661Y178527D02*
X269204Y183071D01*
X314901Y189504D02*
X325590Y178814D01*
X313720Y189504D02*
X314901D01*
X351968Y174409D02*
X361810D01*
X364173Y176771D01*
X389173Y163779D02*
X399692D01*
X325590Y172047D02*
Y178814D01*
X369685Y171540D02*
X380513Y160712D01*
X369685Y171540D02*
Y172047D01*
X380513Y160712D02*
X381020D01*
X382480Y159252D01*
X381496Y163779D02*
X382480D01*
X170948Y191420D02*
X171260Y191732D01*
X170948Y176614D02*
Y191420D01*
Y176614D02*
X174328Y173235D01*
X79626Y174823D02*
X79982Y174467D01*
X101580D01*
X104278Y177165D01*
X79626Y159823D02*
X94075D01*
X409252Y177165D02*
Y188622D01*
X406142Y191732D02*
X409252Y188622D01*
X396260Y177165D02*
Y191614D01*
X396142Y191732D02*
X396260Y191614D01*
X383268Y177165D02*
Y188858D01*
X386142Y191732D01*
X382480Y157874D02*
Y159252D01*
X453346Y177165D02*
Y178937D01*
X466142Y191732D01*
X451732Y182365D02*
X453068Y183701D01*
Y185590D01*
X440748Y177253D02*
X444460Y180966D01*
X452312D01*
X447513Y191145D02*
X453068Y185590D01*
X428150Y177165D02*
X433350Y182365D01*
X451732D01*
X452312Y180966D02*
X456142Y184796D01*
Y191732D01*
X309685Y132989D02*
X311574D01*
X314960Y129603D01*
X310630Y126857D02*
Y130709D01*
X309313Y125540D02*
X310630Y126857D01*
X305118Y128421D02*
X309685Y132989D01*
X305118Y125590D02*
Y128421D01*
X319291Y129921D02*
Y130316D01*
X314961Y134646D02*
X319291Y130316D01*
X314960Y129527D02*
Y129603D01*
X312834Y127083D02*
X319678D01*
X311417Y125665D02*
X312834Y127083D01*
X319678D02*
X325196Y132602D01*
Y133071D01*
X308268Y123228D02*
X309313Y124273D01*
Y125540D01*
X311417Y120472D02*
Y125665D01*
D16*
X547441Y122835D02*
Y127756D01*
X543110Y132087D02*
X547441Y127756D01*
X522080Y123043D02*
X540748D01*
X477165Y116142D02*
X484118Y109189D01*
X513499D01*
X516165Y111855D01*
Y117129D01*
X522080Y123043D01*
X513398Y113002D02*
Y118276D01*
X503080Y111957D02*
X512353D01*
X513398Y113002D01*
X521118Y125996D02*
X529441D01*
X513398Y118276D02*
X521118Y125996D01*
X529441D02*
X539272Y135827D01*
X543110Y131988D02*
Y132087D01*
X539272Y135827D02*
X543110Y131988D01*
X500394Y114643D02*
Y125197D01*
Y114643D02*
X503080Y111957D01*
X525591Y149508D02*
Y150000D01*
Y149508D02*
X539272Y135827D01*
X517559D02*
X520571D01*
X507717Y125984D02*
X517559Y135827D01*
X429698Y141917D02*
X442170D01*
X116142Y147244D02*
X124028Y155130D01*
X154576D01*
X161638Y148067D01*
X434668Y145252D02*
X435039Y144882D01*
X222580Y128579D02*
X234009Y117150D01*
X210732Y128579D02*
X222580D01*
X221433Y125811D02*
X233071Y114173D01*
X211878Y125811D02*
X221433D01*
X234009Y117150D02*
X245783D01*
X225012Y118040D02*
X232225Y110827D01*
X225012Y118040D02*
Y118078D01*
X220046Y123043D02*
X225012Y118078D01*
X213024Y123043D02*
X220046D01*
X208059Y118078D02*
X213024Y123043D01*
X208059Y117082D02*
Y118078D01*
X200863Y109886D02*
X208059Y117082D01*
X169271Y109886D02*
X200863D01*
X232225Y110827D02*
X242126D01*
X158870Y120287D02*
X169271Y109886D01*
X205291Y119224D02*
X211878Y125811D01*
X205291Y118228D02*
Y119224D01*
X199945Y112882D02*
X205291Y118228D01*
X202524Y120371D02*
X210732Y128579D01*
X202524Y119375D02*
Y120371D01*
X199181Y116032D02*
X202524Y119375D01*
X250134Y116657D02*
X251322Y115470D01*
X246275Y116657D02*
X250134D01*
X248988Y113890D02*
X250224Y112654D01*
X245128Y113890D02*
X248988D01*
X247441Y110827D02*
X247638Y110630D01*
X248382Y109886D01*
X245783Y117150D02*
X246275Y116657D01*
X244636Y114382D02*
X245128Y113890D01*
X233279Y114382D02*
X244636D01*
X251322Y115470D02*
X294348D01*
X250224Y112654D02*
X295724D01*
X81988Y133563D02*
X99213Y150787D01*
X78839Y133563D02*
X81988D01*
X148118Y174067D02*
X167855Y154330D01*
X168504D01*
X164406Y139925D02*
Y149214D01*
X155722Y157898D02*
X164406Y149214D01*
X161638Y121433D02*
Y148067D01*
X158870Y120287D02*
Y146921D01*
X154894Y150898D02*
X158870Y146921D01*
X106897Y174067D02*
X148118D01*
X101992Y157898D02*
X155722D01*
X149323Y150898D02*
X154894D01*
X148031Y149606D02*
X149323Y150898D01*
X101992Y157898D02*
X107480Y163386D01*
X431102Y95571D02*
Y117323D01*
X423425Y125000D02*
X431102Y117323D01*
X414173Y125000D02*
X423425D01*
X427279Y145252D02*
X434668D01*
X414173Y132146D02*
X427279Y145252D01*
X414173Y130118D02*
Y132146D01*
X414087Y130032D02*
X414173Y130118D01*
X464567Y111023D02*
X472047D01*
X441986D02*
X464567D01*
X427165Y125844D02*
X441986Y111023D01*
X472047D02*
X477165Y116142D01*
X474803Y121260D02*
X483622D01*
X427165Y125844D02*
Y129134D01*
X101969Y157874D02*
X102386D01*
X101969Y153543D02*
Y157874D01*
X248382Y109886D02*
X354484D01*
X242126Y110827D02*
X247441D01*
X358059Y116503D02*
X369449Y127894D01*
X358059Y113461D02*
Y116503D01*
X369449Y127894D02*
X394937D01*
X352120Y114764D02*
X368017Y130661D01*
X350787Y114764D02*
X352120D01*
X354898Y121457D02*
X366871Y133429D01*
X350787Y121457D02*
X354898D01*
X357295Y127768D02*
X365724Y136197D01*
X342311Y127768D02*
X357295D01*
X366871Y133429D02*
X392644D01*
X365724Y136197D02*
X391498D01*
X368017Y130661D02*
X393791D01*
X495866Y175984D02*
X516535D01*
X490158Y181693D02*
X495866Y175984D01*
X489752Y182098D02*
X490158Y181693D01*
X467670Y182098D02*
X489752D01*
X476142Y191732D02*
X479488Y188386D01*
X525591Y150000D02*
Y153543D01*
X295724Y112654D02*
X296457Y113386D01*
X294348Y115470D02*
X295229Y116350D01*
X297685D01*
X349803Y113779D02*
X350787Y114764D01*
X343110Y113779D02*
X349803D01*
X335630D02*
X343110D01*
X170189Y112882D02*
X199945D01*
X188299Y116032D02*
X199181D01*
X178878Y125453D02*
X188299Y116032D01*
X233071Y114173D02*
X233279Y114382D01*
X161638Y121433D02*
X170189Y112882D01*
X334842Y124803D02*
X335630Y124016D01*
X330118Y124803D02*
X334842D01*
X325000D02*
Y125000D01*
Y123819D02*
Y124803D01*
Y123819D02*
X328740Y120079D01*
X329389Y137795D02*
X333858D01*
X410261Y141547D02*
X426563Y157849D01*
X402362Y144882D02*
X409682D01*
X422835Y158035D01*
X397075Y130032D02*
X414087D01*
X409322Y148437D02*
X419870Y158985D01*
X343319Y148437D02*
X409322D01*
X422835Y158035D02*
Y160630D01*
X426563Y157849D02*
Y164173D01*
X419870Y158985D02*
Y160630D01*
X425984Y153196D02*
X429527Y156738D01*
X425984Y151575D02*
Y153196D01*
X429527Y156738D02*
Y163386D01*
X397858Y170646D02*
X409449Y159055D01*
X343110Y124016D02*
Y126969D01*
X342311Y127768D02*
X343110Y126969D01*
X336405Y127768D02*
X342311D01*
X335630Y126992D02*
X336405Y127768D01*
X335630Y124016D02*
Y126992D01*
X335028Y138964D02*
X359854D01*
X333858Y137795D02*
X335028Y138964D01*
X339370Y120264D02*
Y124016D01*
X379870Y170646D02*
X397858D01*
X375590Y174925D02*
X379870Y170646D01*
X375590Y174925D02*
Y179921D01*
X371544Y182886D02*
X376818D01*
X366142Y188288D02*
X371544Y182886D01*
X378555Y175875D02*
Y181149D01*
Y175875D02*
X381017Y173413D01*
X376818Y182886D02*
X378555Y181149D01*
X381017Y173413D02*
X389960D01*
X328011Y139173D02*
X329389Y137795D01*
X358583Y140236D02*
X359854Y138964D01*
X403543Y135567D02*
X409766D01*
X426132Y148020D02*
X436674D01*
X410912Y132799D02*
X426132Y148020D01*
X427165Y139384D02*
X429698Y141917D01*
X338583Y143701D02*
X343319Y148437D01*
X495275Y142305D02*
Y144291D01*
X492983Y140012D02*
X495275Y142305D01*
X484029Y140012D02*
X492983D01*
X482308Y141732D02*
X484029Y140012D01*
X479134Y137795D02*
X481496Y135433D01*
X467520Y141732D02*
X482308D01*
X466720Y158476D02*
X473622Y151575D01*
Y145669D02*
Y151575D01*
X467520Y141732D02*
Y146063D01*
Y137401D02*
Y141732D01*
X467913Y137795D02*
X473622D01*
X467913Y145669D02*
X473622D01*
X442170Y141917D02*
X446316Y146063D01*
X454528D01*
X164406Y139925D02*
X178878Y125453D01*
X481496Y133071D02*
Y135433D01*
X427165Y134646D02*
Y139384D01*
X470137Y174606D02*
X476378D01*
X358583Y140236D02*
Y143701D01*
X101969Y150394D02*
X102953D01*
X100394Y151969D02*
X101969Y150394D01*
X143110Y141732D02*
X143110Y141732D01*
X148622D01*
X107480Y163386D02*
X107874D01*
X104284Y174224D02*
X106740D01*
X106897Y174067D01*
X94882Y164823D02*
X104284Y174224D01*
X79626Y164823D02*
X94882D01*
X326772Y139173D02*
X328011D01*
X99213Y150787D02*
X100394Y151969D01*
X101969Y153543D01*
X53532Y158595D02*
X55268Y156858D01*
X53532Y158595D02*
Y176051D01*
X69213Y191732D01*
X71260D01*
X69547Y164823D02*
X79626D01*
X55268Y156858D02*
X61582D01*
X69547Y164823D01*
X436674Y148020D02*
X439836Y151181D01*
X440945D01*
X425773Y151575D02*
X425984D01*
X409766Y135567D02*
X425773Y151575D01*
X415736Y173413D02*
X415945Y173622D01*
Y177165D01*
X402953Y173610D02*
Y177165D01*
X402756Y173413D02*
X402953Y173610D01*
X389961Y173414D02*
Y177165D01*
X389960Y173413D02*
X389961Y173414D01*
X423019Y188609D02*
X426142Y191732D01*
X423019Y170472D02*
Y188609D01*
X482283Y174606D02*
Y174803D01*
X466720Y158476D02*
Y170854D01*
X470472Y174606D01*
X426169Y163779D02*
X426563Y164173D01*
X423019Y170472D02*
X424999Y172453D01*
X416142Y191732D02*
X419673Y188201D01*
X423019Y170082D02*
Y170472D01*
X419673Y170650D02*
Y188201D01*
X426563Y164173D02*
Y165798D01*
X425983Y163779D02*
X426169D01*
X419870Y166933D02*
X423019Y170082D01*
X389960Y173413D02*
X402756D01*
X366142Y188288D02*
Y191732D01*
X414961Y163386D02*
Y165938D01*
X419673Y170650D01*
X411811Y162343D02*
Y173413D01*
Y162343D02*
X413733Y160421D01*
X419661D01*
X419870Y160630D01*
X422835D02*
Y165984D01*
X426536Y169685D01*
X402756Y173413D02*
X411811D01*
X415736D01*
X419870Y160630D02*
Y166933D01*
X466709Y166917D02*
X466720Y166929D01*
X426563Y165798D02*
X427682Y166917D01*
X466709D01*
X436142Y191732D02*
X443228Y184646D01*
X450787D01*
X426536Y169685D02*
X459548D01*
X478740Y178347D02*
X482283Y174803D01*
X459548Y169685D02*
X468210Y178347D01*
X458024Y172453D02*
X467670Y182098D01*
X468898Y178347D02*
X478740D01*
X447441Y172650D02*
Y177253D01*
X424999Y172453D02*
X458024D01*
X434842Y172650D02*
Y177165D01*
X326772Y145866D02*
X328937Y143701D01*
X338583D01*
X297685Y116350D02*
X306295D01*
X336615Y120264D02*
X339370D01*
X332493Y116142D02*
X336615Y120264D01*
X339370D02*
X349595D01*
X350787Y121457D01*
X351749D01*
X395929Y132799D02*
X410912D01*
X394782Y135567D02*
X403543D01*
X393884Y138583D02*
X398425D01*
X392934Y141547D02*
X410261D01*
X325000Y125000D02*
X326628Y126628D01*
X296457Y113386D02*
X297189Y112654D01*
X306295Y116350D02*
X307224Y115421D01*
X394937Y127894D02*
X397075Y130032D01*
X393791Y130661D02*
X395929Y132799D01*
X392644Y133429D02*
X394782Y135567D01*
X391498Y136197D02*
X393884Y138583D01*
X359854Y138964D02*
X390351D01*
X392934Y141547D01*
X326628Y126628D02*
Y127809D01*
X333858Y135039D01*
Y137795D01*
X334504Y112654D02*
X335630Y113779D01*
X354484Y109886D02*
X358059Y113461D01*
X297189Y112654D02*
X334504D01*
X328020Y115421D02*
X328740Y116142D01*
X307224Y115421D02*
X328020D01*
X507480Y126221D02*
X507717Y125984D01*
X523622Y155512D02*
X525591Y153543D01*
X503150Y155512D02*
X523622D01*
X501181Y153543D02*
X503150Y155512D01*
X495275Y144291D02*
X501181Y150197D01*
Y153543D01*
X482283Y174606D02*
X484449D01*
X507480Y126221D02*
Y143307D01*
Y150000D01*
X483622Y121260D02*
X487559Y125197D01*
X484646Y187008D02*
Y188386D01*
X479488D02*
X484646D01*
X490158D01*
X483465Y185827D02*
X484646Y187008D01*
X484449Y174606D02*
X488189Y170866D01*
X501968Y143307D02*
X507480D01*
X498032Y156693D02*
X501181Y153543D01*
X494488Y156693D02*
X498032D01*
X97256Y131091D02*
X100799D01*
X96457Y131890D02*
X97256Y131091D01*
X100799D02*
X102756Y129134D01*
Y124409D02*
Y129134D01*
Y124409D02*
X116929Y110236D01*
X137008D01*
D17*
X467323Y124015D02*
X470078Y121260D01*
X467323Y124015D02*
Y126772D01*
X262402Y133071D02*
X265551Y136221D01*
X267717D01*
X293543Y139031D02*
X294531Y138043D01*
X291943Y138369D02*
Y141666D01*
Y138369D02*
X292932Y137381D01*
X255512Y176914D02*
X261811Y170615D01*
X255512Y176914D02*
Y181496D01*
X299213Y144882D02*
X299606Y144488D01*
X300394D01*
X297244Y144882D02*
X299213D01*
X296359Y143997D02*
X297244Y144882D01*
X294274Y143997D02*
X296359D01*
X291943Y141666D02*
X294274Y143997D01*
X295923Y140017D02*
X296130Y139810D01*
X298013Y142398D02*
X298070Y142341D01*
X294937Y142398D02*
X298013D01*
X293543Y141003D02*
X294937Y142398D01*
X293543Y139031D02*
Y141003D01*
X267717Y136221D02*
X270055Y133882D01*
X476378Y132283D02*
X477165Y131496D01*
Y126772D02*
Y131496D01*
X459055Y157480D02*
X459449Y157087D01*
X270055Y133882D02*
X281078D01*
X93110Y179134D02*
Y189882D01*
X91260Y191732D02*
X93110Y189882D01*
X99803Y179134D02*
Y190276D01*
X101260Y191732D01*
X93110Y179134D02*
X93110Y179134D01*
X75242Y179134D02*
X93110D01*
X58169Y169823D02*
X65930D01*
X75242Y179134D01*
X76967Y177203D02*
X89864D01*
X91101Y175966D01*
X96635D01*
X99803Y179134D01*
X58169Y164823D02*
X64587D01*
X76967Y177203D01*
X459055Y157480D02*
Y161811D01*
X453937Y157087D02*
Y161418D01*
X456298Y163779D01*
X281078Y133882D02*
X287795Y127165D01*
X293705Y122437D02*
X294933Y123664D01*
X293609Y120079D02*
X295595Y122065D01*
X287795Y127165D02*
X288583D01*
X292932Y129546D02*
Y137381D01*
X294531Y130116D02*
Y138043D01*
X296130Y130116D02*
Y139810D01*
D19*
X512992Y143307D02*
X516535Y146850D01*
X242137Y153161D02*
X243307Y154331D01*
X241338Y130708D02*
Y131874D01*
X240933Y132279D02*
X241338Y131874D01*
X240933Y132279D02*
Y137012D01*
X249212Y130708D02*
X250984Y132481D01*
X242137Y138216D02*
Y153161D01*
X240933Y137012D02*
X242137Y138216D01*
X247134Y142213D02*
X250996Y138351D01*
X247134Y142213D02*
Y150480D01*
X250996Y134646D02*
Y138351D01*
X247134Y150480D02*
X250197Y153543D01*
X250996Y134646D02*
X256496D01*
X250984D02*
X250996D01*
X256496D02*
X256496Y134645D01*
X250984Y132481D02*
Y134646D01*
X327953Y162205D02*
X332295Y157862D01*
Y150918D02*
Y157862D01*
X331366Y149988D02*
X332295Y150918D01*
X266535Y153543D02*
X272047D01*
Y158661D02*
X272047Y158661D01*
X272047Y153543D02*
Y158661D01*
X250197Y153543D02*
X255512D01*
X255709Y153347D01*
X261023D01*
X261220Y153543D01*
X266535D01*
X266535Y153543D01*
X312992Y153543D02*
Y155118D01*
X304331Y160630D02*
X307480D01*
X312992Y155118D01*
Y153543D02*
X316547Y149988D01*
X325394Y139173D02*
X326772D01*
X321665Y142902D02*
X325394Y139173D01*
X321665Y142902D02*
Y149977D01*
X321654Y149988D02*
X321665Y149977D01*
X316547Y149988D02*
X321654D01*
X331366D01*
X516535Y159055D02*
Y175984D01*
X516535Y175984D02*
X516535Y175984D01*
X516535Y146850D02*
Y150000D01*
X487559Y125197D02*
X488346Y125984D01*
X487559Y125197D02*
X495669D01*
D20*
X86931Y146850D02*
X110667Y170587D01*
X86529Y148425D02*
X110088Y171984D01*
X36811Y148425D02*
X86529D01*
X226772Y142913D02*
X228346Y144488D01*
Y155192D01*
X232283Y142126D02*
Y149696D01*
X239370Y140551D02*
Y153617D01*
X245595Y159843D01*
X216618Y153067D02*
X224410Y145276D01*
X216618Y153067D02*
Y161968D01*
X218898Y161024D02*
X225122D01*
X222834Y167716D02*
X223130D01*
X216618Y161968D02*
X220161Y165511D01*
X215220Y149405D02*
Y162547D01*
X218688Y166015D01*
X213823Y148826D02*
Y163126D01*
X216453Y165756D01*
Y172204D01*
X212425Y148247D02*
Y163705D01*
X214173Y165453D01*
Y171260D01*
X227559Y161811D02*
X231059Y165311D01*
X215220Y149405D02*
X222524Y142102D01*
X221126Y141390D02*
X223280Y139236D01*
X221126Y141390D02*
Y141523D01*
X213823Y148826D02*
X221126Y141523D01*
X219728Y140811D02*
X222701Y137839D01*
X219728Y140811D02*
Y140944D01*
X212425Y148247D02*
X219728Y140944D01*
X218331Y140232D02*
X222122Y136441D01*
X218331Y140232D02*
Y140365D01*
X208402Y150294D02*
X218331Y140365D01*
X216933Y139654D02*
X221543Y135043D01*
X216933Y139654D02*
Y139786D01*
X207004Y149715D02*
X216933Y139786D01*
X218688Y166015D02*
Y175687D01*
X220161Y165511D02*
Y174024D01*
X216409Y172248D02*
Y173495D01*
X226772Y167717D02*
X227693Y166795D01*
X225197Y174409D02*
X225508Y174721D01*
X222524Y141969D02*
Y142102D01*
Y141969D02*
X223859Y140634D01*
X224646D01*
X236851Y128429D01*
X223280Y139236D02*
X224067D01*
X236272Y127032D01*
X222701Y137839D02*
X223488D01*
X235693Y125634D01*
X222122Y136441D02*
X222910D01*
X235114Y124236D01*
X221543Y135043D02*
X222331D01*
X234535Y122839D01*
X207004Y149715D02*
Y150157D01*
X208402Y150294D02*
Y150736D01*
X223130Y167716D02*
X225705Y170291D01*
X230709Y159531D02*
X235091Y163913D01*
X226614Y159531D02*
X230709D01*
X225122Y161024D02*
X226614Y159531D01*
X198736Y151492D02*
X205669D01*
X191774Y144530D02*
X198736Y151492D01*
X198157Y152890D02*
X206247D01*
X191195Y145927D02*
X198157Y152890D01*
X206247D02*
X208402Y150736D01*
X205669Y151492D02*
X207004Y150157D01*
X171519Y144530D02*
X191774D01*
X172098Y145927D02*
X191195D01*
X167974Y150051D02*
X172098Y145927D01*
X167974Y150051D02*
Y150567D01*
X146557Y171984D02*
X167974Y150567D01*
X166577Y149472D02*
X171519Y144530D01*
X166577Y149472D02*
Y149988D01*
X145978Y170587D02*
X166577Y149988D01*
X236851Y128429D02*
X240394D01*
X236272Y127032D02*
X239815D01*
X235693Y125634D02*
X239236D01*
X235114Y124236D02*
X238657D01*
X240394Y128429D02*
X240394Y128429D01*
X235826Y141732D02*
Y152050D01*
X228346Y155192D02*
X235669Y162515D01*
X235826Y152050D02*
X245898Y162122D01*
X232283Y150484D02*
X246284Y164484D01*
X232283Y149696D02*
X232283Y149697D01*
Y150484D01*
X246284Y164484D02*
X255594D01*
X245898Y162122D02*
X252279D01*
X245595Y159843D02*
X247638D01*
X240394Y128429D02*
X277402D01*
X239815Y127031D02*
X276823D01*
X239236Y125634D02*
X276244D01*
X238657Y124236D02*
X275665D01*
X238078Y122838D02*
X275086D01*
X278672Y119252D01*
X275665Y124236D02*
X279251Y120650D01*
X276244Y125634D02*
X279830Y122047D01*
X276823Y127031D02*
X280409Y123445D01*
X277402Y128429D02*
X280945Y124886D01*
X239815Y127032D02*
X239815Y127031D01*
X239236Y125634D02*
X239236Y125634D01*
X238657Y124236D02*
X238657Y124236D01*
X238078Y122839D02*
X238078Y122838D01*
X234535Y122839D02*
X238078D01*
X235669Y162515D02*
X241756D01*
X235091Y163913D02*
X241177D01*
X231059Y165311D02*
X240598D01*
X227693Y166795D02*
X240106D01*
X239527Y168193D02*
X240862Y169528D01*
X231916Y168193D02*
X239527D01*
X238583Y170472D02*
Y177164D01*
X244881Y139763D02*
X245276Y140157D01*
X244881Y130708D02*
Y139763D01*
X240106Y166795D02*
X242260Y168949D01*
X229818Y170291D02*
X231916Y168193D01*
X228740Y174015D02*
Y182677D01*
X231102Y185039D01*
X225508Y174721D02*
Y183228D01*
X218644Y175731D02*
X218688Y175687D01*
X240598Y165311D02*
X243657Y168370D01*
X236614Y179132D02*
X238583Y177164D01*
X240862Y169528D02*
Y177976D01*
X242260Y168949D02*
Y177398D01*
X241177Y163913D02*
X245055Y167791D01*
X241756Y162515D02*
X246453Y167213D01*
X243657Y168370D02*
Y176819D01*
X245055Y167791D02*
Y176240D01*
X246453Y167213D02*
Y175661D01*
X250000Y143701D02*
X250787Y142913D01*
X37598Y146850D02*
X86931D01*
X34843Y144095D02*
X37598Y146850D01*
X84252Y123622D02*
X90551Y129921D01*
X220161Y174024D02*
X220924Y174786D01*
X200787Y159449D02*
Y165945D01*
X194095Y162598D02*
Y171260D01*
X190157Y149606D02*
Y190630D01*
X194095Y162598D02*
X197244Y159449D01*
X200787Y165945D02*
X200787Y165945D01*
X200000Y166732D02*
X200787Y165945D01*
X174803Y150000D02*
X176513Y151710D01*
X162205Y165354D02*
Y181102D01*
X151575Y191732D02*
X162205Y181102D01*
X110667Y170587D02*
X145978D01*
X173622Y177166D02*
Y178346D01*
Y177166D02*
X175726Y175061D01*
Y163334D02*
Y175061D01*
Y163334D02*
X176513Y162547D01*
Y151710D02*
Y162547D01*
X178347Y149606D02*
Y175591D01*
X181889Y149606D02*
Y171259D01*
X364173Y89370D02*
Y90158D01*
X431102Y89370D02*
Y90158D01*
X115846Y79921D02*
X122047Y73721D01*
X122047Y89370D02*
Y90158D01*
X110088Y171984D02*
X146557D01*
X255594Y164484D02*
X257087Y162992D01*
X252279Y162122D02*
X252362Y162205D01*
X181889Y171259D02*
X182677Y172047D01*
Y172441D01*
X225705Y170291D02*
X229818D01*
X221260Y187476D02*
X225508Y183228D01*
X221260Y187476D02*
Y191732D01*
X236614Y179132D02*
Y185433D01*
X240862Y177976D02*
X255185Y192299D01*
X242260Y177398D02*
X255764Y190901D01*
X243657Y176819D02*
X256343Y189504D01*
X245055Y176240D02*
X256921Y188106D01*
X246453Y175661D02*
X256618Y185826D01*
X237984Y187681D02*
X242938D01*
X233932Y191732D02*
X237984Y187681D01*
X250000Y143701D02*
Y147047D01*
X380981Y152362D02*
X402756D01*
X366008Y167336D02*
X380981Y152362D01*
X403535Y154807D02*
X406693Y151649D01*
X380513Y154807D02*
X403535D01*
X406693Y151575D02*
Y151649D01*
X403543Y135567D02*
Y137795D01*
X256343Y189504D02*
X313720D01*
X256921Y188106D02*
X312756D01*
X256618Y185826D02*
X307480D01*
X218898Y179528D02*
X220924Y177501D01*
Y174786D02*
Y177501D01*
X216409Y172248D02*
X216453Y172204D01*
X248953Y193696D02*
X311982D01*
X255185Y192299D02*
X312561D01*
X255764Y190901D02*
X313140D01*
X244622Y195094D02*
X311403D01*
X311404Y195095D01*
X317217D01*
X241260Y191732D02*
X244622Y195094D01*
X317217Y195095D02*
X317218Y195094D01*
X320973D01*
X347187Y168880D01*
X242938Y187681D02*
X248953Y193696D01*
X311982D02*
X311983Y193697D01*
X316638D01*
X312561Y192299D02*
X312562Y192300D01*
X316059D01*
X313140Y190901D02*
X313141Y190902D01*
X315481D01*
X231260Y191732D02*
X233932D01*
X269685Y176378D02*
Y179602D01*
X272047Y178740D02*
X287327D01*
X271102Y181019D02*
X287630D01*
X269685Y179602D02*
X271102Y181019D01*
X287630D02*
X287847Y181236D01*
X290893D01*
X287327Y178740D02*
X288426Y179839D01*
X290314D01*
X290893Y181236D02*
X291338Y180791D01*
X316638Y193697D02*
X335433Y174903D01*
X316059Y192300D02*
X331889Y176470D01*
X315481Y190902D02*
X329133Y177249D01*
X312756Y188106D02*
X320866Y179995D01*
X335433Y167717D02*
Y174903D01*
X331889Y170078D02*
Y176470D01*
X291338Y180791D02*
X307637D01*
X290759Y179394D02*
X308995D01*
X290314Y179839D02*
X290759Y179394D01*
X308995D02*
X313460Y183858D01*
X307637Y180791D02*
X310236Y183390D01*
Y183858D01*
X289370Y177559D02*
X312598D01*
X303913Y175655D02*
X312598Y166971D01*
X290832Y175655D02*
X303913D01*
X290356Y175179D02*
X290832Y175655D01*
X286990Y175179D02*
X290356D01*
X282283Y170472D02*
X286990Y175179D01*
X312598Y177559D02*
X316535Y173622D01*
X338584Y166535D02*
X351968D01*
X337402Y167717D02*
X338584Y166535D01*
X352846Y168880D02*
X355108Y166619D01*
X347187Y168880D02*
X352846D01*
X355108Y165748D02*
Y166619D01*
X353149Y171260D02*
X353248Y171160D01*
X320866Y175984D02*
Y179995D01*
X338189Y181890D02*
X350394D01*
X330709Y189370D02*
X338189Y181890D01*
X361417Y181102D02*
X363065D01*
X366452Y177716D01*
Y175433D02*
Y177716D01*
X366008Y174989D02*
X366452Y175433D01*
X366008Y167336D02*
Y174989D01*
X361343Y185039D02*
X368462Y177921D01*
X358268Y185039D02*
X361343D01*
X367406Y172992D02*
X368462Y174048D01*
Y177921D01*
X367406Y167915D02*
X380513Y154807D01*
X367406Y167915D02*
Y172992D01*
X321654Y161417D02*
Y162183D01*
X329133Y172441D02*
Y177249D01*
X335433Y167717D02*
X337402D01*
X331848Y166971D02*
X336614Y162205D01*
X312598Y166971D02*
X331848D01*
X348031Y171260D02*
X353149D01*
X355108Y165748D02*
X358651Y169291D01*
X348990Y159630D02*
X355108Y165748D01*
X335548Y159630D02*
X348990D01*
X334039Y161138D02*
X335548Y159630D01*
X334039Y161138D02*
Y162396D01*
X331164Y165272D02*
X334039Y162396D01*
X324742Y165272D02*
X331164D01*
X321654Y162183D02*
X324742Y165272D01*
X313460Y183858D02*
X313779D01*
X281496Y149606D02*
X284169Y152279D01*
X289846D02*
X292520Y149606D01*
X295358Y152445D01*
X284169Y152279D02*
X289846D01*
X190157Y190630D02*
X191260Y191732D01*
X281496Y165748D02*
X282283Y166535D01*
Y170472D01*
X281496Y165748D02*
X281890D01*
X303719Y155118D02*
X304331D01*
X295358Y152445D02*
X301046D01*
X303719Y155118D01*
X304330Y151181D02*
X304331Y151181D01*
Y155118D01*
Y155118D01*
X151260Y191732D02*
X151575D01*
X97244Y152756D02*
X99213Y150787D01*
X97244Y152756D02*
Y153937D01*
X34843Y150394D02*
X36811Y148425D01*
X279451Y120549D02*
X291817D01*
X278872Y119151D02*
X292396D01*
X293324Y120079D01*
X293609D01*
X291817Y120549D02*
X293705Y122437D01*
X280945Y124886D02*
X289920D01*
X292932Y127897D01*
Y129546D01*
X278672Y119252D02*
X278771D01*
X278872Y119151D01*
X279251Y120650D02*
X279350D01*
X279451Y120549D01*
X279830Y122047D02*
X291035D01*
X280409Y123445D02*
X290456D01*
X294531Y127519D01*
Y130116D01*
X291035Y122047D02*
X296130Y127142D01*
Y130116D01*
X320078Y134645D02*
X320783Y135350D01*
X305118Y120472D02*
X308087Y117504D01*
X318685D01*
X313779Y124803D02*
X313779D01*
X313778Y124802D02*
X313779Y124803D01*
X326140Y135350D02*
X327476Y134015D01*
X320783Y135350D02*
X326140D01*
X318685Y117504D02*
X320472Y119291D01*
X327476Y132126D02*
Y134015D01*
X313778Y124802D02*
X320151D01*
X327476Y132126D01*
X54823Y74016D02*
X55118Y73721D01*
X55118Y89764D02*
Y90551D01*
X48917Y79921D02*
X54823Y74016D01*
X46850Y79921D02*
X48917D01*
X113779D02*
X115846D01*
X355906D02*
X357972D01*
X363878Y74016D01*
X364173Y73721D01*
X422835Y79921D02*
X424901D01*
X431102Y73721D01*
D30*
X255709Y119685D02*
D03*
X263976D02*
D03*
D31*
X200000Y173425D02*
D03*
Y166732D02*
D03*
X206299Y173425D02*
D03*
Y166732D02*
D03*
X79134Y126575D02*
D03*
Y133268D02*
D03*
X495275Y144291D02*
D03*
Y150984D02*
D03*
X488976Y144291D02*
D03*
Y150984D02*
D03*
X482283Y167913D02*
D03*
Y174606D02*
D03*
X476378D02*
D03*
Y167913D02*
D03*
X470472Y174606D02*
D03*
Y167913D02*
D03*
X542520Y148228D02*
D03*
Y154921D02*
D03*
D32*
X389173Y163779D02*
D03*
X382480D02*
D03*
X389173Y157874D02*
D03*
X382480D02*
D03*
X453346Y177165D02*
D03*
X460039D02*
D03*
X440748Y177253D02*
D03*
X447441D02*
D03*
X428150Y177165D02*
D03*
X434842D02*
D03*
X415945Y177165D02*
D03*
X409252D02*
D03*
X402953Y177165D02*
D03*
X396260D02*
D03*
X389961Y177165D02*
D03*
X383268D02*
D03*
X273425Y170079D02*
D03*
X266732D02*
D03*
X263189Y134645D02*
D03*
X256496D02*
D03*
X250984Y134646D02*
D03*
X244291D02*
D03*
X148622Y141732D02*
D03*
X155315D02*
D03*
X34843Y144094D02*
D03*
X28150D02*
D03*
X34843Y150394D02*
D03*
X28150D02*
D03*
X99803Y179134D02*
D03*
X93110D02*
D03*
D39*
X330118Y124803D02*
D03*
X325000D02*
D03*
X266732Y158661D02*
D03*
X271850D02*
D03*
X478937Y151575D02*
D03*
X473819D02*
D03*
X478937Y137795D02*
D03*
X473819D02*
D03*
X478937Y145669D02*
D03*
X473819D02*
D03*
X471850Y126772D02*
D03*
X476968D02*
D03*
X460827D02*
D03*
X465945D02*
D03*
X453740Y116142D02*
D03*
X458858D02*
D03*
X459252Y157087D02*
D03*
X454134D02*
D03*
X445079Y127559D02*
D03*
X450197D02*
D03*
X429724Y163386D02*
D03*
X434842D02*
D03*
X439567Y127559D02*
D03*
X434449D02*
D03*
X143504Y115354D02*
D03*
X148622D02*
D03*
X129331Y116142D02*
D03*
X134449D02*
D03*
X134843Y161811D02*
D03*
X129724D02*
D03*
X121850Y127953D02*
D03*
X126969D02*
D03*
X108071Y163386D02*
D03*
X113189D02*
D03*
X115157Y127953D02*
D03*
X110039D02*
D03*
X102953Y150394D02*
D03*
X108071D02*
D03*
D40*
X255512Y152165D02*
D03*
Y147047D02*
D03*
X260630Y152165D02*
D03*
Y147047D02*
D03*
X287008Y165551D02*
D03*
Y160433D02*
D03*
X292520Y165551D02*
D03*
Y160433D02*
D03*
X298819Y154921D02*
D03*
Y149803D02*
D03*
X287008Y154921D02*
D03*
Y149803D02*
D03*
X281496Y160433D02*
D03*
Y165551D02*
D03*
X298819D02*
D03*
Y160433D02*
D03*
X281496Y149803D02*
D03*
Y154921D02*
D03*
X292520Y149803D02*
D03*
Y154921D02*
D03*
X304331Y155315D02*
D03*
Y160433D02*
D03*
X272047Y153347D02*
D03*
Y148228D02*
D03*
X414173Y125000D02*
D03*
Y130118D02*
D03*
X430709Y157283D02*
D03*
Y152165D02*
D03*
X427165Y129331D02*
D03*
Y134449D02*
D03*
X250394Y152165D02*
D03*
Y147047D02*
D03*
X166929Y105315D02*
D03*
Y110433D02*
D03*
X101969Y129331D02*
D03*
Y134449D02*
D03*
X266535Y153347D02*
D03*
Y148228D02*
D03*
X242126Y105709D02*
D03*
Y110827D02*
D03*
D69*
X55118Y92520D02*
D03*
Y90551D02*
D03*
X122047Y92520D02*
D03*
Y90551D02*
D03*
X250000Y92520D02*
D03*
Y90551D02*
D03*
X364173Y92520D02*
D03*
Y90551D02*
D03*
X431102Y92520D02*
D03*
Y90551D02*
D03*
D70*
X539370Y110236D02*
D03*
X39370Y177165D02*
D03*
D75*
X539272Y135827D02*
X542520Y139075D01*
Y148228D01*
X106207Y137008D02*
X110931Y141732D01*
X101969Y137008D02*
X106207D01*
X83417Y139716D02*
X90945Y147244D01*
X110931Y141732D02*
X121457D01*
X215244Y138954D02*
X222308Y131890D01*
X215244Y138954D02*
Y139087D01*
X205512Y148819D02*
X215244Y139087D01*
X205118Y148819D02*
X205512D01*
X204724Y149213D02*
X205118Y148819D01*
X222308Y131890D02*
X223096D01*
X233836Y121149D02*
X246567D01*
X247329Y120388D01*
X223096Y131890D02*
X233836Y121149D01*
X25549Y125689D02*
X27953D01*
Y125591D02*
X42079Y139716D01*
X83417D01*
X17815Y133423D02*
X25549Y125689D01*
X17815Y133423D02*
Y135827D01*
X96850Y137008D02*
X101969D01*
Y134449D02*
Y137008D01*
X297244Y116791D02*
X297685Y116350D01*
D76*
X536221Y150787D02*
X540354Y154921D01*
X542520D01*
X96063Y110236D02*
Y111811D01*
X84252Y123622D02*
X96063Y111811D01*
X107601Y147244D02*
X116142D01*
X99745Y139388D02*
X107601Y147244D01*
X95865Y139388D02*
X99745D01*
X93782Y137305D02*
X95865Y139388D01*
X108267Y132283D02*
X110039Y130511D01*
X255315Y120079D02*
X255709Y119685D01*
X204724Y136516D02*
Y138091D01*
X250787Y120079D02*
X255315D01*
X25053Y140998D02*
X28150Y144094D01*
X25053Y134626D02*
Y140998D01*
Y134626D02*
X25817Y133862D01*
X27083Y135127D01*
Y137927D01*
X27953D01*
Y135827D02*
Y137927D01*
X93782Y117242D02*
Y137305D01*
Y117242D02*
X100787Y110236D01*
X92520Y138583D02*
X93782Y137321D01*
X188583Y151575D02*
Y184409D01*
X186614Y149606D02*
X188583Y151575D01*
X192106Y120453D02*
X197736D01*
X191732Y120079D02*
X192106Y120453D01*
X250000Y89764D02*
Y90551D01*
X250000Y79134D02*
X250000Y79134D01*
X250000Y73721D02*
Y79134D01*
X432676Y131889D02*
X434449Y130117D01*
Y127559D02*
Y130117D01*
Y123819D02*
Y127559D01*
Y123819D02*
X443307Y114961D01*
X398425Y126772D02*
X405118Y120079D01*
X274803Y119291D02*
X276378Y117717D01*
X181260Y191732D02*
X188583Y184409D01*
X303251Y174057D02*
X311936Y165372D01*
X291494Y174057D02*
X303251D01*
X291018Y173581D02*
X291494Y174057D01*
X289329Y173581D02*
X291018D01*
X286221Y170472D02*
X289329Y173581D01*
X290158Y170472D02*
X292520Y168110D01*
X290158Y170472D02*
X290170D01*
X302154Y172459D02*
X312408Y162205D01*
X292156Y172459D02*
X302154D01*
X290170Y170472D02*
X292156Y172459D01*
X298819Y170079D02*
X298819Y170079D01*
Y165748D02*
Y170079D01*
X292520Y165748D02*
Y168110D01*
X322579Y159037D02*
X327953Y153664D01*
X320668Y159037D02*
X322579D01*
X319274Y160432D02*
X320668Y159037D01*
X319274Y160432D02*
Y162343D01*
X316245Y165372D02*
X319274Y162343D01*
X327953Y153543D02*
Y153664D01*
X203661Y135453D02*
X204724Y136516D01*
X197736Y135453D02*
X203661D01*
X280709Y150394D02*
X281496Y149606D01*
X271870Y163193D02*
X275197D01*
X271677Y163386D02*
X271870Y163193D01*
X273425Y168523D02*
X278974Y162974D01*
X273425Y168523D02*
Y170079D01*
X278974Y162974D02*
X279545D01*
X281496Y161024D01*
X78543Y126378D02*
X78937Y126772D01*
X470472Y163780D02*
X471654Y162598D01*
X470472Y163780D02*
Y165945D01*
X79134Y126575D02*
X81299D01*
X271654Y136614D02*
X283858D01*
X271654D02*
X272047Y137008D01*
X311936Y165372D02*
X316245D01*
X312408Y162205D02*
X312992D01*
X272047Y137008D02*
Y148031D01*
X266929Y137008D02*
X267717Y136221D01*
X276772Y150394D02*
X280709D01*
X279921Y153937D02*
X281496Y155512D01*
Y155118D02*
Y155512D01*
X276772Y153937D02*
X279921D01*
X274016Y160236D02*
X276772D01*
X272047Y158661D02*
X273622Y160236D01*
X266535Y158661D02*
X266547Y158650D01*
X298819Y160236D02*
X298819Y160236D01*
X292520Y160236D02*
X298819D01*
X286221Y166535D02*
X287008Y165748D01*
X266929Y137008D02*
Y148031D01*
X178878Y125453D02*
X179390D01*
X176279D02*
X178878D01*
X191476Y130453D02*
X197736D01*
X176279Y120453D02*
X177165Y119567D01*
Y116142D02*
Y119567D01*
X486220Y144291D02*
X488976D01*
X479724Y150984D02*
X488976D01*
X479134Y151575D02*
X479724Y150984D01*
X494094Y150984D02*
Y152362D01*
X489764Y156693D02*
X494094Y152362D01*
X409449Y110630D02*
X409842Y110236D01*
X409449Y110630D02*
Y125591D01*
X484842Y145669D02*
X486220Y144291D01*
X479134Y145669D02*
X484842D01*
X78937Y126772D02*
X79134Y126575D01*
X487008Y156693D02*
X489764D01*
X405118Y110236D02*
Y120079D01*
X17028Y148425D02*
X22244D01*
X24213Y150394D01*
X17028Y153543D02*
X17815Y154331D01*
Y157972D01*
X5906Y159154D02*
X7087Y157972D01*
X4921Y158169D02*
X5906Y159154D01*
X4921Y152165D02*
Y158169D01*
Y144685D02*
Y152165D01*
Y138681D02*
Y144685D01*
Y138681D02*
X5906Y137697D01*
X6937Y136665D01*
X12598D02*
X16976D01*
X17815Y135827D01*
X24213Y150394D02*
X28150D01*
X17028Y145866D02*
X22441D01*
X24213Y144095D01*
X28150D01*
X6937Y136665D02*
X12598D01*
X7087Y157972D02*
X17815D01*
X292520Y165748D02*
X293307Y166535D01*
X281496Y160236D02*
X287008D01*
X287008Y160236D01*
X292520D01*
X292520Y160236D01*
X298819Y155118D02*
Y160236D01*
X303937D01*
X304331Y160630D01*
X281496Y155512D02*
Y160236D01*
X287008Y155118D02*
Y160236D01*
X292520Y155118D02*
Y160236D01*
X292520Y155118D02*
X292520Y155118D01*
X190551Y129528D02*
X191476Y130453D01*
X179390Y125453D02*
X183465Y129528D01*
X194626Y125453D02*
X197736D01*
X190551Y129528D02*
X194626Y125453D01*
X287008Y144882D02*
Y149606D01*
X292520Y144882D02*
Y149606D01*
X263977Y119685D02*
X264370Y119291D01*
X270866D01*
X476378Y167913D02*
X482283D01*
X304331Y160630D02*
Y166535D01*
X286221Y166535D02*
Y170472D01*
X281496Y160236D02*
Y161024D01*
X287008Y144882D02*
X288583Y143307D01*
X300787Y147638D02*
X303543D01*
X298819Y149606D02*
X300787Y147638D01*
X28346Y150591D02*
Y159055D01*
X28150Y150394D02*
X28150Y150394D01*
X28346Y150591D01*
X266547Y158650D02*
X271284Y163386D01*
X129528Y161811D02*
X130315Y162598D01*
Y165354D01*
X81299Y126575D02*
X84252Y123622D01*
X93782Y137305D02*
Y137321D01*
X79626Y169823D02*
X91594D01*
X91732Y169685D01*
X313394Y142126D02*
X318897D01*
X293444Y117653D02*
X295476Y119685D01*
X295869Y119291D01*
X296263Y119685D01*
X278252Y117653D02*
X293444D01*
X283858Y136614D02*
X290551Y129921D01*
X276378Y117717D02*
X278188D01*
X278252Y117653D01*
X294933Y123664D02*
X313394Y142126D01*
X296263Y119685D02*
X296850D01*
X295595Y122065D02*
X312736Y139206D01*
X320472D01*
X110039Y127953D02*
Y130511D01*
X115354Y122441D02*
X121260Y116535D01*
X115354Y122441D02*
Y123622D01*
X110039Y121850D02*
Y127953D01*
Y121850D02*
X118504Y113386D01*
D77*
X139764Y17717D02*
D03*
X102362D02*
D03*
X177165D02*
D03*
X486221D02*
D03*
X263779Y17717D02*
D03*
X411417Y17717D02*
D03*
X448819D02*
D03*
X309055Y17717D02*
D03*
X19685Y94488D02*
D03*
X19685Y53150D02*
D03*
D78*
X216535Y114567D02*
D03*
X49213D02*
D03*
X9843Y15748D02*
D03*
X216535Y21654D02*
D03*
X525591Y114567D02*
D03*
X543307Y187008D02*
D03*
X525591Y21654D02*
D03*
X49213D02*
D03*
X9843Y187008D02*
D03*
X368110Y114567D02*
D03*
Y21654D02*
D03*
X543307Y15748D02*
D03*
D79*
X9351Y159154D02*
D03*
Y137697D02*
D03*
X5906D02*
D03*
Y159154D02*
D03*
D80*
X17815Y138878D02*
D03*
Y157972D02*
D03*
D81*
X378583Y143701D02*
D03*
X368583D02*
D03*
X358583D02*
D03*
X348583D02*
D03*
X81260Y191732D02*
D03*
X91260D02*
D03*
X101260D02*
D03*
X111260D02*
D03*
X121260D02*
D03*
X131260D02*
D03*
X141260D02*
D03*
X151260D02*
D03*
X161260D02*
D03*
X171260D02*
D03*
X181260D02*
D03*
X191260D02*
D03*
X201260D02*
D03*
X211260D02*
D03*
X221260D02*
D03*
X231260D02*
D03*
X241260D02*
D03*
X376142D02*
D03*
X386142D02*
D03*
X396142D02*
D03*
X406142D02*
D03*
X416142D02*
D03*
X426142D02*
D03*
X436142D02*
D03*
X446142D02*
D03*
X456142D02*
D03*
X466142D02*
D03*
X476142D02*
D03*
D82*
X338583Y143701D02*
D03*
X71260Y191732D02*
D03*
X366142D02*
D03*
D83*
X418898Y6299D02*
D03*
X448898D02*
D03*
X478898D02*
D03*
X109843D02*
D03*
X139842D02*
D03*
X169843D02*
D03*
X7087Y58976D02*
D03*
Y88976D02*
D03*
X301260Y6299D02*
D03*
X271260D02*
D03*
D84*
X512992Y143307D02*
D03*
X116142Y147244D02*
D03*
X250787Y120079D02*
D03*
X247638Y110630D02*
D03*
X168504Y154330D02*
D03*
X153543Y147638D02*
D03*
X464567Y111023D02*
D03*
X398425Y126772D02*
D03*
X336614Y162205D02*
D03*
X177165Y116142D02*
D03*
X137008Y110236D02*
D03*
X422047Y131496D02*
D03*
X409449Y125591D02*
D03*
X190551Y129528D02*
D03*
X183465D02*
D03*
X270866Y119291D02*
D03*
X477165Y116142D02*
D03*
X274803Y119291D02*
D03*
X516535Y159055D02*
D03*
X500394Y125197D02*
D03*
X495669D02*
D03*
X507874Y183071D02*
D03*
X513779D02*
D03*
X519685D02*
D03*
X525591D02*
D03*
X527559Y177165D02*
D03*
Y171260D02*
D03*
X523622Y167323D02*
D03*
X516535D02*
D03*
X505905Y177165D02*
D03*
X483465Y185827D02*
D03*
X488189Y170866D02*
D03*
X501968Y143307D02*
D03*
X505905Y171260D02*
D03*
X509842Y167323D02*
D03*
X494488Y156693D02*
D03*
X96457Y131890D02*
D03*
D85*
X96063Y110236D02*
D03*
X112992Y150393D02*
D03*
X121457Y141732D02*
D03*
Y137401D02*
D03*
X101969Y157874D02*
D03*
X115354Y168110D02*
D03*
X263779Y106299D02*
D03*
Y102362D02*
D03*
X259842Y106299D02*
D03*
Y102362D02*
D03*
X263779Y98425D02*
D03*
X259842D02*
D03*
X147559Y25512D02*
D03*
X150787Y17717D02*
D03*
X139764Y28740D02*
D03*
X147559Y9922D02*
D03*
X139764Y6693D02*
D03*
X131969Y25512D02*
D03*
X128740Y17717D02*
D03*
X131969Y9922D02*
D03*
X110157Y25512D02*
D03*
X113386Y17717D02*
D03*
X102362Y28740D02*
D03*
X110157Y9922D02*
D03*
X102362Y6693D02*
D03*
X94567Y25512D02*
D03*
X91338Y17717D02*
D03*
X94567Y9922D02*
D03*
X184960Y25512D02*
D03*
X188189Y17717D02*
D03*
X177165Y28740D02*
D03*
X184960Y9922D02*
D03*
X177165Y6693D02*
D03*
X169370Y25512D02*
D03*
X166142Y17717D02*
D03*
X169370Y9922D02*
D03*
X494015Y25512D02*
D03*
X497244Y17717D02*
D03*
X486221Y28740D02*
D03*
X494015Y9922D02*
D03*
X486221Y6693D02*
D03*
X478426Y25512D02*
D03*
X475197Y17717D02*
D03*
X478426Y9922D02*
D03*
X271574Y25511D02*
D03*
X274803Y17717D02*
D03*
X263779Y28740D02*
D03*
X271574Y9922D02*
D03*
X263779Y6693D02*
D03*
X255984Y25511D02*
D03*
X252756Y17717D02*
D03*
X255984Y9922D02*
D03*
X419212Y25512D02*
D03*
X422441Y17717D02*
D03*
X411417Y28740D02*
D03*
X419212Y9922D02*
D03*
X411417Y6693D02*
D03*
X403622Y25512D02*
D03*
X400394Y17717D02*
D03*
X403622Y9922D02*
D03*
X456614Y25512D02*
D03*
X459842Y17717D02*
D03*
X448819Y28740D02*
D03*
X456614Y9922D02*
D03*
X448819Y6693D02*
D03*
X441024Y25512D02*
D03*
X437795Y17717D02*
D03*
X441024Y9922D02*
D03*
X316850Y25511D02*
D03*
X320079Y17717D02*
D03*
X309055Y28740D02*
D03*
X316850Y9922D02*
D03*
X309055Y6693D02*
D03*
X301260Y25511D02*
D03*
X298031Y17717D02*
D03*
X301260Y9922D02*
D03*
X27480Y102283D02*
D03*
X30709Y94488D02*
D03*
X19685Y105512D02*
D03*
X27480Y86693D02*
D03*
X19685Y83464D02*
D03*
X11890Y102283D02*
D03*
X8661Y94488D02*
D03*
X11890Y86693D02*
D03*
X27480Y60944D02*
D03*
X30709Y53150D02*
D03*
X19685Y64173D02*
D03*
X27480Y45355D02*
D03*
X19685Y42126D02*
D03*
X11890Y60944D02*
D03*
X8662Y53150D02*
D03*
X11890Y45355D02*
D03*
X409842Y110236D02*
D03*
X405118D02*
D03*
X261811Y80709D02*
D03*
X271654D02*
D03*
Y82677D02*
D03*
X261811D02*
D03*
X269685D02*
D03*
Y80709D02*
D03*
X279527Y82677D02*
D03*
Y80709D02*
D03*
X277559D02*
D03*
Y82677D02*
D03*
X267717Y80709D02*
D03*
Y82677D02*
D03*
X265748D02*
D03*
Y80709D02*
D03*
X275590Y82677D02*
D03*
Y80709D02*
D03*
X273622D02*
D03*
Y82677D02*
D03*
X263779Y80709D02*
D03*
Y82677D02*
D03*
X355906Y74803D02*
D03*
X353937Y76771D02*
D03*
X257480Y76378D02*
D03*
Y74409D02*
D03*
Y72441D02*
D03*
Y70472D02*
D03*
X259449D02*
D03*
Y72441D02*
D03*
Y74409D02*
D03*
Y76378D02*
D03*
X261417D02*
D03*
Y74409D02*
D03*
Y72441D02*
D03*
Y70472D02*
D03*
X263386D02*
D03*
Y72441D02*
D03*
Y74409D02*
D03*
Y76378D02*
D03*
X255512D02*
D03*
Y74409D02*
D03*
Y72441D02*
D03*
Y70472D02*
D03*
X353937Y70866D02*
D03*
Y72834D02*
D03*
Y74803D02*
D03*
X357874Y76771D02*
D03*
Y74803D02*
D03*
Y72834D02*
D03*
Y70866D02*
D03*
X355906D02*
D03*
Y72834D02*
D03*
Y76771D02*
D03*
X420866Y70866D02*
D03*
Y72834D02*
D03*
Y74803D02*
D03*
Y76771D02*
D03*
X424803D02*
D03*
Y74803D02*
D03*
Y72834D02*
D03*
Y70866D02*
D03*
X422834D02*
D03*
Y72834D02*
D03*
Y74803D02*
D03*
Y76771D02*
D03*
X487795Y70866D02*
D03*
Y72834D02*
D03*
Y74803D02*
D03*
Y76771D02*
D03*
X491732D02*
D03*
Y74803D02*
D03*
Y72834D02*
D03*
Y70866D02*
D03*
X489764D02*
D03*
Y72834D02*
D03*
Y74803D02*
D03*
Y76771D02*
D03*
X180709D02*
D03*
Y74803D02*
D03*
Y72834D02*
D03*
Y70866D02*
D03*
X182677D02*
D03*
Y72834D02*
D03*
Y74803D02*
D03*
Y76771D02*
D03*
X178740D02*
D03*
Y74803D02*
D03*
Y72834D02*
D03*
Y70866D02*
D03*
X113779Y76771D02*
D03*
Y74803D02*
D03*
Y72834D02*
D03*
Y70866D02*
D03*
X115748D02*
D03*
Y72834D02*
D03*
Y74803D02*
D03*
Y76771D02*
D03*
X111811D02*
D03*
Y74803D02*
D03*
Y72834D02*
D03*
Y70866D02*
D03*
X450197Y146063D02*
D03*
X445866D02*
D03*
X454528D02*
D03*
X445866Y137401D02*
D03*
Y141732D02*
D03*
X450197Y137401D02*
D03*
Y141732D02*
D03*
X454528Y137401D02*
D03*
Y141732D02*
D03*
X458858Y137401D02*
D03*
Y141732D02*
D03*
Y146063D02*
D03*
X463189Y137401D02*
D03*
Y141732D02*
D03*
Y146063D02*
D03*
X467520Y137401D02*
D03*
Y141732D02*
D03*
Y146063D02*
D03*
X143110Y141732D02*
D03*
X121457Y146063D02*
D03*
X125787Y137401D02*
D03*
Y141732D02*
D03*
Y146063D02*
D03*
X130118Y137401D02*
D03*
Y141732D02*
D03*
Y146063D02*
D03*
X134449Y137401D02*
D03*
Y141732D02*
D03*
Y146063D02*
D03*
X138779Y137401D02*
D03*
Y141732D02*
D03*
X143110Y137401D02*
D03*
Y146063D02*
D03*
X138779D02*
D03*
X135039Y166142D02*
D03*
X130315Y165354D02*
D03*
X425984Y151575D02*
D03*
X46850Y76771D02*
D03*
X44882D02*
D03*
X46850Y74803D02*
D03*
X44882D02*
D03*
Y72834D02*
D03*
Y70866D02*
D03*
X46850D02*
D03*
X48819D02*
D03*
X46850Y72834D02*
D03*
X48819D02*
D03*
Y76771D02*
D03*
Y74803D02*
D03*
X100787Y110236D02*
D03*
D86*
X108661Y135827D02*
D03*
X112992Y135039D02*
D03*
X116929Y133858D02*
D03*
X108267Y132283D02*
D03*
X90945Y147244D02*
D03*
X226772Y142913D02*
D03*
X232283Y142126D02*
D03*
X209449Y140945D02*
D03*
X239370Y140551D02*
D03*
X224410Y145276D02*
D03*
X218898Y161024D02*
D03*
X222834Y167716D02*
D03*
X227559Y161811D02*
D03*
X216409Y173495D02*
D03*
X214173Y171260D02*
D03*
X211023Y169685D02*
D03*
X207874Y159449D02*
D03*
X226772Y167717D02*
D03*
X225197Y174409D02*
D03*
X204724Y149213D02*
D03*
X237795Y130709D02*
D03*
X235826Y141732D02*
D03*
X243307Y154331D02*
D03*
X241338Y130708D02*
D03*
X240944Y118504D02*
D03*
X236614Y160236D02*
D03*
X238583Y170472D02*
D03*
X235039D02*
D03*
X245276Y140157D02*
D03*
X249212Y130708D02*
D03*
X247329Y120388D02*
D03*
X244881Y130708D02*
D03*
X228740Y174015D02*
D03*
X231102Y185039D02*
D03*
X218644Y175731D02*
D03*
X250787Y142913D02*
D03*
X90551Y129921D02*
D03*
X92520Y138583D02*
D03*
X200787Y159449D02*
D03*
X193701D02*
D03*
X194095Y171260D02*
D03*
X197244Y159449D02*
D03*
X204331D02*
D03*
X206299Y179921D02*
D03*
X200000D02*
D03*
X171653Y151575D02*
D03*
X174803Y150000D02*
D03*
X164368Y163047D02*
D03*
X162205Y165354D02*
D03*
X159055Y167323D02*
D03*
X173622Y178346D02*
D03*
X178347Y149606D02*
D03*
X181889Y149606D02*
D03*
X178347Y175591D02*
D03*
X186614Y149606D02*
D03*
X364173Y89370D02*
D03*
X191732Y120079D02*
D03*
X250000Y89764D02*
D03*
Y79134D02*
D03*
X470078Y121260D02*
D03*
X465747Y118110D02*
D03*
X453149Y120866D02*
D03*
X458267Y119291D02*
D03*
X446063Y117323D02*
D03*
X474803Y121260D02*
D03*
X431102Y89370D02*
D03*
X432676Y131889D02*
D03*
X443307Y114961D02*
D03*
X122047Y89370D02*
D03*
X105512Y171260D02*
D03*
X257087Y162992D02*
D03*
X247638Y159843D02*
D03*
X252362Y162205D02*
D03*
X182677Y172441D02*
D03*
X260630Y138976D02*
D03*
X226772Y185433D02*
D03*
X236614D02*
D03*
X255118Y139764D02*
D03*
X318897Y142126D02*
D03*
X402362Y144882D02*
D03*
X398425Y138583D02*
D03*
X402756Y152362D02*
D03*
X403543Y137795D02*
D03*
X408977Y155741D02*
D03*
X409449Y159055D02*
D03*
X412992Y156299D02*
D03*
X375590Y179921D02*
D03*
X373228Y172047D02*
D03*
X190157Y149606D02*
D03*
X218898Y179528D02*
D03*
X261811Y170615D02*
D03*
X269685Y176378D02*
D03*
X272047Y178740D02*
D03*
X307480Y185826D02*
D03*
X305512Y183071D02*
D03*
X289370Y177559D02*
D03*
X290158Y170472D02*
D03*
X298819Y170079D02*
D03*
X351968Y166535D02*
D03*
Y174409D02*
D03*
X353248Y171160D02*
D03*
X320866Y175984D02*
D03*
X361417Y181102D02*
D03*
X364173Y176771D02*
D03*
X358268Y185039D02*
D03*
X406693Y151575D02*
D03*
X330709Y189370D02*
D03*
X350394Y181890D02*
D03*
X325590Y172047D02*
D03*
X316535Y173622D02*
D03*
X321654Y161417D02*
D03*
X329133Y172441D02*
D03*
X331889Y170078D02*
D03*
X335433Y167717D02*
D03*
X348031Y171260D02*
D03*
X358651Y169291D02*
D03*
X313779Y183858D02*
D03*
X310236D02*
D03*
X275197Y163193D02*
D03*
X296457Y113386D02*
D03*
X255512Y181496D02*
D03*
X471654Y162598D02*
D03*
X271654Y136614D02*
D03*
X148031Y132283D02*
D03*
X300394Y144488D02*
D03*
X295923Y140017D02*
D03*
X298070Y142341D02*
D03*
X291732Y144882D02*
D03*
X267717Y136221D02*
D03*
X276772Y150394D02*
D03*
Y153937D02*
D03*
Y160236D02*
D03*
X476378Y132283D02*
D03*
X433071Y136221D02*
D03*
X437007Y135039D02*
D03*
X142534Y120252D02*
D03*
X483858Y151181D02*
D03*
X479134Y162303D02*
D03*
X472440Y132283D02*
D03*
X440945Y133465D02*
D03*
X487008Y156693D02*
D03*
X282283Y170472D02*
D03*
X481496Y133071D02*
D03*
X303543Y167323D02*
D03*
X439764Y163779D02*
D03*
X369685Y172047D02*
D03*
X286221Y170472D02*
D03*
X148031Y149606D02*
D03*
X288583Y143307D02*
D03*
X303543Y147638D02*
D03*
X304330Y151181D02*
D03*
X233071Y114173D02*
D03*
X116929Y177165D02*
D03*
X97244Y153937D02*
D03*
X435039Y144882D02*
D03*
X440945Y151181D02*
D03*
X435433Y151181D02*
D03*
X459055Y161811D02*
D03*
X422835Y160630D02*
D03*
X425983Y163779D02*
D03*
X414961Y163386D02*
D03*
X456298Y163779D02*
D03*
X450787Y184646D02*
D03*
X468898Y179134D02*
D03*
X91732Y169685D02*
D03*
X305118Y120472D02*
D03*
X310630Y130709D02*
D03*
X308268Y123228D02*
D03*
X288583Y127165D02*
D03*
X290551Y129921D02*
D03*
X296850Y119685D02*
D03*
X305118Y125590D02*
D03*
X319291Y129921D02*
D03*
X320078Y134645D02*
D03*
X320472Y139206D02*
D03*
X314961Y134646D02*
D03*
X314960Y129527D02*
D03*
X313779Y124803D02*
D03*
X325196Y133071D02*
D03*
X311417Y120472D02*
D03*
X320472Y119291D02*
D03*
X536221Y150787D02*
D03*
X55118Y89764D02*
D03*
X96850Y137008D02*
D03*
X46850Y79921D02*
D03*
X113779D02*
D03*
X355906D02*
D03*
X422835D02*
D03*
X118504Y113386D02*
D03*
X121260Y116535D02*
D03*
X129134Y120866D02*
D03*
X134646Y119291D02*
D03*
D87*
X240157Y56102D02*
D03*
X236220Y56693D02*
D03*
X240157Y51181D02*
D03*
X237697Y53445D02*
D03*
X234449D02*
D03*
X232677Y56693D02*
D03*
X231102Y53445D02*
D03*
X237795Y48917D02*
D03*
X240157Y46260D02*
D03*
X235827Y45669D02*
D03*
X234547Y48917D02*
D03*
X231201D02*
D03*
X232283Y45669D02*
D03*
X229134Y56693D02*
D03*
X227953Y48917D02*
D03*
X227854Y53445D02*
D03*
X228740Y45669D02*
D03*
X106299Y56102D02*
D03*
X102362Y56693D02*
D03*
X106299Y51181D02*
D03*
X103839Y53445D02*
D03*
X100591D02*
D03*
X98819Y56693D02*
D03*
X97244Y53445D02*
D03*
X103937Y48917D02*
D03*
X106299Y46260D02*
D03*
X101969Y45669D02*
D03*
X100689Y48917D02*
D03*
X97342D02*
D03*
X98425Y45669D02*
D03*
X95276Y56693D02*
D03*
X94095Y48917D02*
D03*
X93996Y53445D02*
D03*
X94882Y45669D02*
D03*
X173228Y56102D02*
D03*
X169291Y56693D02*
D03*
X173228Y51181D02*
D03*
X170768Y53445D02*
D03*
X167520D02*
D03*
X165748Y56693D02*
D03*
X164173Y53445D02*
D03*
X170866Y48917D02*
D03*
X173228Y46260D02*
D03*
X168898Y45669D02*
D03*
X167618Y48917D02*
D03*
X164272D02*
D03*
X165354Y45669D02*
D03*
X162205Y56693D02*
D03*
X161024Y48917D02*
D03*
X160925Y53445D02*
D03*
X161811Y45669D02*
D03*
X482283Y56102D02*
D03*
X478346Y56693D02*
D03*
X482283Y51181D02*
D03*
X479823Y53445D02*
D03*
X476575D02*
D03*
X474803Y56693D02*
D03*
X473228Y53445D02*
D03*
X479921Y48917D02*
D03*
X482283Y46260D02*
D03*
X477953Y45669D02*
D03*
X476673Y48917D02*
D03*
X473327D02*
D03*
X474409Y45669D02*
D03*
X471260Y56693D02*
D03*
X470079Y48917D02*
D03*
X469980Y53445D02*
D03*
X470866Y45669D02*
D03*
X415354Y56102D02*
D03*
X411417Y56693D02*
D03*
X415354Y51181D02*
D03*
X412894Y53445D02*
D03*
X409646D02*
D03*
X407874Y56693D02*
D03*
X406299Y53445D02*
D03*
X412992Y48917D02*
D03*
X415354Y46260D02*
D03*
X411024Y45669D02*
D03*
X409744Y48917D02*
D03*
X406398D02*
D03*
X407480Y45669D02*
D03*
X404331Y56693D02*
D03*
X403150Y48917D02*
D03*
X403051Y53445D02*
D03*
X403937Y45669D02*
D03*
X347244Y56102D02*
D03*
X343307Y56693D02*
D03*
X347244Y51181D02*
D03*
X344783Y53445D02*
D03*
X341535D02*
D03*
X339764Y56693D02*
D03*
X338189Y53445D02*
D03*
X344882Y48917D02*
D03*
X347244Y46260D02*
D03*
X342913Y45669D02*
D03*
X341634Y48917D02*
D03*
X338287D02*
D03*
X339370Y45669D02*
D03*
X336220Y56693D02*
D03*
X335039Y48917D02*
D03*
X334941Y53445D02*
D03*
X335827Y45669D02*
D03*
X549213Y56102D02*
D03*
X545275Y56693D02*
D03*
X549213Y51181D02*
D03*
X546752Y53445D02*
D03*
X543504D02*
D03*
X541732Y56693D02*
D03*
X540157Y53445D02*
D03*
X546850Y48917D02*
D03*
X549213Y46260D02*
D03*
X544882Y45669D02*
D03*
X543602Y48917D02*
D03*
X540256D02*
D03*
X541338Y45669D02*
D03*
X538189Y56693D02*
D03*
X537008Y48917D02*
D03*
X536909Y53445D02*
D03*
X537795Y45669D02*
D03*
D88*
X547441Y122835D02*
D03*
X540748D02*
D03*
D89*
X520571Y135827D02*
D03*
X539272D02*
D03*
D90*
X516535Y175984D02*
D03*
D91*
X507480Y150000D02*
D03*
X516535D02*
D03*
D92*
X525591D02*
D03*
D93*
X490158Y188386D02*
D03*
Y181693D02*
D03*
X38976Y80118D02*
D03*
Y73425D02*
D03*
X498031Y78149D02*
D03*
Y71457D02*
D03*
X348031Y80118D02*
D03*
Y73425D02*
D03*
X350787Y114764D02*
D03*
Y121457D02*
D03*
X190945Y78149D02*
D03*
Y71457D02*
D03*
X326772Y145866D02*
D03*
Y139173D02*
D03*
D94*
X335630Y113779D02*
D03*
X343110Y124016D02*
D03*
X339370D02*
D03*
X335630D02*
D03*
X343110Y113779D02*
D03*
D95*
X328740Y116142D02*
D03*
Y120079D02*
D03*
D96*
X204724Y143012D02*
D03*
Y138091D02*
D03*
D97*
X393701Y57677D02*
D03*
Y91929D02*
D03*
X151575Y57677D02*
D03*
Y91929D02*
D03*
X523228Y57677D02*
D03*
Y91929D02*
D03*
X279527Y57677D02*
D03*
Y91929D02*
D03*
X322834Y57677D02*
D03*
Y91929D02*
D03*
X460630Y57677D02*
D03*
Y91929D02*
D03*
X218504Y57677D02*
D03*
Y91929D02*
D03*
X84645Y57677D02*
D03*
Y91929D02*
D03*
D98*
X431102Y95571D02*
D03*
Y73721D02*
D03*
X364173Y95571D02*
D03*
Y73721D02*
D03*
X250000Y95571D02*
D03*
Y73721D02*
D03*
X122047Y95571D02*
D03*
Y73721D02*
D03*
X55118Y95571D02*
D03*
Y73721D02*
D03*
D99*
X327953Y162205D02*
D03*
X312992D02*
D03*
X327953Y153543D02*
D03*
X312992D02*
D03*
D100*
X176279Y120453D02*
D03*
Y125453D02*
D03*
Y130453D02*
D03*
Y135453D02*
D03*
X197736Y120453D02*
D03*
Y125453D02*
D03*
Y130453D02*
D03*
Y135453D02*
D03*
X58169Y159823D02*
D03*
Y164823D02*
D03*
Y169823D02*
D03*
X79626Y164823D02*
D03*
Y169823D02*
D03*
Y159823D02*
D03*
X58169Y174823D02*
D03*
X79626D02*
D03*
D101*
X507717Y125984D02*
D03*
X488346D02*
D03*
D102*
X17028Y153543D02*
D03*
Y145866D02*
D03*
Y150984D02*
D03*
Y148425D02*
D03*
Y143307D02*
D03*
D103*
X4921Y152165D02*
D03*
Y144685D02*
D03*
D104*
X17815Y135827D02*
D03*
Y161024D02*
D03*
D105*
X12598Y136665D02*
D03*
Y160187D02*
D03*
D106*
X27953Y135827D02*
D03*
X28346Y159055D02*
D03*
X27953Y125591D02*
D03*
D107*
X489764Y74803D02*
Y76771D01*
Y82677D01*
Y74410D02*
Y74803D01*
X180709Y76771D02*
Y82677D01*
Y74803D02*
Y76771D01*
Y74410D02*
Y74803D01*
D108*
X490157Y74016D02*
X490157Y74016D01*
X39370Y59645D02*
Y73425D01*
X190945Y57677D02*
Y71457D01*
X498031Y57677D02*
Y71457D01*
X357086Y74016D02*
X363878D01*
X114961D02*
X121752D01*
X424016D02*
X430807D01*
X348425Y57677D02*
Y71457D01*
X48819Y74016D02*
X54823D01*
M02*
