G04*
G04 #@! TF.GenerationSoftware,Altium Limited,Altium Designer,20.0.11 (256)*
G04*
G04 Layer_Color=8421504*
%FSLAX25Y25*%
%MOIN*%
G70*
G01*
G75*
%ADD21R,0.03543X0.02362*%
%ADD22R,0.02362X0.03543*%
%ADD23R,0.04134X0.05118*%
%ADD24R,0.04134X0.05118*%
%ADD25R,0.04134X0.05118*%
%ADD26R,0.04134X0.05118*%
%ADD27R,0.10236X0.08268*%
%ADD28R,0.20079X0.04331*%
%ADD29R,0.06299X0.08268*%
%ADD30R,0.06693X0.03937*%
G04:AMPARAMS|DCode=31|XSize=39.37mil|YSize=35.43mil|CornerRadius=4.43mil|HoleSize=0mil|Usage=FLASHONLY|Rotation=180.000|XOffset=0mil|YOffset=0mil|HoleType=Round|Shape=RoundedRectangle|*
%AMROUNDEDRECTD31*
21,1,0.03937,0.02657,0,0,180.0*
21,1,0.03051,0.03543,0,0,180.0*
1,1,0.00886,-0.01526,0.01329*
1,1,0.00886,0.01526,0.01329*
1,1,0.00886,0.01526,-0.01329*
1,1,0.00886,-0.01526,-0.01329*
%
%ADD31ROUNDEDRECTD31*%
G04:AMPARAMS|DCode=32|XSize=39.37mil|YSize=35.43mil|CornerRadius=4.43mil|HoleSize=0mil|Usage=FLASHONLY|Rotation=270.000|XOffset=0mil|YOffset=0mil|HoleType=Round|Shape=RoundedRectangle|*
%AMROUNDEDRECTD32*
21,1,0.03937,0.02657,0,0,270.0*
21,1,0.03051,0.03543,0,0,270.0*
1,1,0.00886,-0.01329,-0.01526*
1,1,0.00886,-0.01329,0.01526*
1,1,0.00886,0.01329,0.01526*
1,1,0.00886,0.01329,-0.01526*
%
%ADD32ROUNDEDRECTD32*%
%ADD33R,0.03543X0.01181*%
%ADD34R,0.04134X0.02362*%
G04:AMPARAMS|DCode=35|XSize=11.81mil|YSize=70.87mil|CornerRadius=0mil|HoleSize=0mil|Usage=FLASHONLY|Rotation=45.000|XOffset=0mil|YOffset=0mil|HoleType=Round|Shape=Round|*
%AMOVALD35*
21,1,0.05906,0.01181,0.00000,0.00000,135.0*
1,1,0.01181,0.02088,-0.02088*
1,1,0.01181,-0.02088,0.02088*
%
%ADD35OVALD35*%

G04:AMPARAMS|DCode=36|XSize=11.81mil|YSize=70.87mil|CornerRadius=0mil|HoleSize=0mil|Usage=FLASHONLY|Rotation=315.000|XOffset=0mil|YOffset=0mil|HoleType=Round|Shape=Round|*
%AMOVALD36*
21,1,0.05906,0.01181,0.00000,0.00000,45.0*
1,1,0.01181,-0.02088,-0.02088*
1,1,0.01181,0.02088,0.02088*
%
%ADD36OVALD36*%

%ADD37R,0.25000X0.14213*%
%ADD38O,0.01181X0.05512*%
%ADD39R,0.02756X0.03347*%
%ADD40R,0.03347X0.02756*%
G04:AMPARAMS|DCode=41|XSize=23.62mil|YSize=23.62mil|CornerRadius=2.36mil|HoleSize=0mil|Usage=FLASHONLY|Rotation=90.000|XOffset=0mil|YOffset=0mil|HoleType=Round|Shape=RoundedRectangle|*
%AMROUNDEDRECTD41*
21,1,0.02362,0.01890,0,0,90.0*
21,1,0.01890,0.02362,0,0,90.0*
1,1,0.00472,0.00945,0.00945*
1,1,0.00472,0.00945,-0.00945*
1,1,0.00472,-0.00945,-0.00945*
1,1,0.00472,-0.00945,0.00945*
%
%ADD41ROUNDEDRECTD41*%
G04:AMPARAMS|DCode=42|XSize=31.5mil|YSize=31.5mil|CornerRadius=3.94mil|HoleSize=0mil|Usage=FLASHONLY|Rotation=0.000|XOffset=0mil|YOffset=0mil|HoleType=Round|Shape=RoundedRectangle|*
%AMROUNDEDRECTD42*
21,1,0.03150,0.02362,0,0,0.0*
21,1,0.02362,0.03150,0,0,0.0*
1,1,0.00787,0.01181,-0.01181*
1,1,0.00787,-0.01181,-0.01181*
1,1,0.00787,-0.01181,0.01181*
1,1,0.00787,0.01181,0.01181*
%
%ADD42ROUNDEDRECTD42*%
G36*
X102756Y59842D02*
Y59055D01*
X90551D01*
Y43307D01*
X102756D01*
Y42520D01*
X107874D01*
Y59842D01*
X102756D01*
D02*
G37*
G36*
X169685D02*
Y59055D01*
X157480D01*
Y43307D01*
X169685D01*
Y42520D01*
X174803D01*
Y59842D01*
X169685D01*
D02*
G37*
G36*
X236614Y59842D02*
Y59055D01*
X224409D01*
Y43307D01*
X236614D01*
Y42520D01*
X241732D01*
Y59842D01*
X236614D01*
D02*
G37*
G36*
X343701Y59842D02*
Y59055D01*
X331496D01*
Y43307D01*
X343701D01*
Y42520D01*
X348819D01*
Y59842D01*
X343701D01*
D02*
G37*
G36*
X411811Y59842D02*
Y59055D01*
X399606D01*
Y43307D01*
X411811D01*
Y42520D01*
X416929D01*
Y59842D01*
X411811D01*
D02*
G37*
G36*
X478740D02*
Y59055D01*
X466535D01*
Y43307D01*
X478740D01*
Y42520D01*
X483858D01*
Y59842D01*
X478740D01*
D02*
G37*
G36*
X545669Y59842D02*
Y59055D01*
X533464D01*
Y43307D01*
X545669D01*
Y42520D01*
X550787D01*
Y59842D01*
X545669D01*
D02*
G37*
D21*
X76771Y80216D02*
D03*
Y75394D02*
D03*
Y70276D02*
D03*
Y65453D02*
D03*
X143701Y58563D02*
D03*
Y53740D02*
D03*
Y48622D02*
D03*
Y43799D02*
D03*
X210630Y58563D02*
D03*
Y53740D02*
D03*
Y48622D02*
D03*
Y43799D02*
D03*
X240157Y80216D02*
D03*
Y75394D02*
D03*
Y70275D02*
D03*
Y65453D02*
D03*
X143701Y80216D02*
D03*
Y75394D02*
D03*
Y70276D02*
D03*
Y65453D02*
D03*
X210630Y80216D02*
D03*
Y75394D02*
D03*
Y70275D02*
D03*
Y65453D02*
D03*
X173228Y80216D02*
D03*
Y75394D02*
D03*
Y70276D02*
D03*
Y65453D02*
D03*
X76771Y58563D02*
D03*
Y53740D02*
D03*
Y48622D02*
D03*
Y43799D02*
D03*
X106299Y80216D02*
D03*
Y75394D02*
D03*
Y70276D02*
D03*
Y65453D02*
D03*
X482283Y80216D02*
D03*
Y75394D02*
D03*
Y70276D02*
D03*
Y65453D02*
D03*
X519685Y80216D02*
D03*
Y75394D02*
D03*
Y70275D02*
D03*
Y65453D02*
D03*
X385827Y58563D02*
D03*
Y53740D02*
D03*
Y48622D02*
D03*
Y43799D02*
D03*
X519685Y58563D02*
D03*
Y53740D02*
D03*
Y48622D02*
D03*
Y43799D02*
D03*
X415354Y80216D02*
D03*
Y75394D02*
D03*
Y70276D02*
D03*
Y65453D02*
D03*
X385827Y80216D02*
D03*
Y75394D02*
D03*
Y70276D02*
D03*
Y65453D02*
D03*
X347244Y80216D02*
D03*
Y75394D02*
D03*
Y70275D02*
D03*
Y65453D02*
D03*
X309842Y80216D02*
D03*
Y75394D02*
D03*
Y70275D02*
D03*
Y65453D02*
D03*
X452756Y58563D02*
D03*
Y53740D02*
D03*
Y48622D02*
D03*
Y43799D02*
D03*
Y80216D02*
D03*
Y75394D02*
D03*
Y70276D02*
D03*
Y65453D02*
D03*
X309842Y58563D02*
D03*
Y53740D02*
D03*
Y48622D02*
D03*
Y43799D02*
D03*
X549213Y80216D02*
D03*
Y75394D02*
D03*
Y70275D02*
D03*
Y65453D02*
D03*
D22*
X72834Y77362D02*
D03*
X69488Y72835D02*
D03*
Y77362D02*
D03*
X72834Y72835D02*
D03*
Y68307D02*
D03*
X69488D02*
D03*
X66141Y77362D02*
D03*
X62795D02*
D03*
X66141Y72835D02*
D03*
X62795D02*
D03*
X66141Y68307D02*
D03*
X62795D02*
D03*
X139764Y55709D02*
D03*
X136417Y51181D02*
D03*
Y55709D02*
D03*
X139764Y51181D02*
D03*
Y46654D02*
D03*
X136417D02*
D03*
X133071Y55709D02*
D03*
X129724D02*
D03*
X133071Y51181D02*
D03*
X129724D02*
D03*
X133071Y46654D02*
D03*
X129724D02*
D03*
X206693Y55709D02*
D03*
X203346Y51181D02*
D03*
Y55709D02*
D03*
X206693Y51181D02*
D03*
Y46654D02*
D03*
X203346D02*
D03*
X200000Y55709D02*
D03*
X196653D02*
D03*
X200000Y51181D02*
D03*
X196653D02*
D03*
X200000Y46654D02*
D03*
X196653D02*
D03*
X236220Y77362D02*
D03*
X232874Y72835D02*
D03*
Y77362D02*
D03*
X236220Y72835D02*
D03*
Y68307D02*
D03*
X232874D02*
D03*
X229527Y77362D02*
D03*
X226181D02*
D03*
X229527Y72835D02*
D03*
X226181D02*
D03*
X229527Y68307D02*
D03*
X226181D02*
D03*
X139764Y77362D02*
D03*
X136417Y72835D02*
D03*
Y77362D02*
D03*
X139764Y72835D02*
D03*
Y68307D02*
D03*
X136417D02*
D03*
X133071Y77362D02*
D03*
X129724D02*
D03*
X133071Y72835D02*
D03*
X129724D02*
D03*
X133071Y68307D02*
D03*
X129724D02*
D03*
X206693Y77362D02*
D03*
X203346Y72835D02*
D03*
Y77362D02*
D03*
X206693Y72835D02*
D03*
Y68307D02*
D03*
X203346D02*
D03*
X200000Y77362D02*
D03*
X196653D02*
D03*
X200000Y72835D02*
D03*
X196653D02*
D03*
X200000Y68307D02*
D03*
X196653D02*
D03*
X169291Y77362D02*
D03*
X165945Y72835D02*
D03*
Y77362D02*
D03*
X169291Y72835D02*
D03*
Y68307D02*
D03*
X165945D02*
D03*
X162598Y77362D02*
D03*
X159252D02*
D03*
X162598Y72835D02*
D03*
X159252D02*
D03*
X162598Y68307D02*
D03*
X159252D02*
D03*
X72834Y55709D02*
D03*
X69488Y51181D02*
D03*
Y55709D02*
D03*
X72834Y51181D02*
D03*
Y46654D02*
D03*
X69488D02*
D03*
X66141Y55709D02*
D03*
X62795D02*
D03*
X66141Y51181D02*
D03*
X62795D02*
D03*
X66141Y46654D02*
D03*
X62795D02*
D03*
X102362Y77362D02*
D03*
X99016Y72835D02*
D03*
Y77362D02*
D03*
X102362Y72835D02*
D03*
Y68307D02*
D03*
X99016D02*
D03*
X95669Y77362D02*
D03*
X92323D02*
D03*
X95669Y72835D02*
D03*
X92323D02*
D03*
X95669Y68307D02*
D03*
X92323D02*
D03*
X478346Y77362D02*
D03*
X475000Y72835D02*
D03*
Y77362D02*
D03*
X478346Y72835D02*
D03*
Y68307D02*
D03*
X475000D02*
D03*
X471654Y77362D02*
D03*
X468307D02*
D03*
X471654Y72835D02*
D03*
X468307D02*
D03*
X471654Y68307D02*
D03*
X468307D02*
D03*
X515748Y77362D02*
D03*
X512401Y72835D02*
D03*
Y77362D02*
D03*
X515748Y72835D02*
D03*
Y68307D02*
D03*
X512401D02*
D03*
X509055Y77362D02*
D03*
X505709D02*
D03*
X509055Y72835D02*
D03*
X505709D02*
D03*
X509055Y68307D02*
D03*
X505709D02*
D03*
X381890Y55709D02*
D03*
X378543Y51181D02*
D03*
Y55709D02*
D03*
X381890Y51181D02*
D03*
Y46654D02*
D03*
X378543D02*
D03*
X375197Y55709D02*
D03*
X371850D02*
D03*
X375197Y51181D02*
D03*
X371850D02*
D03*
X375197Y46654D02*
D03*
X371850D02*
D03*
X515748Y55709D02*
D03*
X512401Y51181D02*
D03*
Y55709D02*
D03*
X515748Y51181D02*
D03*
Y46654D02*
D03*
X512401D02*
D03*
X509055Y55709D02*
D03*
X505709D02*
D03*
X509055Y51181D02*
D03*
X505709D02*
D03*
X509055Y46654D02*
D03*
X505709D02*
D03*
X411417Y77362D02*
D03*
X408071Y72835D02*
D03*
Y77362D02*
D03*
X411417Y72835D02*
D03*
Y68307D02*
D03*
X408071D02*
D03*
X404724Y77362D02*
D03*
X401378D02*
D03*
X404724Y72835D02*
D03*
X401378D02*
D03*
X404724Y68307D02*
D03*
X401378D02*
D03*
X381890Y77362D02*
D03*
X378543Y72835D02*
D03*
Y77362D02*
D03*
X381890Y72835D02*
D03*
Y68307D02*
D03*
X378543D02*
D03*
X375197Y77362D02*
D03*
X371850D02*
D03*
X375197Y72835D02*
D03*
X371850D02*
D03*
X375197Y68307D02*
D03*
X371850D02*
D03*
X343307Y77362D02*
D03*
X339961Y72834D02*
D03*
Y77362D02*
D03*
X343307Y72834D02*
D03*
Y68307D02*
D03*
X339961D02*
D03*
X336614Y77362D02*
D03*
X333268D02*
D03*
X336614Y72834D02*
D03*
X333268D02*
D03*
X336614Y68307D02*
D03*
X333268D02*
D03*
X305906Y77362D02*
D03*
X302559Y72834D02*
D03*
Y77362D02*
D03*
X305906Y72834D02*
D03*
Y68307D02*
D03*
X302559D02*
D03*
X299213Y77362D02*
D03*
X295866D02*
D03*
X299213Y72834D02*
D03*
X295866D02*
D03*
X299213Y68307D02*
D03*
X295866D02*
D03*
X448819Y55709D02*
D03*
X445472Y51181D02*
D03*
Y55709D02*
D03*
X448819Y51181D02*
D03*
Y46654D02*
D03*
X445472D02*
D03*
X442126Y55709D02*
D03*
X438779D02*
D03*
X442126Y51181D02*
D03*
X438779D02*
D03*
X442126Y46654D02*
D03*
X438779D02*
D03*
X448819Y77362D02*
D03*
X445472Y72835D02*
D03*
Y77362D02*
D03*
X448819Y72835D02*
D03*
Y68307D02*
D03*
X445472D02*
D03*
X442126Y77362D02*
D03*
X438779D02*
D03*
X442126Y72835D02*
D03*
X438779D02*
D03*
X442126Y68307D02*
D03*
X438779D02*
D03*
X305906Y55708D02*
D03*
X302559Y51181D02*
D03*
Y55708D02*
D03*
X305906Y51181D02*
D03*
Y46654D02*
D03*
X302559D02*
D03*
X299213Y55708D02*
D03*
X295866D02*
D03*
X299213Y51181D02*
D03*
X295866D02*
D03*
X299213Y46654D02*
D03*
X295866D02*
D03*
X545275Y77362D02*
D03*
X541929Y72835D02*
D03*
Y77362D02*
D03*
X545275Y72835D02*
D03*
Y68307D02*
D03*
X541929D02*
D03*
X538583Y77362D02*
D03*
X535236D02*
D03*
X538583Y72835D02*
D03*
X535236D02*
D03*
X538583Y68307D02*
D03*
X535236D02*
D03*
D23*
X264272Y105314D02*
D03*
D24*
X264272Y99409D02*
D03*
D25*
X259350Y105314D02*
D03*
D26*
X259350Y99409D02*
D03*
D27*
X259449Y73425D02*
D03*
D28*
X270669Y81693D02*
D03*
D29*
X46850Y73819D02*
D03*
X113779D02*
D03*
X180709D02*
D03*
X355906D02*
D03*
X422835D02*
D03*
X489764D02*
D03*
D30*
X502165Y131102D02*
D03*
X493898D02*
D03*
D31*
X329134Y152953D02*
D03*
Y159646D02*
D03*
X47244Y93898D02*
D03*
Y87205D02*
D03*
X62992Y93898D02*
D03*
Y87205D02*
D03*
X88582Y93898D02*
D03*
Y87205D02*
D03*
X114173Y93898D02*
D03*
Y87205D02*
D03*
X129921Y93898D02*
D03*
Y87205D02*
D03*
X155512Y93898D02*
D03*
Y87205D02*
D03*
X192913Y93898D02*
D03*
Y87205D02*
D03*
X403543Y126575D02*
D03*
Y133268D02*
D03*
X356299Y93898D02*
D03*
Y87205D02*
D03*
X372047Y87204D02*
D03*
Y93897D02*
D03*
X501968Y87204D02*
D03*
Y93897D02*
D03*
X464567Y87204D02*
D03*
Y93898D02*
D03*
X531496Y87204D02*
D03*
Y93897D02*
D03*
X438976Y87204D02*
D03*
Y93897D02*
D03*
X397638Y87204D02*
D03*
Y93898D02*
D03*
X423228Y93898D02*
D03*
Y87205D02*
D03*
D32*
X339961Y133071D02*
D03*
X333268D02*
D03*
X215157Y87795D02*
D03*
X221850D02*
D03*
X236023Y98425D02*
D03*
X242717D02*
D03*
X236024Y87795D02*
D03*
X242717D02*
D03*
X284055Y92126D02*
D03*
X290748D02*
D03*
X303740Y108268D02*
D03*
X310433D02*
D03*
D33*
X269272Y103937D02*
D03*
Y107087D02*
D03*
Y100787D02*
D03*
Y97638D02*
D03*
X254350Y107087D02*
D03*
Y100787D02*
D03*
Y103937D02*
D03*
Y97638D02*
D03*
D34*
X217618Y53681D02*
D03*
Y58681D02*
D03*
Y48681D02*
D03*
Y43681D02*
D03*
X83760Y53681D02*
D03*
Y58681D02*
D03*
Y48681D02*
D03*
Y43681D02*
D03*
X54232Y75335D02*
D03*
Y80335D02*
D03*
Y70335D02*
D03*
Y65335D02*
D03*
X121161Y53681D02*
D03*
Y58681D02*
D03*
Y48681D02*
D03*
Y43681D02*
D03*
X150689Y53681D02*
D03*
Y58681D02*
D03*
Y48681D02*
D03*
Y43681D02*
D03*
X188090Y53681D02*
D03*
Y58681D02*
D03*
Y48681D02*
D03*
Y43681D02*
D03*
X217618Y75335D02*
D03*
Y80335D02*
D03*
Y70335D02*
D03*
Y65335D02*
D03*
X121161Y75335D02*
D03*
Y80335D02*
D03*
Y70335D02*
D03*
Y65335D02*
D03*
X188090Y75335D02*
D03*
Y80335D02*
D03*
Y70335D02*
D03*
Y65335D02*
D03*
X150689Y75335D02*
D03*
Y80335D02*
D03*
Y70335D02*
D03*
Y65335D02*
D03*
X54232Y53681D02*
D03*
Y58681D02*
D03*
Y48681D02*
D03*
Y43681D02*
D03*
X83760Y75335D02*
D03*
Y80335D02*
D03*
Y70335D02*
D03*
Y65335D02*
D03*
X459744Y53681D02*
D03*
Y58681D02*
D03*
Y48681D02*
D03*
Y43681D02*
D03*
X459744Y75335D02*
D03*
Y80335D02*
D03*
Y70335D02*
D03*
Y65335D02*
D03*
X497146Y75335D02*
D03*
Y80335D02*
D03*
Y70335D02*
D03*
Y65335D02*
D03*
X392815Y53681D02*
D03*
Y58681D02*
D03*
Y48681D02*
D03*
Y43681D02*
D03*
X363287Y53681D02*
D03*
Y58681D02*
D03*
Y48681D02*
D03*
Y43681D02*
D03*
X497146Y53681D02*
D03*
Y58681D02*
D03*
Y48681D02*
D03*
Y43681D02*
D03*
X392815Y75335D02*
D03*
Y80335D02*
D03*
Y70335D02*
D03*
Y65335D02*
D03*
X363287Y75335D02*
D03*
Y80335D02*
D03*
Y70335D02*
D03*
Y65335D02*
D03*
X324705Y75335D02*
D03*
Y80335D02*
D03*
Y70335D02*
D03*
Y65334D02*
D03*
X324705Y53681D02*
D03*
Y58681D02*
D03*
Y48681D02*
D03*
Y43681D02*
D03*
X287303Y75335D02*
D03*
Y80335D02*
D03*
Y70335D02*
D03*
Y65334D02*
D03*
X526673Y53681D02*
D03*
Y58681D02*
D03*
Y48681D02*
D03*
Y43681D02*
D03*
X430217Y53681D02*
D03*
Y58681D02*
D03*
Y48681D02*
D03*
Y43681D02*
D03*
Y75335D02*
D03*
Y80335D02*
D03*
Y70335D02*
D03*
Y65335D02*
D03*
X287303Y53681D02*
D03*
Y58681D02*
D03*
Y48681D02*
D03*
Y43681D02*
D03*
X526673Y75335D02*
D03*
Y80335D02*
D03*
Y70335D02*
D03*
Y65335D02*
D03*
D35*
X308877Y144118D02*
D03*
X306093Y141334D02*
D03*
X296350Y131590D02*
D03*
X299133Y134374D02*
D03*
X317229Y152469D02*
D03*
X314445Y149685D02*
D03*
X315837Y151077D02*
D03*
X273800Y170843D02*
D03*
X272408Y169451D02*
D03*
X277976Y175019D02*
D03*
X266840Y163883D02*
D03*
X265448Y162491D02*
D03*
X271016Y168059D02*
D03*
X268232Y165275D02*
D03*
X269624Y166667D02*
D03*
X283544Y180587D02*
D03*
X286328Y183370D02*
D03*
X284936Y181978D02*
D03*
X282152Y179195D02*
D03*
X279368Y176411D02*
D03*
X280760Y177803D02*
D03*
X307485Y142726D02*
D03*
X297742Y132982D02*
D03*
X310269Y145510D02*
D03*
X300525Y135766D02*
D03*
X304701Y139942D02*
D03*
X303309Y138550D02*
D03*
X301917Y137158D02*
D03*
X313053Y148294D02*
D03*
X311661Y146902D02*
D03*
X275192Y172235D02*
D03*
X276584Y173627D02*
D03*
D36*
X286328Y131590D02*
D03*
X284936Y132982D02*
D03*
X283544Y134374D02*
D03*
X282152Y135766D02*
D03*
X280760Y137158D02*
D03*
X279368Y138550D02*
D03*
X277976Y139942D02*
D03*
X276584Y141334D02*
D03*
X275192Y142726D02*
D03*
X273800Y144118D02*
D03*
X272408Y145510D02*
D03*
X271016Y146902D02*
D03*
X269624Y148293D02*
D03*
X268232Y149685D02*
D03*
X266840Y151077D02*
D03*
X265448Y152469D02*
D03*
X317229Y162491D02*
D03*
X307485Y172235D02*
D03*
X306093Y173627D02*
D03*
X304701Y175019D02*
D03*
X303309Y176410D02*
D03*
X301917Y177803D02*
D03*
X300525Y179195D02*
D03*
X299133Y180587D02*
D03*
X297742Y181978D02*
D03*
X296350Y183370D02*
D03*
X315837Y163883D02*
D03*
X311661Y168059D02*
D03*
X310269Y169451D02*
D03*
X308877Y170843D02*
D03*
X313053Y166667D02*
D03*
X314445Y165275D02*
D03*
D37*
X456693Y141732D02*
D03*
X132283D02*
D03*
D38*
X430118Y126772D02*
D03*
X432087D02*
D03*
X434055D02*
D03*
X436024D02*
D03*
X437992D02*
D03*
X439960D02*
D03*
X441929D02*
D03*
X443898D02*
D03*
X445866D02*
D03*
X447835D02*
D03*
X449803D02*
D03*
X451772D02*
D03*
X453740D02*
D03*
X455709D02*
D03*
X457677D02*
D03*
X459646D02*
D03*
X461614D02*
D03*
X463583D02*
D03*
X465551D02*
D03*
X467520D02*
D03*
X469488D02*
D03*
X471457D02*
D03*
X473425D02*
D03*
X475394D02*
D03*
X477362D02*
D03*
X479331D02*
D03*
X481299D02*
D03*
X483268D02*
D03*
X430118Y156693D02*
D03*
X432087D02*
D03*
X434055D02*
D03*
X436024D02*
D03*
X437992D02*
D03*
X439960D02*
D03*
X441929D02*
D03*
X443898D02*
D03*
X445866D02*
D03*
X447835D02*
D03*
X449803D02*
D03*
X451772D02*
D03*
X453740D02*
D03*
X455709D02*
D03*
X457677D02*
D03*
X459646D02*
D03*
X461614D02*
D03*
X463583D02*
D03*
X465551D02*
D03*
X467520D02*
D03*
X469488D02*
D03*
X471457D02*
D03*
X473425D02*
D03*
X475394D02*
D03*
X477362D02*
D03*
X479331D02*
D03*
X481299D02*
D03*
X483268D02*
D03*
X105709Y126772D02*
D03*
X107677D02*
D03*
X109646D02*
D03*
X111614D02*
D03*
X113583D02*
D03*
X115551D02*
D03*
X117520D02*
D03*
X119488D02*
D03*
X121457D02*
D03*
X123425D02*
D03*
X125394D02*
D03*
X127362D02*
D03*
X129331D02*
D03*
X131299D02*
D03*
X133268D02*
D03*
X135236D02*
D03*
X137205D02*
D03*
X139173D02*
D03*
X141142D02*
D03*
X143110D02*
D03*
X145079D02*
D03*
X147047D02*
D03*
X149016D02*
D03*
X150984D02*
D03*
X152953D02*
D03*
X154921D02*
D03*
X156890D02*
D03*
X158858D02*
D03*
X105709Y156693D02*
D03*
X107677D02*
D03*
X109646D02*
D03*
X111614D02*
D03*
X113583D02*
D03*
X115551D02*
D03*
X129331D02*
D03*
X131299D02*
D03*
X133268D02*
D03*
X135236D02*
D03*
X137205D02*
D03*
X147047D02*
D03*
X150984D02*
D03*
X152953D02*
D03*
X154921D02*
D03*
X156890D02*
D03*
X158858D02*
D03*
X127362D02*
D03*
X121457D02*
D03*
X119488D02*
D03*
X117520D02*
D03*
X123425D02*
D03*
X125394D02*
D03*
X141142D02*
D03*
X139173D02*
D03*
X143110D02*
D03*
X145079D02*
D03*
X149016D02*
D03*
D39*
X265551Y182283D02*
D03*
X260433D02*
D03*
X265551Y177165D02*
D03*
X260433D02*
D03*
X269488Y113779D02*
D03*
X274606D02*
D03*
X184449Y114173D02*
D03*
X189567D02*
D03*
Y124409D02*
D03*
X184449D02*
D03*
D40*
X423228Y121457D02*
D03*
Y126575D02*
D03*
X255118Y170669D02*
D03*
Y175787D02*
D03*
X250000Y170669D02*
D03*
Y175787D02*
D03*
X98819Y121457D02*
D03*
Y126575D02*
D03*
D41*
X405512Y85433D02*
D03*
X409449D02*
D03*
X96457D02*
D03*
X100394D02*
D03*
X306299D02*
D03*
X302362D02*
D03*
D42*
X524606Y150787D02*
D03*
X531299D02*
D03*
M02*
