G04*
G04 #@! TF.GenerationSoftware,Altium Limited,Altium Designer,20.0.11 (256)*
G04*
G04 Layer_Color=8388736*
%FSLAX25Y25*%
%MOIN*%
G70*
G01*
G75*
%ADD33R,0.03543X0.01181*%
%ADD43R,0.07493X0.04737*%
%ADD44C,0.07874*%
%ADD45C,0.03600*%
G04:AMPARAMS|DCode=46|XSize=47.37mil|YSize=43.43mil|CornerRadius=8.43mil|HoleSize=0mil|Usage=FLASHONLY|Rotation=180.000|XOffset=0mil|YOffset=0mil|HoleType=Round|Shape=RoundedRectangle|*
%AMROUNDEDRECTD46*
21,1,0.04737,0.02657,0,0,180.0*
21,1,0.03051,0.04343,0,0,180.0*
1,1,0.01686,-0.01526,0.01329*
1,1,0.01686,0.01526,0.01329*
1,1,0.01686,0.01526,-0.01329*
1,1,0.01686,-0.01526,-0.01329*
%
%ADD46ROUNDEDRECTD46*%
G04:AMPARAMS|DCode=47|XSize=47.37mil|YSize=43.43mil|CornerRadius=8.43mil|HoleSize=0mil|Usage=FLASHONLY|Rotation=270.000|XOffset=0mil|YOffset=0mil|HoleType=Round|Shape=RoundedRectangle|*
%AMROUNDEDRECTD47*
21,1,0.04737,0.02657,0,0,270.0*
21,1,0.03051,0.04343,0,0,270.0*
1,1,0.01686,-0.01329,-0.01526*
1,1,0.01686,-0.01329,0.01526*
1,1,0.01686,0.01329,0.01526*
1,1,0.01686,0.01329,-0.01526*
%
%ADD47ROUNDEDRECTD47*%
%ADD48R,0.09803X0.11811*%
%ADD49R,0.06496X0.19095*%
%ADD50R,0.05118X0.03347*%
%ADD51R,0.09252X0.17126*%
G04:AMPARAMS|DCode=52|XSize=19.81mil|YSize=78.87mil|CornerRadius=0mil|HoleSize=0mil|Usage=FLASHONLY|Rotation=45.000|XOffset=0mil|YOffset=0mil|HoleType=Round|Shape=Round|*
%AMOVALD52*
21,1,0.05906,0.01981,0.00000,0.00000,135.0*
1,1,0.01981,0.02088,-0.02088*
1,1,0.01981,-0.02088,0.02088*
%
%ADD52OVALD52*%

G04:AMPARAMS|DCode=53|XSize=19.81mil|YSize=78.87mil|CornerRadius=0mil|HoleSize=0mil|Usage=FLASHONLY|Rotation=315.000|XOffset=0mil|YOffset=0mil|HoleType=Round|Shape=Round|*
%AMOVALD53*
21,1,0.05906,0.01981,0.00000,0.00000,45.0*
1,1,0.01981,-0.02088,-0.02088*
1,1,0.01981,0.02088,0.02088*
%
%ADD53OVALD53*%

%ADD54R,0.25800X0.15013*%
%ADD55O,0.01981X0.06312*%
%ADD56R,0.03556X0.04147*%
%ADD57R,0.04147X0.03556*%
G04:AMPARAMS|DCode=58|XSize=31.62mil|YSize=31.62mil|CornerRadius=6.36mil|HoleSize=0mil|Usage=FLASHONLY|Rotation=90.000|XOffset=0mil|YOffset=0mil|HoleType=Round|Shape=RoundedRectangle|*
%AMROUNDEDRECTD58*
21,1,0.03162,0.01890,0,0,90.0*
21,1,0.01890,0.03162,0,0,90.0*
1,1,0.01272,0.00945,0.00945*
1,1,0.01272,0.00945,-0.00945*
1,1,0.01272,-0.00945,-0.00945*
1,1,0.01272,-0.00945,0.00945*
%
%ADD58ROUNDEDRECTD58*%
G04:AMPARAMS|DCode=59|XSize=39.5mil|YSize=39.5mil|CornerRadius=7.94mil|HoleSize=0mil|Usage=FLASHONLY|Rotation=0.000|XOffset=0mil|YOffset=0mil|HoleType=Round|Shape=RoundedRectangle|*
%AMROUNDEDRECTD59*
21,1,0.03950,0.02362,0,0,0.0*
21,1,0.02362,0.03950,0,0,0.0*
1,1,0.01587,0.01181,-0.01181*
1,1,0.01587,-0.01181,-0.01181*
1,1,0.01587,-0.01181,0.01181*
1,1,0.01587,0.01181,0.01181*
%
%ADD59ROUNDEDRECTD59*%
%ADD60C,0.30328*%
%ADD61C,0.12611*%
G04:AMPARAMS|DCode=62|XSize=59.18mil|YSize=94.61mil|CornerRadius=16.8mil|HoleSize=0mil|Usage=FLASHONLY|Rotation=90.000|XOffset=0mil|YOffset=0mil|HoleType=Round|Shape=RoundedRectangle|*
%AMROUNDEDRECTD62*
21,1,0.05918,0.06102,0,0,90.0*
21,1,0.02559,0.09461,0,0,90.0*
1,1,0.03359,0.03051,0.01280*
1,1,0.03359,0.03051,-0.01280*
1,1,0.03359,-0.03051,-0.01280*
1,1,0.03359,-0.03051,0.01280*
%
%ADD62ROUNDEDRECTD62*%
G04:AMPARAMS|DCode=63|XSize=49.34mil|YSize=65.48mil|CornerRadius=14.34mil|HoleSize=0mil|Usage=FLASHONLY|Rotation=90.000|XOffset=0mil|YOffset=0mil|HoleType=Round|Shape=RoundedRectangle|*
%AMROUNDEDRECTD63*
21,1,0.04934,0.03681,0,0,90.0*
21,1,0.02067,0.06548,0,0,90.0*
1,1,0.02867,0.01841,0.01034*
1,1,0.02867,0.01841,-0.01034*
1,1,0.02867,-0.01841,-0.01034*
1,1,0.02867,-0.01841,0.01034*
%
%ADD63ROUNDEDRECTD63*%
%ADD64C,0.06706*%
%ADD65R,0.06706X0.06706*%
%ADD66C,0.10249*%
%ADD67C,0.03556*%
%ADD68C,0.03950*%
D33*
X269272Y103937D02*
D03*
Y107087D02*
D03*
Y100787D02*
D03*
Y97638D02*
D03*
X254350Y107087D02*
D03*
Y100787D02*
D03*
Y103937D02*
D03*
Y97638D02*
D03*
D43*
X502165Y131102D02*
D03*
X493898D02*
D03*
D44*
X539370Y110236D02*
D03*
X39370Y177165D02*
D03*
D45*
X324803Y193307D02*
D03*
X336614D02*
D03*
X330709D02*
D03*
X318898D02*
D03*
X312992D02*
D03*
X342520D02*
D03*
X348425D02*
D03*
D46*
X329134Y152953D02*
D03*
Y159646D02*
D03*
X47244Y93898D02*
D03*
Y87205D02*
D03*
X62992Y93898D02*
D03*
Y87205D02*
D03*
X88582Y93898D02*
D03*
Y87205D02*
D03*
X114173Y93898D02*
D03*
Y87205D02*
D03*
X129921Y93898D02*
D03*
Y87205D02*
D03*
X155512Y93898D02*
D03*
Y87205D02*
D03*
X192913Y93898D02*
D03*
Y87205D02*
D03*
X403543Y126575D02*
D03*
Y133268D02*
D03*
X356299Y93898D02*
D03*
Y87205D02*
D03*
X372047Y87204D02*
D03*
Y93897D02*
D03*
X501968Y87204D02*
D03*
Y93897D02*
D03*
X464567Y87204D02*
D03*
Y93898D02*
D03*
X531496Y87204D02*
D03*
Y93897D02*
D03*
X438976Y87204D02*
D03*
Y93897D02*
D03*
X397638Y87204D02*
D03*
Y93898D02*
D03*
X423228Y93898D02*
D03*
Y87205D02*
D03*
D47*
X339961Y133071D02*
D03*
X333268D02*
D03*
X215157Y87795D02*
D03*
X221850D02*
D03*
X236023Y98425D02*
D03*
X242717D02*
D03*
X236024Y87795D02*
D03*
X242717D02*
D03*
X284055Y92126D02*
D03*
X290748D02*
D03*
X303740Y108268D02*
D03*
X310433D02*
D03*
D48*
X261811Y102362D02*
D03*
D49*
X239173Y51181D02*
D03*
X105315Y51181D02*
D03*
X75787Y72835D02*
D03*
X142717Y51181D02*
D03*
X172244Y51181D02*
D03*
X209646Y51181D02*
D03*
X239173Y72835D02*
D03*
X142717D02*
D03*
X209646D02*
D03*
X172244D02*
D03*
X75787Y51181D02*
D03*
X105315Y72835D02*
D03*
X481299Y51181D02*
D03*
X481299Y72835D02*
D03*
X518701D02*
D03*
X414370Y51181D02*
D03*
X384842Y51181D02*
D03*
X518701D02*
D03*
X414370Y72835D02*
D03*
X384842D02*
D03*
X346260Y72834D02*
D03*
X346260Y51181D02*
D03*
X308858Y72834D02*
D03*
X548228Y51181D02*
D03*
X451772Y51181D02*
D03*
Y72835D02*
D03*
X308858Y51181D02*
D03*
X548228Y72835D02*
D03*
D50*
X217618Y53681D02*
D03*
Y58681D02*
D03*
Y48681D02*
D03*
Y43681D02*
D03*
X83760Y53681D02*
D03*
Y58681D02*
D03*
Y48681D02*
D03*
Y43681D02*
D03*
X54232Y75335D02*
D03*
Y80335D02*
D03*
Y70335D02*
D03*
Y65335D02*
D03*
X121161Y53681D02*
D03*
Y58681D02*
D03*
Y48681D02*
D03*
Y43681D02*
D03*
X150689Y53681D02*
D03*
Y58681D02*
D03*
Y48681D02*
D03*
Y43681D02*
D03*
X188090Y53681D02*
D03*
Y58681D02*
D03*
Y48681D02*
D03*
Y43681D02*
D03*
X217618Y75335D02*
D03*
Y80335D02*
D03*
Y70335D02*
D03*
Y65335D02*
D03*
X121161Y75335D02*
D03*
Y80335D02*
D03*
Y70335D02*
D03*
Y65335D02*
D03*
X188090Y75335D02*
D03*
Y80335D02*
D03*
Y70335D02*
D03*
Y65335D02*
D03*
X150689Y75335D02*
D03*
Y80335D02*
D03*
Y70335D02*
D03*
Y65335D02*
D03*
X54232Y53681D02*
D03*
Y58681D02*
D03*
Y48681D02*
D03*
Y43681D02*
D03*
X83760Y75335D02*
D03*
Y80335D02*
D03*
Y70335D02*
D03*
Y65335D02*
D03*
X459744Y53681D02*
D03*
Y58681D02*
D03*
Y48681D02*
D03*
Y43681D02*
D03*
X459744Y75335D02*
D03*
Y80335D02*
D03*
Y70335D02*
D03*
Y65335D02*
D03*
X497146Y75335D02*
D03*
Y80335D02*
D03*
Y70335D02*
D03*
Y65335D02*
D03*
X392815Y53681D02*
D03*
Y58681D02*
D03*
Y48681D02*
D03*
Y43681D02*
D03*
X363287Y53681D02*
D03*
Y58681D02*
D03*
Y48681D02*
D03*
Y43681D02*
D03*
X497146Y53681D02*
D03*
Y58681D02*
D03*
Y48681D02*
D03*
Y43681D02*
D03*
X392815Y75335D02*
D03*
Y80335D02*
D03*
Y70335D02*
D03*
Y65335D02*
D03*
X363287Y75335D02*
D03*
Y80335D02*
D03*
Y70335D02*
D03*
Y65335D02*
D03*
X324705Y75335D02*
D03*
Y80335D02*
D03*
Y70335D02*
D03*
Y65334D02*
D03*
X324705Y53681D02*
D03*
Y58681D02*
D03*
Y48681D02*
D03*
Y43681D02*
D03*
X287303Y75335D02*
D03*
Y80335D02*
D03*
Y70335D02*
D03*
Y65334D02*
D03*
X526673Y53681D02*
D03*
Y58681D02*
D03*
Y48681D02*
D03*
Y43681D02*
D03*
X430217Y53681D02*
D03*
Y58681D02*
D03*
Y48681D02*
D03*
Y43681D02*
D03*
Y75335D02*
D03*
Y80335D02*
D03*
Y70335D02*
D03*
Y65335D02*
D03*
X287303Y53681D02*
D03*
Y58681D02*
D03*
Y48681D02*
D03*
Y43681D02*
D03*
X526673Y75335D02*
D03*
Y80335D02*
D03*
Y70335D02*
D03*
Y65335D02*
D03*
D51*
X233661Y51181D02*
D03*
X228346D02*
D03*
X99803Y51181D02*
D03*
X94488D02*
D03*
X70275Y72835D02*
D03*
X64960D02*
D03*
X137205Y51181D02*
D03*
X131890D02*
D03*
X166732Y51181D02*
D03*
X161417D02*
D03*
X204134Y51181D02*
D03*
X198819D02*
D03*
X233661Y72835D02*
D03*
X228346D02*
D03*
X137205D02*
D03*
X131890D02*
D03*
X204134D02*
D03*
X198819D02*
D03*
X166732D02*
D03*
X161417D02*
D03*
X70275Y51181D02*
D03*
X64960D02*
D03*
X99803Y72835D02*
D03*
X94488D02*
D03*
X475787Y51181D02*
D03*
X470472D02*
D03*
X475787Y72835D02*
D03*
X470472D02*
D03*
X513189D02*
D03*
X507874D02*
D03*
X408858Y51181D02*
D03*
X403543D02*
D03*
X379331Y51181D02*
D03*
X374016D02*
D03*
X513189D02*
D03*
X507874D02*
D03*
X408858Y72835D02*
D03*
X403543D02*
D03*
X379331D02*
D03*
X374016D02*
D03*
X340748Y72834D02*
D03*
X335433D02*
D03*
X340748Y51181D02*
D03*
X335433D02*
D03*
X303346Y72834D02*
D03*
X298031D02*
D03*
X542717Y51181D02*
D03*
X537401D02*
D03*
X446260Y51181D02*
D03*
X440945D02*
D03*
X446260Y72835D02*
D03*
X440945D02*
D03*
X303346Y51181D02*
D03*
X298031D02*
D03*
X542717Y72835D02*
D03*
X537401D02*
D03*
D52*
X308877Y144118D02*
D03*
X306093Y141334D02*
D03*
X296350Y131590D02*
D03*
X299133Y134374D02*
D03*
X317229Y152469D02*
D03*
X314445Y149685D02*
D03*
X315837Y151077D02*
D03*
X273800Y170843D02*
D03*
X272408Y169451D02*
D03*
X277976Y175019D02*
D03*
X266840Y163883D02*
D03*
X265448Y162491D02*
D03*
X271016Y168059D02*
D03*
X268232Y165275D02*
D03*
X269624Y166667D02*
D03*
X283544Y180587D02*
D03*
X286328Y183370D02*
D03*
X284936Y181978D02*
D03*
X282152Y179195D02*
D03*
X279368Y176411D02*
D03*
X280760Y177803D02*
D03*
X307485Y142726D02*
D03*
X297742Y132982D02*
D03*
X310269Y145510D02*
D03*
X300525Y135766D02*
D03*
X304701Y139942D02*
D03*
X303309Y138550D02*
D03*
X301917Y137158D02*
D03*
X313053Y148294D02*
D03*
X311661Y146902D02*
D03*
X275192Y172235D02*
D03*
X276584Y173627D02*
D03*
D53*
X286328Y131590D02*
D03*
X284936Y132982D02*
D03*
X283544Y134374D02*
D03*
X282152Y135766D02*
D03*
X280760Y137158D02*
D03*
X279368Y138550D02*
D03*
X277976Y139942D02*
D03*
X276584Y141334D02*
D03*
X275192Y142726D02*
D03*
X273800Y144118D02*
D03*
X272408Y145510D02*
D03*
X271016Y146902D02*
D03*
X269624Y148293D02*
D03*
X268232Y149685D02*
D03*
X266840Y151077D02*
D03*
X265448Y152469D02*
D03*
X317229Y162491D02*
D03*
X307485Y172235D02*
D03*
X306093Y173627D02*
D03*
X304701Y175019D02*
D03*
X303309Y176410D02*
D03*
X301917Y177803D02*
D03*
X300525Y179195D02*
D03*
X299133Y180587D02*
D03*
X297742Y181978D02*
D03*
X296350Y183370D02*
D03*
X315837Y163883D02*
D03*
X311661Y168059D02*
D03*
X310269Y169451D02*
D03*
X308877Y170843D02*
D03*
X313053Y166667D02*
D03*
X314445Y165275D02*
D03*
D54*
X456693Y141732D02*
D03*
X132283D02*
D03*
D55*
X430118Y126772D02*
D03*
X432087D02*
D03*
X434055D02*
D03*
X436024D02*
D03*
X437992D02*
D03*
X439960D02*
D03*
X441929D02*
D03*
X443898D02*
D03*
X445866D02*
D03*
X447835D02*
D03*
X449803D02*
D03*
X451772D02*
D03*
X453740D02*
D03*
X455709D02*
D03*
X457677D02*
D03*
X459646D02*
D03*
X461614D02*
D03*
X463583D02*
D03*
X465551D02*
D03*
X467520D02*
D03*
X469488D02*
D03*
X471457D02*
D03*
X473425D02*
D03*
X475394D02*
D03*
X477362D02*
D03*
X479331D02*
D03*
X481299D02*
D03*
X483268D02*
D03*
X430118Y156693D02*
D03*
X432087D02*
D03*
X434055D02*
D03*
X436024D02*
D03*
X437992D02*
D03*
X439960D02*
D03*
X441929D02*
D03*
X443898D02*
D03*
X445866D02*
D03*
X447835D02*
D03*
X449803D02*
D03*
X451772D02*
D03*
X453740D02*
D03*
X455709D02*
D03*
X457677D02*
D03*
X459646D02*
D03*
X461614D02*
D03*
X463583D02*
D03*
X465551D02*
D03*
X467520D02*
D03*
X469488D02*
D03*
X471457D02*
D03*
X473425D02*
D03*
X475394D02*
D03*
X477362D02*
D03*
X479331D02*
D03*
X481299D02*
D03*
X483268D02*
D03*
X105709Y126772D02*
D03*
X107677D02*
D03*
X109646D02*
D03*
X111614D02*
D03*
X113583D02*
D03*
X115551D02*
D03*
X117520D02*
D03*
X119488D02*
D03*
X121457D02*
D03*
X123425D02*
D03*
X125394D02*
D03*
X127362D02*
D03*
X129331D02*
D03*
X131299D02*
D03*
X133268D02*
D03*
X135236D02*
D03*
X137205D02*
D03*
X139173D02*
D03*
X141142D02*
D03*
X143110D02*
D03*
X145079D02*
D03*
X147047D02*
D03*
X149016D02*
D03*
X150984D02*
D03*
X152953D02*
D03*
X154921D02*
D03*
X156890D02*
D03*
X158858D02*
D03*
X105709Y156693D02*
D03*
X107677D02*
D03*
X109646D02*
D03*
X111614D02*
D03*
X113583D02*
D03*
X115551D02*
D03*
X129331D02*
D03*
X131299D02*
D03*
X133268D02*
D03*
X135236D02*
D03*
X137205D02*
D03*
X147047D02*
D03*
X150984D02*
D03*
X152953D02*
D03*
X154921D02*
D03*
X156890D02*
D03*
X158858D02*
D03*
X127362D02*
D03*
X121457D02*
D03*
X119488D02*
D03*
X117520D02*
D03*
X123425D02*
D03*
X125394D02*
D03*
X141142D02*
D03*
X139173D02*
D03*
X143110D02*
D03*
X145079D02*
D03*
X149016D02*
D03*
D56*
X265551Y182283D02*
D03*
X260433D02*
D03*
X265551Y177165D02*
D03*
X260433D02*
D03*
X269488Y113779D02*
D03*
X274606D02*
D03*
X184449Y114173D02*
D03*
X189567D02*
D03*
Y124409D02*
D03*
X184449D02*
D03*
D57*
X423228Y121457D02*
D03*
Y126575D02*
D03*
X255118Y170669D02*
D03*
Y175787D02*
D03*
X250000Y170669D02*
D03*
Y175787D02*
D03*
X98819Y121457D02*
D03*
Y126575D02*
D03*
D58*
X405512Y85433D02*
D03*
X409449D02*
D03*
X96457D02*
D03*
X100394D02*
D03*
X306299D02*
D03*
X302362D02*
D03*
D59*
X524606Y150787D02*
D03*
X531299D02*
D03*
D60*
X139764Y17717D02*
D03*
X102362D02*
D03*
X177165D02*
D03*
X486221D02*
D03*
X263779Y17717D02*
D03*
X411417Y17717D02*
D03*
X448819D02*
D03*
X309055Y17717D02*
D03*
X19685Y94488D02*
D03*
X19685Y53150D02*
D03*
D61*
X216535Y114567D02*
D03*
X49213D02*
D03*
X9843Y15748D02*
D03*
X216535Y21654D02*
D03*
X525591Y114567D02*
D03*
X543307Y187008D02*
D03*
X525591Y21654D02*
D03*
X49213D02*
D03*
X9843Y187008D02*
D03*
X368110Y114567D02*
D03*
Y21654D02*
D03*
X543307Y15748D02*
D03*
D62*
X5906Y137697D02*
D03*
Y159154D02*
D03*
D63*
X17815Y138878D02*
D03*
Y157972D02*
D03*
D64*
X378583Y143701D02*
D03*
X368583D02*
D03*
X358583D02*
D03*
X348583D02*
D03*
X81260Y191732D02*
D03*
X91260D02*
D03*
X101260D02*
D03*
X111260D02*
D03*
X121260D02*
D03*
X131260D02*
D03*
X141260D02*
D03*
X151260D02*
D03*
X161260D02*
D03*
X171260D02*
D03*
X181260D02*
D03*
X191260D02*
D03*
X201260D02*
D03*
X211260D02*
D03*
X221260D02*
D03*
X231260D02*
D03*
X241260D02*
D03*
X376142D02*
D03*
X386142D02*
D03*
X396142D02*
D03*
X406142D02*
D03*
X416142D02*
D03*
X426142D02*
D03*
X436142D02*
D03*
X446142D02*
D03*
X456142D02*
D03*
X466142D02*
D03*
X476142D02*
D03*
D65*
X338583Y143701D02*
D03*
X71260Y191732D02*
D03*
X366142D02*
D03*
D66*
X418898Y6299D02*
D03*
X448898D02*
D03*
X478898D02*
D03*
X109843D02*
D03*
X139842D02*
D03*
X169843D02*
D03*
X7087Y58976D02*
D03*
Y88976D02*
D03*
X301260Y6299D02*
D03*
X271260D02*
D03*
D67*
X121457Y141732D02*
D03*
Y137401D02*
D03*
X263779Y106299D02*
D03*
Y102362D02*
D03*
X259842Y106299D02*
D03*
Y102362D02*
D03*
X263779Y98425D02*
D03*
X259842D02*
D03*
X147559Y25512D02*
D03*
X150787Y17717D02*
D03*
X139764Y28740D02*
D03*
X147559Y9922D02*
D03*
X139764Y6693D02*
D03*
X131969Y25512D02*
D03*
X128740Y17717D02*
D03*
X131969Y9922D02*
D03*
X110157Y25512D02*
D03*
X113386Y17717D02*
D03*
X102362Y28740D02*
D03*
X110157Y9922D02*
D03*
X102362Y6693D02*
D03*
X94567Y25512D02*
D03*
X91338Y17717D02*
D03*
X94567Y9922D02*
D03*
X184960Y25512D02*
D03*
X188189Y17717D02*
D03*
X177165Y28740D02*
D03*
X184960Y9922D02*
D03*
X177165Y6693D02*
D03*
X169370Y25512D02*
D03*
X166142Y17717D02*
D03*
X169370Y9922D02*
D03*
X494015Y25512D02*
D03*
X497244Y17717D02*
D03*
X486221Y28740D02*
D03*
X494015Y9922D02*
D03*
X486221Y6693D02*
D03*
X478426Y25512D02*
D03*
X475197Y17717D02*
D03*
X478426Y9922D02*
D03*
X271574Y25511D02*
D03*
X274803Y17717D02*
D03*
X263779Y28740D02*
D03*
X271574Y9922D02*
D03*
X263779Y6693D02*
D03*
X255984Y25511D02*
D03*
X252756Y17717D02*
D03*
X255984Y9922D02*
D03*
X419212Y25512D02*
D03*
X422441Y17717D02*
D03*
X411417Y28740D02*
D03*
X419212Y9922D02*
D03*
X411417Y6693D02*
D03*
X403622Y25512D02*
D03*
X400394Y17717D02*
D03*
X403622Y9922D02*
D03*
X456614Y25512D02*
D03*
X459842Y17717D02*
D03*
X448819Y28740D02*
D03*
X456614Y9922D02*
D03*
X448819Y6693D02*
D03*
X441024Y25512D02*
D03*
X437795Y17717D02*
D03*
X441024Y9922D02*
D03*
X316850Y25511D02*
D03*
X320079Y17717D02*
D03*
X309055Y28740D02*
D03*
X316850Y9922D02*
D03*
X309055Y6693D02*
D03*
X301260Y25511D02*
D03*
X298031Y17717D02*
D03*
X301260Y9922D02*
D03*
X27480Y102283D02*
D03*
X30709Y94488D02*
D03*
X19685Y105512D02*
D03*
X27480Y86693D02*
D03*
X19685Y83464D02*
D03*
X11890Y102283D02*
D03*
X8661Y94488D02*
D03*
X11890Y86693D02*
D03*
X27480Y60944D02*
D03*
X30709Y53150D02*
D03*
X19685Y64173D02*
D03*
X27480Y45355D02*
D03*
X19685Y42126D02*
D03*
X11890Y60944D02*
D03*
X8662Y53150D02*
D03*
X11890Y45355D02*
D03*
X261811Y80709D02*
D03*
X271654D02*
D03*
Y82677D02*
D03*
X261811D02*
D03*
X269685D02*
D03*
Y80709D02*
D03*
X279527Y82677D02*
D03*
Y80709D02*
D03*
X277559D02*
D03*
Y82677D02*
D03*
X267717Y80709D02*
D03*
Y82677D02*
D03*
X265748D02*
D03*
Y80709D02*
D03*
X275590Y82677D02*
D03*
Y80709D02*
D03*
X273622D02*
D03*
Y82677D02*
D03*
X263779Y80709D02*
D03*
Y82677D02*
D03*
X355906Y74803D02*
D03*
X353937Y76771D02*
D03*
X257480Y76378D02*
D03*
Y74409D02*
D03*
Y72441D02*
D03*
Y70472D02*
D03*
X259449D02*
D03*
Y72441D02*
D03*
Y74409D02*
D03*
Y76378D02*
D03*
X261417D02*
D03*
Y74409D02*
D03*
Y72441D02*
D03*
Y70472D02*
D03*
X263386D02*
D03*
Y72441D02*
D03*
Y74409D02*
D03*
Y76378D02*
D03*
X255512D02*
D03*
Y74409D02*
D03*
Y72441D02*
D03*
Y70472D02*
D03*
X353937Y70866D02*
D03*
Y72834D02*
D03*
Y74803D02*
D03*
X357874Y76771D02*
D03*
Y74803D02*
D03*
Y72834D02*
D03*
Y70866D02*
D03*
X355906D02*
D03*
Y72834D02*
D03*
Y76771D02*
D03*
X420866Y70866D02*
D03*
Y72834D02*
D03*
Y74803D02*
D03*
Y76771D02*
D03*
X424803D02*
D03*
Y74803D02*
D03*
Y72834D02*
D03*
Y70866D02*
D03*
X422834D02*
D03*
Y72834D02*
D03*
Y74803D02*
D03*
Y76771D02*
D03*
X487795Y70866D02*
D03*
Y72834D02*
D03*
Y74803D02*
D03*
Y76771D02*
D03*
X491732D02*
D03*
Y74803D02*
D03*
Y72834D02*
D03*
Y70866D02*
D03*
X489764D02*
D03*
Y72834D02*
D03*
Y74803D02*
D03*
Y76771D02*
D03*
X180709D02*
D03*
Y74803D02*
D03*
Y72834D02*
D03*
Y70866D02*
D03*
X182677D02*
D03*
Y72834D02*
D03*
Y74803D02*
D03*
Y76771D02*
D03*
X178740D02*
D03*
Y74803D02*
D03*
Y72834D02*
D03*
Y70866D02*
D03*
X113779Y76771D02*
D03*
Y74803D02*
D03*
Y72834D02*
D03*
Y70866D02*
D03*
X115748D02*
D03*
Y72834D02*
D03*
Y74803D02*
D03*
Y76771D02*
D03*
X111811D02*
D03*
Y74803D02*
D03*
Y72834D02*
D03*
Y70866D02*
D03*
X450197Y146063D02*
D03*
X445866D02*
D03*
X454528D02*
D03*
X445866Y137401D02*
D03*
Y141732D02*
D03*
X450197Y137401D02*
D03*
Y141732D02*
D03*
X454528Y137401D02*
D03*
Y141732D02*
D03*
X458858Y137401D02*
D03*
Y141732D02*
D03*
Y146063D02*
D03*
X463189Y137401D02*
D03*
Y141732D02*
D03*
Y146063D02*
D03*
X467520Y137401D02*
D03*
Y141732D02*
D03*
Y146063D02*
D03*
X143110Y141732D02*
D03*
X121457Y146063D02*
D03*
X125787Y137401D02*
D03*
Y141732D02*
D03*
Y146063D02*
D03*
X130118Y137401D02*
D03*
Y141732D02*
D03*
Y146063D02*
D03*
X134449Y137401D02*
D03*
Y141732D02*
D03*
Y146063D02*
D03*
X138779Y137401D02*
D03*
Y141732D02*
D03*
X143110Y137401D02*
D03*
Y146063D02*
D03*
X138779D02*
D03*
X46850Y76771D02*
D03*
X44882D02*
D03*
X46850Y74803D02*
D03*
X44882D02*
D03*
Y72834D02*
D03*
Y70866D02*
D03*
X46850D02*
D03*
X48819D02*
D03*
X46850Y72834D02*
D03*
X48819D02*
D03*
Y76771D02*
D03*
Y74803D02*
D03*
D68*
X240157Y56102D02*
D03*
X236220Y56693D02*
D03*
X240157Y51181D02*
D03*
X237697Y53445D02*
D03*
X234449D02*
D03*
X232677Y56693D02*
D03*
X231102Y53445D02*
D03*
X237795Y48917D02*
D03*
X240157Y46260D02*
D03*
X235827Y45669D02*
D03*
X234547Y48917D02*
D03*
X231201D02*
D03*
X232283Y45669D02*
D03*
X229134Y56693D02*
D03*
X227953Y48917D02*
D03*
X227854Y53445D02*
D03*
X228740Y45669D02*
D03*
X106299Y56102D02*
D03*
X102362Y56693D02*
D03*
X106299Y51181D02*
D03*
X103839Y53445D02*
D03*
X100591D02*
D03*
X98819Y56693D02*
D03*
X97244Y53445D02*
D03*
X103937Y48917D02*
D03*
X106299Y46260D02*
D03*
X101969Y45669D02*
D03*
X100689Y48917D02*
D03*
X97342D02*
D03*
X98425Y45669D02*
D03*
X95276Y56693D02*
D03*
X94095Y48917D02*
D03*
X93996Y53445D02*
D03*
X94882Y45669D02*
D03*
X173228Y56102D02*
D03*
X169291Y56693D02*
D03*
X173228Y51181D02*
D03*
X170768Y53445D02*
D03*
X167520D02*
D03*
X165748Y56693D02*
D03*
X164173Y53445D02*
D03*
X170866Y48917D02*
D03*
X173228Y46260D02*
D03*
X168898Y45669D02*
D03*
X167618Y48917D02*
D03*
X164272D02*
D03*
X165354Y45669D02*
D03*
X162205Y56693D02*
D03*
X161024Y48917D02*
D03*
X160925Y53445D02*
D03*
X161811Y45669D02*
D03*
X482283Y56102D02*
D03*
X478346Y56693D02*
D03*
X482283Y51181D02*
D03*
X479823Y53445D02*
D03*
X476575D02*
D03*
X474803Y56693D02*
D03*
X473228Y53445D02*
D03*
X479921Y48917D02*
D03*
X482283Y46260D02*
D03*
X477953Y45669D02*
D03*
X476673Y48917D02*
D03*
X473327D02*
D03*
X474409Y45669D02*
D03*
X471260Y56693D02*
D03*
X470079Y48917D02*
D03*
X469980Y53445D02*
D03*
X470866Y45669D02*
D03*
X415354Y56102D02*
D03*
X411417Y56693D02*
D03*
X415354Y51181D02*
D03*
X412894Y53445D02*
D03*
X409646D02*
D03*
X407874Y56693D02*
D03*
X406299Y53445D02*
D03*
X412992Y48917D02*
D03*
X415354Y46260D02*
D03*
X411024Y45669D02*
D03*
X409744Y48917D02*
D03*
X406398D02*
D03*
X407480Y45669D02*
D03*
X404331Y56693D02*
D03*
X403150Y48917D02*
D03*
X403051Y53445D02*
D03*
X403937Y45669D02*
D03*
X347244Y56102D02*
D03*
X343307Y56693D02*
D03*
X347244Y51181D02*
D03*
X344783Y53445D02*
D03*
X341535D02*
D03*
X339764Y56693D02*
D03*
X338189Y53445D02*
D03*
X344882Y48917D02*
D03*
X347244Y46260D02*
D03*
X342913Y45669D02*
D03*
X341634Y48917D02*
D03*
X338287D02*
D03*
X339370Y45669D02*
D03*
X336220Y56693D02*
D03*
X335039Y48917D02*
D03*
X334941Y53445D02*
D03*
X335827Y45669D02*
D03*
X549213Y56102D02*
D03*
X545275Y56693D02*
D03*
X549213Y51181D02*
D03*
X546752Y53445D02*
D03*
X543504D02*
D03*
X541732Y56693D02*
D03*
X540157Y53445D02*
D03*
X546850Y48917D02*
D03*
X549213Y46260D02*
D03*
X544882Y45669D02*
D03*
X543602Y48917D02*
D03*
X540256D02*
D03*
X541338Y45669D02*
D03*
X538189Y56693D02*
D03*
X537008Y48917D02*
D03*
X536909Y53445D02*
D03*
X537795Y45669D02*
D03*
M02*
