G04*
G04 #@! TF.GenerationSoftware,Altium Limited,Altium Designer,20.0.11 (256)*
G04*
G04 Layer_Physical_Order=1*
G04 Layer_Color=255*
%FSLAX25Y25*%
%MOIN*%
G70*
G01*
G75*
%ADD11C,0.02362*%
%ADD12C,0.00984*%
%ADD14C,0.00600*%
%ADD16C,0.01968*%
%ADD17C,0.00800*%
%ADD19C,0.01575*%
%ADD30R,0.06693X0.03937*%
G04:AMPARAMS|DCode=31|XSize=39.37mil|YSize=35.43mil|CornerRadius=4.43mil|HoleSize=0mil|Usage=FLASHONLY|Rotation=180.000|XOffset=0mil|YOffset=0mil|HoleType=Round|Shape=RoundedRectangle|*
%AMROUNDEDRECTD31*
21,1,0.03937,0.02657,0,0,180.0*
21,1,0.03051,0.03543,0,0,180.0*
1,1,0.00886,-0.01526,0.01329*
1,1,0.00886,0.01526,0.01329*
1,1,0.00886,0.01526,-0.01329*
1,1,0.00886,-0.01526,-0.01329*
%
%ADD31ROUNDEDRECTD31*%
G04:AMPARAMS|DCode=32|XSize=39.37mil|YSize=35.43mil|CornerRadius=4.43mil|HoleSize=0mil|Usage=FLASHONLY|Rotation=270.000|XOffset=0mil|YOffset=0mil|HoleType=Round|Shape=RoundedRectangle|*
%AMROUNDEDRECTD32*
21,1,0.03937,0.02657,0,0,270.0*
21,1,0.03051,0.03543,0,0,270.0*
1,1,0.00886,-0.01329,-0.01526*
1,1,0.00886,-0.01329,0.01526*
1,1,0.00886,0.01329,0.01526*
1,1,0.00886,0.01329,-0.01526*
%
%ADD32ROUNDEDRECTD32*%
%ADD33R,0.03543X0.01181*%
G04:AMPARAMS|DCode=35|XSize=11.81mil|YSize=70.87mil|CornerRadius=0mil|HoleSize=0mil|Usage=FLASHONLY|Rotation=45.000|XOffset=0mil|YOffset=0mil|HoleType=Round|Shape=Round|*
%AMOVALD35*
21,1,0.05906,0.01181,0.00000,0.00000,135.0*
1,1,0.01181,0.02088,-0.02088*
1,1,0.01181,-0.02088,0.02088*
%
%ADD35OVALD35*%

G04:AMPARAMS|DCode=36|XSize=11.81mil|YSize=70.87mil|CornerRadius=0mil|HoleSize=0mil|Usage=FLASHONLY|Rotation=315.000|XOffset=0mil|YOffset=0mil|HoleType=Round|Shape=Round|*
%AMOVALD36*
21,1,0.05906,0.01181,0.00000,0.00000,45.0*
1,1,0.01181,-0.02088,-0.02088*
1,1,0.01181,0.02088,0.02088*
%
%ADD36OVALD36*%

%ADD37R,0.25000X0.14213*%
%ADD38O,0.01181X0.05512*%
%ADD39R,0.02756X0.03347*%
%ADD40R,0.03347X0.02756*%
G04:AMPARAMS|DCode=41|XSize=23.62mil|YSize=23.62mil|CornerRadius=2.36mil|HoleSize=0mil|Usage=FLASHONLY|Rotation=90.000|XOffset=0mil|YOffset=0mil|HoleType=Round|Shape=RoundedRectangle|*
%AMROUNDEDRECTD41*
21,1,0.02362,0.01890,0,0,90.0*
21,1,0.01890,0.02362,0,0,90.0*
1,1,0.00472,0.00945,0.00945*
1,1,0.00472,0.00945,-0.00945*
1,1,0.00472,-0.00945,-0.00945*
1,1,0.00472,-0.00945,0.00945*
%
%ADD41ROUNDEDRECTD41*%
G04:AMPARAMS|DCode=42|XSize=31.5mil|YSize=31.5mil|CornerRadius=3.94mil|HoleSize=0mil|Usage=FLASHONLY|Rotation=0.000|XOffset=0mil|YOffset=0mil|HoleType=Round|Shape=RoundedRectangle|*
%AMROUNDEDRECTD42*
21,1,0.03150,0.02362,0,0,0.0*
21,1,0.02362,0.03150,0,0,0.0*
1,1,0.00787,0.01181,-0.01181*
1,1,0.00787,-0.01181,-0.01181*
1,1,0.00787,-0.01181,0.01181*
1,1,0.00787,0.01181,0.01181*
%
%ADD42ROUNDEDRECTD42*%
%ADD48R,0.09803X0.11811*%
%ADD69C,0.00984*%
%ADD70C,0.03937*%
%ADD71C,0.03000*%
%ADD72R,0.05906X0.18504*%
%ADD73R,0.04528X0.02756*%
%ADD74R,0.08661X0.16535*%
%ADD75C,0.01181*%
%ADD76C,0.00799*%
%ADD77C,0.29528*%
%ADD78C,0.11811*%
G04:AMPARAMS|DCode=79|XSize=51.18mil|YSize=86.61mil|CornerRadius=12.8mil|HoleSize=0mil|Usage=FLASHONLY|Rotation=90.000|XOffset=0mil|YOffset=0mil|HoleType=Round|Shape=RoundedRectangle|*
%AMROUNDEDRECTD79*
21,1,0.05118,0.06102,0,0,90.0*
21,1,0.02559,0.08661,0,0,90.0*
1,1,0.02559,0.03051,0.01280*
1,1,0.02559,0.03051,-0.01280*
1,1,0.02559,-0.03051,-0.01280*
1,1,0.02559,-0.03051,0.01280*
%
%ADD79ROUNDEDRECTD79*%
G04:AMPARAMS|DCode=80|XSize=41.34mil|YSize=57.48mil|CornerRadius=10.34mil|HoleSize=0mil|Usage=FLASHONLY|Rotation=90.000|XOffset=0mil|YOffset=0mil|HoleType=Round|Shape=RoundedRectangle|*
%AMROUNDEDRECTD80*
21,1,0.04134,0.03681,0,0,90.0*
21,1,0.02067,0.05748,0,0,90.0*
1,1,0.02067,0.01841,0.01034*
1,1,0.02067,0.01841,-0.01034*
1,1,0.02067,-0.01841,-0.01034*
1,1,0.02067,-0.01841,0.01034*
%
%ADD80ROUNDEDRECTD80*%
%ADD81C,0.05906*%
%ADD82R,0.05906X0.05906*%
%ADD83C,0.09449*%
%ADD84C,0.02953*%
%ADD85C,0.02756*%
%ADD86C,0.02362*%
%ADD87C,0.03150*%
G36*
X262303Y107874D02*
X261319D01*
Y109843D01*
X262303D01*
Y107874D01*
D02*
G37*
G36*
X289894Y83051D02*
X289895Y83047D01*
X289894Y83042D01*
X289914Y82946D01*
Y67512D01*
X284240D01*
Y63157D01*
X289914D01*
Y61496D01*
X289894Y61398D01*
X289914Y61299D01*
Y47603D01*
X288169Y45858D01*
X284240D01*
Y43307D01*
X275590D01*
X269685Y78740D01*
X259842D01*
X259842Y84646D01*
X263779Y88583D01*
X289894D01*
Y83051D01*
D02*
G37*
G36*
X190489Y82677D02*
Y67512D01*
X185027D01*
Y63158D01*
X190489D01*
Y47493D01*
X188854Y45858D01*
X185027D01*
Y41504D01*
X184596Y41339D01*
X176047D01*
Y82677D01*
X190489Y82677D01*
D02*
G37*
G36*
X242126Y41339D02*
X224409D01*
Y82677D01*
X242126D01*
Y41339D01*
D02*
G37*
G36*
X175197Y82053D02*
Y41339D01*
X157480D01*
Y82677D01*
X174573D01*
X175197Y82053D01*
D02*
G37*
G36*
X123560Y67512D02*
X118098D01*
Y63158D01*
X123560D01*
Y47493D01*
X121925Y45858D01*
X118098D01*
Y41504D01*
X117667Y41339D01*
X109067D01*
Y61232D01*
X109055D01*
Y62784D01*
X109067D01*
Y78347D01*
X114567D01*
X118897Y82677D01*
X123560D01*
Y67512D01*
D02*
G37*
G36*
X108268Y78425D02*
X108252Y78347D01*
Y62843D01*
X108240Y62784D01*
Y61232D01*
X108252Y61173D01*
Y41339D01*
X90551D01*
Y82677D01*
X108268D01*
Y78425D01*
D02*
G37*
G36*
X56630Y67512D02*
X51169D01*
Y63158D01*
X56630D01*
Y47493D01*
X54996Y45858D01*
X51169D01*
Y41504D01*
X50738Y41339D01*
X42126D01*
Y78347D01*
X47244D01*
X51575Y82677D01*
X56630D01*
Y67512D01*
D02*
G37*
G36*
X220016D02*
X214555D01*
Y63158D01*
X220016D01*
Y47493D01*
X218382Y45858D01*
X214555D01*
Y41504D01*
X220681D01*
Y42446D01*
X221979Y43744D01*
X222441Y43553D01*
Y37402D01*
X213641Y28602D01*
X212353Y27913D01*
X211212Y26977D01*
X210276Y25836D01*
X209587Y24548D01*
X188976Y3937D01*
X160264D01*
Y39370D01*
X160424Y39566D01*
X185039D01*
X187192Y41504D01*
X191153D01*
Y42446D01*
X193935Y45228D01*
X193936Y45228D01*
X194373Y45883D01*
X194527Y46656D01*
X194527Y46656D01*
Y65335D01*
Y82677D01*
X220016D01*
Y67512D01*
D02*
G37*
G36*
X153087D02*
X147626D01*
Y63158D01*
X153087D01*
Y47493D01*
X151453Y45858D01*
X147626D01*
Y41504D01*
X153752D01*
Y42447D01*
X155062Y43757D01*
X156287Y42531D01*
Y42114D01*
X156665D01*
Y41339D01*
X156727Y41027D01*
X156904Y40762D01*
X157168Y40586D01*
X157480Y40524D01*
X158295D01*
X159449Y39370D01*
Y3937D01*
X122047D01*
Y39370D01*
Y41504D01*
X124224D01*
Y42446D01*
X127006Y45228D01*
X127006Y45228D01*
X127444Y45883D01*
X127470Y46012D01*
X127598Y46656D01*
X127598Y46656D01*
Y65335D01*
Y82026D01*
X128249Y82677D01*
X153087D01*
Y67512D01*
D02*
G37*
G36*
X86158D02*
X80697D01*
Y63158D01*
X86158D01*
Y47493D01*
X84524Y45858D01*
X80697D01*
Y41504D01*
X86221D01*
Y39370D01*
X121232D01*
Y3937D01*
X86614D01*
X57087Y33464D01*
Y41504D01*
X57295D01*
Y42446D01*
X60077Y45228D01*
X60077Y45228D01*
X60515Y45883D01*
X60540Y46012D01*
X60669Y46656D01*
X60669Y46656D01*
Y65335D01*
Y82026D01*
X61320Y82677D01*
X86158D01*
Y67512D01*
D02*
G37*
G36*
X259090Y78428D02*
X259266Y78164D01*
X259531Y77987D01*
X259842Y77925D01*
X268995D01*
X274787Y43173D01*
X274819Y43086D01*
X274838Y42995D01*
X274875Y42939D01*
X274899Y42876D01*
X274963Y42808D01*
X275014Y42731D01*
X275030Y42720D01*
X278740Y17717D01*
X268898Y2756D01*
X250000Y11811D01*
X244094Y23622D01*
Y75984D01*
X250000D01*
X252756Y78740D01*
X259028D01*
X259090Y78428D01*
D02*
G37*
G36*
X541022Y194882D02*
X541163Y194709D01*
X540987Y194133D01*
X540426Y193963D01*
X539124Y193268D01*
X537984Y192331D01*
X537047Y191190D01*
X536352Y189889D01*
X535923Y188477D01*
X535779Y187008D01*
X535923Y185539D01*
X536352Y184127D01*
X537047Y182825D01*
X537984Y181685D01*
X539124Y180748D01*
X540426Y180053D01*
X541838Y179624D01*
X543307Y179480D01*
X544776Y179624D01*
X546188Y180053D01*
X547490Y180748D01*
X548631Y181685D01*
X549567Y182825D01*
X550262Y184127D01*
X550432Y184687D01*
X551008Y184864D01*
X551181Y184723D01*
X551181Y141732D01*
X512992D01*
X496172Y158553D01*
X496168Y158570D01*
X495774Y159160D01*
X494095Y160839D01*
X494095Y185039D01*
Y194882D01*
X541022Y194882D01*
D02*
G37*
G36*
X365686Y67512D02*
X360224D01*
Y63158D01*
X365686D01*
Y47493D01*
X364051Y45858D01*
X360224D01*
Y41504D01*
X359793Y41339D01*
X351181D01*
Y78347D01*
X356693Y78347D01*
X361023Y82677D01*
X365686D01*
Y67512D01*
D02*
G37*
G36*
X499544Y82677D02*
Y67512D01*
X494082D01*
Y63158D01*
X499544D01*
Y47493D01*
X497910Y45858D01*
X494082D01*
Y41504D01*
X493651Y41339D01*
X485102D01*
Y82677D01*
X499544Y82677D01*
D02*
G37*
G36*
X551181Y41339D02*
X533464D01*
Y82677D01*
X551181D01*
Y41339D01*
D02*
G37*
G36*
X484252D02*
X466535D01*
Y82677D01*
X484252D01*
Y41339D01*
D02*
G37*
G36*
X432615Y67512D02*
X427153D01*
Y63158D01*
X432615D01*
Y47493D01*
X430981Y45858D01*
X427153D01*
Y41504D01*
X426722Y41339D01*
X418122D01*
Y61232D01*
X418110D01*
Y62784D01*
X418122D01*
Y78347D01*
X424016D01*
X428346Y82677D01*
X432615D01*
Y67512D01*
D02*
G37*
G36*
X417323Y78425D02*
X417307Y78347D01*
Y62844D01*
X417295Y62784D01*
Y61232D01*
X417307Y61173D01*
Y41339D01*
X399606D01*
Y82677D01*
X417323D01*
Y78425D01*
D02*
G37*
G36*
X350394Y78485D02*
X350366Y78347D01*
Y41339D01*
X350394Y41200D01*
Y37402D01*
X328740D01*
Y42704D01*
X330419Y44383D01*
X330814Y44973D01*
X330952Y45669D01*
Y65354D01*
Y82677D01*
X350394D01*
Y78485D01*
D02*
G37*
G36*
X529071Y67512D02*
X523610D01*
Y63158D01*
X529071D01*
Y47493D01*
X527437Y45858D01*
X523610D01*
Y41504D01*
X529736D01*
Y42446D01*
X531034Y43744D01*
X531496Y43553D01*
Y37402D01*
X522696Y28602D01*
X521408Y27913D01*
X520267Y26977D01*
X519331Y25836D01*
X518642Y24548D01*
X498031Y3937D01*
X469319D01*
Y39370D01*
X469480Y39566D01*
X494094D01*
X496247Y41504D01*
X500209D01*
Y42446D01*
X502991Y45228D01*
X502991Y45228D01*
X503428Y45883D01*
X503582Y46656D01*
X503582Y46656D01*
Y65335D01*
Y82677D01*
X529071D01*
Y67512D01*
D02*
G37*
G36*
X462142D02*
X456681D01*
Y63158D01*
X462142D01*
Y47493D01*
X460508Y45858D01*
X456681D01*
Y41504D01*
X462807D01*
Y42446D01*
X464117Y43757D01*
X465343Y42531D01*
Y42114D01*
X465721D01*
Y41339D01*
X465782Y41027D01*
X465959Y40762D01*
X466223Y40586D01*
X466535Y40524D01*
X467350D01*
X468504Y39370D01*
Y3937D01*
X431102D01*
Y39370D01*
Y41504D01*
X433280D01*
Y42446D01*
X436062Y45228D01*
X436062Y45228D01*
X436499Y45883D01*
X436525Y46012D01*
X436653Y46656D01*
X436653Y46656D01*
Y65335D01*
Y82026D01*
X437304Y82677D01*
X462142D01*
Y67512D01*
D02*
G37*
G36*
X395213D02*
X389752D01*
Y63158D01*
X395213D01*
Y47493D01*
X393579Y45858D01*
X389752D01*
Y41504D01*
X395669D01*
Y39370D01*
X430288D01*
Y3937D01*
X395669D01*
X375059Y24548D01*
X374370Y25836D01*
X373434Y26977D01*
X372293Y27913D01*
X371004Y28602D01*
X366142Y33464D01*
X366142Y41504D01*
X366350D01*
Y42446D01*
X369132Y45228D01*
X369132Y45228D01*
X369570Y45883D01*
X369596Y46012D01*
X369724Y46656D01*
X369724Y46656D01*
Y65335D01*
Y82026D01*
X370375Y82677D01*
X395213D01*
Y67512D01*
D02*
G37*
G36*
X326772Y67512D02*
X321642D01*
Y63157D01*
X326772D01*
Y45879D01*
X326751Y45858D01*
X321642D01*
Y41504D01*
X324372D01*
X324803Y41339D01*
Y19685D01*
X309055Y3937D01*
X293307Y19685D01*
Y45997D01*
X293412Y46154D01*
X293550Y46850D01*
Y61417D01*
Y65354D01*
Y82284D01*
X326772D01*
Y67512D01*
D02*
G37*
%LPC*%
G36*
X532480Y153185D02*
X530118D01*
X529653Y153092D01*
X529258Y152829D01*
X529210Y152756D01*
X525984D01*
Y148819D01*
X529210D01*
X529258Y148746D01*
X529653Y148483D01*
X530118Y148390D01*
X532480D01*
X532946Y148483D01*
X533340Y148746D01*
X533604Y149141D01*
X533688Y149565D01*
X534656D01*
X534793Y149360D01*
X535448Y148922D01*
X536221Y148768D01*
X536993Y148922D01*
X537648Y149360D01*
X538086Y150015D01*
X538240Y150787D01*
X538086Y151560D01*
X537648Y152215D01*
X536993Y152653D01*
X536221Y152806D01*
X535448Y152653D01*
X534793Y152215D01*
X534656Y152010D01*
X533688D01*
X533604Y152434D01*
X533340Y152829D01*
X532946Y153092D01*
X532480Y153185D01*
D02*
G37*
%LPD*%
D11*
X434634Y82862D02*
X438976Y87205D01*
X434634Y65335D02*
Y82862D01*
X367705D02*
X372047Y87205D01*
X367705Y65335D02*
Y82862D01*
X363287Y43681D02*
X364730D01*
X367705Y46656D01*
X363287Y65335D02*
X367705D01*
Y46656D02*
Y65335D01*
X526673Y43681D02*
X528116D01*
X531090Y46656D01*
X526673Y65335D02*
X531090D01*
Y87205D02*
X531496D01*
X531090Y46656D02*
Y65335D01*
X497146Y43681D02*
X498588D01*
X501563Y46656D01*
X497146Y65335D02*
X501563D01*
Y87205D02*
X501968D01*
X501563Y46656D02*
Y65335D01*
X459744Y43681D02*
X461186D01*
X464161Y46656D01*
X459744Y65335D02*
X464161D01*
Y87205D02*
X464567D01*
X464161Y46656D02*
Y65335D01*
X430217Y43681D02*
X431659D01*
X434634Y46656D01*
X430217Y65335D02*
X434634D01*
Y46656D02*
Y65335D01*
X397232Y46656D02*
Y65335D01*
Y87205D02*
X397638D01*
X392815Y65335D02*
X397232D01*
X394257Y43681D02*
X397232Y46656D01*
X392815Y43681D02*
X394257D01*
X125579Y82862D02*
X129921Y87205D01*
X125579Y65335D02*
Y82862D01*
X83760Y43681D02*
X85202D01*
X88177Y46656D01*
X83760Y65335D02*
X88177D01*
Y87205D02*
X88582D01*
X88177Y46656D02*
Y65335D01*
X125579Y46656D02*
Y65335D01*
X121161D02*
X125579D01*
X122604Y43681D02*
X125579Y46656D01*
X121161Y43681D02*
X122604D01*
X155106Y46656D02*
Y65335D01*
Y87205D02*
X155512D01*
X150689Y65335D02*
X155106D01*
X152131Y43681D02*
X155106Y46656D01*
X150689Y43681D02*
X152131D01*
X192508Y46656D02*
Y65335D01*
Y87205D02*
X192913D01*
X188090Y65335D02*
X192508D01*
X189533Y43681D02*
X192508Y46656D01*
X188090Y43681D02*
X189533D01*
X222035Y46656D02*
Y65335D01*
Y87205D02*
X222441D01*
X217618Y65335D02*
X222035D01*
X219060Y43681D02*
X222035Y46656D01*
X217618Y43681D02*
X219060D01*
X58649Y46656D02*
Y65335D01*
X54232D02*
X58649D01*
X55674Y43681D02*
X58649Y46656D01*
X54232Y43681D02*
X55674D01*
X192508Y65335D02*
Y87205D01*
Y65335D02*
Y87205D01*
Y65335D02*
Y87205D01*
Y65335D02*
Y87205D01*
X88177Y65335D02*
Y87205D01*
Y65335D02*
Y87205D01*
Y65335D02*
Y87205D01*
X155106Y65335D02*
Y87205D01*
Y65335D02*
Y87205D01*
Y65335D02*
Y87205D01*
Y65335D02*
Y87205D01*
X222035Y65335D02*
Y87205D01*
Y65335D02*
Y87205D01*
Y65335D02*
Y87205D01*
Y65335D02*
Y87205D01*
X501563Y65335D02*
Y87205D01*
Y65335D02*
Y87205D01*
Y65335D02*
Y87205D01*
Y65335D02*
Y87205D01*
X397232Y65335D02*
Y87205D01*
Y65335D02*
Y87205D01*
Y65335D02*
Y87205D01*
Y65335D02*
Y87205D01*
X464161Y65335D02*
Y87205D01*
Y65335D02*
Y87205D01*
Y65335D02*
Y87205D01*
Y65335D02*
Y87205D01*
X531090Y65335D02*
Y87205D01*
Y65335D02*
Y87205D01*
Y65335D02*
Y87205D01*
Y65335D02*
Y87205D01*
X88177Y65335D02*
Y87205D01*
X58649Y65335D02*
Y82862D01*
X62992Y87205D01*
D12*
X119488Y121063D02*
Y130118D01*
X121457Y120275D02*
Y126772D01*
X108661Y135827D02*
X113496Y130992D01*
X112992Y134299D02*
Y135039D01*
X116929Y133205D02*
Y133858D01*
X110280Y150393D02*
X112992D01*
X113669Y153748D02*
X116142Y151275D01*
Y147244D02*
Y151275D01*
X113669Y153748D02*
Y156693D01*
X107677Y152996D02*
X110280Y150393D01*
X107677Y152996D02*
Y156693D01*
X116929Y133205D02*
X116929Y133205D01*
X117059Y133335D01*
X120371D01*
X113496Y126772D02*
Y130992D01*
X116472Y130819D02*
X118787D01*
X112992Y134299D02*
X116472Y130819D01*
X143110Y137401D02*
Y141732D01*
X149102Y152079D02*
X153543Y147638D01*
X147965Y152079D02*
X149102D01*
X363287Y84153D02*
X367717Y88583D01*
X363287Y80335D02*
Y84153D01*
X367717Y88583D02*
Y94874D01*
X363583Y93898D02*
X370756Y101071D01*
X356299Y93898D02*
X363583D01*
X367717Y94874D02*
X372130Y99287D01*
X489764Y85346D02*
X492134D01*
X472748Y102362D02*
X489764Y85346D01*
X492134D02*
X497146Y80335D01*
X488575Y99266D02*
X526127D01*
X467212Y120629D02*
X488575Y99266D01*
X467212Y120629D02*
Y121960D01*
X465551Y123620D02*
X467212Y121960D01*
X465551Y123620D02*
Y126772D01*
X464700Y119157D02*
X465747Y118110D01*
X466439D01*
X462916Y117444D02*
Y121211D01*
Y117444D02*
X464786Y115575D01*
X466452D01*
X474531Y107495D01*
X461133Y116705D02*
Y120472D01*
Y116705D02*
X464047Y113791D01*
X465713D01*
X472748Y106757D01*
X459646Y121959D02*
X461133Y120472D01*
X459646Y121959D02*
Y126772D01*
X457677Y119881D02*
Y126772D01*
Y119881D02*
X458267Y119291D01*
X463583Y123066D02*
X464700Y121949D01*
X463583Y123066D02*
Y126772D01*
X464700Y119157D02*
Y121949D01*
X461614Y122513D02*
Y126772D01*
Y122513D02*
X462916Y121211D01*
X455709Y102756D02*
Y126772D01*
Y102756D02*
X464567Y93898D01*
X453149Y86930D02*
Y120866D01*
Y86930D02*
X459744Y80335D01*
X453740Y121457D02*
Y126772D01*
X453149Y120866D02*
X453740Y121457D01*
X450676Y105598D02*
Y121936D01*
X450874Y122134D01*
X438976Y93898D02*
X450676Y105598D01*
X448732Y109596D02*
Y122843D01*
X472748Y102362D02*
Y106757D01*
X448732Y122843D02*
X449803Y123913D01*
X466439Y118110D02*
X476315Y108234D01*
X474531Y104973D02*
Y107495D01*
Y104973D02*
X485607Y93898D01*
X501968D01*
X476315Y107937D02*
Y108234D01*
Y107937D02*
X487291Y96961D01*
X446063Y109449D02*
Y117323D01*
X473425Y122638D02*
X474803Y121260D01*
X477953Y116929D02*
Y126181D01*
Y116929D02*
X478740Y117717D01*
Y126181D01*
X487291Y96961D02*
X504213D01*
X402276Y112906D02*
X437357D01*
X401600Y114752D02*
X436682D01*
X394685Y116535D02*
X435943D01*
X435204Y118319D02*
X439960Y123075D01*
X393274Y118319D02*
X435204D01*
X439960Y123075D02*
Y126772D01*
X101969Y157874D02*
X103149D01*
X115354Y168110D02*
X115551Y167914D01*
X195686Y99266D02*
X207649Y87303D01*
X195157Y96961D02*
X211783Y80335D01*
X280352Y110039D02*
X290449D01*
X271100Y100787D02*
X280352Y110039D01*
X275984Y92126D02*
X284055D01*
X270472Y97638D02*
X275984Y92126D01*
X105512Y155512D02*
X105709Y155709D01*
X115551Y156693D02*
Y167914D01*
X144926Y132283D02*
X148031D01*
X143110Y137401D02*
X149606D01*
X147047Y152996D02*
X147965Y152079D01*
X147047Y152996D02*
Y156693D01*
X211783Y80335D02*
X217618D01*
X207649Y87303D02*
X215846D01*
X135236Y153740D02*
Y156693D01*
X114173Y93898D02*
X121457D01*
X450874Y122134D02*
X451771Y123031D01*
Y126772D01*
X449803Y123913D02*
Y126772D01*
X422047Y131496D02*
X425394D01*
X430118Y126772D01*
X479417Y129717D02*
X481496Y131795D01*
X476378Y131265D02*
Y132283D01*
X475393Y130281D02*
X476378Y131265D01*
X475393Y126772D02*
Y130281D01*
X471456Y130119D02*
X472440Y131102D01*
X433071Y135320D02*
Y136221D01*
X437007Y133906D02*
Y135039D01*
X447835Y126772D02*
X447921Y126858D01*
Y127559D01*
X447835Y127472D02*
X447921Y127559D01*
X447835Y127472D02*
Y129630D01*
X113583Y156693D02*
X113669D01*
X143110Y130468D02*
X144926Y132283D01*
X143110Y126772D02*
Y130468D01*
X479331Y156693D02*
Y162106D01*
X120371Y133335D02*
X123425Y130280D01*
Y126772D02*
Y130280D01*
X113496Y126772D02*
X113583D01*
X392519Y80630D02*
Y105672D01*
X437357Y112906D02*
X445866Y121414D01*
X479331Y126772D02*
X479417D01*
X473425Y122638D02*
Y126772D01*
X477362D02*
X477953Y126181D01*
X478740Y126181D02*
X479331Y126772D01*
X504213Y96961D02*
X520838Y80335D01*
X526127Y99266D02*
X531496Y93898D01*
X520838Y80335D02*
X526673D01*
X463583Y126772D02*
X463669Y126685D01*
X423228Y121260D02*
X423547Y120941D01*
X433968Y126772D02*
X434055D01*
X392519Y80630D02*
X392815Y80335D01*
X445866Y121414D02*
Y126772D01*
X436682Y114752D02*
X443897Y121968D01*
Y126772D01*
X435943Y116535D02*
X441929Y122521D01*
Y126772D01*
X431921Y120941D02*
X433968Y122988D01*
X430118Y155709D02*
Y156693D01*
X459646Y153740D02*
Y156693D01*
X423547Y120941D02*
X431921D01*
X423228Y93898D02*
X430512D01*
X446063Y109449D01*
X94833Y120264D02*
X95829Y121260D01*
X98819D01*
X125307Y126685D02*
X125394Y126772D01*
X105709Y155709D02*
Y156693D01*
X109559Y126772D02*
X109646D01*
X98819Y121260D02*
X99138Y120941D01*
X156890Y126772D02*
Y130118D01*
X149606Y137401D02*
X156890Y130118D01*
X420239Y121260D02*
X423228D01*
X419243Y120264D02*
X420239Y121260D01*
X433968Y122988D02*
Y126772D01*
X479417D02*
Y129717D01*
X479134Y162303D02*
X479331Y162106D01*
X472440Y131102D02*
Y132283D01*
X443373Y130992D02*
X443898Y130468D01*
Y126772D02*
Y130468D01*
X433071Y135320D02*
X437992Y130399D01*
Y126772D02*
Y130399D01*
X437007Y133906D02*
X439921Y130992D01*
X443373D01*
X440945Y133465D02*
X441075Y133335D01*
X444130D01*
X447835Y129630D01*
X456035Y150130D02*
X459646Y153740D01*
X432087Y152996D02*
Y156693D01*
Y152996D02*
X433902Y151181D01*
X269272Y100787D02*
X271100D01*
X269272Y97638D02*
X270472D01*
X277903Y107590D02*
X280352Y110039D01*
X281102D01*
X290449Y109937D02*
X298228Y102157D01*
Y72834D02*
Y102157D01*
X477165Y116142D02*
X477362Y116339D01*
X471456Y124607D02*
Y130119D01*
Y124607D02*
X473425Y122638D01*
X397638Y93898D02*
Y108268D01*
X402276Y112906D01*
X392519Y105672D02*
X401600Y114752D01*
X439764Y163779D02*
X439960Y163583D01*
Y156693D02*
Y163583D01*
X392520Y120264D02*
X419243D01*
X392520Y120087D02*
Y120264D01*
X135236Y153740D02*
X138847Y150130D01*
X147508D01*
X148031Y149606D01*
X133268Y156693D02*
Y164370D01*
X135039Y166142D01*
X103149Y157874D02*
X105512Y155512D01*
X435039Y144882D02*
X438410D01*
X443658Y150130D01*
X456035D01*
X437992Y153578D02*
Y156693D01*
Y153578D02*
X440389Y151181D01*
X440945D01*
X433902Y151181D02*
X435433D01*
X425984Y151575D02*
X430118Y155709D01*
X372047Y93898D02*
X394685Y116535D01*
X372130Y99287D02*
X374243D01*
X393274Y118319D01*
X370756Y101071D02*
X373504D01*
X392520Y120087D01*
X47244Y93898D02*
X55315D01*
X125307Y123827D02*
Y126685D01*
X131299Y122197D02*
Y126772D01*
X127362Y123031D02*
Y126772D01*
X126464Y122134D02*
X127362Y123031D01*
X99138Y120941D02*
X107161D01*
X109559Y123338D01*
Y126772D01*
X115551Y122404D02*
Y126772D01*
X117520Y121850D02*
Y126772D01*
X83464Y80630D02*
X83760Y80335D01*
X118787Y130819D02*
X119488Y130118D01*
X129331Y121063D02*
Y126772D01*
X129134Y120866D02*
X129331Y121063D01*
X142331Y122724D02*
X143558D01*
X150689Y80335D02*
Y90510D01*
X131803Y111657D02*
Y119612D01*
X131299Y122197D02*
X131606Y121890D01*
X131590Y119825D02*
X131803Y119612D01*
X131589Y119825D02*
X131590D01*
X131589D02*
X131606Y119842D01*
Y121890D01*
X133268Y122751D02*
Y126772D01*
Y122751D02*
X133390Y122629D01*
Y120547D02*
Y122629D01*
Y120547D02*
X134646Y119291D01*
X141142Y123913D02*
Y126772D01*
Y123913D02*
X142331Y122724D01*
X139173Y123360D02*
X142281Y120252D01*
X139173Y123360D02*
Y126772D01*
D14*
X229839Y160866D02*
Y168292D01*
X227795Y170336D02*
X229839Y168292D01*
X99524Y136457D02*
Y154882D01*
X97533Y134465D02*
X99524Y136457D01*
X99491Y154915D02*
X99524Y154882D01*
X99491Y154915D02*
Y159708D01*
X95095Y134465D02*
X97533D01*
X99491Y159708D02*
X113169Y173386D01*
X226696Y142913D02*
X228189Y144406D01*
X226696Y142913D02*
X226772D01*
X211417D02*
X226696D01*
X228189Y144406D02*
X236377D01*
X224939Y145805D02*
X237935D01*
X200846Y152304D02*
X240130D01*
X202990Y153703D02*
X240710D01*
X205134Y155102D02*
X239039D01*
X229662Y156732D02*
X232677Y159747D01*
X207048Y156732D02*
X229662D01*
X229083Y158131D02*
X231238Y160287D01*
X209192Y158131D02*
X229083D01*
X228503Y159530D02*
X229839Y160866D01*
X223616Y159530D02*
X228503D01*
X219842Y163304D02*
X223616Y159530D01*
X224410Y145276D02*
X224939Y145805D01*
X200787Y159449D02*
X205134Y155102D01*
X239039D02*
X250472Y166535D01*
X207874Y159449D02*
X209192Y158131D01*
X197244Y159449D02*
X202990Y153703D01*
X240710D02*
X242363Y152050D01*
X193701Y159449D02*
X200846Y152304D01*
X240130D02*
X241783Y150651D01*
X237935Y145805D02*
X239237Y144504D01*
X212362Y140633D02*
X230790D01*
X212941Y139234D02*
X231370D01*
X213521Y137835D02*
X236653D01*
X211553Y135866D02*
X213521Y137835D01*
X197129Y135866D02*
X211553D01*
X236653Y137835D02*
X239370Y140551D01*
X210973Y137265D02*
X212941Y139234D01*
X198954Y137265D02*
X210973D01*
X231370Y139234D02*
X231981Y139845D01*
X233621D01*
X235508Y141732D01*
X235826D01*
X210393Y138665D02*
X212362Y140633D01*
X230790D02*
X232283Y142126D01*
X201099Y138665D02*
X210393D01*
X184334Y148661D02*
X197129Y135866D01*
X186614Y149606D02*
X198954Y137265D01*
X190157Y149606D02*
X201099Y138665D01*
X209449Y140945D02*
X211417Y142913D01*
X236377Y144406D02*
X237678Y143105D01*
X243027D01*
X243694Y142438D01*
X239237Y144504D02*
X249197D01*
X241783Y150651D02*
X244831D01*
X242363Y152050D02*
X244252D01*
X244645Y152444D01*
X263033D01*
X249197Y144504D02*
X250787Y142913D01*
X204331Y159449D02*
X207048Y156732D01*
X232677Y159747D02*
Y173146D01*
X228374Y171735D02*
X231238Y168871D01*
Y160287D02*
Y168871D01*
X218192Y161729D02*
X218898Y161024D01*
X217953Y163304D02*
X219842D01*
X217777Y163128D02*
X217953Y163304D01*
X192177Y163128D02*
X217777D01*
X221303Y163822D02*
X225547D01*
X220422Y164703D02*
X221303Y163822D01*
X217373Y164703D02*
X220422D01*
X217198Y164527D02*
X217373Y164703D01*
X191597Y164527D02*
X217198D01*
X221668Y165436D02*
X224491D01*
X221001Y166102D02*
X221668Y165436D01*
X216794Y166102D02*
X221001D01*
X216618Y165927D02*
X216794Y166102D01*
X191018Y165927D02*
X216618D01*
X222620Y167502D02*
X222834Y167716D01*
X221517Y172885D02*
X224067Y170336D01*
X227795D01*
X222917Y173465D02*
X224646Y171735D01*
X228374D01*
X216214Y167502D02*
X222620D01*
X216039Y167326D02*
X216214Y167502D01*
X190438Y167326D02*
X216039D01*
X225547Y163822D02*
X227559Y161811D01*
X235039Y162205D02*
Y170472D01*
Y162205D02*
X236614Y160630D01*
X215576Y174328D02*
X216409Y173495D01*
X213468Y171965D02*
X214173Y171260D01*
X195744Y169685D02*
X211023D01*
X192756Y161729D02*
X218192D01*
X199056Y176066D02*
X218309D01*
X224491Y165436D02*
X226772Y167717D01*
X225197Y174409D02*
X227083Y176296D01*
X222917Y175354D02*
X225257Y177695D01*
X222917Y173465D02*
Y175354D01*
X221517Y175934D02*
X224678Y179094D01*
X221517Y172885D02*
Y175934D01*
X237795Y130709D02*
X237922D01*
X240202Y132989D01*
X238478Y133243D02*
X239622Y134388D01*
X236913Y133243D02*
X238478D01*
X237898Y134643D02*
X239043Y135787D01*
X236334Y134643D02*
X237898D01*
X237318Y136042D02*
X238463Y137186D01*
X235754Y136042D02*
X237318D01*
X233259Y133546D02*
X235754Y136042D01*
X238463Y137186D02*
X252492D01*
X197470Y133546D02*
X233259D01*
X181889Y149127D02*
X197470Y133546D01*
X233838Y132147D02*
X236334Y134643D01*
X239043Y135787D02*
X251912D01*
X195806Y132147D02*
X233838D01*
X178347Y149606D02*
X195806Y132147D01*
X234418Y130748D02*
X236913Y133243D01*
X239622Y134388D02*
X251333D01*
X193980Y130748D02*
X234418D01*
X174803Y149925D02*
X193980Y130748D01*
X240202Y132989D02*
X250157D01*
X263033Y152444D02*
X266836Y156247D01*
X244831Y150651D02*
X244885Y150706D01*
X262626D01*
X236614Y160236D02*
Y160630D01*
X238583Y170472D02*
X244882D01*
X245276Y140157D02*
X246550Y138883D01*
X243694Y142438D02*
X246220D01*
X232677Y173146D02*
X247523D01*
X244364Y174758D02*
X254663Y185056D01*
X232192Y174758D02*
X244364D01*
X243785Y176157D02*
X254083Y186455D01*
X232772Y176157D02*
X243785D01*
X243205Y177556D02*
X253504Y187854D01*
X233351Y177556D02*
X243205D01*
X242626Y178955D02*
X252924Y189253D01*
X233931Y178955D02*
X242626D01*
X242046Y180354D02*
X252344Y190653D01*
X234510Y180354D02*
X242046D01*
X232718Y182147D02*
X234510Y180354D01*
X228740Y174015D02*
X229609Y173146D01*
X227083Y176296D02*
X230654D01*
X225257Y177695D02*
X231234D01*
X224678Y179094D02*
X231813D01*
X223966Y180748D02*
X232138D01*
X220637Y184076D02*
X223966Y180748D01*
X224546Y182147D02*
X232718D01*
X221217Y185476D02*
X224546Y182147D01*
X231102Y185039D02*
X233783D01*
X218309Y176066D02*
X218644Y175731D01*
X231234Y177695D02*
X232772Y176157D01*
X231813Y179094D02*
X233351Y177556D01*
X232138Y180748D02*
X233931Y178955D01*
X244882Y170472D02*
X248819Y166535D01*
X230654Y176296D02*
X232192Y174758D01*
X247523Y173146D02*
X250000Y170669D01*
X246220Y142438D02*
X248376Y140282D01*
X246550Y138883D02*
X252774D01*
X248376Y140282D02*
X253354D01*
X253651Y139985D01*
X254897D01*
X255118Y139764D01*
X252774Y138883D02*
X254174Y137484D01*
X252492Y137186D02*
X253594Y136084D01*
X251912Y135787D02*
X253759Y133940D01*
X251333Y134388D02*
X253180Y132541D01*
X250157Y132989D02*
X252004Y131142D01*
X250787Y142913D02*
X251645Y143771D01*
X272204Y133940D02*
X273934Y135670D01*
X253759Y133940D02*
X272204D01*
X273454Y132541D02*
X277122Y136209D01*
X253180Y132541D02*
X273454D01*
X275138Y131142D02*
X280365Y136369D01*
X252004Y131142D02*
X275138D01*
X90551Y129921D02*
X95095Y134465D01*
X90551Y129921D02*
X90626D01*
X265102Y143771D02*
X269624Y148293D01*
X251645Y143771D02*
X265102D01*
X266486Y142372D02*
X270916Y146801D01*
X257726Y142372D02*
X266486D01*
X255118Y139764D02*
X257726Y142372D01*
X262722Y150609D02*
X263982D01*
X262626Y150706D02*
X262722Y150609D01*
X263982D02*
X265220Y151847D01*
X190719Y159692D02*
X192756Y161729D01*
X166217Y159692D02*
X190719D01*
X190679Y161631D02*
X192177Y163128D01*
X166177Y161631D02*
X190679D01*
X190117Y163047D02*
X191597Y164527D01*
X164368Y163047D02*
X190117D01*
X189654Y164563D02*
X191018Y165927D01*
X166077Y164563D02*
X189654D01*
X189075Y165963D02*
X190438Y167326D01*
X166790Y165963D02*
X189075D01*
X194957Y168898D02*
X195744Y169685D01*
X189725Y168898D02*
X194957D01*
X188189Y167362D02*
X189725Y168898D01*
X167369Y167362D02*
X188189D01*
X187402Y171260D02*
X194095D01*
X195039Y173540D02*
X196614Y171965D01*
X187703Y173540D02*
X195039D01*
X196230Y174328D02*
X215576D01*
X195619Y174939D02*
X196230Y174328D01*
X181951Y174939D02*
X195619D01*
X184903Y168761D02*
X187402Y171260D01*
X167949Y168761D02*
X184903D01*
X184323Y170160D02*
X187703Y173540D01*
X168528Y170160D02*
X184323D01*
X177402Y177871D02*
X197251D01*
X175271Y179921D02*
X200000D01*
X152900Y182202D02*
X200944D01*
X152320Y183601D02*
X201524D01*
X151741Y185000D02*
X202104D01*
X151161Y186399D02*
X202683D01*
X165892Y159367D02*
X166217Y159692D01*
X165286Y165354D02*
X166077Y164563D01*
X165118Y167635D02*
X166790Y165963D01*
X160739Y159367D02*
X165892D01*
X165313Y160767D02*
X166177Y161631D01*
X161318Y160767D02*
X165313D01*
X159558Y160548D02*
X160739Y159367D01*
X160138Y161947D02*
X161318Y160767D01*
X196614Y171965D02*
X213468D01*
X180279Y173267D02*
X181951Y174939D01*
X162205Y165354D02*
X165286D01*
X165128Y169603D02*
X167369Y167362D01*
X166287Y172402D02*
X168528Y170160D01*
X203225Y179921D02*
X206299D01*
X200944Y182202D02*
X203225Y179921D01*
X174396Y180797D02*
X175271Y179921D01*
X151937Y181239D02*
X152900Y182202D01*
X151357Y182638D02*
X152320Y183601D01*
X150817Y184076D02*
X151741Y185000D01*
X150238Y185476D02*
X151161Y186399D01*
X202487Y182638D02*
X215787D01*
X203607Y185476D02*
X221217D01*
X202683Y186399D02*
X203607Y185476D01*
X203027Y184076D02*
X220637D01*
X202104Y185000D02*
X203027Y184076D01*
X201524Y183601D02*
X202487Y182638D01*
X153474Y180797D02*
X174396D01*
X197251Y177871D02*
X199056Y176066D01*
X182440Y152280D02*
X184334Y150387D01*
X172359Y152280D02*
X182440D01*
X171653Y151575D02*
X172359Y152280D01*
X174803Y149925D02*
Y150000D01*
X161187Y163047D02*
X164368D01*
X160887Y163346D02*
X161187Y163047D01*
X165708Y171002D02*
X167949Y168761D01*
X168799Y171868D02*
X182104D01*
X166867Y173801D02*
X168799Y171868D01*
X169379Y173267D02*
X180279D01*
X167446Y175200D02*
X169379Y173267D01*
X169958Y174667D02*
X177422D01*
X168026Y176599D02*
X169958Y174667D01*
X170538Y176066D02*
X175597D01*
X168605Y177998D02*
X170538Y176066D01*
X161596Y164746D02*
X162205Y165354D01*
X159367Y167635D02*
X165118D01*
X159055Y167323D02*
X159367Y167635D01*
X146118Y164746D02*
X161596D01*
X154633Y177998D02*
X168605D01*
X155213Y176599D02*
X168026D01*
X155792Y175200D02*
X167446D01*
X156372Y173801D02*
X166867D01*
X156951Y172402D02*
X166287D01*
X157531Y171002D02*
X165708D01*
X158111Y169603D02*
X165128D01*
X146697Y163346D02*
X160887D01*
X154054Y179398D02*
X172570D01*
X157877Y166145D02*
X159055Y167323D01*
X156142Y167634D02*
X158111Y169603D01*
X155562Y169034D02*
X157531Y171002D01*
X130491Y169034D02*
X155562D01*
X154983Y170433D02*
X156951Y172402D01*
X129911Y170433D02*
X154983D01*
X154403Y171832D02*
X156372Y173801D01*
X129332Y171832D02*
X154403D01*
X153823Y173231D02*
X155792Y175200D01*
X128752Y173231D02*
X153823D01*
X153244Y174630D02*
X155213Y176599D01*
X128173Y174630D02*
X153244D01*
X152664Y176030D02*
X154633Y177998D01*
X127593Y176030D02*
X152664D01*
X153002Y178346D02*
X154054Y179398D01*
X127931Y178346D02*
X153002D01*
X152517Y179839D02*
X153474Y180797D01*
X126786Y179839D02*
X152517D01*
X126206Y181239D02*
X151937D01*
X125627Y182638D02*
X151357D01*
X123830Y184076D02*
X150817D01*
X119728Y185476D02*
X150238D01*
X145049Y167634D02*
X156142D01*
X172570Y179398D02*
X173622Y178346D01*
X145538Y166145D02*
X157877D01*
X147277Y161947D02*
X160138D01*
X149815Y160548D02*
X159558D01*
X175597Y176066D02*
X177402Y177871D01*
X177422Y174667D02*
X178347Y175591D01*
X182104Y171868D02*
X182677Y172441D01*
X120054Y168491D02*
X127593Y176030D01*
X121453Y167911D02*
X128173Y174630D01*
X123425Y167904D02*
X128752Y173231D01*
X125039Y167539D02*
X129332Y171832D01*
X126438Y166960D02*
X129911Y170433D01*
X127838Y166380D02*
X130491Y169034D01*
X137205Y159790D02*
X145049Y167634D01*
X139173Y159780D02*
X145538Y166145D01*
X141142Y159769D02*
X146118Y164746D01*
X143110Y159759D02*
X146697Y163346D01*
X145079Y159749D02*
X147277Y161947D01*
X181889Y149127D02*
Y149606D01*
X184334Y148661D02*
Y150387D01*
X109646Y167884D02*
X113749Y171987D01*
X109646Y156693D02*
Y167884D01*
X111614Y167873D02*
X114328Y170587D01*
X111614Y156693D02*
Y167873D01*
X105512Y171260D02*
X119728Y185476D01*
X114328Y170587D02*
X117534D01*
X113749Y171987D02*
X116954D01*
X264948Y162992D02*
X265448Y162491D01*
X257087Y162992D02*
X264948D01*
X252362Y162205D02*
X256427Y166269D01*
X264060D01*
X247638Y160705D02*
X254601Y167668D01*
X266234D01*
X247638Y159843D02*
Y160705D01*
X267838Y165275D02*
Y166064D01*
X266234Y167668D02*
X267838Y166064D01*
Y165275D02*
X268232D01*
X264462Y165867D02*
Y166092D01*
X264060Y166269D02*
X264462Y165867D01*
X264856Y166262D02*
X266840Y164278D01*
X264632Y166262D02*
X264856D01*
X264462Y166092D02*
X264632Y166262D01*
X266840Y163883D02*
Y164278D01*
X118655Y169070D02*
X127931Y178346D01*
X259137Y137484D02*
X260630Y138976D01*
X263790D02*
X264971Y140157D01*
X260630Y138976D02*
X263790D01*
X253594Y136084D02*
X262877D01*
X265293Y138501D01*
X254174Y137484D02*
X259137D01*
X211260Y191732D02*
X215984Y187008D01*
X225197D01*
X226772Y185433D01*
X215787Y182638D02*
X218898Y179528D01*
X116929Y177175D02*
X123830Y184076D01*
X116929Y177165D02*
Y177175D01*
X233783Y185039D02*
X235670Y183153D01*
X248819Y166535D02*
X250472D01*
X255118Y171182D01*
Y171747D01*
X235670Y183153D02*
X240887D01*
X236614Y185433D02*
X241189D01*
X250637Y194882D01*
X240887Y183153D02*
X251185Y193451D01*
X280365Y136369D02*
Y137158D01*
X280760D01*
X265293Y138501D02*
X267378D01*
X264971Y140157D02*
X267056D01*
X273934Y135670D02*
Y136159D01*
X229609Y173146D02*
X232677D01*
X266836Y156247D02*
X283591D01*
X270916Y146407D02*
Y146801D01*
Y146407D02*
X271016Y146507D01*
Y146902D01*
X267056Y140157D02*
X272408Y145510D01*
X267378Y138501D02*
X270609Y141732D01*
X271809D01*
X305512Y181397D02*
Y183071D01*
X301917Y177803D02*
X305512Y181397D01*
X305620Y130709D02*
X310630D01*
X300563Y135766D02*
X305620Y130709D01*
X306487Y141334D02*
X310630Y137191D01*
X450597Y187680D02*
X460630D01*
X464682Y191732D01*
X466142D01*
X389024Y156419D02*
X408853Y176248D01*
X390424Y155840D02*
X409433Y174848D01*
X391823Y155260D02*
X410012Y173449D01*
X393222Y154681D02*
X410592Y172050D01*
X394621Y154101D02*
X411171Y170651D01*
X396021Y153521D02*
X411751Y169252D01*
X397420Y152942D02*
X412330Y167852D01*
X398819Y152362D02*
X412910Y166453D01*
X440315D01*
X442044Y164724D01*
X412330Y167852D02*
X440895D01*
X443898Y164849D01*
X411751Y169252D02*
X441474D01*
X445866Y164860D01*
X411171Y170651D02*
X442054D01*
X447835Y164870D01*
X410592Y172050D02*
X442633D01*
X449803Y164880D01*
X410012Y173449D02*
X443213D01*
X451493Y165169D01*
X409433Y174848D02*
X443792D01*
X453740Y164901D01*
X408853Y176248D02*
X446067D01*
X455385Y166929D01*
X408192Y146850D02*
X425197D01*
X402756Y152287D02*
X408192Y146850D01*
X402756Y152287D02*
Y152362D01*
X425197Y146850D02*
X427953Y144095D01*
X403543Y137795D02*
X403543Y137795D01*
X403543Y133268D02*
Y137795D01*
X408977Y155741D02*
X410326D01*
X387548Y156921D02*
X408273Y177647D01*
X386968Y158320D02*
X407694Y179046D01*
X386389Y159720D02*
X407114Y180445D01*
X385809Y161119D02*
X406535Y181844D01*
X385229Y162518D02*
X405955Y183244D01*
X384903Y164170D02*
X405375Y184643D01*
X384323Y165569D02*
X404796Y186042D01*
X356158Y165569D02*
X384323D01*
X383744Y166969D02*
X404216Y187441D01*
X357440Y166969D02*
X383744D01*
X382777Y168368D02*
X406142Y191732D01*
X363108Y168368D02*
X382777D01*
X353940Y164170D02*
X384903D01*
X410326Y155741D02*
X412048Y154019D01*
X422006D01*
X412992Y156299D02*
X422307D01*
X427955Y161947D01*
X422006Y154019D02*
X428535Y160548D01*
X375665Y176771D02*
X377871Y178977D01*
X364173Y176771D02*
X375665D01*
X377871Y178977D02*
Y183461D01*
X386142Y191732D01*
X374176Y169767D02*
X396142Y191732D01*
X363995Y169767D02*
X374176D01*
X372910Y172047D02*
X373228D01*
X370630Y174328D02*
X372910Y172047D01*
X351968Y166142D02*
X353940Y164170D01*
X351968Y166142D02*
Y166535D01*
X352848Y168880D02*
X356158Y165569D01*
X353248Y171160D02*
X357440Y166969D01*
X362184Y169291D02*
X363108Y168368D01*
X356990Y176772D02*
X363995Y169767D01*
X251185Y193451D02*
X307650D01*
X254663Y185056D02*
X269198D01*
X254083Y186455D02*
X275286D01*
X252344Y190653D02*
X297611D01*
X252924Y189253D02*
X297032D01*
X253504Y187854D02*
X276670D01*
X116375Y173386D02*
X125627Y182638D01*
X250000Y170669D02*
Y171653D01*
X251493Y173146D01*
X258888D01*
X259156Y171435D02*
X260615Y172895D01*
X256979Y171435D02*
X259156D01*
X256667Y171747D02*
X256979Y171435D01*
X255118Y171747D02*
X256667D01*
X260615Y172895D02*
X262755D01*
X258888Y173146D02*
X260036Y174294D01*
X250637Y194882D02*
X311417D01*
X312992Y193307D01*
X307650Y193451D02*
X310393Y190708D01*
X297611Y190653D02*
X303232Y185033D01*
X297032Y189253D02*
X301832Y184453D01*
X276670Y187854D02*
X283150Y181375D01*
X275286Y186455D02*
X281757Y179983D01*
X269198Y185056D02*
X275590Y178664D01*
X310393Y190708D02*
X316298D01*
X318898Y193307D01*
X309191Y187538D02*
X319034D01*
X307480Y185826D02*
X309191Y187538D01*
X275590Y177404D02*
Y178664D01*
X262755Y172895D02*
X262952Y172698D01*
X269161D01*
X263335Y174294D02*
X263532Y174098D01*
X270546D01*
X260036Y174294D02*
X263335D01*
X269161Y172698D02*
X272408Y169451D01*
X268110Y176378D02*
X269685D01*
X266929Y177559D02*
X268110Y176378D01*
X269685D02*
X271443D01*
X268503Y182283D02*
X272047Y178740D01*
Y177770D02*
Y178740D01*
X270546Y174098D02*
X273800Y170843D01*
X272047Y177770D02*
X276190Y173627D01*
X319034Y187538D02*
X324803Y193307D01*
X312516Y186139D02*
X336614D01*
X310236Y183858D02*
X312516Y186139D01*
X303232Y182126D02*
Y185033D01*
X301832Y183285D02*
Y184453D01*
X299133Y180587D02*
X301832Y183285D01*
X303232Y182126D02*
X303250Y182108D01*
Y181919D02*
Y182108D01*
X300525Y179195D02*
X303250Y181919D01*
X265748Y182283D02*
X268503D01*
X289355Y177559D02*
X289370D01*
X284936Y181978D02*
X289355Y177559D01*
X271443Y176378D02*
X275192Y172629D01*
X351771Y162518D02*
X385229D01*
X336191Y176120D02*
X351192Y161119D01*
X385809D01*
X350612Y159720D02*
X386389D01*
X350033Y158320D02*
X386968D01*
X349453Y156921D02*
X387548D01*
X350968Y170215D02*
X352304Y168880D01*
X350968Y170215D02*
Y171548D01*
X352304Y168880D02*
X352848D01*
X344660Y181717D02*
X351968Y174409D01*
X351893Y176772D02*
X356990D01*
X345549Y183116D02*
X351893Y176772D01*
X322910Y173622D02*
X325408Y176120D01*
X316535Y173622D02*
X322910D01*
X315591Y175902D02*
X320784D01*
X320866Y175984D01*
X322047D01*
X323582Y177519D01*
X318001Y178919D02*
X340373D01*
X317421Y180318D02*
X342198D01*
X316842Y181717D02*
X344660D01*
X316262Y183116D02*
X345549D01*
X314437Y184515D02*
X347768D01*
X313779Y183858D02*
X314437Y184515D01*
X347768D02*
X350394Y181890D01*
X314724Y181578D02*
X316262Y183116D01*
X315304Y180179D02*
X316842Y181717D01*
X315883Y178779D02*
X317421Y180318D01*
X342198D02*
X350968Y171548D01*
X316463Y177380D02*
X318001Y178919D01*
X340373D02*
X348031Y171260D01*
X323582Y177519D02*
X336770D01*
X336614Y186139D02*
X351580D01*
X336614D02*
X336614Y186139D01*
Y193307D01*
X342520D02*
X348031Y187795D01*
X353543D01*
X356299Y185039D01*
X358268D01*
X351580Y186139D02*
X363391Y174328D01*
X348425Y193307D02*
X356299D01*
X361417Y188189D01*
Y181102D02*
Y188189D01*
X353850Y181890D02*
X363693Y172047D01*
X350394Y181890D02*
X353850D01*
X363391Y174328D02*
X370630D01*
X363693Y172047D02*
X369685D01*
X406693Y151575D02*
X406693Y151575D01*
X425984D01*
X330709Y189370D02*
Y193307D01*
X335611Y174721D02*
X350612Y159720D01*
X328189Y174721D02*
X335611D01*
X325408Y176120D02*
X336191D01*
X336770Y177519D02*
X351771Y162518D01*
X325590Y172123D02*
X328189Y174721D01*
X358651Y169291D02*
X362184D01*
X309861Y180179D02*
X315304D01*
X310765Y178779D02*
X315883D01*
X312630Y177380D02*
X316463D01*
X308246Y172996D02*
X312630Y177380D01*
X325590Y172047D02*
Y172123D01*
X322215Y170948D02*
X323314Y172047D01*
X314550Y170948D02*
X322215D01*
X323314Y172047D02*
X325590D01*
X315934Y169549D02*
X326317D01*
X317319Y168150D02*
X326897D01*
X314445Y165275D02*
X317319Y168150D01*
X318758Y166750D02*
X327476D01*
X315891Y163883D02*
X318758Y166750D01*
X327476D02*
X328442Y167717D01*
X326897Y168150D02*
X328825Y170078D01*
X326317Y169549D02*
X329133Y172365D01*
X315837Y163883D02*
X315891D01*
X325082Y163698D02*
X329134Y159646D01*
X320709Y163698D02*
X325082D01*
X319503Y162491D02*
X320709Y163698D01*
X328825Y170078D02*
X331889D01*
X328442Y167717D02*
X335433D01*
X314255Y174567D02*
X315591Y175902D01*
X314255Y173194D02*
Y174567D01*
X310512Y169451D02*
X314255Y173194D01*
X313053Y166667D02*
X315934Y169549D01*
X329133Y172365D02*
Y172441D01*
X335913D01*
X331889Y170078D02*
X336296D01*
X311661Y168059D02*
X314550Y170948D01*
X335913Y172441D02*
X350033Y158320D01*
X336296Y170078D02*
X349453Y156921D01*
X337402Y162205D02*
X346850Y152756D01*
X336614Y162205D02*
X337402D01*
X346850Y152756D02*
X369528D01*
X317229Y162491D02*
X319503D01*
X308871Y181578D02*
X314724D01*
X303703Y176410D02*
X308871Y181578D01*
X304701Y175019D02*
X309861Y180179D01*
X308586Y176601D02*
X310765Y178779D01*
X369528Y152756D02*
X378583Y143701D01*
X408273Y177647D02*
X446646D01*
X455874Y168419D01*
X407694Y179046D02*
X447226D01*
X456454Y169818D01*
X407114Y180445D02*
X447805D01*
X457033Y171217D01*
X406535Y181844D02*
X448385D01*
X457613Y172617D01*
X405955Y183244D02*
X448965D01*
X458192Y174016D01*
X405375Y184643D02*
X447560D01*
X404796Y186042D02*
X446980D01*
X404216Y187441D02*
X441851D01*
X329134Y152953D02*
X339331D01*
X348583Y143701D01*
X433625Y160548D02*
X434055Y160118D01*
Y156693D02*
Y160118D01*
X436024Y156693D02*
Y160128D01*
X265748Y176378D02*
X266929Y177559D01*
X264961Y177165D02*
X265748Y176378D01*
X275192Y172235D02*
Y172629D01*
X276190Y173627D02*
X276584D01*
X275590Y177404D02*
X277976Y175019D01*
X283591Y156247D02*
X294012Y145826D01*
Y142437D02*
Y145826D01*
X293642Y142068D02*
X294012Y142437D01*
X293642Y134297D02*
Y142068D01*
X273934Y136159D02*
X275383Y137608D01*
X275873D02*
X277976Y139712D01*
X275383Y137608D02*
X275873D01*
X277384Y136171D02*
X278974Y137762D01*
X277160Y136171D02*
X277384D01*
X277122Y136209D02*
X277160Y136171D01*
X278974Y137762D02*
Y138550D01*
X279368D01*
X277976Y139712D02*
Y139942D01*
X273406Y143329D02*
Y144118D01*
X271809Y141732D02*
X273406Y143329D01*
Y144118D02*
X273800D01*
X307485Y172235D02*
Y172488D01*
X308246Y173249D01*
Y172996D02*
Y173249D01*
X307485Y172235D02*
X308246Y172996D01*
X299133Y133980D02*
Y134374D01*
X308877Y144118D02*
X309272D01*
X307485Y142331D02*
Y142726D01*
X300525Y135766D02*
X300563D01*
X451493Y156693D02*
X451772D01*
X441929D02*
X442044Y156808D01*
X451493Y156693D02*
Y165169D01*
X449803Y156693D02*
Y164880D01*
X447835Y156693D02*
Y164870D01*
X445866Y156693D02*
Y164860D01*
X443898Y156693D02*
Y164849D01*
X307485Y142331D02*
X308176Y141641D01*
X308964D01*
X306093Y141334D02*
X306487D01*
X117520Y156693D02*
Y159769D01*
X296350Y131590D02*
X296363D01*
X460433Y168307D02*
X463583Y165158D01*
X139173Y156693D02*
Y159780D01*
X461564Y169438D02*
X465551Y165451D01*
X141142Y156693D02*
Y159769D01*
X462695Y170569D02*
X467477Y165787D01*
X306093Y173627D02*
X308586Y176119D01*
X303309Y176410D02*
X303703D01*
X308586Y176119D02*
Y176601D01*
X137205Y156693D02*
Y159790D01*
X143110Y156693D02*
Y159759D01*
X281757Y179195D02*
X282152D01*
X281757D02*
Y179983D01*
X293642Y134297D02*
X296350Y131590D01*
X145079Y156693D02*
Y159749D01*
X283150Y180587D02*
X283544D01*
X149016Y156693D02*
Y159749D01*
X473425Y156693D02*
Y160610D01*
X473934Y161119D01*
X310269Y169451D02*
X310512D01*
X283150Y180587D02*
Y181375D01*
X119488Y156693D02*
Y159759D01*
X120054Y160325D01*
X117520Y159769D02*
X118655Y160905D01*
X121453Y156696D02*
X121457Y156693D01*
X149016Y159749D02*
X149815Y160548D01*
X308964Y141641D02*
X314961Y135644D01*
X310269Y145267D02*
Y145510D01*
X127362Y156693D02*
Y162824D01*
X126438Y163748D02*
X127362Y162824D01*
X125394Y156693D02*
Y162814D01*
X125039Y163169D02*
X125394Y162814D01*
X129331Y156693D02*
Y162835D01*
X127838Y164328D02*
X129331Y162835D01*
X127838Y164328D02*
Y166380D01*
X126438Y163748D02*
Y166960D01*
X125039Y163169D02*
Y167539D01*
X123425Y156693D02*
Y167904D01*
X121453Y156696D02*
Y167911D01*
X120054Y160325D02*
Y168491D01*
X118655Y160905D02*
Y169070D01*
X116954Y171987D02*
X126206Y181239D01*
X117534Y170587D02*
X126786Y179839D01*
X113169Y173386D02*
X116375D01*
X428535Y160548D02*
X433625D01*
X427955Y161947D02*
X434204D01*
X436024Y160128D01*
X453740Y156693D02*
Y164901D01*
X469076Y162879D02*
Y166308D01*
X473934Y161119D02*
Y163543D01*
X441851Y187441D02*
X446142Y191732D01*
X442044Y156808D02*
Y164724D01*
X452670Y191732D02*
X456142D01*
X446980Y186042D02*
X452670Y191732D01*
X447560Y184643D02*
X450597Y187680D01*
X455385Y166929D02*
X459550D01*
X461632Y164847D01*
X458192Y174016D02*
X463461D01*
X473934Y163543D01*
X457613Y172617D02*
X462768D01*
X469076Y166308D01*
X457033Y171217D02*
X462047D01*
X462695Y170569D01*
X456454Y169818D02*
X461185D01*
X461564Y169438D01*
X455874Y168419D02*
X460322D01*
X460433Y168307D01*
X265220Y152241D02*
X265448Y152469D01*
X265220Y151847D02*
Y152241D01*
X299133Y133980D02*
X304947Y128166D01*
X297742Y132982D02*
X305118Y125606D01*
X305118Y120472D02*
Y121947D01*
X296363Y131590D02*
X302149Y125804D01*
Y124917D02*
Y125804D01*
Y124917D02*
X305118Y121947D01*
X305118Y125590D02*
Y125606D01*
X318744Y134645D02*
X320078D01*
X310630Y135751D02*
Y137191D01*
X310269Y145267D02*
X318611Y136926D01*
X321023D01*
X309272Y144118D02*
X318744Y134645D01*
X314961Y134646D02*
Y135644D01*
X310630Y135751D02*
X314180Y132201D01*
X321599D01*
X319291Y129133D02*
Y129921D01*
X318192Y128035D02*
X319291Y129133D01*
X314960Y128261D02*
Y129527D01*
Y128261D02*
X316495Y126725D01*
X313779Y124019D02*
Y124803D01*
Y124019D02*
X315096Y122701D01*
X304947Y128166D02*
X306948D01*
X308268Y118377D02*
Y123228D01*
X389024Y148412D02*
Y156419D01*
X398819Y143382D02*
Y152362D01*
X397420Y144157D02*
Y152942D01*
X396021Y144737D02*
Y153521D01*
X394621Y145316D02*
Y154101D01*
X393222Y145947D02*
Y154681D01*
X391823Y146527D02*
Y155260D01*
X390424Y147106D02*
Y155840D01*
X348053Y110015D02*
X366308Y128270D01*
X383707D01*
X398819Y143382D01*
X347473Y111414D02*
X365729Y129670D01*
X382932D01*
X397420Y144157D01*
X346894Y112813D02*
X365149Y131069D01*
X382353D01*
X396021Y144737D01*
X346314Y114213D02*
X364570Y132468D01*
X381773D01*
X394621Y145316D01*
X345735Y115612D02*
X363990Y133867D01*
X381142D01*
X393222Y145947D01*
X345155Y117011D02*
X363410Y135266D01*
X380563D01*
X391823Y146527D01*
X345457Y119291D02*
X362831Y136666D01*
X379983D01*
X390424Y147106D01*
X362251Y138065D02*
X378677D01*
X389024Y148412D01*
X351427Y127241D02*
X362251Y138065D01*
X321599Y132201D02*
X326559Y127241D01*
X351427D01*
X321023Y136926D02*
X324878Y133071D01*
X325196D01*
X316630Y110015D02*
X348053D01*
X317210Y111414D02*
X347473D01*
X317789Y112813D02*
X346894D01*
X318369Y114213D02*
X346314D01*
X318948Y115612D02*
X345735D01*
X319528Y117011D02*
X345155D01*
X308268Y118377D02*
X316630Y110015D01*
X311417Y117207D02*
X317210Y111414D01*
X311417Y117207D02*
Y120472D01*
X306948Y128166D02*
X313697Y121417D01*
Y116906D02*
Y121417D01*
Y116906D02*
X317789Y112813D01*
X315096Y117485D02*
X318369Y114213D01*
X315096Y117485D02*
Y122701D01*
X316495Y118065D02*
Y126725D01*
Y118065D02*
X318948Y115612D01*
X318192Y118347D02*
X319528Y117011D01*
X318192Y118347D02*
Y128035D01*
X320472Y119291D02*
X345457D01*
X46850Y86811D02*
X47244Y87205D01*
X46850Y79921D02*
Y86811D01*
X113779Y79921D02*
Y86811D01*
X114173Y87205D01*
X355906Y79921D02*
Y86811D01*
X356299Y87205D01*
X422835Y79921D02*
Y86811D01*
X423228Y87205D01*
D16*
X168504Y154330D02*
X168712Y154539D01*
X158869Y121260D02*
X168504Y130894D01*
Y154330D01*
X464567Y111023D02*
X470472Y105118D01*
Y72835D02*
Y105118D01*
X149606Y121260D02*
X158869D01*
X402362Y142520D02*
Y144882D01*
X398425Y138583D02*
X402362Y142520D01*
X409449Y159055D02*
X409657Y159264D01*
X421468D01*
X422835Y160630D01*
X375590Y179921D02*
Y191181D01*
X376142Y191732D01*
X258582Y175787D02*
X259173Y176378D01*
X250000Y175787D02*
X258582D01*
X259173Y176378D02*
X259449D01*
X260236Y177165D01*
X319264Y155539D02*
X331102Y143701D01*
X314536Y155539D02*
X319264D01*
X259842Y177165D02*
X260236D01*
X255512Y181496D02*
X259842Y177165D01*
X260236D02*
Y182283D01*
X331102Y143701D02*
X338583D01*
X329134Y65354D02*
Y83071D01*
X324705Y65334D02*
X324725Y65354D01*
X329134D01*
X326772Y43307D02*
X329134Y45669D01*
X291732Y65354D02*
Y83071D01*
X290748Y92126D02*
X291712Y91161D01*
Y83051D02*
Y91161D01*
X291732Y61417D02*
Y65354D01*
X287303Y65334D02*
X287323Y65354D01*
X291732D01*
X288189Y43307D02*
X291732Y46850D01*
X291712Y61398D02*
X291732Y61417D01*
X329134Y45669D02*
Y65354D01*
X291712Y83051D02*
X291732Y83071D01*
Y46850D02*
Y61417D01*
X415354Y163779D02*
X425983D01*
X414961Y163386D02*
X415169Y163594D01*
X450787Y184646D02*
X463386D01*
X468898Y179134D01*
X500394Y125197D02*
Y125197D01*
Y125197D02*
X502165Y126969D01*
Y131102D01*
X489891Y155384D02*
X501968Y143307D01*
X489891Y155384D02*
X489891D01*
X489891D02*
X489972Y155465D01*
Y157921D01*
X483465Y180201D02*
Y185827D01*
Y180201D02*
X491732Y171933D01*
X494488Y156693D02*
Y157874D01*
X491732Y160630D02*
X494488Y157874D01*
X491732Y160630D02*
Y171933D01*
X488236Y159658D02*
X489972Y157921D01*
X488189Y159658D02*
X488236D01*
X488189D02*
Y170866D01*
X161811Y72835D02*
Y93601D01*
X137008Y110236D02*
X145176D01*
X161811Y93601D01*
D17*
X85236Y126575D02*
X98819D01*
X81681Y120264D02*
X94833D01*
X82236Y118319D02*
X111466D01*
X94194Y116535D02*
X112205D01*
X71557Y93898D02*
X94194Y116535D01*
X82677Y81417D02*
Y102757D01*
X94672Y114752D01*
X113177D01*
X95088Y112906D02*
X114087D01*
X93486Y111304D02*
X95088Y112906D01*
X93486Y99588D02*
Y111304D01*
X96063Y85827D02*
Y110236D01*
X111005Y105887D02*
X118504Y113386D01*
X55530Y96869D02*
X85236Y126575D01*
X55315Y93898D02*
X81681Y120264D01*
X57874Y93957D02*
X82236Y118319D01*
X113177Y114752D02*
X119488Y121063D01*
X114087Y112906D02*
X121457Y120275D01*
X88189Y94291D02*
X93486Y99588D01*
X45038Y96869D02*
X55530D01*
X44076Y95907D02*
X45038Y96869D01*
X62992Y93898D02*
X71557D01*
X94703Y140766D02*
Y166079D01*
X92520Y138583D02*
X94703Y140766D01*
X108267Y132283D02*
X109669D01*
X111614Y126772D02*
Y130338D01*
X109669Y132283D02*
X111614Y130338D01*
X99391Y170767D02*
X120356Y191732D01*
X97244Y166358D02*
X117860Y186975D01*
X126502D01*
X250787Y113779D02*
Y120079D01*
X247638Y110630D02*
X250787Y113779D01*
X247638Y110630D02*
X250546Y107721D01*
X250787D01*
X236024Y121851D02*
X244881Y130708D01*
X236024Y98425D02*
Y121851D01*
X244949Y109535D02*
Y121374D01*
X243349Y108873D02*
Y122036D01*
X247931Y126617D02*
X273003D01*
X243349Y122036D02*
X247931Y126617D01*
X248593Y125018D02*
X274440D01*
X244949Y121374D02*
X248593Y125018D01*
X244949Y109535D02*
X250547Y103937D01*
X243349Y108873D02*
X250334Y101888D01*
X273003Y126617D02*
X281587Y135201D01*
X274440Y125018D02*
X283544Y134121D01*
X250787Y107721D02*
X251423Y107087D01*
X266772Y151077D02*
X266840D01*
X263726Y148031D02*
X266772Y151077D01*
X262205Y148031D02*
X263726D01*
X265257Y146457D02*
X267980Y149180D01*
X126502Y186975D02*
X131260Y191732D01*
X257087Y97638D02*
X261811Y102362D01*
X254350Y97638D02*
X257087D01*
X363010Y90533D02*
X364173Y89370D01*
X354094Y90533D02*
X363010D01*
X189567Y117913D02*
X191732Y120079D01*
X189567Y114173D02*
Y117913D01*
Y114173D02*
X208483Y95257D01*
X238033D01*
X238994Y96219D01*
Y99880D01*
X240708Y101593D01*
X244725D01*
X250000Y96318D01*
Y89764D02*
Y96318D01*
X239173Y94137D02*
X242717Y97680D01*
Y98425D01*
X239173Y72835D02*
Y94137D01*
X242717Y86417D02*
Y87795D01*
Y86417D02*
X250000Y79134D01*
X183172Y114173D02*
X206382Y90963D01*
X232856D02*
X236024Y87795D01*
X206382Y90963D02*
X232856D01*
X178645Y80335D02*
X188090D01*
X146381Y112598D02*
X178645Y80335D01*
X467520Y124044D02*
X470078Y121485D01*
Y121260D02*
Y121485D01*
X467520Y124044D02*
Y126772D01*
X435039Y95903D02*
X448732Y109596D01*
X435039Y87795D02*
Y95903D01*
X430217Y82972D02*
X435039Y87795D01*
X430217Y80335D02*
Y82972D01*
X429939Y90533D02*
X431102Y89370D01*
X436024Y126772D02*
Y129975D01*
X434109Y131889D02*
X436024Y129975D01*
X432676Y131889D02*
X434109D01*
X439357Y111010D02*
X443307Y114961D01*
X435164Y111010D02*
X439357D01*
X420061Y95907D02*
X435164Y111010D01*
X420061Y91495D02*
Y95907D01*
Y91495D02*
X421023Y90533D01*
X432087Y124044D02*
Y126772D01*
X430859Y122816D02*
X432087Y124044D01*
X426987Y122816D02*
X430859D01*
X423228Y126575D02*
X426987Y122816D01*
X419488Y126575D02*
X423228D01*
X414868Y121955D02*
X419488Y126575D01*
X389248Y121955D02*
X414868D01*
X370049Y102756D02*
X389248Y121955D01*
X359981Y102756D02*
X370049D01*
X353132Y95907D02*
X359981Y102756D01*
X353132Y91495D02*
Y95907D01*
X121161Y80335D02*
Y81811D01*
X120884Y90533D02*
X122047Y89370D01*
X121161Y81811D02*
X126322Y86972D01*
X167016Y99266D02*
X195686D01*
X143558Y122724D02*
X167016Y99266D01*
X166819Y96961D02*
X195157D01*
X145718Y118061D02*
X166819Y96961D01*
X144724Y118061D02*
X145718D01*
X142534Y120252D02*
X144724Y118061D01*
X144900Y124222D02*
X147862Y121260D01*
X149606D01*
X144900Y124222D02*
Y126593D01*
X179134Y114173D02*
X183172D01*
X177165Y116142D02*
X179134Y114173D01*
X146850Y114567D02*
X167520Y93898D01*
X143701Y114567D02*
X146850D01*
X142913Y112598D02*
X146381D01*
X250334Y101888D02*
X253250D01*
X250547Y103937D02*
X254350D01*
X251423Y107087D02*
X254350D01*
X318897Y142126D02*
Y142449D01*
X189764Y124409D02*
X227165D01*
X233071Y118504D01*
X261811Y170615D02*
X268713D01*
X285313Y175317D02*
X290158Y170472D01*
X298819Y168681D02*
Y170079D01*
Y168681D02*
X312338Y155162D01*
X282993Y175317D02*
X285313D01*
X427953Y144095D02*
X432659Y148801D01*
X409449Y125591D02*
X427953Y144095D01*
X267980Y149180D02*
Y149685D01*
X276946Y165573D02*
X277577Y164943D01*
X275237Y165573D02*
X276946D01*
X275237Y165573D02*
X275237Y165573D01*
X273502Y165573D02*
X275237D01*
X271016Y168059D02*
X273502Y165573D01*
X269624Y166414D02*
X272846Y163193D01*
X96063Y85827D02*
X96457Y85433D01*
X100394D02*
X100787Y85827D01*
X290449Y110039D02*
Y113284D01*
X296457Y108406D02*
Y113386D01*
Y108406D02*
X301870Y102993D01*
X270763Y168059D02*
Y168565D01*
X268713Y170615D02*
X270763Y168565D01*
Y168059D02*
X271016D01*
X270718Y152171D02*
X274994D01*
X268232Y149685D02*
X270718Y152171D01*
X269447Y153937D02*
X276772D01*
X267027Y151517D02*
X269447Y153937D01*
X313424Y153563D02*
X315584Y151403D01*
Y151077D02*
Y151403D01*
X321609Y147200D02*
X333268Y135541D01*
X316678Y147200D02*
X321609D01*
X314698Y149180D02*
X316678Y147200D01*
X333268Y133071D02*
Y135541D01*
X310433Y101772D02*
X329134Y83071D01*
X310433Y101772D02*
Y107874D01*
X471456Y156693D02*
Y162401D01*
X471654Y162598D01*
X271461Y138995D02*
X275192Y142726D01*
X270491Y138995D02*
X271461D01*
X267717Y136221D02*
X270491Y138995D01*
X144900Y126593D02*
X145079Y126772D01*
X267980Y149685D02*
X268232D01*
X274994Y152171D02*
X276772Y150394D01*
X300394Y144250D02*
X304701Y139942D01*
X299114Y139961D02*
X301917Y137158D01*
X295979Y139961D02*
X299114D01*
X295923Y140017D02*
X295979Y139961D01*
X298303Y142108D02*
X299751D01*
X298070Y142341D02*
X298303Y142108D01*
X299751D02*
X303309Y138550D01*
X315584Y151077D02*
X315837D01*
X276161Y160236D02*
X276772D01*
X277577Y161042D01*
Y164943D01*
X253250Y101888D02*
X254350Y100787D01*
X269272Y107087D02*
X269291Y107106D01*
Y113780D01*
X274803D02*
X274803Y113780D01*
X184252Y124409D02*
Y128740D01*
X183172Y114173D02*
X184252D01*
X269272Y103937D02*
X270883D01*
X301870Y85433D02*
Y102993D01*
X149563Y93898D02*
X155512D01*
X121457D02*
X124723Y97164D01*
Y100321D01*
X121654Y103390D02*
X124723Y100321D01*
X126322Y86972D02*
Y100983D01*
X129921Y93898D02*
Y99646D01*
X481299Y153127D02*
X483245Y151181D01*
X481299Y153127D02*
Y156693D01*
X483268D02*
X483268Y156693D01*
X409941Y86614D02*
Y110138D01*
X409842Y110236D02*
X409941Y110138D01*
X405020D02*
X405118Y110236D01*
X355906Y76771D02*
X356299Y77165D01*
X422834Y76771D02*
X423228Y77165D01*
X457677Y126772D02*
X457720Y126729D01*
X255512Y76378D02*
X255906Y76771D01*
X405020Y86614D02*
Y110138D01*
X113779Y76771D02*
X114173Y77165D01*
X483245Y151181D02*
X483858D01*
X483268Y156693D02*
X487008D01*
X279368Y176411D02*
X279621D01*
Y175905D02*
Y176411D01*
Y175905D02*
X281808Y173718D01*
X280760Y177803D02*
X281013D01*
Y177297D02*
X282993Y175317D01*
X281013Y177297D02*
Y177803D01*
X282283Y170472D02*
Y170711D01*
X277976Y175019D02*
X282283Y170711D01*
X281808Y173718D02*
X282975D01*
X183465Y129528D02*
X184252Y128740D01*
X269291Y117717D02*
X270866Y119291D01*
X269291Y113780D02*
Y117717D01*
X314445Y149685D02*
X314698D01*
Y149180D02*
Y149685D01*
X469488Y126772D02*
Y132698D01*
X473011Y136221D01*
X469488Y156693D02*
Y160332D01*
X465551Y156693D02*
Y165451D01*
X311661Y168059D02*
X311661D01*
X467520Y156693D02*
Y160039D01*
X467477Y160081D02*
Y165787D01*
Y160081D02*
X467520Y160039D01*
X282975Y173718D02*
X286221Y170472D01*
X274803Y113780D02*
Y119291D01*
X284936Y132982D02*
X288583Y136629D01*
Y143307D01*
X286328Y131590D02*
X291414Y136677D01*
Y144564D02*
X291732Y144882D01*
X291414Y136677D02*
Y144564D01*
X314536Y155162D02*
X317229Y152469D01*
X312338Y155162D02*
X314536D01*
X303543Y147638D02*
X305118D01*
X311043Y153563D01*
X313424D01*
X308312Y155162D02*
X312338D01*
X304330Y151181D02*
X308312Y155162D01*
X269624Y166414D02*
Y166667D01*
X189764Y124409D02*
X190551Y125197D01*
Y129528D01*
X272846Y163193D02*
X275004D01*
X313053Y148294D02*
X318897Y142449D01*
X311661Y146902D02*
X315730Y142833D01*
Y141927D02*
Y142833D01*
X120356Y191732D02*
X121260D01*
X130315Y165354D02*
X131299Y164370D01*
Y156693D02*
Y164370D01*
X432659Y148801D02*
X438565D01*
X440945Y151181D01*
X463583Y156693D02*
Y165158D01*
X461614Y156693D02*
Y160725D01*
X461632Y160743D01*
Y164847D01*
X457677Y156693D02*
Y160433D01*
X459055Y161811D01*
X415169Y163594D02*
X415354Y163779D01*
X469076Y160743D02*
Y162879D01*
Y160743D02*
X469488Y160332D01*
X455709Y156693D02*
Y163189D01*
X456298Y163779D01*
X270883Y103937D02*
X278757Y111811D01*
X285610D01*
X288583Y127165D02*
X294997D01*
X299245Y118040D02*
X303740Y113544D01*
X285610Y111811D02*
X295864Y122065D01*
X290449Y113284D02*
X296850Y119685D01*
X295864Y122065D02*
X297836D01*
X299245Y120656D01*
Y118040D02*
Y120656D01*
X294997Y127165D02*
X300844Y121318D01*
Y118702D02*
Y121318D01*
X315730Y141927D02*
X318450Y139206D01*
X320472D01*
X339961Y133071D02*
X355137D01*
X361630Y139564D01*
X364446D01*
X368583Y143701D01*
X303740Y107874D02*
Y113544D01*
X300844Y118702D02*
X307185Y112361D01*
Y85433D02*
Y112361D01*
X531299Y150787D02*
X536221D01*
X53955Y90927D02*
X55118Y89764D01*
X45038Y90927D02*
X53955D01*
X44076Y91889D02*
X45038Y90927D01*
X96457Y131890D02*
X100591D01*
X44076Y91889D02*
Y95907D01*
X107677Y126772D02*
X107856Y126593D01*
X107677Y126163D02*
Y126772D01*
Y126163D02*
X107856Y125984D01*
Y126593D01*
X421023Y90533D02*
X429939D01*
X353132Y91495D02*
X354094Y90533D01*
X100591Y131890D02*
X105709Y126772D01*
X112361Y90533D02*
X120884D01*
X111005Y91889D02*
X112361Y90533D01*
X124624Y123144D02*
X125307Y123827D01*
X100787Y85827D02*
Y110236D01*
X98819Y126575D02*
X102577Y122816D01*
X106450D01*
X107856Y124222D01*
Y125984D01*
X111005Y91889D02*
Y105887D01*
X111466Y118319D02*
X115551Y122404D01*
X112205Y116535D02*
X117520Y121850D01*
X54232Y83760D02*
X57874Y87402D01*
X54232Y80335D02*
Y83760D01*
X57874Y87402D02*
Y93957D01*
X82677Y81417D02*
X83760Y80335D01*
X88189Y94291D02*
X88582Y93898D01*
X124624Y102681D02*
X126322Y100983D01*
X124624Y102681D02*
Y123144D01*
X121654Y103390D02*
Y116142D01*
X121260Y116535D02*
X121654Y116142D01*
X131803Y111657D02*
X149563Y93898D01*
X126464Y103103D02*
X129921Y99646D01*
X126464Y103103D02*
Y122134D01*
X129134Y112065D02*
Y120866D01*
Y112065D02*
X130112Y111087D01*
Y110957D02*
Y111087D01*
Y110957D02*
X131103Y109966D01*
X131233D01*
X150689Y90510D01*
X135236Y122067D02*
Y126772D01*
Y122067D02*
X135605Y121698D01*
Y121672D02*
Y121698D01*
Y121672D02*
X135632D01*
X137026Y120277D01*
X137205Y122360D02*
Y126772D01*
Y122360D02*
X138625Y120940D01*
Y119642D02*
Y120940D01*
Y119642D02*
X143701Y114567D01*
X137026Y118486D02*
Y120277D01*
Y118486D02*
X142913Y112598D01*
X167520Y93898D02*
X192913D01*
D19*
X512992Y143307D02*
X516535Y146850D01*
X505905Y136221D02*
X512992Y143307D01*
X121457Y141732D02*
X125787D01*
X223263Y148043D02*
X238366D01*
X222280Y150417D02*
X239349D01*
X220627Y148765D02*
X222280Y150417D01*
X239349D02*
X241002Y148765D01*
X204724D02*
X220627D01*
X221610Y146391D02*
X223263Y148043D01*
X238366D02*
X240018Y146391D01*
X241002Y148765D02*
X245613D01*
X240018Y146391D02*
X260300D01*
X197566D02*
X221610D01*
X198873Y148765D02*
X204724D01*
X260300Y146391D02*
X261034Y145658D01*
X190622Y153335D02*
X197566Y146391D01*
X243307Y154331D02*
X262252D01*
X266055Y158134D01*
X191732Y155905D02*
X198873Y148765D01*
X245613D02*
X245667Y148819D01*
X261417D01*
X241338Y129975D02*
Y130708D01*
X240944Y118504D02*
Y122441D01*
X233071Y121707D02*
X241338Y129975D01*
X240944Y122441D02*
X249212Y130708D01*
X261417Y148819D02*
X262205Y148031D01*
X233071Y118504D02*
Y121707D01*
X264161Y145658D02*
X264961Y146457D01*
X261034Y145658D02*
X264161D01*
X189764Y155905D02*
X191732D01*
X188699Y153335D02*
X190622D01*
X188276Y157393D02*
X189764Y155905D01*
X167235Y157393D02*
X188276D01*
X187495Y154539D02*
X188699Y153335D01*
X168712Y154539D02*
X187495D01*
X143110Y141732D02*
X151969D01*
X143110D02*
X143110D01*
X138779D02*
X143110D01*
X134449D02*
X138779D01*
X132283D02*
X134449D01*
X165441Y155599D02*
X167235Y157393D01*
X165441Y155203D02*
Y155599D01*
X151969Y141732D02*
X165441Y155203D01*
X266055Y158134D02*
X269945D01*
X233071Y114173D02*
Y118504D01*
X269945Y158134D02*
X275004Y163193D01*
X473011Y136221D02*
X505905D01*
X493898Y126969D02*
Y131102D01*
Y126969D02*
X495669Y125197D01*
X516535Y146850D02*
Y150787D01*
Y159055D01*
Y150787D02*
X524606D01*
X130118Y141732D02*
X132283D01*
X125787D02*
X130118D01*
D30*
X502165Y131102D02*
D03*
X493898D02*
D03*
D31*
X329134Y152953D02*
D03*
Y159646D02*
D03*
X47244Y93898D02*
D03*
Y87205D02*
D03*
X62992Y93898D02*
D03*
Y87205D02*
D03*
X88582Y93898D02*
D03*
Y87205D02*
D03*
X114173Y93898D02*
D03*
Y87205D02*
D03*
X129921Y93898D02*
D03*
Y87205D02*
D03*
X155512Y93898D02*
D03*
Y87205D02*
D03*
X192913Y93898D02*
D03*
Y87205D02*
D03*
X403543Y126575D02*
D03*
Y133268D02*
D03*
X356299Y93898D02*
D03*
Y87205D02*
D03*
X372047Y87204D02*
D03*
Y93897D02*
D03*
X501968Y87204D02*
D03*
Y93897D02*
D03*
X464567Y87204D02*
D03*
Y93898D02*
D03*
X531496Y87204D02*
D03*
Y93897D02*
D03*
X438976Y87204D02*
D03*
Y93897D02*
D03*
X397638Y87204D02*
D03*
Y93898D02*
D03*
X423228Y93898D02*
D03*
Y87205D02*
D03*
D32*
X339961Y133071D02*
D03*
X333268D02*
D03*
X215157Y87795D02*
D03*
X221850D02*
D03*
X236023Y98425D02*
D03*
X242717D02*
D03*
X236024Y87795D02*
D03*
X242717D02*
D03*
X284055Y92126D02*
D03*
X290748D02*
D03*
X303740Y108268D02*
D03*
X310433D02*
D03*
D33*
X269272Y103937D02*
D03*
Y107087D02*
D03*
Y100787D02*
D03*
Y97638D02*
D03*
X254350Y107087D02*
D03*
Y100787D02*
D03*
Y103937D02*
D03*
Y97638D02*
D03*
D35*
X308877Y144118D02*
D03*
X306093Y141334D02*
D03*
X296350Y131590D02*
D03*
X299133Y134374D02*
D03*
X317229Y152469D02*
D03*
X314445Y149685D02*
D03*
X315837Y151077D02*
D03*
X273800Y170843D02*
D03*
X272408Y169451D02*
D03*
X277976Y175019D02*
D03*
X266840Y163883D02*
D03*
X265448Y162491D02*
D03*
X271016Y168059D02*
D03*
X268232Y165275D02*
D03*
X269624Y166667D02*
D03*
X283544Y180587D02*
D03*
X286328Y183370D02*
D03*
X284936Y181978D02*
D03*
X282152Y179195D02*
D03*
X279368Y176411D02*
D03*
X280760Y177803D02*
D03*
X307485Y142726D02*
D03*
X297742Y132982D02*
D03*
X310269Y145510D02*
D03*
X300525Y135766D02*
D03*
X304701Y139942D02*
D03*
X303309Y138550D02*
D03*
X301917Y137158D02*
D03*
X313053Y148294D02*
D03*
X311661Y146902D02*
D03*
X275192Y172235D02*
D03*
X276584Y173627D02*
D03*
D36*
X286328Y131590D02*
D03*
X284936Y132982D02*
D03*
X283544Y134374D02*
D03*
X282152Y135766D02*
D03*
X280760Y137158D02*
D03*
X279368Y138550D02*
D03*
X277976Y139942D02*
D03*
X276584Y141334D02*
D03*
X275192Y142726D02*
D03*
X273800Y144118D02*
D03*
X272408Y145510D02*
D03*
X271016Y146902D02*
D03*
X269624Y148293D02*
D03*
X268232Y149685D02*
D03*
X266840Y151077D02*
D03*
X265448Y152469D02*
D03*
X317229Y162491D02*
D03*
X307485Y172235D02*
D03*
X306093Y173627D02*
D03*
X304701Y175019D02*
D03*
X303309Y176410D02*
D03*
X301917Y177803D02*
D03*
X300525Y179195D02*
D03*
X299133Y180587D02*
D03*
X297742Y181978D02*
D03*
X296350Y183370D02*
D03*
X315837Y163883D02*
D03*
X311661Y168059D02*
D03*
X310269Y169451D02*
D03*
X308877Y170843D02*
D03*
X313053Y166667D02*
D03*
X314445Y165275D02*
D03*
D37*
X456693Y141732D02*
D03*
X132283D02*
D03*
D38*
X430118Y126772D02*
D03*
X432087D02*
D03*
X434055D02*
D03*
X436024D02*
D03*
X437992D02*
D03*
X439960D02*
D03*
X441929D02*
D03*
X443898D02*
D03*
X445866D02*
D03*
X447835D02*
D03*
X449803D02*
D03*
X451772D02*
D03*
X453740D02*
D03*
X455709D02*
D03*
X457677D02*
D03*
X459646D02*
D03*
X461614D02*
D03*
X463583D02*
D03*
X465551D02*
D03*
X467520D02*
D03*
X469488D02*
D03*
X471457D02*
D03*
X473425D02*
D03*
X475394D02*
D03*
X477362D02*
D03*
X479331D02*
D03*
X481299D02*
D03*
X483268D02*
D03*
X430118Y156693D02*
D03*
X432087D02*
D03*
X434055D02*
D03*
X436024D02*
D03*
X437992D02*
D03*
X439960D02*
D03*
X441929D02*
D03*
X443898D02*
D03*
X445866D02*
D03*
X447835D02*
D03*
X449803D02*
D03*
X451772D02*
D03*
X453740D02*
D03*
X455709D02*
D03*
X457677D02*
D03*
X459646D02*
D03*
X461614D02*
D03*
X463583D02*
D03*
X465551D02*
D03*
X467520D02*
D03*
X469488D02*
D03*
X471457D02*
D03*
X473425D02*
D03*
X475394D02*
D03*
X477362D02*
D03*
X479331D02*
D03*
X481299D02*
D03*
X483268D02*
D03*
X105709Y126772D02*
D03*
X107677D02*
D03*
X109646D02*
D03*
X111614D02*
D03*
X113583D02*
D03*
X115551D02*
D03*
X117520D02*
D03*
X119488D02*
D03*
X121457D02*
D03*
X123425D02*
D03*
X125394D02*
D03*
X127362D02*
D03*
X129331D02*
D03*
X131299D02*
D03*
X133268D02*
D03*
X135236D02*
D03*
X137205D02*
D03*
X139173D02*
D03*
X141142D02*
D03*
X143110D02*
D03*
X145079D02*
D03*
X147047D02*
D03*
X149016D02*
D03*
X150984D02*
D03*
X152953D02*
D03*
X154921D02*
D03*
X156890D02*
D03*
X158858D02*
D03*
X105709Y156693D02*
D03*
X107677D02*
D03*
X109646D02*
D03*
X111614D02*
D03*
X113583D02*
D03*
X115551D02*
D03*
X129331D02*
D03*
X131299D02*
D03*
X133268D02*
D03*
X135236D02*
D03*
X137205D02*
D03*
X147047D02*
D03*
X150984D02*
D03*
X152953D02*
D03*
X154921D02*
D03*
X156890D02*
D03*
X158858D02*
D03*
X127362D02*
D03*
X121457D02*
D03*
X119488D02*
D03*
X117520D02*
D03*
X123425D02*
D03*
X125394D02*
D03*
X141142D02*
D03*
X139173D02*
D03*
X143110D02*
D03*
X145079D02*
D03*
X149016D02*
D03*
D39*
X265551Y182283D02*
D03*
X260433D02*
D03*
X265551Y177165D02*
D03*
X260433D02*
D03*
X269488Y113779D02*
D03*
X274606D02*
D03*
X184449Y114173D02*
D03*
X189567D02*
D03*
Y124409D02*
D03*
X184449D02*
D03*
D40*
X423228Y121457D02*
D03*
Y126575D02*
D03*
X255118Y170669D02*
D03*
Y175787D02*
D03*
X250000Y170669D02*
D03*
Y175787D02*
D03*
X98819Y121457D02*
D03*
Y126575D02*
D03*
D41*
X405512Y85433D02*
D03*
X409449D02*
D03*
X96457D02*
D03*
X100394D02*
D03*
X306299D02*
D03*
X302362D02*
D03*
D42*
X524606Y150787D02*
D03*
X531299D02*
D03*
D48*
X261811Y102362D02*
D03*
D69*
X261811Y109843D02*
D03*
Y107874D02*
D03*
D70*
X539370Y110236D02*
D03*
X39370Y177165D02*
D03*
D71*
X324803Y193307D02*
D03*
X336614D02*
D03*
X330709D02*
D03*
X318898D02*
D03*
X312992D02*
D03*
X342520D02*
D03*
X348425D02*
D03*
D72*
X239173Y51181D02*
D03*
X105315Y51181D02*
D03*
X75787Y72835D02*
D03*
X142717Y51181D02*
D03*
X172244Y51181D02*
D03*
X209646Y51181D02*
D03*
X239173Y72835D02*
D03*
X142717D02*
D03*
X209646D02*
D03*
X172244D02*
D03*
X75787Y51181D02*
D03*
X105315Y72835D02*
D03*
X481299Y51181D02*
D03*
X481299Y72835D02*
D03*
X518701D02*
D03*
X414370Y51181D02*
D03*
X384842Y51181D02*
D03*
X518701D02*
D03*
X414370Y72835D02*
D03*
X384842D02*
D03*
X346260Y72834D02*
D03*
X346260Y51181D02*
D03*
X308858Y72834D02*
D03*
X548228Y51181D02*
D03*
X451772Y51181D02*
D03*
Y72835D02*
D03*
X308858Y51181D02*
D03*
X548228Y72835D02*
D03*
D73*
X217618Y53681D02*
D03*
Y58681D02*
D03*
Y48681D02*
D03*
Y43681D02*
D03*
X83760Y53681D02*
D03*
Y58681D02*
D03*
Y48681D02*
D03*
Y43681D02*
D03*
X54232Y75335D02*
D03*
Y80335D02*
D03*
Y70335D02*
D03*
Y65335D02*
D03*
X121161Y53681D02*
D03*
Y58681D02*
D03*
Y48681D02*
D03*
Y43681D02*
D03*
X150689Y53681D02*
D03*
Y58681D02*
D03*
Y48681D02*
D03*
Y43681D02*
D03*
X188090Y53681D02*
D03*
Y58681D02*
D03*
Y48681D02*
D03*
Y43681D02*
D03*
X217618Y75335D02*
D03*
Y80335D02*
D03*
Y70335D02*
D03*
Y65335D02*
D03*
X121161Y75335D02*
D03*
Y80335D02*
D03*
Y70335D02*
D03*
Y65335D02*
D03*
X188090Y75335D02*
D03*
Y80335D02*
D03*
Y70335D02*
D03*
Y65335D02*
D03*
X150689Y75335D02*
D03*
Y80335D02*
D03*
Y70335D02*
D03*
Y65335D02*
D03*
X54232Y53681D02*
D03*
Y58681D02*
D03*
Y48681D02*
D03*
Y43681D02*
D03*
X83760Y75335D02*
D03*
Y80335D02*
D03*
Y70335D02*
D03*
Y65335D02*
D03*
X459744Y53681D02*
D03*
Y58681D02*
D03*
Y48681D02*
D03*
Y43681D02*
D03*
X459744Y75335D02*
D03*
Y80335D02*
D03*
Y70335D02*
D03*
Y65335D02*
D03*
X497146Y75335D02*
D03*
Y80335D02*
D03*
Y70335D02*
D03*
Y65335D02*
D03*
X392815Y53681D02*
D03*
Y58681D02*
D03*
Y48681D02*
D03*
Y43681D02*
D03*
X363287Y53681D02*
D03*
Y58681D02*
D03*
Y48681D02*
D03*
Y43681D02*
D03*
X497146Y53681D02*
D03*
Y58681D02*
D03*
Y48681D02*
D03*
Y43681D02*
D03*
X392815Y75335D02*
D03*
Y80335D02*
D03*
Y70335D02*
D03*
Y65335D02*
D03*
X363287Y75335D02*
D03*
Y80335D02*
D03*
Y70335D02*
D03*
Y65335D02*
D03*
X324705Y75335D02*
D03*
Y80335D02*
D03*
Y70335D02*
D03*
Y65334D02*
D03*
X324705Y53681D02*
D03*
Y58681D02*
D03*
Y48681D02*
D03*
Y43681D02*
D03*
X287303Y75335D02*
D03*
Y80335D02*
D03*
Y70335D02*
D03*
Y65334D02*
D03*
X526673Y53681D02*
D03*
Y58681D02*
D03*
Y48681D02*
D03*
Y43681D02*
D03*
X430217Y53681D02*
D03*
Y58681D02*
D03*
Y48681D02*
D03*
Y43681D02*
D03*
Y75335D02*
D03*
Y80335D02*
D03*
Y70335D02*
D03*
Y65335D02*
D03*
X287303Y53681D02*
D03*
Y58681D02*
D03*
Y48681D02*
D03*
Y43681D02*
D03*
X526673Y75335D02*
D03*
Y80335D02*
D03*
Y70335D02*
D03*
Y65335D02*
D03*
D74*
X233661Y51181D02*
D03*
X228346D02*
D03*
X99803Y51181D02*
D03*
X94488D02*
D03*
X70275Y72835D02*
D03*
X64960D02*
D03*
X137205Y51181D02*
D03*
X131890D02*
D03*
X166732Y51181D02*
D03*
X161417D02*
D03*
X204134Y51181D02*
D03*
X198819D02*
D03*
X233661Y72835D02*
D03*
X228346D02*
D03*
X137205D02*
D03*
X131890D02*
D03*
X204134D02*
D03*
X198819D02*
D03*
X166732D02*
D03*
X161417D02*
D03*
X70275Y51181D02*
D03*
X64960D02*
D03*
X99803Y72835D02*
D03*
X94488D02*
D03*
X475787Y51181D02*
D03*
X470472D02*
D03*
X475787Y72835D02*
D03*
X470472D02*
D03*
X513189D02*
D03*
X507874D02*
D03*
X408858Y51181D02*
D03*
X403543D02*
D03*
X379331Y51181D02*
D03*
X374016D02*
D03*
X513189D02*
D03*
X507874D02*
D03*
X408858Y72835D02*
D03*
X403543D02*
D03*
X379331D02*
D03*
X374016D02*
D03*
X340748Y72834D02*
D03*
X335433D02*
D03*
X340748Y51181D02*
D03*
X335433D02*
D03*
X303346Y72834D02*
D03*
X298031D02*
D03*
X542717Y51181D02*
D03*
X537401D02*
D03*
X446260Y51181D02*
D03*
X440945D02*
D03*
X446260Y72835D02*
D03*
X440945D02*
D03*
X303346Y51181D02*
D03*
X298031D02*
D03*
X542717Y72835D02*
D03*
X537401D02*
D03*
D75*
X91455Y136012D02*
X93863D01*
X89949Y137518D02*
X91455Y136012D01*
X89949Y137518D02*
Y139648D01*
X92913Y142612D01*
Y148425D01*
X94859Y137008D02*
X96850D01*
X93863Y136012D02*
X94859Y137008D01*
X90945Y147244D02*
X92126Y148425D01*
X92913D02*
Y180079D01*
X204724Y148765D02*
Y149213D01*
X247329Y120388D02*
Y120674D01*
X249600Y122945D01*
X251975D01*
X261811Y113108D01*
Y109843D02*
Y113108D01*
X92126Y148425D02*
X92913D01*
X111260Y189606D02*
Y191732D01*
X101732Y180079D02*
X111260Y189606D01*
X92913Y180079D02*
X101732D01*
X81260Y191732D02*
X92913Y180079D01*
D76*
X94703Y166079D02*
X99391Y170767D01*
X97244Y153937D02*
Y166358D01*
X304010Y117797D02*
X306626D01*
X398425Y126772D02*
X403346D01*
X293658Y175240D02*
X298819Y170079D01*
X321134Y161417D02*
X321654D01*
X318330Y158614D02*
X321134Y161417D01*
X314400Y158614D02*
X318330D01*
X293658Y176040D02*
Y176637D01*
X271654Y136614D02*
X276373Y141334D01*
X276584D01*
X403346Y126772D02*
X403543Y126575D01*
X403346Y126772D02*
X403346Y126772D01*
X303543Y167323D02*
Y168720D01*
X306392Y166622D02*
Y168358D01*
X308877Y170843D01*
X293658Y175240D02*
Y176040D01*
X295256Y177007D02*
X303543Y168720D01*
X295256Y177007D02*
Y179493D01*
X297742Y181978D01*
X306392Y166622D02*
X314400Y158614D01*
X293658Y176040D02*
Y180678D01*
X296350Y183370D01*
X286328Y183370D02*
X286925D01*
X293658Y176637D01*
X302443Y119364D02*
X304010Y117797D01*
X290551Y129921D02*
X295290D01*
X300650Y124561D01*
Y123774D02*
Y124561D01*
Y123774D02*
X302443Y121981D01*
Y121581D02*
Y121981D01*
X302443Y121581D02*
X302443Y121581D01*
X302443Y119364D02*
Y121581D01*
X348674Y108516D02*
X366929Y126772D01*
X398425D01*
X306626Y117797D02*
X315907Y108516D01*
X348674D01*
D77*
X139764Y17717D02*
D03*
X102362D02*
D03*
X177165D02*
D03*
X486221D02*
D03*
X263779Y17717D02*
D03*
X411417Y17717D02*
D03*
X448819D02*
D03*
X309055Y17717D02*
D03*
X19685Y94488D02*
D03*
X19685Y53150D02*
D03*
D78*
X216535Y114567D02*
D03*
X49213D02*
D03*
X9843Y15748D02*
D03*
X216535Y21654D02*
D03*
X525591Y114567D02*
D03*
X543307Y187008D02*
D03*
X525591Y21654D02*
D03*
X49213D02*
D03*
X9843Y187008D02*
D03*
X368110Y114567D02*
D03*
Y21654D02*
D03*
X543307Y15748D02*
D03*
D79*
X5906Y137697D02*
D03*
Y159154D02*
D03*
D80*
X17815Y138878D02*
D03*
Y157972D02*
D03*
D81*
X378583Y143701D02*
D03*
X368583D02*
D03*
X358583D02*
D03*
X348583D02*
D03*
X81260Y191732D02*
D03*
X91260D02*
D03*
X101260D02*
D03*
X111260D02*
D03*
X121260D02*
D03*
X131260D02*
D03*
X141260D02*
D03*
X151260D02*
D03*
X161260D02*
D03*
X171260D02*
D03*
X181260D02*
D03*
X191260D02*
D03*
X201260D02*
D03*
X211260D02*
D03*
X221260D02*
D03*
X231260D02*
D03*
X241260D02*
D03*
X376142D02*
D03*
X386142D02*
D03*
X396142D02*
D03*
X406142D02*
D03*
X416142D02*
D03*
X426142D02*
D03*
X436142D02*
D03*
X446142D02*
D03*
X456142D02*
D03*
X466142D02*
D03*
X476142D02*
D03*
D82*
X338583Y143701D02*
D03*
X71260Y191732D02*
D03*
X366142D02*
D03*
D83*
X418898Y6299D02*
D03*
X448898D02*
D03*
X478898D02*
D03*
X109843D02*
D03*
X139842D02*
D03*
X169843D02*
D03*
X7087Y58976D02*
D03*
Y88976D02*
D03*
X301260Y6299D02*
D03*
X271260D02*
D03*
D84*
X512992Y143307D02*
D03*
X116142Y147244D02*
D03*
X250787Y120079D02*
D03*
X247638Y110630D02*
D03*
X168504Y154330D02*
D03*
X153543Y147638D02*
D03*
X464567Y111023D02*
D03*
X398425Y126772D02*
D03*
X336614Y162205D02*
D03*
X177165Y116142D02*
D03*
X137008Y110236D02*
D03*
X422047Y131496D02*
D03*
X409449Y125591D02*
D03*
X190551Y129528D02*
D03*
X183465D02*
D03*
X270866Y119291D02*
D03*
X477165Y116142D02*
D03*
X274803Y119291D02*
D03*
X516535Y159055D02*
D03*
X500394Y125197D02*
D03*
X495669D02*
D03*
X507874Y183071D02*
D03*
X513779D02*
D03*
X519685D02*
D03*
X525591D02*
D03*
X527559Y177165D02*
D03*
Y171260D02*
D03*
X523622Y167323D02*
D03*
X516535D02*
D03*
X505905Y177165D02*
D03*
X483465Y185827D02*
D03*
X488189Y170866D02*
D03*
X501968Y143307D02*
D03*
X505905Y171260D02*
D03*
X509842Y167323D02*
D03*
X494488Y156693D02*
D03*
X96457Y131890D02*
D03*
D85*
X96063Y110236D02*
D03*
X112992Y150393D02*
D03*
X121457Y141732D02*
D03*
Y137401D02*
D03*
X101969Y157874D02*
D03*
X115354Y168110D02*
D03*
X263779Y106299D02*
D03*
Y102362D02*
D03*
X259842Y106299D02*
D03*
Y102362D02*
D03*
X263779Y98425D02*
D03*
X259842D02*
D03*
X147559Y25512D02*
D03*
X150787Y17717D02*
D03*
X139764Y28740D02*
D03*
X147559Y9922D02*
D03*
X139764Y6693D02*
D03*
X131969Y25512D02*
D03*
X128740Y17717D02*
D03*
X131969Y9922D02*
D03*
X110157Y25512D02*
D03*
X113386Y17717D02*
D03*
X102362Y28740D02*
D03*
X110157Y9922D02*
D03*
X102362Y6693D02*
D03*
X94567Y25512D02*
D03*
X91338Y17717D02*
D03*
X94567Y9922D02*
D03*
X184960Y25512D02*
D03*
X188189Y17717D02*
D03*
X177165Y28740D02*
D03*
X184960Y9922D02*
D03*
X177165Y6693D02*
D03*
X169370Y25512D02*
D03*
X166142Y17717D02*
D03*
X169370Y9922D02*
D03*
X494015Y25512D02*
D03*
X497244Y17717D02*
D03*
X486221Y28740D02*
D03*
X494015Y9922D02*
D03*
X486221Y6693D02*
D03*
X478426Y25512D02*
D03*
X475197Y17717D02*
D03*
X478426Y9922D02*
D03*
X271574Y25511D02*
D03*
X274803Y17717D02*
D03*
X263779Y28740D02*
D03*
X271574Y9922D02*
D03*
X263779Y6693D02*
D03*
X255984Y25511D02*
D03*
X252756Y17717D02*
D03*
X255984Y9922D02*
D03*
X419212Y25512D02*
D03*
X422441Y17717D02*
D03*
X411417Y28740D02*
D03*
X419212Y9922D02*
D03*
X411417Y6693D02*
D03*
X403622Y25512D02*
D03*
X400394Y17717D02*
D03*
X403622Y9922D02*
D03*
X456614Y25512D02*
D03*
X459842Y17717D02*
D03*
X448819Y28740D02*
D03*
X456614Y9922D02*
D03*
X448819Y6693D02*
D03*
X441024Y25512D02*
D03*
X437795Y17717D02*
D03*
X441024Y9922D02*
D03*
X316850Y25511D02*
D03*
X320079Y17717D02*
D03*
X309055Y28740D02*
D03*
X316850Y9922D02*
D03*
X309055Y6693D02*
D03*
X301260Y25511D02*
D03*
X298031Y17717D02*
D03*
X301260Y9922D02*
D03*
X27480Y102283D02*
D03*
X30709Y94488D02*
D03*
X19685Y105512D02*
D03*
X27480Y86693D02*
D03*
X19685Y83464D02*
D03*
X11890Y102283D02*
D03*
X8661Y94488D02*
D03*
X11890Y86693D02*
D03*
X27480Y60944D02*
D03*
X30709Y53150D02*
D03*
X19685Y64173D02*
D03*
X27480Y45355D02*
D03*
X19685Y42126D02*
D03*
X11890Y60944D02*
D03*
X8662Y53150D02*
D03*
X11890Y45355D02*
D03*
X409842Y110236D02*
D03*
X405118D02*
D03*
X261811Y80709D02*
D03*
X271654D02*
D03*
Y82677D02*
D03*
X261811D02*
D03*
X269685D02*
D03*
Y80709D02*
D03*
X279527Y82677D02*
D03*
Y80709D02*
D03*
X277559D02*
D03*
Y82677D02*
D03*
X267717Y80709D02*
D03*
Y82677D02*
D03*
X265748D02*
D03*
Y80709D02*
D03*
X275590Y82677D02*
D03*
Y80709D02*
D03*
X273622D02*
D03*
Y82677D02*
D03*
X263779Y80709D02*
D03*
Y82677D02*
D03*
X355906Y74803D02*
D03*
X353937Y76771D02*
D03*
X257480Y76378D02*
D03*
Y74409D02*
D03*
Y72441D02*
D03*
Y70472D02*
D03*
X259449D02*
D03*
Y72441D02*
D03*
Y74409D02*
D03*
Y76378D02*
D03*
X261417D02*
D03*
Y74409D02*
D03*
Y72441D02*
D03*
Y70472D02*
D03*
X263386D02*
D03*
Y72441D02*
D03*
Y74409D02*
D03*
Y76378D02*
D03*
X255512D02*
D03*
Y74409D02*
D03*
Y72441D02*
D03*
Y70472D02*
D03*
X353937Y70866D02*
D03*
Y72834D02*
D03*
Y74803D02*
D03*
X357874Y76771D02*
D03*
Y74803D02*
D03*
Y72834D02*
D03*
Y70866D02*
D03*
X355906D02*
D03*
Y72834D02*
D03*
Y76771D02*
D03*
X420866Y70866D02*
D03*
Y72834D02*
D03*
Y74803D02*
D03*
Y76771D02*
D03*
X424803D02*
D03*
Y74803D02*
D03*
Y72834D02*
D03*
Y70866D02*
D03*
X422834D02*
D03*
Y72834D02*
D03*
Y74803D02*
D03*
Y76771D02*
D03*
X487795Y70866D02*
D03*
Y72834D02*
D03*
Y74803D02*
D03*
Y76771D02*
D03*
X491732D02*
D03*
Y74803D02*
D03*
Y72834D02*
D03*
Y70866D02*
D03*
X489764D02*
D03*
Y72834D02*
D03*
Y74803D02*
D03*
Y76771D02*
D03*
X180709D02*
D03*
Y74803D02*
D03*
Y72834D02*
D03*
Y70866D02*
D03*
X182677D02*
D03*
Y72834D02*
D03*
Y74803D02*
D03*
Y76771D02*
D03*
X178740D02*
D03*
Y74803D02*
D03*
Y72834D02*
D03*
Y70866D02*
D03*
X113779Y76771D02*
D03*
Y74803D02*
D03*
Y72834D02*
D03*
Y70866D02*
D03*
X115748D02*
D03*
Y72834D02*
D03*
Y74803D02*
D03*
Y76771D02*
D03*
X111811D02*
D03*
Y74803D02*
D03*
Y72834D02*
D03*
Y70866D02*
D03*
X450197Y146063D02*
D03*
X445866D02*
D03*
X454528D02*
D03*
X445866Y137401D02*
D03*
Y141732D02*
D03*
X450197Y137401D02*
D03*
Y141732D02*
D03*
X454528Y137401D02*
D03*
Y141732D02*
D03*
X458858Y137401D02*
D03*
Y141732D02*
D03*
Y146063D02*
D03*
X463189Y137401D02*
D03*
Y141732D02*
D03*
Y146063D02*
D03*
X467520Y137401D02*
D03*
Y141732D02*
D03*
Y146063D02*
D03*
X143110Y141732D02*
D03*
X121457Y146063D02*
D03*
X125787Y137401D02*
D03*
Y141732D02*
D03*
Y146063D02*
D03*
X130118Y137401D02*
D03*
Y141732D02*
D03*
Y146063D02*
D03*
X134449Y137401D02*
D03*
Y141732D02*
D03*
Y146063D02*
D03*
X138779Y137401D02*
D03*
Y141732D02*
D03*
X143110Y137401D02*
D03*
Y146063D02*
D03*
X138779D02*
D03*
X135039Y166142D02*
D03*
X130315Y165354D02*
D03*
X425984Y151575D02*
D03*
X46850Y76771D02*
D03*
X44882D02*
D03*
X46850Y74803D02*
D03*
X44882D02*
D03*
Y72834D02*
D03*
Y70866D02*
D03*
X46850D02*
D03*
X48819D02*
D03*
X46850Y72834D02*
D03*
X48819D02*
D03*
Y76771D02*
D03*
Y74803D02*
D03*
X100787Y110236D02*
D03*
D86*
X108661Y135827D02*
D03*
X112992Y135039D02*
D03*
X116929Y133858D02*
D03*
X108267Y132283D02*
D03*
X90945Y147244D02*
D03*
X226772Y142913D02*
D03*
X232283Y142126D02*
D03*
X209449Y140945D02*
D03*
X239370Y140551D02*
D03*
X224410Y145276D02*
D03*
X218898Y161024D02*
D03*
X222834Y167716D02*
D03*
X227559Y161811D02*
D03*
X216409Y173495D02*
D03*
X214173Y171260D02*
D03*
X211023Y169685D02*
D03*
X207874Y159449D02*
D03*
X226772Y167717D02*
D03*
X225197Y174409D02*
D03*
X204724Y149213D02*
D03*
X237795Y130709D02*
D03*
X235826Y141732D02*
D03*
X243307Y154331D02*
D03*
X241338Y130708D02*
D03*
X240944Y118504D02*
D03*
X236614Y160236D02*
D03*
X238583Y170472D02*
D03*
X235039D02*
D03*
X245276Y140157D02*
D03*
X249212Y130708D02*
D03*
X247329Y120388D02*
D03*
X244881Y130708D02*
D03*
X228740Y174015D02*
D03*
X231102Y185039D02*
D03*
X218644Y175731D02*
D03*
X250787Y142913D02*
D03*
X90551Y129921D02*
D03*
X92520Y138583D02*
D03*
X200787Y159449D02*
D03*
X193701D02*
D03*
X194095Y171260D02*
D03*
X197244Y159449D02*
D03*
X204331D02*
D03*
X206299Y179921D02*
D03*
X200000D02*
D03*
X171653Y151575D02*
D03*
X174803Y150000D02*
D03*
X164368Y163047D02*
D03*
X162205Y165354D02*
D03*
X159055Y167323D02*
D03*
X173622Y178346D02*
D03*
X178347Y149606D02*
D03*
X181889Y149606D02*
D03*
X178347Y175591D02*
D03*
X186614Y149606D02*
D03*
X364173Y89370D02*
D03*
X191732Y120079D02*
D03*
X250000Y89764D02*
D03*
Y79134D02*
D03*
X470078Y121260D02*
D03*
X465747Y118110D02*
D03*
X453149Y120866D02*
D03*
X458267Y119291D02*
D03*
X446063Y117323D02*
D03*
X474803Y121260D02*
D03*
X431102Y89370D02*
D03*
X432676Y131889D02*
D03*
X443307Y114961D02*
D03*
X122047Y89370D02*
D03*
X105512Y171260D02*
D03*
X257087Y162992D02*
D03*
X247638Y159843D02*
D03*
X252362Y162205D02*
D03*
X182677Y172441D02*
D03*
X260630Y138976D02*
D03*
X226772Y185433D02*
D03*
X236614D02*
D03*
X255118Y139764D02*
D03*
X318897Y142126D02*
D03*
X402362Y144882D02*
D03*
X398425Y138583D02*
D03*
X402756Y152362D02*
D03*
X403543Y137795D02*
D03*
X408977Y155741D02*
D03*
X409449Y159055D02*
D03*
X412992Y156299D02*
D03*
X375590Y179921D02*
D03*
X373228Y172047D02*
D03*
X190157Y149606D02*
D03*
X218898Y179528D02*
D03*
X261811Y170615D02*
D03*
X269685Y176378D02*
D03*
X272047Y178740D02*
D03*
X307480Y185826D02*
D03*
X305512Y183071D02*
D03*
X289370Y177559D02*
D03*
X290158Y170472D02*
D03*
X298819Y170079D02*
D03*
X351968Y166535D02*
D03*
Y174409D02*
D03*
X353248Y171160D02*
D03*
X320866Y175984D02*
D03*
X361417Y181102D02*
D03*
X364173Y176771D02*
D03*
X358268Y185039D02*
D03*
X406693Y151575D02*
D03*
X330709Y189370D02*
D03*
X350394Y181890D02*
D03*
X325590Y172047D02*
D03*
X316535Y173622D02*
D03*
X321654Y161417D02*
D03*
X329133Y172441D02*
D03*
X331889Y170078D02*
D03*
X335433Y167717D02*
D03*
X348031Y171260D02*
D03*
X358651Y169291D02*
D03*
X313779Y183858D02*
D03*
X310236D02*
D03*
X275197Y163193D02*
D03*
X296457Y113386D02*
D03*
X255512Y181496D02*
D03*
X471654Y162598D02*
D03*
X271654Y136614D02*
D03*
X148031Y132283D02*
D03*
X300394Y144488D02*
D03*
X295923Y140017D02*
D03*
X298070Y142341D02*
D03*
X291732Y144882D02*
D03*
X267717Y136221D02*
D03*
X276772Y150394D02*
D03*
Y153937D02*
D03*
Y160236D02*
D03*
X476378Y132283D02*
D03*
X433071Y136221D02*
D03*
X437007Y135039D02*
D03*
X142534Y120252D02*
D03*
X483858Y151181D02*
D03*
X479134Y162303D02*
D03*
X472440Y132283D02*
D03*
X440945Y133465D02*
D03*
X487008Y156693D02*
D03*
X282283Y170472D02*
D03*
X481496Y133071D02*
D03*
X303543Y167323D02*
D03*
X439764Y163779D02*
D03*
X369685Y172047D02*
D03*
X286221Y170472D02*
D03*
X148031Y149606D02*
D03*
X288583Y143307D02*
D03*
X303543Y147638D02*
D03*
X304330Y151181D02*
D03*
X233071Y114173D02*
D03*
X116929Y177165D02*
D03*
X97244Y153937D02*
D03*
X435039Y144882D02*
D03*
X440945Y151181D02*
D03*
X435433Y151181D02*
D03*
X459055Y161811D02*
D03*
X422835Y160630D02*
D03*
X425983Y163779D02*
D03*
X414961Y163386D02*
D03*
X456298Y163779D02*
D03*
X450787Y184646D02*
D03*
X468898Y179134D02*
D03*
X91732Y169685D02*
D03*
X305118Y120472D02*
D03*
X310630Y130709D02*
D03*
X308268Y123228D02*
D03*
X288583Y127165D02*
D03*
X290551Y129921D02*
D03*
X296850Y119685D02*
D03*
X305118Y125590D02*
D03*
X319291Y129921D02*
D03*
X320078Y134645D02*
D03*
X320472Y139206D02*
D03*
X314961Y134646D02*
D03*
X314960Y129527D02*
D03*
X313779Y124803D02*
D03*
X325196Y133071D02*
D03*
X311417Y120472D02*
D03*
X320472Y119291D02*
D03*
X536221Y150787D02*
D03*
X55118Y89764D02*
D03*
X96850Y137008D02*
D03*
X46850Y79921D02*
D03*
X113779D02*
D03*
X355906D02*
D03*
X422835D02*
D03*
X118504Y113386D02*
D03*
X121260Y116535D02*
D03*
X129134Y120866D02*
D03*
X134646Y119291D02*
D03*
D87*
X240157Y56102D02*
D03*
X236220Y56693D02*
D03*
X240157Y51181D02*
D03*
X237697Y53445D02*
D03*
X234449D02*
D03*
X232677Y56693D02*
D03*
X231102Y53445D02*
D03*
X237795Y48917D02*
D03*
X240157Y46260D02*
D03*
X235827Y45669D02*
D03*
X234547Y48917D02*
D03*
X231201D02*
D03*
X232283Y45669D02*
D03*
X229134Y56693D02*
D03*
X227953Y48917D02*
D03*
X227854Y53445D02*
D03*
X228740Y45669D02*
D03*
X106299Y56102D02*
D03*
X102362Y56693D02*
D03*
X106299Y51181D02*
D03*
X103839Y53445D02*
D03*
X100591D02*
D03*
X98819Y56693D02*
D03*
X97244Y53445D02*
D03*
X103937Y48917D02*
D03*
X106299Y46260D02*
D03*
X101969Y45669D02*
D03*
X100689Y48917D02*
D03*
X97342D02*
D03*
X98425Y45669D02*
D03*
X95276Y56693D02*
D03*
X94095Y48917D02*
D03*
X93996Y53445D02*
D03*
X94882Y45669D02*
D03*
X173228Y56102D02*
D03*
X169291Y56693D02*
D03*
X173228Y51181D02*
D03*
X170768Y53445D02*
D03*
X167520D02*
D03*
X165748Y56693D02*
D03*
X164173Y53445D02*
D03*
X170866Y48917D02*
D03*
X173228Y46260D02*
D03*
X168898Y45669D02*
D03*
X167618Y48917D02*
D03*
X164272D02*
D03*
X165354Y45669D02*
D03*
X162205Y56693D02*
D03*
X161024Y48917D02*
D03*
X160925Y53445D02*
D03*
X161811Y45669D02*
D03*
X482283Y56102D02*
D03*
X478346Y56693D02*
D03*
X482283Y51181D02*
D03*
X479823Y53445D02*
D03*
X476575D02*
D03*
X474803Y56693D02*
D03*
X473228Y53445D02*
D03*
X479921Y48917D02*
D03*
X482283Y46260D02*
D03*
X477953Y45669D02*
D03*
X476673Y48917D02*
D03*
X473327D02*
D03*
X474409Y45669D02*
D03*
X471260Y56693D02*
D03*
X470079Y48917D02*
D03*
X469980Y53445D02*
D03*
X470866Y45669D02*
D03*
X415354Y56102D02*
D03*
X411417Y56693D02*
D03*
X415354Y51181D02*
D03*
X412894Y53445D02*
D03*
X409646D02*
D03*
X407874Y56693D02*
D03*
X406299Y53445D02*
D03*
X412992Y48917D02*
D03*
X415354Y46260D02*
D03*
X411024Y45669D02*
D03*
X409744Y48917D02*
D03*
X406398D02*
D03*
X407480Y45669D02*
D03*
X404331Y56693D02*
D03*
X403150Y48917D02*
D03*
X403051Y53445D02*
D03*
X403937Y45669D02*
D03*
X347244Y56102D02*
D03*
X343307Y56693D02*
D03*
X347244Y51181D02*
D03*
X344783Y53445D02*
D03*
X341535D02*
D03*
X339764Y56693D02*
D03*
X338189Y53445D02*
D03*
X344882Y48917D02*
D03*
X347244Y46260D02*
D03*
X342913Y45669D02*
D03*
X341634Y48917D02*
D03*
X338287D02*
D03*
X339370Y45669D02*
D03*
X336220Y56693D02*
D03*
X335039Y48917D02*
D03*
X334941Y53445D02*
D03*
X335827Y45669D02*
D03*
X549213Y56102D02*
D03*
X545275Y56693D02*
D03*
X549213Y51181D02*
D03*
X546752Y53445D02*
D03*
X543504D02*
D03*
X541732Y56693D02*
D03*
X540157Y53445D02*
D03*
X546850Y48917D02*
D03*
X549213Y46260D02*
D03*
X544882Y45669D02*
D03*
X543602Y48917D02*
D03*
X540256D02*
D03*
X541338Y45669D02*
D03*
X538189Y56693D02*
D03*
X537008Y48917D02*
D03*
X536909Y53445D02*
D03*
X537795Y45669D02*
D03*
M02*
