M48
;Layer_Color=9474304
;FILE_FORMAT=2:5
INCH,LZ
;TYPE=PLATED
T1F00S00C0.01181
T2F00S00C0.01378
T3F00S00C0.03543
T4F00S00C0.04724
T5F00S00C0.05118
T6F00S00C0.13386
;TYPE=NON_PLATED
T7F00S00C0.13386
%
T01
X0094882Y0045669
X0098425
X0101969
X0106299Y004626
X0161811Y0045669
X0165354
X0168898
X0173228Y004626
X022874Y0045669
X0232283
X0235827
X0240157Y004626
X0335827Y0045669
X033937
X0342913
X0347244Y004626
X0403937Y0045669
X040748
X0411024
X0415354Y004626
X0470866Y0045669
X0474409
X0477953
X0482283Y004626
X0537795Y0045669
X0541338
X0544882
X0549213Y004626
Y0051181
X054685Y0048917
X0543602
X0540256
X0537008
X0536909Y0053445
X0540157
X0543504
X0546752
X0545275Y0056693
X0541732
X0538189
X0549213Y0056102
X0536221Y0150787
X0483858Y0151181
X0487008Y0156693
X0479134Y0162303
X0471654Y0162598
X0459055Y0161811
X0456298Y0163779
X0439764Y0163779
X0440945Y0151181
X0435433Y0151181
X0435039Y0144882
X0433071Y0136221
X0432676Y0131889
X0437007Y0135039
X0440945Y0133465
X0445866Y0137401
X0450197
Y0141732
X0445866
Y0146063
X0450197
X0454528
Y0141732
Y0137401
X0458858
Y0141732
Y0146063
X0463189
Y0141732
Y0137401
X046752
Y0141732
Y0146063
X047244Y0132283
X0476378Y0132283
X0481496Y0133071
X0474803Y012126
X0470078Y012126
X0465747Y011811
X0458267Y0119291
X0453149Y0120866
X0446063Y0117323
X0443307Y0114961
X0431102Y008937
X0422835Y0079921
X0422834Y0076771
X0420866
Y0074803
X0422834
X0424803
Y0076771
Y0072834
Y0070866
X0422834
X0420866
Y0072834
X0422834
X0415354Y0056102
X0411417Y0056693
X0407874
X0404331
X0403051Y0053445
X0406299
X0409646
X0412894
X0412992Y0048917
X0409744
X0406398
X040315
X0415354Y0051181
X046998Y0053445
X0473228
X0476575
X0479823
X0479921Y0048917
X0476673
X0473327
X0470079
X047126Y0056693
X0474803
X0478346
X0482283Y0056102
Y0051181
X0487795Y0070866
Y0072834
Y0074803
Y0076771
X0489764
X0491732
Y0074803
X0489764
Y0072834
X0491732
Y0070866
X0489764
X0409842Y0110236
X0405118
X0403543Y0137795
X0398425Y0138583
X0402362Y0144882
X0402756Y0152362
X0406693Y0151575
X0408977Y0155741
X0409449Y0159055
X0412992Y0156299
X0414961Y0163386
X0422835Y016063
X0425983Y0163779
X0450787Y0184646
X0468898Y0179134
X037559Y0179921
X0373228Y0172047
X0369685
X0364173Y0176771
X0361417Y0181102
X0358268Y0185039
X0350394Y018189
X0351968Y0174409
X0353248Y017116
X0348031Y017126
X0351968Y0166535
X0358651Y0169291
X0335433Y0167717
X0331889Y0170078
X0329133Y0172441
X032559Y0172047
X0320866Y0175984
X0316535Y0173622
X0313779Y0183858
X0310236
X030748Y0185826
X0305512Y0183071
X0303543Y0167323
X0298819Y0170079
X0290158Y0170472
X0286221
X0282283
X028937Y0177559
X0272047Y017874
X0269685Y0176378
X0261811Y0170615
X0257087Y0162992
X0252362Y0162205
X0247638Y0159843
X0243307Y0154331
X0236614Y0160236
X0227559Y0161811
X0226772Y0167717
X0222834Y0167716
X0225197Y0174409
X022874Y0174015
X0235039Y0170472
X0238583
X0236614Y0185433
X0231102Y0185039
X0226772Y0185433
X0218898Y0179528
X0218644Y0175731
X0216409Y0173495
X0214173Y017126
X0211023Y0169685
X0218898Y0161024
X022441Y0145276
X0226772Y0142913
X0232283Y0142126
X0235826Y0141732
X023937Y0140551
X0245276Y0140157
X0250787Y0142913
X0255118Y0139764
X026063Y0138976
X0267717Y0136221
X0271654Y0136614
X0276772Y0150394
Y0153937
Y0160236
X0275197Y0163193
X0288583Y0143307
X0291732Y0144882
X029807Y0142341
X0300394Y0144488
X0303543Y0147638
X030433Y0151181
X0295923Y0140017
X0290551Y0129921
X0288583Y0127165
X029685Y0119685
X0296457Y0113386
X0305118Y0120472
X0305118Y012559
X0308268Y0123228
X0311417Y0120472
X0313779Y0124803
X031496Y0129527
X0319291Y0129921
X0320078Y0134645
X0320472Y0139206
X0318897Y0142126
X0314961Y0134646
X031063Y0130709
X0325196Y0133071
X0320472Y0119291
X0321654Y0161417
X0330709Y018937
X0255512Y0181496
X0249212Y0130708
X0244881
X0241338
X0237795Y0130709
X0240944Y0118504
X0247329Y0120388
X0233071Y0114173
X0259842Y0106299
X0263779
Y0102362
X0259842
Y0098425
X0263779
X0263779Y0082677
Y0080709
X0261811
Y0082677
X0265748
X0267717
Y0080709
X0265748
X0269685
X0271654
Y0082677
X0269685
X0273622
X027559
Y0080709
X0273622
X0277559
X0279527
Y0082677
X0277559
X0263386Y0076378
X0261417
X0259449
X025748
Y0074409
Y0072441
X0259449
Y0074409
X0261417
Y0072441
X0263386
Y0074409
Y0070472
X0261417
X0259449
X025748
X0255512
Y0072441
Y0074409
Y0076378
X025Y0079134
Y0089764
X0240157Y0056102
X023622Y0056693
X0232677
X0229134
X0227854Y0053445
X0231102
X0234449
X0237697
X0237795Y0048917
X0234547
X0231201
X0227953
X0240157Y0051181
X0334941Y0053445
X0338189
X0341535
X0344783
X0344882Y0048917
X0341634
X0338287
X0335039
X033622Y0056693
X0339764
X0343307
X0347244Y0056102
Y0051181
X0353937Y0070866
Y0072834
Y0074803
Y0076771
X0355906
Y0074803
X0357874
Y0076771
Y0072834
Y0070866
X0355906
Y0072834
X0355906Y0079921
X0364173Y008937
X0209449Y0140945
X0204724Y0149213
X0204331Y0159449
X0207874
X0200787
X0197244
X0193701
X0194095Y017126
X0182677Y0172441
X0178347Y0175591
X0173622Y0178346
X0162205Y0165354
X0164368Y0163047
X0159055Y0167323
X0135039Y0166142
X0130315Y0165354
X0115354Y016811
X0116929Y0177165
X0105512Y017126
X0091732Y0169685
X0097244Y0153937
X0101969Y0157874
X0112992Y0150393
X0121457Y0146063
X0125787
Y0141732
X0121457
Y0137401
X0125787
X0130118
Y0141732
Y0146063
X0134449
Y0141732
Y0137401
X0138779
Y0141732
X014311
Y0137401
Y0146063
X0138779
X0148031Y0149606
Y0132283
X0142534Y0120252
X0134646Y0119291
X0129134Y0120866
X012126Y0116535
X0118504Y0113386
X0100787Y0110236
X0096063
X0090551Y0129921
X009252Y0138583
X009685Y0137008
X0108661Y0135827
X0108267Y0132283
X0112992Y0135039
X0116929Y0133858
X0090945Y0147244
X0171653Y0151575
X0174803Y015
X0178347Y0149606
X0181889Y0149606
X0186614
X0190157Y0149606
X0191732Y0120079
X0182677Y0076771
Y0074803
X0180709
Y0076771
X017874
Y0074803
Y0072834
X0180709
Y0070866
X017874
X0182677
Y0072834
X0173228Y0056102
X0169291Y0056693
X0165748
X0162205
X0160925Y0053445
X0164173
X016752
X0170768
X0170866Y0048917
X0167618
X0164272
X0161024
X0173228Y0051181
X0106299
X0103937Y0048917
X0100689
X0097342
X0094095
X0093996Y0053445
X0097244
X0100591
X0103839
X0102362Y0056693
X0098819
X0095276
X0106299Y0056102
X0111811Y0070866
Y0072834
X0113779
Y0070866
X0115748
Y0072834
Y0074803
X0113779
Y0076771
X0115748
X0111811
Y0074803
X0113779Y0079921
X0122047Y008937
X0055118Y0089764
X02Y0179921
X0206299
X004685Y0079921
X004685Y0076771
Y0074803
X0048819
Y0076771
X0044882
Y0074803
Y0072834
Y0070866
X004685
X0048819
Y0072834
X004685
T02
X001189Y0045355
X0019685Y0042126
X002748Y0045355
X0094567Y0025512
X0102362Y002874
X0110157Y0025512
X0113386Y0017717
X0110157Y0009922
X0102362Y0006693
X0094567Y0009922
X0091338Y0017717
X012874
X0131969Y0025512
X0139764Y002874
X0147559Y0025512
X0150787Y0017717
X0147559Y0009922
X0139764Y0006693
X0131969Y0009922
X016937
X0166142Y0017717
X016937Y0025512
X0177165Y002874
X018496Y0025512
X0188189Y0017717
X018496Y0009922
X0177165Y0006693
X0255984Y0009922
X0252756Y0017717
X0255984Y0025511
X0263779Y002874
X0271574Y0025511
X0274803Y0017717
X0271574Y0009922
X0263779Y0006693
X030126Y0009922
X0298031Y0017717
X030126Y0025511
X0309055Y002874
X031685Y0025511
X0320079Y0017717
X031685Y0009922
X0309055Y0006693
X0403622Y0009922
X0411417Y0006693
X0419212Y0009922
X0422441Y0017717
X0419212Y0025512
X0411417Y002874
X0403622Y0025512
X0400394Y0017717
X0437795
X0441024Y0025512
X0448819Y002874
X0456614Y0025512
X0459842Y0017717
X0456614Y0009922
X0448819Y0006693
X0441024Y0009922
X0478426
X0475197Y0017717
X0478426Y0025512
X0486221Y002874
X0494015Y0025512
X0497244Y0017717
X0494015Y0009922
X0486221Y0006693
X0523622Y0167323
X0527559Y017126
Y0177165
X0525591Y0183071
X0519685
X0513779
X0507874
X0505905Y0177165
Y017126
X0509842Y0167323
X0516535
Y0159055
X0512992Y0143307
X0501968
X0500394Y0125197
X0495669
X0477165Y0116142
X0464567Y0111023
X0422047Y0131496
X0409449Y0125591
X0398425Y0126772
X0425984Y0151575
X0494488Y0156693
X0488189Y0170866
X0483465Y0185827
X0336614Y0162205
X0274803Y0119291
X0270866
X0250787Y0120079
X0247638Y011063
X0177165Y0116142
X0183465Y0129528
X0190551
X0168504Y015433
X0153543Y0147638
X0116142Y0147244
X0096457Y013189
X0137008Y0110236
X002748Y0102283
X0030709Y0094488
X002748Y0086693
X0019685Y0083464
X001189Y0086693
X0008661Y0094488
X001189Y0102283
X0019685Y0105512
X0019685Y0064173
X002748Y0060944
X0030709Y005315
X0008662
X001189Y0060944
T03
X0368583Y0143701
X0378583
X0376142Y0191732
X0366142
X0386142
X0396142
X0406142
X0416142
X0426142
X0436142
X0446142
X0456142
X0466142
X0476142
X0358583Y0143701
X0348583
X0338583
X024126Y0191732
X023126
X022126
X021126
X020126
X019126
X018126
X017126
X016126
X015126
X014126
X013126
X012126
X011126
X010126
X009126
X008126
X007126
T04
X0005906Y0137697
X0017815Y0138878
Y0157972
X0005906Y0159154
T05
X0109843Y0006299
X0139842
X0169843
X027126
X030126
X0418898
X0448898
X0478898
X0007087Y0058976
Y0088976
T06
X0102362Y0017717
X0139764
X0177165
X0263779Y0017717
X0309055
X0411417Y0017717
X0448819
X0486221
X0019685Y005315
X0019685Y0094488
T07
X0009843Y0015748
X0049213Y0021654
X0216535
X036811
X0525591
X0543307Y0015748
X0525591Y0114567
X0543307Y0187008
X036811Y0114567
X0216535
X0049213
X0009843Y0187008
M30
